%TF.GenerationSoftware,KiCad,Pcbnew,9.0.7*%
%TF.CreationDate,2026-02-19T07:24:56-06:00*%
%TF.ProjectId,wireless-uhat-tht-rpi-radio-module-2,77697265-6c65-4737-932d-756861742d74,rev?*%
%TF.SameCoordinates,Original*%
%TF.FileFunction,Drillmap*%
%TF.FilePolarity,Positive*%
%FSLAX45Y45*%
G04 Gerber Fmt 4.5, Leading zero omitted, Abs format (unit mm)*
G04 Created by KiCad (PCBNEW 9.0.7) date 2026-02-19 07:24:56*
%MOMM*%
%LPD*%
G01*
G04 APERTURE LIST*
%ADD10C,0.100000*%
%ADD11C,0.200000*%
G04 APERTURE END LIST*
D10*
X16200000Y-7000000D02*
G75*
G02*
X16500000Y-7300000I0J-300000D01*
G01*
X16500000Y-9700000D02*
X16500000Y-7300000D01*
X10000000Y-7300000D02*
X10000000Y-9700000D01*
X10300000Y-10000000D02*
G75*
G02*
X10000000Y-9700000I0J300000D01*
G01*
X10300000Y-10000000D02*
X16200000Y-10000000D01*
X16500000Y-9700000D02*
G75*
G02*
X16200000Y-10000000I-300000J0D01*
G01*
X10000000Y-7300000D02*
G75*
G02*
X10300000Y-7000000I300000J0D01*
G01*
X16200000Y-7000000D02*
X10300000Y-7000000D01*
D11*
D10*
X10239000Y-7699000D02*
X10269000Y-7729000D01*
X10269000Y-7699000D02*
X10239000Y-7729000D01*
X10239000Y-8207000D02*
X10269000Y-8237000D01*
X10269000Y-8207000D02*
X10239000Y-8237000D01*
X10239000Y-8715000D02*
X10269000Y-8745000D01*
X10269000Y-8715000D02*
X10239000Y-8745000D01*
X10239000Y-9223000D02*
X10269000Y-9253000D01*
X10269000Y-9223000D02*
X10239000Y-9253000D01*
X10594600Y-7699000D02*
X10624600Y-7729000D01*
X10624600Y-7699000D02*
X10594600Y-7729000D01*
X10696200Y-7064000D02*
X10726200Y-7094000D01*
X10726200Y-7064000D02*
X10696200Y-7094000D01*
X10747000Y-7826000D02*
X10777000Y-7856000D01*
X10777000Y-7826000D02*
X10747000Y-7856000D01*
X10747000Y-8207000D02*
X10777000Y-8237000D01*
X10777000Y-8207000D02*
X10747000Y-8237000D01*
X10747000Y-8715000D02*
X10777000Y-8745000D01*
X10777000Y-8715000D02*
X10747000Y-8745000D01*
X10747000Y-9223000D02*
X10777000Y-9253000D01*
X10777000Y-9223000D02*
X10747000Y-9253000D01*
X10747000Y-9731000D02*
X10777000Y-9761000D01*
X10777000Y-9731000D02*
X10747000Y-9761000D01*
X10899400Y-7953000D02*
X10929400Y-7983000D01*
X10929400Y-7953000D02*
X10899400Y-7983000D01*
X10950200Y-7064000D02*
X10980200Y-7094000D01*
X10980200Y-7064000D02*
X10950200Y-7094000D01*
X10950200Y-7343400D02*
X10980200Y-7373400D01*
X10980200Y-7343400D02*
X10950200Y-7373400D01*
X11001000Y-7775200D02*
X11031000Y-7805200D01*
X11031000Y-7775200D02*
X11001000Y-7805200D01*
X11077200Y-8359400D02*
X11107200Y-8389400D01*
X11107200Y-8359400D02*
X11077200Y-8389400D01*
X11102600Y-8029200D02*
X11132600Y-8059200D01*
X11132600Y-8029200D02*
X11102600Y-8059200D01*
X11204200Y-7546600D02*
X11234200Y-7576600D01*
X11234200Y-7546600D02*
X11204200Y-7576600D01*
X11255000Y-9223000D02*
X11285000Y-9253000D01*
X11285000Y-9223000D02*
X11255000Y-9253000D01*
X11255000Y-9731000D02*
X11285000Y-9761000D01*
X11285000Y-9731000D02*
X11255000Y-9761000D01*
X11305800Y-8029200D02*
X11335800Y-8059200D01*
X11335800Y-8029200D02*
X11305800Y-8059200D01*
X11305800Y-8384800D02*
X11335800Y-8414800D01*
X11335800Y-8384800D02*
X11305800Y-8414800D01*
X11305800Y-8969000D02*
X11335800Y-8999000D01*
X11335800Y-8969000D02*
X11305800Y-8999000D01*
X11407260Y-7826140D02*
X11437260Y-7856140D01*
X11437260Y-7826140D02*
X11407260Y-7856140D01*
X11509000Y-7953000D02*
X11539000Y-7983000D01*
X11539000Y-7953000D02*
X11509000Y-7983000D01*
X11509000Y-9223000D02*
X11539000Y-9253000D01*
X11539000Y-9223000D02*
X11509000Y-9253000D01*
X11509000Y-9477000D02*
X11539000Y-9507000D01*
X11539000Y-9477000D02*
X11509000Y-9507000D01*
X11534400Y-8334000D02*
X11564400Y-8364000D01*
X11564400Y-8334000D02*
X11534400Y-8364000D01*
X11661400Y-7775200D02*
X11691400Y-7805200D01*
X11691400Y-7775200D02*
X11661400Y-7805200D01*
X11686800Y-7318000D02*
X11716800Y-7348000D01*
X11716800Y-7318000D02*
X11686800Y-7348000D01*
X11686800Y-9350000D02*
X11716800Y-9380000D01*
X11716800Y-9350000D02*
X11686800Y-9380000D01*
X11763000Y-7953000D02*
X11793000Y-7983000D01*
X11793000Y-7953000D02*
X11763000Y-7983000D01*
X11763000Y-8613400D02*
X11793000Y-8643400D01*
X11793000Y-8613400D02*
X11763000Y-8643400D01*
X11788400Y-9527800D02*
X11818400Y-9557800D01*
X11818400Y-9527800D02*
X11788400Y-9557800D01*
X11839200Y-8359400D02*
X11869200Y-8389400D01*
X11869200Y-8359400D02*
X11839200Y-8389400D01*
X11864600Y-9908800D02*
X11894600Y-9938800D01*
X11894600Y-9908800D02*
X11864600Y-9938800D01*
X11890000Y-9350000D02*
X11920000Y-9380000D01*
X11920000Y-9350000D02*
X11890000Y-9380000D01*
X11890000Y-9680200D02*
X11920000Y-9710200D01*
X11920000Y-9680200D02*
X11890000Y-9710200D01*
X11915400Y-9019800D02*
X11945400Y-9049800D01*
X11945400Y-9019800D02*
X11915400Y-9049800D01*
X11966200Y-7089400D02*
X11996200Y-7119400D01*
X11996200Y-7089400D02*
X11966200Y-7119400D01*
X12017000Y-8638800D02*
X12047000Y-8668800D01*
X12047000Y-8638800D02*
X12017000Y-8668800D01*
X12144000Y-7775200D02*
X12174000Y-7805200D01*
X12174000Y-7775200D02*
X12144000Y-7805200D01*
X12194800Y-8638800D02*
X12224800Y-8668800D01*
X12224800Y-8638800D02*
X12194800Y-8668800D01*
X12194800Y-8867400D02*
X12224800Y-8897400D01*
X12224800Y-8867400D02*
X12194800Y-8897400D01*
X12220200Y-7572000D02*
X12250200Y-7602000D01*
X12250200Y-7572000D02*
X12220200Y-7602000D01*
X12271000Y-8384800D02*
X12301000Y-8414800D01*
X12301000Y-8384800D02*
X12271000Y-8414800D01*
X12296400Y-8054600D02*
X12326400Y-8084600D01*
X12326400Y-8054600D02*
X12296400Y-8084600D01*
X12474200Y-8715000D02*
X12504200Y-8745000D01*
X12504200Y-8715000D02*
X12474200Y-8745000D01*
X12652000Y-7775200D02*
X12682000Y-7805200D01*
X12682000Y-7775200D02*
X12652000Y-7805200D01*
X12728200Y-7114800D02*
X12758200Y-7144800D01*
X12758200Y-7114800D02*
X12728200Y-7144800D01*
X12829800Y-8664200D02*
X12859800Y-8694200D01*
X12859800Y-8664200D02*
X12829800Y-8694200D01*
X12855200Y-8080000D02*
X12885200Y-8110000D01*
X12885200Y-8080000D02*
X12855200Y-8110000D01*
X12855200Y-8359400D02*
X12885200Y-8389400D01*
X12885200Y-8359400D02*
X12855200Y-8389400D01*
X12880600Y-7724400D02*
X12910600Y-7754400D01*
X12910600Y-7724400D02*
X12880600Y-7754400D01*
X12982200Y-8511800D02*
X13012200Y-8541800D01*
X13012200Y-8511800D02*
X12982200Y-8541800D01*
X13058400Y-7648200D02*
X13088400Y-7678200D01*
X13088400Y-7648200D02*
X13058400Y-7678200D01*
X13083800Y-7749800D02*
X13113800Y-7779800D01*
X13113800Y-7749800D02*
X13083800Y-7779800D01*
X13109200Y-8715000D02*
X13139200Y-8745000D01*
X13139200Y-8715000D02*
X13109200Y-8745000D01*
X13160000Y-8613400D02*
X13190000Y-8643400D01*
X13190000Y-8613400D02*
X13160000Y-8643400D01*
X13210800Y-7775200D02*
X13240800Y-7805200D01*
X13240800Y-7775200D02*
X13210800Y-7805200D01*
X13210800Y-8080000D02*
X13240800Y-8110000D01*
X13240800Y-8080000D02*
X13210800Y-8110000D01*
X13210800Y-8461000D02*
X13240800Y-8491000D01*
X13240800Y-8461000D02*
X13210800Y-8491000D01*
X13314400Y-8816600D02*
X13344400Y-8846600D01*
X13344400Y-8816600D02*
X13314400Y-8846600D01*
X13464800Y-8334000D02*
X13494800Y-8364000D01*
X13494800Y-8334000D02*
X13464800Y-8364000D01*
X13490200Y-7343400D02*
X13520200Y-7373400D01*
X13520200Y-7343400D02*
X13490200Y-7373400D01*
X13490200Y-7927600D02*
X13520200Y-7957600D01*
X13520200Y-7927600D02*
X13490200Y-7957600D01*
X13490200Y-8867400D02*
X13520200Y-8897400D01*
X13520200Y-8867400D02*
X13490200Y-8897400D01*
X13566400Y-8562600D02*
X13596400Y-8592600D01*
X13596400Y-8562600D02*
X13566400Y-8592600D01*
X13591800Y-9224800D02*
X13621800Y-9254800D01*
X13621800Y-9224800D02*
X13591800Y-9254800D01*
X13641600Y-9909800D02*
X13671600Y-9939800D01*
X13671600Y-9909800D02*
X13641600Y-9939800D01*
X13642600Y-9477000D02*
X13672600Y-9507000D01*
X13672600Y-9477000D02*
X13642600Y-9507000D01*
X13642600Y-9731000D02*
X13672600Y-9761000D01*
X13672600Y-9731000D02*
X13642600Y-9761000D01*
X13666800Y-9009800D02*
X13696800Y-9039800D01*
X13696800Y-9009800D02*
X13666800Y-9039800D01*
X13744200Y-7089400D02*
X13774200Y-7119400D01*
X13774200Y-7089400D02*
X13744200Y-7119400D01*
X13795000Y-7699000D02*
X13825000Y-7729000D01*
X13825000Y-7699000D02*
X13795000Y-7729000D01*
X13795000Y-8715000D02*
X13825000Y-8745000D01*
X13825000Y-8715000D02*
X13795000Y-8745000D01*
X13896600Y-8156200D02*
X13926600Y-8186200D01*
X13926600Y-8156200D02*
X13896600Y-8186200D01*
X13896600Y-9019800D02*
X13926600Y-9049800D01*
X13926600Y-9019800D02*
X13896600Y-9049800D01*
X13896600Y-9426200D02*
X13926600Y-9456200D01*
X13926600Y-9426200D02*
X13896600Y-9456200D01*
X13896600Y-9527800D02*
X13926600Y-9557800D01*
X13926600Y-9527800D02*
X13896600Y-9557800D01*
X13922000Y-8511800D02*
X13952000Y-8541800D01*
X13952000Y-8511800D02*
X13922000Y-8541800D01*
X13998200Y-7140200D02*
X14028200Y-7170200D01*
X14028200Y-7140200D02*
X13998200Y-7170200D01*
X14049000Y-9731000D02*
X14079000Y-9761000D01*
X14079000Y-9731000D02*
X14049000Y-9761000D01*
X14099800Y-7699000D02*
X14129800Y-7729000D01*
X14129800Y-7699000D02*
X14099800Y-7729000D01*
X14099800Y-7953000D02*
X14129800Y-7983000D01*
X14129800Y-7953000D02*
X14099800Y-7983000D01*
X14099800Y-8511800D02*
X14129800Y-8541800D01*
X14129800Y-8511800D02*
X14099800Y-8541800D01*
X14099800Y-8715000D02*
X14129800Y-8745000D01*
X14129800Y-8715000D02*
X14099800Y-8745000D01*
X14099800Y-8969000D02*
X14129800Y-8999000D01*
X14129800Y-8969000D02*
X14099800Y-8999000D01*
X14201400Y-7343400D02*
X14231400Y-7373400D01*
X14231400Y-7343400D02*
X14201400Y-7373400D01*
X14201400Y-8232400D02*
X14231400Y-8262400D01*
X14231400Y-8232400D02*
X14201400Y-8262400D01*
X14252200Y-7572000D02*
X14282200Y-7602000D01*
X14282200Y-7572000D02*
X14252200Y-7602000D01*
X14303000Y-8715000D02*
X14333000Y-8745000D01*
X14333000Y-8715000D02*
X14303000Y-8745000D01*
X14303000Y-9223000D02*
X14333000Y-9253000D01*
X14333000Y-9223000D02*
X14303000Y-9253000D01*
X14303000Y-9477000D02*
X14333000Y-9507000D01*
X14333000Y-9477000D02*
X14303000Y-9507000D01*
X14557000Y-7699000D02*
X14587000Y-7729000D01*
X14587000Y-7699000D02*
X14557000Y-7729000D01*
X14557000Y-8207000D02*
X14587000Y-8237000D01*
X14587000Y-8207000D02*
X14557000Y-8237000D01*
X14557000Y-8715000D02*
X14587000Y-8745000D01*
X14587000Y-8715000D02*
X14557000Y-8745000D01*
X14557000Y-9223000D02*
X14587000Y-9253000D01*
X14587000Y-9223000D02*
X14557000Y-9253000D01*
X14557000Y-9731000D02*
X14587000Y-9761000D01*
X14587000Y-9731000D02*
X14557000Y-9761000D01*
X14633200Y-9426200D02*
X14663200Y-9456200D01*
X14663200Y-9426200D02*
X14633200Y-9456200D01*
X14684000Y-8511800D02*
X14714000Y-8541800D01*
X14714000Y-8511800D02*
X14684000Y-8541800D01*
X14811000Y-8715000D02*
X14841000Y-8745000D01*
X14841000Y-8715000D02*
X14811000Y-8745000D01*
X15065000Y-7699000D02*
X15095000Y-7729000D01*
X15095000Y-7699000D02*
X15065000Y-7729000D01*
X15065000Y-8207000D02*
X15095000Y-8237000D01*
X15095000Y-8207000D02*
X15065000Y-8237000D01*
X15065000Y-8715000D02*
X15095000Y-8745000D01*
X15095000Y-8715000D02*
X15065000Y-8745000D01*
X15065000Y-9223000D02*
X15095000Y-9253000D01*
X15095000Y-9223000D02*
X15065000Y-9253000D01*
X15065000Y-9731000D02*
X15095000Y-9761000D01*
X15095000Y-9731000D02*
X15065000Y-9761000D01*
X15268200Y-7343400D02*
X15298200Y-7373400D01*
X15298200Y-7343400D02*
X15268200Y-7373400D01*
X15319000Y-8511800D02*
X15349000Y-8541800D01*
X15349000Y-8511800D02*
X15319000Y-8541800D01*
X15319000Y-8715000D02*
X15349000Y-8745000D01*
X15349000Y-8715000D02*
X15319000Y-8745000D01*
X15522200Y-7114800D02*
X15552200Y-7144800D01*
X15552200Y-7114800D02*
X15522200Y-7144800D01*
X15573000Y-7699000D02*
X15603000Y-7729000D01*
X15603000Y-7699000D02*
X15573000Y-7729000D01*
X15573000Y-8207000D02*
X15603000Y-8237000D01*
X15603000Y-8207000D02*
X15573000Y-8237000D01*
X15573000Y-9223000D02*
X15603000Y-9253000D01*
X15603000Y-9223000D02*
X15573000Y-9253000D01*
X15573000Y-9731000D02*
X15603000Y-9761000D01*
X15603000Y-9731000D02*
X15573000Y-9761000D01*
X15649200Y-8740400D02*
X15679200Y-8770400D01*
X15679200Y-8740400D02*
X15649200Y-8770400D01*
X15725400Y-8511800D02*
X15755400Y-8541800D01*
X15755400Y-8511800D02*
X15725400Y-8541800D01*
X16081000Y-7699000D02*
X16111000Y-7729000D01*
X16111000Y-7699000D02*
X16081000Y-7729000D01*
X16081000Y-8207000D02*
X16111000Y-8237000D01*
X16111000Y-8207000D02*
X16081000Y-8237000D01*
X16081000Y-8715000D02*
X16111000Y-8745000D01*
X16111000Y-8715000D02*
X16081000Y-8745000D01*
X16081000Y-9223000D02*
X16111000Y-9253000D01*
X16111000Y-9223000D02*
X16081000Y-9253000D01*
X16106400Y-8511800D02*
X16136400Y-8541800D01*
X16136400Y-8511800D02*
X16106400Y-8541800D01*
X16411200Y-7699000D02*
X16441200Y-7729000D01*
X16441200Y-7699000D02*
X16411200Y-7729000D01*
X16411200Y-7953000D02*
X16441200Y-7983000D01*
X16441200Y-7953000D02*
X16411200Y-7983000D01*
X16411200Y-8918200D02*
X16441200Y-8948200D01*
X16441200Y-8918200D02*
X16411200Y-8948200D01*
X16411200Y-9223000D02*
X16441200Y-9253000D01*
X16441200Y-9223000D02*
X16411200Y-9253000D01*
X10887000Y-7223000D02*
G75*
G02*
X10787000Y-7223000I-50000J0D01*
G01*
X10787000Y-7223000D02*
G75*
G02*
X10887000Y-7223000I50000J0D01*
G01*
X10887000Y-7477000D02*
G75*
G02*
X10787000Y-7477000I-50000J0D01*
G01*
X10787000Y-7477000D02*
G75*
G02*
X10887000Y-7477000I50000J0D01*
G01*
X11141000Y-7223000D02*
G75*
G02*
X11041000Y-7223000I-50000J0D01*
G01*
X11041000Y-7223000D02*
G75*
G02*
X11141000Y-7223000I50000J0D01*
G01*
X11141000Y-7477000D02*
G75*
G02*
X11041000Y-7477000I-50000J0D01*
G01*
X11041000Y-7477000D02*
G75*
G02*
X11141000Y-7477000I50000J0D01*
G01*
X11395000Y-7223000D02*
G75*
G02*
X11295000Y-7223000I-50000J0D01*
G01*
X11295000Y-7223000D02*
G75*
G02*
X11395000Y-7223000I50000J0D01*
G01*
X11395000Y-7477000D02*
G75*
G02*
X11295000Y-7477000I-50000J0D01*
G01*
X11295000Y-7477000D02*
G75*
G02*
X11395000Y-7477000I50000J0D01*
G01*
X11649000Y-7223000D02*
G75*
G02*
X11549000Y-7223000I-50000J0D01*
G01*
X11549000Y-7223000D02*
G75*
G02*
X11649000Y-7223000I50000J0D01*
G01*
X11649000Y-7477000D02*
G75*
G02*
X11549000Y-7477000I-50000J0D01*
G01*
X11549000Y-7477000D02*
G75*
G02*
X11649000Y-7477000I50000J0D01*
G01*
X11903000Y-7223000D02*
G75*
G02*
X11803000Y-7223000I-50000J0D01*
G01*
X11803000Y-7223000D02*
G75*
G02*
X11903000Y-7223000I50000J0D01*
G01*
X11903000Y-7477000D02*
G75*
G02*
X11803000Y-7477000I-50000J0D01*
G01*
X11803000Y-7477000D02*
G75*
G02*
X11903000Y-7477000I50000J0D01*
G01*
X12157000Y-7223000D02*
G75*
G02*
X12057000Y-7223000I-50000J0D01*
G01*
X12057000Y-7223000D02*
G75*
G02*
X12157000Y-7223000I50000J0D01*
G01*
X12157000Y-7477000D02*
G75*
G02*
X12057000Y-7477000I-50000J0D01*
G01*
X12057000Y-7477000D02*
G75*
G02*
X12157000Y-7477000I50000J0D01*
G01*
X12411000Y-7223000D02*
G75*
G02*
X12311000Y-7223000I-50000J0D01*
G01*
X12311000Y-7223000D02*
G75*
G02*
X12411000Y-7223000I50000J0D01*
G01*
X12411000Y-7477000D02*
G75*
G02*
X12311000Y-7477000I-50000J0D01*
G01*
X12311000Y-7477000D02*
G75*
G02*
X12411000Y-7477000I50000J0D01*
G01*
X12665000Y-7223000D02*
G75*
G02*
X12565000Y-7223000I-50000J0D01*
G01*
X12565000Y-7223000D02*
G75*
G02*
X12665000Y-7223000I50000J0D01*
G01*
X12665000Y-7477000D02*
G75*
G02*
X12565000Y-7477000I-50000J0D01*
G01*
X12565000Y-7477000D02*
G75*
G02*
X12665000Y-7477000I50000J0D01*
G01*
X12919000Y-7223000D02*
G75*
G02*
X12819000Y-7223000I-50000J0D01*
G01*
X12819000Y-7223000D02*
G75*
G02*
X12919000Y-7223000I50000J0D01*
G01*
X12919000Y-7477000D02*
G75*
G02*
X12819000Y-7477000I-50000J0D01*
G01*
X12819000Y-7477000D02*
G75*
G02*
X12919000Y-7477000I50000J0D01*
G01*
X13173000Y-7223000D02*
G75*
G02*
X13073000Y-7223000I-50000J0D01*
G01*
X13073000Y-7223000D02*
G75*
G02*
X13173000Y-7223000I50000J0D01*
G01*
X13173000Y-7477000D02*
G75*
G02*
X13073000Y-7477000I-50000J0D01*
G01*
X13073000Y-7477000D02*
G75*
G02*
X13173000Y-7477000I50000J0D01*
G01*
X13427000Y-7223000D02*
G75*
G02*
X13327000Y-7223000I-50000J0D01*
G01*
X13327000Y-7223000D02*
G75*
G02*
X13427000Y-7223000I50000J0D01*
G01*
X13427000Y-7477000D02*
G75*
G02*
X13327000Y-7477000I-50000J0D01*
G01*
X13327000Y-7477000D02*
G75*
G02*
X13427000Y-7477000I50000J0D01*
G01*
X13681000Y-7223000D02*
G75*
G02*
X13581000Y-7223000I-50000J0D01*
G01*
X13581000Y-7223000D02*
G75*
G02*
X13681000Y-7223000I50000J0D01*
G01*
X13681000Y-7477000D02*
G75*
G02*
X13581000Y-7477000I-50000J0D01*
G01*
X13581000Y-7477000D02*
G75*
G02*
X13681000Y-7477000I50000J0D01*
G01*
X13935000Y-7223000D02*
G75*
G02*
X13835000Y-7223000I-50000J0D01*
G01*
X13835000Y-7223000D02*
G75*
G02*
X13935000Y-7223000I50000J0D01*
G01*
X13935000Y-7477000D02*
G75*
G02*
X13835000Y-7477000I-50000J0D01*
G01*
X13835000Y-7477000D02*
G75*
G02*
X13935000Y-7477000I50000J0D01*
G01*
X14189000Y-7223000D02*
G75*
G02*
X14089000Y-7223000I-50000J0D01*
G01*
X14089000Y-7223000D02*
G75*
G02*
X14189000Y-7223000I50000J0D01*
G01*
X14189000Y-7477000D02*
G75*
G02*
X14089000Y-7477000I-50000J0D01*
G01*
X14089000Y-7477000D02*
G75*
G02*
X14189000Y-7477000I50000J0D01*
G01*
X14443000Y-7223000D02*
G75*
G02*
X14343000Y-7223000I-50000J0D01*
G01*
X14343000Y-7223000D02*
G75*
G02*
X14443000Y-7223000I50000J0D01*
G01*
X14443000Y-7477000D02*
G75*
G02*
X14343000Y-7477000I-50000J0D01*
G01*
X14343000Y-7477000D02*
G75*
G02*
X14443000Y-7477000I50000J0D01*
G01*
X14520400Y-8930700D02*
G75*
G02*
X14420400Y-8930700I-50000J0D01*
G01*
X14420400Y-8930700D02*
G75*
G02*
X14520400Y-8930700I50000J0D01*
G01*
X14697000Y-7223000D02*
G75*
G02*
X14597000Y-7223000I-50000J0D01*
G01*
X14597000Y-7223000D02*
G75*
G02*
X14697000Y-7223000I50000J0D01*
G01*
X14697000Y-7477000D02*
G75*
G02*
X14597000Y-7477000I-50000J0D01*
G01*
X14597000Y-7477000D02*
G75*
G02*
X14697000Y-7477000I50000J0D01*
G01*
X14774400Y-8930700D02*
G75*
G02*
X14674400Y-8930700I-50000J0D01*
G01*
X14674400Y-8930700D02*
G75*
G02*
X14774400Y-8930700I50000J0D01*
G01*
X14951000Y-7223000D02*
G75*
G02*
X14851000Y-7223000I-50000J0D01*
G01*
X14851000Y-7223000D02*
G75*
G02*
X14951000Y-7223000I50000J0D01*
G01*
X14951000Y-7477000D02*
G75*
G02*
X14851000Y-7477000I-50000J0D01*
G01*
X14851000Y-7477000D02*
G75*
G02*
X14951000Y-7477000I50000J0D01*
G01*
X15028400Y-8930700D02*
G75*
G02*
X14928400Y-8930700I-50000J0D01*
G01*
X14928400Y-8930700D02*
G75*
G02*
X15028400Y-8930700I50000J0D01*
G01*
X15205000Y-7223000D02*
G75*
G02*
X15105000Y-7223000I-50000J0D01*
G01*
X15105000Y-7223000D02*
G75*
G02*
X15205000Y-7223000I50000J0D01*
G01*
X15205000Y-7477000D02*
G75*
G02*
X15105000Y-7477000I-50000J0D01*
G01*
X15105000Y-7477000D02*
G75*
G02*
X15205000Y-7477000I50000J0D01*
G01*
X15459000Y-7223000D02*
G75*
G02*
X15359000Y-7223000I-50000J0D01*
G01*
X15359000Y-7223000D02*
G75*
G02*
X15459000Y-7223000I50000J0D01*
G01*
X15459000Y-7477000D02*
G75*
G02*
X15359000Y-7477000I-50000J0D01*
G01*
X15359000Y-7477000D02*
G75*
G02*
X15459000Y-7477000I50000J0D01*
G01*
X15713000Y-7223000D02*
G75*
G02*
X15613000Y-7223000I-50000J0D01*
G01*
X15613000Y-7223000D02*
G75*
G02*
X15713000Y-7223000I50000J0D01*
G01*
X15713000Y-7477000D02*
G75*
G02*
X15613000Y-7477000I-50000J0D01*
G01*
X15613000Y-7477000D02*
G75*
G02*
X15713000Y-7477000I50000J0D01*
G01*
D11*
X10255777Y-10316484D02*
X10255777Y-10116484D01*
X10255777Y-10116484D02*
X10303396Y-10116484D01*
X10303396Y-10116484D02*
X10331967Y-10126008D01*
X10331967Y-10126008D02*
X10351015Y-10145055D01*
X10351015Y-10145055D02*
X10360539Y-10164103D01*
X10360539Y-10164103D02*
X10370063Y-10202198D01*
X10370063Y-10202198D02*
X10370063Y-10230770D01*
X10370063Y-10230770D02*
X10360539Y-10268865D01*
X10360539Y-10268865D02*
X10351015Y-10287912D01*
X10351015Y-10287912D02*
X10331967Y-10306960D01*
X10331967Y-10306960D02*
X10303396Y-10316484D01*
X10303396Y-10316484D02*
X10255777Y-10316484D01*
X10455777Y-10316484D02*
X10455777Y-10183150D01*
X10455777Y-10221246D02*
X10465301Y-10202198D01*
X10465301Y-10202198D02*
X10474824Y-10192674D01*
X10474824Y-10192674D02*
X10493872Y-10183150D01*
X10493872Y-10183150D02*
X10512920Y-10183150D01*
X10579586Y-10316484D02*
X10579586Y-10183150D01*
X10579586Y-10116484D02*
X10570063Y-10126008D01*
X10570063Y-10126008D02*
X10579586Y-10135531D01*
X10579586Y-10135531D02*
X10589110Y-10126008D01*
X10589110Y-10126008D02*
X10579586Y-10116484D01*
X10579586Y-10116484D02*
X10579586Y-10135531D01*
X10703396Y-10316484D02*
X10684348Y-10306960D01*
X10684348Y-10306960D02*
X10674824Y-10287912D01*
X10674824Y-10287912D02*
X10674824Y-10116484D01*
X10808158Y-10316484D02*
X10789110Y-10306960D01*
X10789110Y-10306960D02*
X10779586Y-10287912D01*
X10779586Y-10287912D02*
X10779586Y-10116484D01*
X11036729Y-10316484D02*
X11036729Y-10116484D01*
X11036729Y-10116484D02*
X11103396Y-10259341D01*
X11103396Y-10259341D02*
X11170063Y-10116484D01*
X11170063Y-10116484D02*
X11170063Y-10316484D01*
X11351015Y-10316484D02*
X11351015Y-10211722D01*
X11351015Y-10211722D02*
X11341491Y-10192674D01*
X11341491Y-10192674D02*
X11322443Y-10183150D01*
X11322443Y-10183150D02*
X11284348Y-10183150D01*
X11284348Y-10183150D02*
X11265301Y-10192674D01*
X11351015Y-10306960D02*
X11331967Y-10316484D01*
X11331967Y-10316484D02*
X11284348Y-10316484D01*
X11284348Y-10316484D02*
X11265301Y-10306960D01*
X11265301Y-10306960D02*
X11255777Y-10287912D01*
X11255777Y-10287912D02*
X11255777Y-10268865D01*
X11255777Y-10268865D02*
X11265301Y-10249817D01*
X11265301Y-10249817D02*
X11284348Y-10240293D01*
X11284348Y-10240293D02*
X11331967Y-10240293D01*
X11331967Y-10240293D02*
X11351015Y-10230770D01*
X11446253Y-10183150D02*
X11446253Y-10383150D01*
X11446253Y-10192674D02*
X11465301Y-10183150D01*
X11465301Y-10183150D02*
X11503396Y-10183150D01*
X11503396Y-10183150D02*
X11522443Y-10192674D01*
X11522443Y-10192674D02*
X11531967Y-10202198D01*
X11531967Y-10202198D02*
X11541491Y-10221246D01*
X11541491Y-10221246D02*
X11541491Y-10278389D01*
X11541491Y-10278389D02*
X11531967Y-10297436D01*
X11531967Y-10297436D02*
X11522443Y-10306960D01*
X11522443Y-10306960D02*
X11503396Y-10316484D01*
X11503396Y-10316484D02*
X11465301Y-10316484D01*
X11465301Y-10316484D02*
X11446253Y-10306960D01*
X11627205Y-10297436D02*
X11636729Y-10306960D01*
X11636729Y-10306960D02*
X11627205Y-10316484D01*
X11627205Y-10316484D02*
X11617682Y-10306960D01*
X11617682Y-10306960D02*
X11627205Y-10297436D01*
X11627205Y-10297436D02*
X11627205Y-10316484D01*
X11627205Y-10192674D02*
X11636729Y-10202198D01*
X11636729Y-10202198D02*
X11627205Y-10211722D01*
X11627205Y-10211722D02*
X11617682Y-10202198D01*
X11617682Y-10202198D02*
X11627205Y-10192674D01*
X11627205Y-10192674D02*
X11627205Y-10211722D01*
D10*
X9965000Y-10630000D02*
X9995000Y-10660000D01*
X9995000Y-10630000D02*
X9965000Y-10660000D01*
D11*
X10293872Y-10536484D02*
X10312920Y-10536484D01*
X10312920Y-10536484D02*
X10331967Y-10546008D01*
X10331967Y-10546008D02*
X10341491Y-10555531D01*
X10341491Y-10555531D02*
X10351015Y-10574579D01*
X10351015Y-10574579D02*
X10360539Y-10612674D01*
X10360539Y-10612674D02*
X10360539Y-10660293D01*
X10360539Y-10660293D02*
X10351015Y-10698389D01*
X10351015Y-10698389D02*
X10341491Y-10717436D01*
X10341491Y-10717436D02*
X10331967Y-10726960D01*
X10331967Y-10726960D02*
X10312920Y-10736484D01*
X10312920Y-10736484D02*
X10293872Y-10736484D01*
X10293872Y-10736484D02*
X10274824Y-10726960D01*
X10274824Y-10726960D02*
X10265301Y-10717436D01*
X10265301Y-10717436D02*
X10255777Y-10698389D01*
X10255777Y-10698389D02*
X10246253Y-10660293D01*
X10246253Y-10660293D02*
X10246253Y-10612674D01*
X10246253Y-10612674D02*
X10255777Y-10574579D01*
X10255777Y-10574579D02*
X10265301Y-10555531D01*
X10265301Y-10555531D02*
X10274824Y-10546008D01*
X10274824Y-10546008D02*
X10293872Y-10536484D01*
X10446253Y-10717436D02*
X10455777Y-10726960D01*
X10455777Y-10726960D02*
X10446253Y-10736484D01*
X10446253Y-10736484D02*
X10436729Y-10726960D01*
X10436729Y-10726960D02*
X10446253Y-10717436D01*
X10446253Y-10717436D02*
X10446253Y-10736484D01*
X10522444Y-10536484D02*
X10646253Y-10536484D01*
X10646253Y-10536484D02*
X10579586Y-10612674D01*
X10579586Y-10612674D02*
X10608158Y-10612674D01*
X10608158Y-10612674D02*
X10627205Y-10622198D01*
X10627205Y-10622198D02*
X10636729Y-10631722D01*
X10636729Y-10631722D02*
X10646253Y-10650770D01*
X10646253Y-10650770D02*
X10646253Y-10698389D01*
X10646253Y-10698389D02*
X10636729Y-10717436D01*
X10636729Y-10717436D02*
X10627205Y-10726960D01*
X10627205Y-10726960D02*
X10608158Y-10736484D01*
X10608158Y-10736484D02*
X10551015Y-10736484D01*
X10551015Y-10736484D02*
X10531967Y-10726960D01*
X10531967Y-10726960D02*
X10522444Y-10717436D01*
X10770063Y-10536484D02*
X10789110Y-10536484D01*
X10789110Y-10536484D02*
X10808158Y-10546008D01*
X10808158Y-10546008D02*
X10817682Y-10555531D01*
X10817682Y-10555531D02*
X10827205Y-10574579D01*
X10827205Y-10574579D02*
X10836729Y-10612674D01*
X10836729Y-10612674D02*
X10836729Y-10660293D01*
X10836729Y-10660293D02*
X10827205Y-10698389D01*
X10827205Y-10698389D02*
X10817682Y-10717436D01*
X10817682Y-10717436D02*
X10808158Y-10726960D01*
X10808158Y-10726960D02*
X10789110Y-10736484D01*
X10789110Y-10736484D02*
X10770063Y-10736484D01*
X10770063Y-10736484D02*
X10751015Y-10726960D01*
X10751015Y-10726960D02*
X10741491Y-10717436D01*
X10741491Y-10717436D02*
X10731967Y-10698389D01*
X10731967Y-10698389D02*
X10722444Y-10660293D01*
X10722444Y-10660293D02*
X10722444Y-10612674D01*
X10722444Y-10612674D02*
X10731967Y-10574579D01*
X10731967Y-10574579D02*
X10741491Y-10555531D01*
X10741491Y-10555531D02*
X10751015Y-10546008D01*
X10751015Y-10546008D02*
X10770063Y-10536484D01*
X10960539Y-10536484D02*
X10979586Y-10536484D01*
X10979586Y-10536484D02*
X10998634Y-10546008D01*
X10998634Y-10546008D02*
X11008158Y-10555531D01*
X11008158Y-10555531D02*
X11017682Y-10574579D01*
X11017682Y-10574579D02*
X11027205Y-10612674D01*
X11027205Y-10612674D02*
X11027205Y-10660293D01*
X11027205Y-10660293D02*
X11017682Y-10698389D01*
X11017682Y-10698389D02*
X11008158Y-10717436D01*
X11008158Y-10717436D02*
X10998634Y-10726960D01*
X10998634Y-10726960D02*
X10979586Y-10736484D01*
X10979586Y-10736484D02*
X10960539Y-10736484D01*
X10960539Y-10736484D02*
X10941491Y-10726960D01*
X10941491Y-10726960D02*
X10931967Y-10717436D01*
X10931967Y-10717436D02*
X10922444Y-10698389D01*
X10922444Y-10698389D02*
X10912920Y-10660293D01*
X10912920Y-10660293D02*
X10912920Y-10612674D01*
X10912920Y-10612674D02*
X10922444Y-10574579D01*
X10922444Y-10574579D02*
X10931967Y-10555531D01*
X10931967Y-10555531D02*
X10941491Y-10546008D01*
X10941491Y-10546008D02*
X10960539Y-10536484D01*
X11112920Y-10736484D02*
X11112920Y-10603150D01*
X11112920Y-10622198D02*
X11122444Y-10612674D01*
X11122444Y-10612674D02*
X11141491Y-10603150D01*
X11141491Y-10603150D02*
X11170063Y-10603150D01*
X11170063Y-10603150D02*
X11189110Y-10612674D01*
X11189110Y-10612674D02*
X11198634Y-10631722D01*
X11198634Y-10631722D02*
X11198634Y-10736484D01*
X11198634Y-10631722D02*
X11208158Y-10612674D01*
X11208158Y-10612674D02*
X11227205Y-10603150D01*
X11227205Y-10603150D02*
X11255777Y-10603150D01*
X11255777Y-10603150D02*
X11274824Y-10612674D01*
X11274824Y-10612674D02*
X11284348Y-10631722D01*
X11284348Y-10631722D02*
X11284348Y-10736484D01*
X11379586Y-10736484D02*
X11379586Y-10603150D01*
X11379586Y-10622198D02*
X11389110Y-10612674D01*
X11389110Y-10612674D02*
X11408158Y-10603150D01*
X11408158Y-10603150D02*
X11436729Y-10603150D01*
X11436729Y-10603150D02*
X11455777Y-10612674D01*
X11455777Y-10612674D02*
X11465301Y-10631722D01*
X11465301Y-10631722D02*
X11465301Y-10736484D01*
X11465301Y-10631722D02*
X11474824Y-10612674D01*
X11474824Y-10612674D02*
X11493872Y-10603150D01*
X11493872Y-10603150D02*
X11522443Y-10603150D01*
X11522443Y-10603150D02*
X11541491Y-10612674D01*
X11541491Y-10612674D02*
X11551015Y-10631722D01*
X11551015Y-10631722D02*
X11551015Y-10736484D01*
X11941491Y-10526960D02*
X11770063Y-10784103D01*
X12198634Y-10536484D02*
X12217682Y-10536484D01*
X12217682Y-10536484D02*
X12236729Y-10546008D01*
X12236729Y-10546008D02*
X12246253Y-10555531D01*
X12246253Y-10555531D02*
X12255777Y-10574579D01*
X12255777Y-10574579D02*
X12265301Y-10612674D01*
X12265301Y-10612674D02*
X12265301Y-10660293D01*
X12265301Y-10660293D02*
X12255777Y-10698389D01*
X12255777Y-10698389D02*
X12246253Y-10717436D01*
X12246253Y-10717436D02*
X12236729Y-10726960D01*
X12236729Y-10726960D02*
X12217682Y-10736484D01*
X12217682Y-10736484D02*
X12198634Y-10736484D01*
X12198634Y-10736484D02*
X12179586Y-10726960D01*
X12179586Y-10726960D02*
X12170063Y-10717436D01*
X12170063Y-10717436D02*
X12160539Y-10698389D01*
X12160539Y-10698389D02*
X12151015Y-10660293D01*
X12151015Y-10660293D02*
X12151015Y-10612674D01*
X12151015Y-10612674D02*
X12160539Y-10574579D01*
X12160539Y-10574579D02*
X12170063Y-10555531D01*
X12170063Y-10555531D02*
X12179586Y-10546008D01*
X12179586Y-10546008D02*
X12198634Y-10536484D01*
X12351015Y-10717436D02*
X12360539Y-10726960D01*
X12360539Y-10726960D02*
X12351015Y-10736484D01*
X12351015Y-10736484D02*
X12341491Y-10726960D01*
X12341491Y-10726960D02*
X12351015Y-10717436D01*
X12351015Y-10717436D02*
X12351015Y-10736484D01*
X12484348Y-10536484D02*
X12503396Y-10536484D01*
X12503396Y-10536484D02*
X12522444Y-10546008D01*
X12522444Y-10546008D02*
X12531967Y-10555531D01*
X12531967Y-10555531D02*
X12541491Y-10574579D01*
X12541491Y-10574579D02*
X12551015Y-10612674D01*
X12551015Y-10612674D02*
X12551015Y-10660293D01*
X12551015Y-10660293D02*
X12541491Y-10698389D01*
X12541491Y-10698389D02*
X12531967Y-10717436D01*
X12531967Y-10717436D02*
X12522444Y-10726960D01*
X12522444Y-10726960D02*
X12503396Y-10736484D01*
X12503396Y-10736484D02*
X12484348Y-10736484D01*
X12484348Y-10736484D02*
X12465301Y-10726960D01*
X12465301Y-10726960D02*
X12455777Y-10717436D01*
X12455777Y-10717436D02*
X12446253Y-10698389D01*
X12446253Y-10698389D02*
X12436729Y-10660293D01*
X12436729Y-10660293D02*
X12436729Y-10612674D01*
X12436729Y-10612674D02*
X12446253Y-10574579D01*
X12446253Y-10574579D02*
X12455777Y-10555531D01*
X12455777Y-10555531D02*
X12465301Y-10546008D01*
X12465301Y-10546008D02*
X12484348Y-10536484D01*
X12741491Y-10736484D02*
X12627206Y-10736484D01*
X12684348Y-10736484D02*
X12684348Y-10536484D01*
X12684348Y-10536484D02*
X12665301Y-10565055D01*
X12665301Y-10565055D02*
X12646253Y-10584103D01*
X12646253Y-10584103D02*
X12627206Y-10593627D01*
X12931967Y-10736484D02*
X12817682Y-10736484D01*
X12874825Y-10736484D02*
X12874825Y-10536484D01*
X12874825Y-10536484D02*
X12855777Y-10565055D01*
X12855777Y-10565055D02*
X12836729Y-10584103D01*
X12836729Y-10584103D02*
X12817682Y-10593627D01*
X13046253Y-10622198D02*
X13027206Y-10612674D01*
X13027206Y-10612674D02*
X13017682Y-10603150D01*
X13017682Y-10603150D02*
X13008158Y-10584103D01*
X13008158Y-10584103D02*
X13008158Y-10574579D01*
X13008158Y-10574579D02*
X13017682Y-10555531D01*
X13017682Y-10555531D02*
X13027206Y-10546008D01*
X13027206Y-10546008D02*
X13046253Y-10536484D01*
X13046253Y-10536484D02*
X13084348Y-10536484D01*
X13084348Y-10536484D02*
X13103396Y-10546008D01*
X13103396Y-10546008D02*
X13112920Y-10555531D01*
X13112920Y-10555531D02*
X13122444Y-10574579D01*
X13122444Y-10574579D02*
X13122444Y-10584103D01*
X13122444Y-10584103D02*
X13112920Y-10603150D01*
X13112920Y-10603150D02*
X13103396Y-10612674D01*
X13103396Y-10612674D02*
X13084348Y-10622198D01*
X13084348Y-10622198D02*
X13046253Y-10622198D01*
X13046253Y-10622198D02*
X13027206Y-10631722D01*
X13027206Y-10631722D02*
X13017682Y-10641246D01*
X13017682Y-10641246D02*
X13008158Y-10660293D01*
X13008158Y-10660293D02*
X13008158Y-10698389D01*
X13008158Y-10698389D02*
X13017682Y-10717436D01*
X13017682Y-10717436D02*
X13027206Y-10726960D01*
X13027206Y-10726960D02*
X13046253Y-10736484D01*
X13046253Y-10736484D02*
X13084348Y-10736484D01*
X13084348Y-10736484D02*
X13103396Y-10726960D01*
X13103396Y-10726960D02*
X13112920Y-10717436D01*
X13112920Y-10717436D02*
X13122444Y-10698389D01*
X13122444Y-10698389D02*
X13122444Y-10660293D01*
X13122444Y-10660293D02*
X13112920Y-10641246D01*
X13112920Y-10641246D02*
X13103396Y-10631722D01*
X13103396Y-10631722D02*
X13084348Y-10622198D01*
X13198634Y-10536484D02*
X13198634Y-10574579D01*
X13274825Y-10536484D02*
X13274825Y-10574579D01*
X13570063Y-10812674D02*
X13560539Y-10803150D01*
X13560539Y-10803150D02*
X13541491Y-10774579D01*
X13541491Y-10774579D02*
X13531968Y-10755531D01*
X13531968Y-10755531D02*
X13522444Y-10726960D01*
X13522444Y-10726960D02*
X13512920Y-10679341D01*
X13512920Y-10679341D02*
X13512920Y-10641246D01*
X13512920Y-10641246D02*
X13522444Y-10593627D01*
X13522444Y-10593627D02*
X13531968Y-10565055D01*
X13531968Y-10565055D02*
X13541491Y-10546008D01*
X13541491Y-10546008D02*
X13560539Y-10517436D01*
X13560539Y-10517436D02*
X13570063Y-10507912D01*
X13751015Y-10736484D02*
X13636729Y-10736484D01*
X13693872Y-10736484D02*
X13693872Y-10536484D01*
X13693872Y-10536484D02*
X13674825Y-10565055D01*
X13674825Y-10565055D02*
X13655777Y-10584103D01*
X13655777Y-10584103D02*
X13636729Y-10593627D01*
X13827206Y-10555531D02*
X13836729Y-10546008D01*
X13836729Y-10546008D02*
X13855777Y-10536484D01*
X13855777Y-10536484D02*
X13903396Y-10536484D01*
X13903396Y-10536484D02*
X13922444Y-10546008D01*
X13922444Y-10546008D02*
X13931968Y-10555531D01*
X13931968Y-10555531D02*
X13941491Y-10574579D01*
X13941491Y-10574579D02*
X13941491Y-10593627D01*
X13941491Y-10593627D02*
X13931968Y-10622198D01*
X13931968Y-10622198D02*
X13817682Y-10736484D01*
X13817682Y-10736484D02*
X13941491Y-10736484D01*
X14112920Y-10536484D02*
X14074825Y-10536484D01*
X14074825Y-10536484D02*
X14055777Y-10546008D01*
X14055777Y-10546008D02*
X14046253Y-10555531D01*
X14046253Y-10555531D02*
X14027206Y-10584103D01*
X14027206Y-10584103D02*
X14017682Y-10622198D01*
X14017682Y-10622198D02*
X14017682Y-10698389D01*
X14017682Y-10698389D02*
X14027206Y-10717436D01*
X14027206Y-10717436D02*
X14036729Y-10726960D01*
X14036729Y-10726960D02*
X14055777Y-10736484D01*
X14055777Y-10736484D02*
X14093872Y-10736484D01*
X14093872Y-10736484D02*
X14112920Y-10726960D01*
X14112920Y-10726960D02*
X14122444Y-10717436D01*
X14122444Y-10717436D02*
X14131968Y-10698389D01*
X14131968Y-10698389D02*
X14131968Y-10650770D01*
X14131968Y-10650770D02*
X14122444Y-10631722D01*
X14122444Y-10631722D02*
X14112920Y-10622198D01*
X14112920Y-10622198D02*
X14093872Y-10612674D01*
X14093872Y-10612674D02*
X14055777Y-10612674D01*
X14055777Y-10612674D02*
X14036729Y-10622198D01*
X14036729Y-10622198D02*
X14027206Y-10631722D01*
X14027206Y-10631722D02*
X14017682Y-10650770D01*
X14370063Y-10736484D02*
X14370063Y-10536484D01*
X14455777Y-10736484D02*
X14455777Y-10631722D01*
X14455777Y-10631722D02*
X14446253Y-10612674D01*
X14446253Y-10612674D02*
X14427206Y-10603150D01*
X14427206Y-10603150D02*
X14398634Y-10603150D01*
X14398634Y-10603150D02*
X14379587Y-10612674D01*
X14379587Y-10612674D02*
X14370063Y-10622198D01*
X14579587Y-10736484D02*
X14560539Y-10726960D01*
X14560539Y-10726960D02*
X14551015Y-10717436D01*
X14551015Y-10717436D02*
X14541491Y-10698389D01*
X14541491Y-10698389D02*
X14541491Y-10641246D01*
X14541491Y-10641246D02*
X14551015Y-10622198D01*
X14551015Y-10622198D02*
X14560539Y-10612674D01*
X14560539Y-10612674D02*
X14579587Y-10603150D01*
X14579587Y-10603150D02*
X14608158Y-10603150D01*
X14608158Y-10603150D02*
X14627206Y-10612674D01*
X14627206Y-10612674D02*
X14636730Y-10622198D01*
X14636730Y-10622198D02*
X14646253Y-10641246D01*
X14646253Y-10641246D02*
X14646253Y-10698389D01*
X14646253Y-10698389D02*
X14636730Y-10717436D01*
X14636730Y-10717436D02*
X14627206Y-10726960D01*
X14627206Y-10726960D02*
X14608158Y-10736484D01*
X14608158Y-10736484D02*
X14579587Y-10736484D01*
X14760539Y-10736484D02*
X14741491Y-10726960D01*
X14741491Y-10726960D02*
X14731968Y-10707912D01*
X14731968Y-10707912D02*
X14731968Y-10536484D01*
X14912920Y-10726960D02*
X14893872Y-10736484D01*
X14893872Y-10736484D02*
X14855777Y-10736484D01*
X14855777Y-10736484D02*
X14836730Y-10726960D01*
X14836730Y-10726960D02*
X14827206Y-10707912D01*
X14827206Y-10707912D02*
X14827206Y-10631722D01*
X14827206Y-10631722D02*
X14836730Y-10612674D01*
X14836730Y-10612674D02*
X14855777Y-10603150D01*
X14855777Y-10603150D02*
X14893872Y-10603150D01*
X14893872Y-10603150D02*
X14912920Y-10612674D01*
X14912920Y-10612674D02*
X14922444Y-10631722D01*
X14922444Y-10631722D02*
X14922444Y-10650770D01*
X14922444Y-10650770D02*
X14827206Y-10669817D01*
X14998634Y-10726960D02*
X15017682Y-10736484D01*
X15017682Y-10736484D02*
X15055777Y-10736484D01*
X15055777Y-10736484D02*
X15074825Y-10726960D01*
X15074825Y-10726960D02*
X15084349Y-10707912D01*
X15084349Y-10707912D02*
X15084349Y-10698389D01*
X15084349Y-10698389D02*
X15074825Y-10679341D01*
X15074825Y-10679341D02*
X15055777Y-10669817D01*
X15055777Y-10669817D02*
X15027206Y-10669817D01*
X15027206Y-10669817D02*
X15008158Y-10660293D01*
X15008158Y-10660293D02*
X14998634Y-10641246D01*
X14998634Y-10641246D02*
X14998634Y-10631722D01*
X14998634Y-10631722D02*
X15008158Y-10612674D01*
X15008158Y-10612674D02*
X15027206Y-10603150D01*
X15027206Y-10603150D02*
X15055777Y-10603150D01*
X15055777Y-10603150D02*
X15074825Y-10612674D01*
X15151015Y-10812674D02*
X15160539Y-10803150D01*
X15160539Y-10803150D02*
X15179587Y-10774579D01*
X15179587Y-10774579D02*
X15189111Y-10755531D01*
X15189111Y-10755531D02*
X15198634Y-10726960D01*
X15198634Y-10726960D02*
X15208158Y-10679341D01*
X15208158Y-10679341D02*
X15208158Y-10641246D01*
X15208158Y-10641246D02*
X15198634Y-10593627D01*
X15198634Y-10593627D02*
X15189111Y-10565055D01*
X15189111Y-10565055D02*
X15179587Y-10546008D01*
X15179587Y-10546008D02*
X15160539Y-10517436D01*
X15160539Y-10517436D02*
X15151015Y-10507912D01*
D10*
X9995000Y-10909000D02*
G75*
G02*
X9895000Y-10909000I-50000J0D01*
G01*
X9895000Y-10909000D02*
G75*
G02*
X9995000Y-10909000I50000J0D01*
G01*
D11*
X10360539Y-11000484D02*
X10246253Y-11000484D01*
X10303396Y-11000484D02*
X10303396Y-10800484D01*
X10303396Y-10800484D02*
X10284348Y-10829055D01*
X10284348Y-10829055D02*
X10265301Y-10848103D01*
X10265301Y-10848103D02*
X10246253Y-10857627D01*
X10446253Y-10981436D02*
X10455777Y-10990960D01*
X10455777Y-10990960D02*
X10446253Y-11000484D01*
X10446253Y-11000484D02*
X10436729Y-10990960D01*
X10436729Y-10990960D02*
X10446253Y-10981436D01*
X10446253Y-10981436D02*
X10446253Y-11000484D01*
X10579586Y-10800484D02*
X10598634Y-10800484D01*
X10598634Y-10800484D02*
X10617682Y-10810008D01*
X10617682Y-10810008D02*
X10627205Y-10819531D01*
X10627205Y-10819531D02*
X10636729Y-10838579D01*
X10636729Y-10838579D02*
X10646253Y-10876674D01*
X10646253Y-10876674D02*
X10646253Y-10924293D01*
X10646253Y-10924293D02*
X10636729Y-10962389D01*
X10636729Y-10962389D02*
X10627205Y-10981436D01*
X10627205Y-10981436D02*
X10617682Y-10990960D01*
X10617682Y-10990960D02*
X10598634Y-11000484D01*
X10598634Y-11000484D02*
X10579586Y-11000484D01*
X10579586Y-11000484D02*
X10560539Y-10990960D01*
X10560539Y-10990960D02*
X10551015Y-10981436D01*
X10551015Y-10981436D02*
X10541491Y-10962389D01*
X10541491Y-10962389D02*
X10531967Y-10924293D01*
X10531967Y-10924293D02*
X10531967Y-10876674D01*
X10531967Y-10876674D02*
X10541491Y-10838579D01*
X10541491Y-10838579D02*
X10551015Y-10819531D01*
X10551015Y-10819531D02*
X10560539Y-10810008D01*
X10560539Y-10810008D02*
X10579586Y-10800484D01*
X10770063Y-10800484D02*
X10789110Y-10800484D01*
X10789110Y-10800484D02*
X10808158Y-10810008D01*
X10808158Y-10810008D02*
X10817682Y-10819531D01*
X10817682Y-10819531D02*
X10827205Y-10838579D01*
X10827205Y-10838579D02*
X10836729Y-10876674D01*
X10836729Y-10876674D02*
X10836729Y-10924293D01*
X10836729Y-10924293D02*
X10827205Y-10962389D01*
X10827205Y-10962389D02*
X10817682Y-10981436D01*
X10817682Y-10981436D02*
X10808158Y-10990960D01*
X10808158Y-10990960D02*
X10789110Y-11000484D01*
X10789110Y-11000484D02*
X10770063Y-11000484D01*
X10770063Y-11000484D02*
X10751015Y-10990960D01*
X10751015Y-10990960D02*
X10741491Y-10981436D01*
X10741491Y-10981436D02*
X10731967Y-10962389D01*
X10731967Y-10962389D02*
X10722444Y-10924293D01*
X10722444Y-10924293D02*
X10722444Y-10876674D01*
X10722444Y-10876674D02*
X10731967Y-10838579D01*
X10731967Y-10838579D02*
X10741491Y-10819531D01*
X10741491Y-10819531D02*
X10751015Y-10810008D01*
X10751015Y-10810008D02*
X10770063Y-10800484D01*
X10960539Y-10800484D02*
X10979586Y-10800484D01*
X10979586Y-10800484D02*
X10998634Y-10810008D01*
X10998634Y-10810008D02*
X11008158Y-10819531D01*
X11008158Y-10819531D02*
X11017682Y-10838579D01*
X11017682Y-10838579D02*
X11027205Y-10876674D01*
X11027205Y-10876674D02*
X11027205Y-10924293D01*
X11027205Y-10924293D02*
X11017682Y-10962389D01*
X11017682Y-10962389D02*
X11008158Y-10981436D01*
X11008158Y-10981436D02*
X10998634Y-10990960D01*
X10998634Y-10990960D02*
X10979586Y-11000484D01*
X10979586Y-11000484D02*
X10960539Y-11000484D01*
X10960539Y-11000484D02*
X10941491Y-10990960D01*
X10941491Y-10990960D02*
X10931967Y-10981436D01*
X10931967Y-10981436D02*
X10922444Y-10962389D01*
X10922444Y-10962389D02*
X10912920Y-10924293D01*
X10912920Y-10924293D02*
X10912920Y-10876674D01*
X10912920Y-10876674D02*
X10922444Y-10838579D01*
X10922444Y-10838579D02*
X10931967Y-10819531D01*
X10931967Y-10819531D02*
X10941491Y-10810008D01*
X10941491Y-10810008D02*
X10960539Y-10800484D01*
X11112920Y-11000484D02*
X11112920Y-10867150D01*
X11112920Y-10886198D02*
X11122444Y-10876674D01*
X11122444Y-10876674D02*
X11141491Y-10867150D01*
X11141491Y-10867150D02*
X11170063Y-10867150D01*
X11170063Y-10867150D02*
X11189110Y-10876674D01*
X11189110Y-10876674D02*
X11198634Y-10895722D01*
X11198634Y-10895722D02*
X11198634Y-11000484D01*
X11198634Y-10895722D02*
X11208158Y-10876674D01*
X11208158Y-10876674D02*
X11227205Y-10867150D01*
X11227205Y-10867150D02*
X11255777Y-10867150D01*
X11255777Y-10867150D02*
X11274824Y-10876674D01*
X11274824Y-10876674D02*
X11284348Y-10895722D01*
X11284348Y-10895722D02*
X11284348Y-11000484D01*
X11379586Y-11000484D02*
X11379586Y-10867150D01*
X11379586Y-10886198D02*
X11389110Y-10876674D01*
X11389110Y-10876674D02*
X11408158Y-10867150D01*
X11408158Y-10867150D02*
X11436729Y-10867150D01*
X11436729Y-10867150D02*
X11455777Y-10876674D01*
X11455777Y-10876674D02*
X11465301Y-10895722D01*
X11465301Y-10895722D02*
X11465301Y-11000484D01*
X11465301Y-10895722D02*
X11474824Y-10876674D01*
X11474824Y-10876674D02*
X11493872Y-10867150D01*
X11493872Y-10867150D02*
X11522443Y-10867150D01*
X11522443Y-10867150D02*
X11541491Y-10876674D01*
X11541491Y-10876674D02*
X11551015Y-10895722D01*
X11551015Y-10895722D02*
X11551015Y-11000484D01*
X11941491Y-10790960D02*
X11770063Y-11048103D01*
X12198634Y-10800484D02*
X12217682Y-10800484D01*
X12217682Y-10800484D02*
X12236729Y-10810008D01*
X12236729Y-10810008D02*
X12246253Y-10819531D01*
X12246253Y-10819531D02*
X12255777Y-10838579D01*
X12255777Y-10838579D02*
X12265301Y-10876674D01*
X12265301Y-10876674D02*
X12265301Y-10924293D01*
X12265301Y-10924293D02*
X12255777Y-10962389D01*
X12255777Y-10962389D02*
X12246253Y-10981436D01*
X12246253Y-10981436D02*
X12236729Y-10990960D01*
X12236729Y-10990960D02*
X12217682Y-11000484D01*
X12217682Y-11000484D02*
X12198634Y-11000484D01*
X12198634Y-11000484D02*
X12179586Y-10990960D01*
X12179586Y-10990960D02*
X12170063Y-10981436D01*
X12170063Y-10981436D02*
X12160539Y-10962389D01*
X12160539Y-10962389D02*
X12151015Y-10924293D01*
X12151015Y-10924293D02*
X12151015Y-10876674D01*
X12151015Y-10876674D02*
X12160539Y-10838579D01*
X12160539Y-10838579D02*
X12170063Y-10819531D01*
X12170063Y-10819531D02*
X12179586Y-10810008D01*
X12179586Y-10810008D02*
X12198634Y-10800484D01*
X12351015Y-10981436D02*
X12360539Y-10990960D01*
X12360539Y-10990960D02*
X12351015Y-11000484D01*
X12351015Y-11000484D02*
X12341491Y-10990960D01*
X12341491Y-10990960D02*
X12351015Y-10981436D01*
X12351015Y-10981436D02*
X12351015Y-11000484D01*
X12484348Y-10800484D02*
X12503396Y-10800484D01*
X12503396Y-10800484D02*
X12522444Y-10810008D01*
X12522444Y-10810008D02*
X12531967Y-10819531D01*
X12531967Y-10819531D02*
X12541491Y-10838579D01*
X12541491Y-10838579D02*
X12551015Y-10876674D01*
X12551015Y-10876674D02*
X12551015Y-10924293D01*
X12551015Y-10924293D02*
X12541491Y-10962389D01*
X12541491Y-10962389D02*
X12531967Y-10981436D01*
X12531967Y-10981436D02*
X12522444Y-10990960D01*
X12522444Y-10990960D02*
X12503396Y-11000484D01*
X12503396Y-11000484D02*
X12484348Y-11000484D01*
X12484348Y-11000484D02*
X12465301Y-10990960D01*
X12465301Y-10990960D02*
X12455777Y-10981436D01*
X12455777Y-10981436D02*
X12446253Y-10962389D01*
X12446253Y-10962389D02*
X12436729Y-10924293D01*
X12436729Y-10924293D02*
X12436729Y-10876674D01*
X12436729Y-10876674D02*
X12446253Y-10838579D01*
X12446253Y-10838579D02*
X12455777Y-10819531D01*
X12455777Y-10819531D02*
X12465301Y-10810008D01*
X12465301Y-10810008D02*
X12484348Y-10800484D01*
X12617682Y-10800484D02*
X12741491Y-10800484D01*
X12741491Y-10800484D02*
X12674825Y-10876674D01*
X12674825Y-10876674D02*
X12703396Y-10876674D01*
X12703396Y-10876674D02*
X12722444Y-10886198D01*
X12722444Y-10886198D02*
X12731967Y-10895722D01*
X12731967Y-10895722D02*
X12741491Y-10914770D01*
X12741491Y-10914770D02*
X12741491Y-10962389D01*
X12741491Y-10962389D02*
X12731967Y-10981436D01*
X12731967Y-10981436D02*
X12722444Y-10990960D01*
X12722444Y-10990960D02*
X12703396Y-11000484D01*
X12703396Y-11000484D02*
X12646253Y-11000484D01*
X12646253Y-11000484D02*
X12627206Y-10990960D01*
X12627206Y-10990960D02*
X12617682Y-10981436D01*
X12836729Y-11000484D02*
X12874825Y-11000484D01*
X12874825Y-11000484D02*
X12893872Y-10990960D01*
X12893872Y-10990960D02*
X12903396Y-10981436D01*
X12903396Y-10981436D02*
X12922444Y-10952865D01*
X12922444Y-10952865D02*
X12931967Y-10914770D01*
X12931967Y-10914770D02*
X12931967Y-10838579D01*
X12931967Y-10838579D02*
X12922444Y-10819531D01*
X12922444Y-10819531D02*
X12912920Y-10810008D01*
X12912920Y-10810008D02*
X12893872Y-10800484D01*
X12893872Y-10800484D02*
X12855777Y-10800484D01*
X12855777Y-10800484D02*
X12836729Y-10810008D01*
X12836729Y-10810008D02*
X12827206Y-10819531D01*
X12827206Y-10819531D02*
X12817682Y-10838579D01*
X12817682Y-10838579D02*
X12817682Y-10886198D01*
X12817682Y-10886198D02*
X12827206Y-10905246D01*
X12827206Y-10905246D02*
X12836729Y-10914770D01*
X12836729Y-10914770D02*
X12855777Y-10924293D01*
X12855777Y-10924293D02*
X12893872Y-10924293D01*
X12893872Y-10924293D02*
X12912920Y-10914770D01*
X12912920Y-10914770D02*
X12922444Y-10905246D01*
X12922444Y-10905246D02*
X12931967Y-10886198D01*
X13103396Y-10867150D02*
X13103396Y-11000484D01*
X13055777Y-10790960D02*
X13008158Y-10933817D01*
X13008158Y-10933817D02*
X13131967Y-10933817D01*
X13198634Y-10800484D02*
X13198634Y-10838579D01*
X13274825Y-10800484D02*
X13274825Y-10838579D01*
X13570063Y-11076674D02*
X13560539Y-11067150D01*
X13560539Y-11067150D02*
X13541491Y-11038579D01*
X13541491Y-11038579D02*
X13531968Y-11019531D01*
X13531968Y-11019531D02*
X13522444Y-10990960D01*
X13522444Y-10990960D02*
X13512920Y-10943341D01*
X13512920Y-10943341D02*
X13512920Y-10905246D01*
X13512920Y-10905246D02*
X13522444Y-10857627D01*
X13522444Y-10857627D02*
X13531968Y-10829055D01*
X13531968Y-10829055D02*
X13541491Y-10810008D01*
X13541491Y-10810008D02*
X13560539Y-10781436D01*
X13560539Y-10781436D02*
X13570063Y-10771912D01*
X13731968Y-10867150D02*
X13731968Y-11000484D01*
X13684348Y-10790960D02*
X13636729Y-10933817D01*
X13636729Y-10933817D02*
X13760539Y-10933817D01*
X13817682Y-10800484D02*
X13941491Y-10800484D01*
X13941491Y-10800484D02*
X13874825Y-10876674D01*
X13874825Y-10876674D02*
X13903396Y-10876674D01*
X13903396Y-10876674D02*
X13922444Y-10886198D01*
X13922444Y-10886198D02*
X13931968Y-10895722D01*
X13931968Y-10895722D02*
X13941491Y-10914770D01*
X13941491Y-10914770D02*
X13941491Y-10962389D01*
X13941491Y-10962389D02*
X13931968Y-10981436D01*
X13931968Y-10981436D02*
X13922444Y-10990960D01*
X13922444Y-10990960D02*
X13903396Y-11000484D01*
X13903396Y-11000484D02*
X13846253Y-11000484D01*
X13846253Y-11000484D02*
X13827206Y-10990960D01*
X13827206Y-10990960D02*
X13817682Y-10981436D01*
X14179587Y-11000484D02*
X14179587Y-10800484D01*
X14265301Y-11000484D02*
X14265301Y-10895722D01*
X14265301Y-10895722D02*
X14255777Y-10876674D01*
X14255777Y-10876674D02*
X14236730Y-10867150D01*
X14236730Y-10867150D02*
X14208158Y-10867150D01*
X14208158Y-10867150D02*
X14189110Y-10876674D01*
X14189110Y-10876674D02*
X14179587Y-10886198D01*
X14389110Y-11000484D02*
X14370063Y-10990960D01*
X14370063Y-10990960D02*
X14360539Y-10981436D01*
X14360539Y-10981436D02*
X14351015Y-10962389D01*
X14351015Y-10962389D02*
X14351015Y-10905246D01*
X14351015Y-10905246D02*
X14360539Y-10886198D01*
X14360539Y-10886198D02*
X14370063Y-10876674D01*
X14370063Y-10876674D02*
X14389110Y-10867150D01*
X14389110Y-10867150D02*
X14417682Y-10867150D01*
X14417682Y-10867150D02*
X14436730Y-10876674D01*
X14436730Y-10876674D02*
X14446253Y-10886198D01*
X14446253Y-10886198D02*
X14455777Y-10905246D01*
X14455777Y-10905246D02*
X14455777Y-10962389D01*
X14455777Y-10962389D02*
X14446253Y-10981436D01*
X14446253Y-10981436D02*
X14436730Y-10990960D01*
X14436730Y-10990960D02*
X14417682Y-11000484D01*
X14417682Y-11000484D02*
X14389110Y-11000484D01*
X14570063Y-11000484D02*
X14551015Y-10990960D01*
X14551015Y-10990960D02*
X14541491Y-10971912D01*
X14541491Y-10971912D02*
X14541491Y-10800484D01*
X14722444Y-10990960D02*
X14703396Y-11000484D01*
X14703396Y-11000484D02*
X14665301Y-11000484D01*
X14665301Y-11000484D02*
X14646253Y-10990960D01*
X14646253Y-10990960D02*
X14636730Y-10971912D01*
X14636730Y-10971912D02*
X14636730Y-10895722D01*
X14636730Y-10895722D02*
X14646253Y-10876674D01*
X14646253Y-10876674D02*
X14665301Y-10867150D01*
X14665301Y-10867150D02*
X14703396Y-10867150D01*
X14703396Y-10867150D02*
X14722444Y-10876674D01*
X14722444Y-10876674D02*
X14731968Y-10895722D01*
X14731968Y-10895722D02*
X14731968Y-10914770D01*
X14731968Y-10914770D02*
X14636730Y-10933817D01*
X14808158Y-10990960D02*
X14827206Y-11000484D01*
X14827206Y-11000484D02*
X14865301Y-11000484D01*
X14865301Y-11000484D02*
X14884349Y-10990960D01*
X14884349Y-10990960D02*
X14893872Y-10971912D01*
X14893872Y-10971912D02*
X14893872Y-10962389D01*
X14893872Y-10962389D02*
X14884349Y-10943341D01*
X14884349Y-10943341D02*
X14865301Y-10933817D01*
X14865301Y-10933817D02*
X14836730Y-10933817D01*
X14836730Y-10933817D02*
X14817682Y-10924293D01*
X14817682Y-10924293D02*
X14808158Y-10905246D01*
X14808158Y-10905246D02*
X14808158Y-10895722D01*
X14808158Y-10895722D02*
X14817682Y-10876674D01*
X14817682Y-10876674D02*
X14836730Y-10867150D01*
X14836730Y-10867150D02*
X14865301Y-10867150D01*
X14865301Y-10867150D02*
X14884349Y-10876674D01*
X14960539Y-11076674D02*
X14970063Y-11067150D01*
X14970063Y-11067150D02*
X14989111Y-11038579D01*
X14989111Y-11038579D02*
X14998634Y-11019531D01*
X14998634Y-11019531D02*
X15008158Y-10990960D01*
X15008158Y-10990960D02*
X15017682Y-10943341D01*
X15017682Y-10943341D02*
X15017682Y-10905246D01*
X15017682Y-10905246D02*
X15008158Y-10857627D01*
X15008158Y-10857627D02*
X14998634Y-10829055D01*
X14998634Y-10829055D02*
X14989111Y-10810008D01*
X14989111Y-10810008D02*
X14970063Y-10781436D01*
X14970063Y-10781436D02*
X14960539Y-10771912D01*
M02*
