%TF.GenerationSoftware,KiCad,Pcbnew,9.0.7*%
%TF.CreationDate,2026-02-20T19:56:07-06:00*%
%TF.ProjectId,wireless-uhat-tht-rpi-radio-module-2,77697265-6c65-4737-932d-756861742d74,1.2.0*%
%TF.SameCoordinates,Original*%
%TF.FileFunction,Drillmap*%
%TF.FilePolarity,Positive*%
%FSLAX45Y45*%
G04 Gerber Fmt 4.5, Leading zero omitted, Abs format (unit mm)*
G04 Created by KiCad (PCBNEW 9.0.7) date 2026-02-20 19:56:07*
%MOMM*%
%LPD*%
G01*
G04 APERTURE LIST*
%ADD10C,0.100000*%
%ADD11C,0.200000*%
G04 APERTURE END LIST*
D10*
X16200000Y-7000000D02*
G75*
G02*
X16500000Y-7300000I0J-300000D01*
G01*
X16500000Y-9700000D02*
X16500000Y-7300000D01*
X10000000Y-7300000D02*
X10000000Y-9700000D01*
X10300000Y-10000000D02*
G75*
G02*
X10000000Y-9700000I0J300000D01*
G01*
X10300000Y-10000000D02*
X16200000Y-10000000D01*
X16500000Y-9700000D02*
G75*
G02*
X16200000Y-10000000I-300000J0D01*
G01*
X10000000Y-7300000D02*
G75*
G02*
X10300000Y-7000000I300000J0D01*
G01*
X16200000Y-7000000D02*
X10300000Y-7000000D01*
D11*
D10*
X10063500Y-7701300D02*
X10088900Y-7726700D01*
X10088900Y-7701300D02*
X10063500Y-7726700D01*
X10063500Y-7955300D02*
X10088900Y-7980700D01*
X10088900Y-7955300D02*
X10063500Y-7980700D01*
X10063500Y-8209300D02*
X10088900Y-8234700D01*
X10088900Y-8209300D02*
X10063500Y-8234700D01*
X10063500Y-8463300D02*
X10088900Y-8488700D01*
X10088900Y-8463300D02*
X10063500Y-8488700D01*
X10063500Y-8717300D02*
X10088900Y-8742700D01*
X10088900Y-8717300D02*
X10063500Y-8742700D01*
X10063500Y-8971300D02*
X10088900Y-8996700D01*
X10088900Y-8971300D02*
X10063500Y-8996700D01*
X10063500Y-9225300D02*
X10088900Y-9250700D01*
X10088900Y-9225300D02*
X10063500Y-9250700D01*
X10495300Y-7701300D02*
X10520700Y-7726700D01*
X10520700Y-7701300D02*
X10495300Y-7726700D01*
X10495300Y-8209300D02*
X10520700Y-8234700D01*
X10520700Y-8209300D02*
X10495300Y-8234700D01*
X10495300Y-8717300D02*
X10520700Y-8742700D01*
X10520700Y-8717300D02*
X10495300Y-8742700D01*
X10495300Y-9225300D02*
X10520700Y-9250700D01*
X10520700Y-9225300D02*
X10495300Y-9250700D01*
X10495300Y-9936500D02*
X10520700Y-9961900D01*
X10520700Y-9936500D02*
X10495300Y-9961900D01*
X10668688Y-7705712D02*
X10694088Y-7731112D01*
X10694088Y-7705712D02*
X10668688Y-7731112D01*
X10698500Y-7066300D02*
X10723900Y-7091700D01*
X10723900Y-7066300D02*
X10698500Y-7091700D01*
X10749300Y-7320300D02*
X10774700Y-7345700D01*
X10774700Y-7320300D02*
X10749300Y-7345700D01*
X10749300Y-7599700D02*
X10774700Y-7625100D01*
X10774700Y-7599700D02*
X10749300Y-7625100D01*
X10749300Y-9936500D02*
X10774700Y-9961900D01*
X10774700Y-9936500D02*
X10749300Y-9961900D01*
X10800100Y-7853700D02*
X10825500Y-7879100D01*
X10825500Y-7853700D02*
X10800100Y-7879100D01*
X10876300Y-8209300D02*
X10901700Y-8234700D01*
X10901700Y-8209300D02*
X10876300Y-8234700D01*
X10927100Y-8031500D02*
X10952500Y-8056900D01*
X10952500Y-8031500D02*
X10927100Y-8056900D01*
X10952500Y-7066300D02*
X10977900Y-7091700D01*
X10977900Y-7066300D02*
X10952500Y-7091700D01*
X10952500Y-7345700D02*
X10977900Y-7371100D01*
X10977900Y-7345700D02*
X10952500Y-7371100D01*
X11003300Y-7761300D02*
X11028700Y-7786700D01*
X11028700Y-7761300D02*
X11003300Y-7786700D01*
X11003300Y-8260100D02*
X11028700Y-8285500D01*
X11028700Y-8260100D02*
X11003300Y-8285500D01*
X11003300Y-8717300D02*
X11028700Y-8742700D01*
X11028700Y-8717300D02*
X11003300Y-8742700D01*
X11003300Y-9225300D02*
X11028700Y-9250700D01*
X11028700Y-9225300D02*
X11003300Y-9250700D01*
X11003300Y-9733300D02*
X11028700Y-9758700D01*
X11028700Y-9733300D02*
X11003300Y-9758700D01*
X11003300Y-9936500D02*
X11028700Y-9961900D01*
X11028700Y-9936500D02*
X11003300Y-9961900D01*
X11104900Y-8031500D02*
X11130300Y-8056900D01*
X11130300Y-8031500D02*
X11104900Y-8056900D01*
X11181100Y-7066300D02*
X11206500Y-7091700D01*
X11206500Y-7066300D02*
X11181100Y-7091700D01*
X11206500Y-7345700D02*
X11231900Y-7371100D01*
X11231900Y-7345700D02*
X11206500Y-7371100D01*
X11206500Y-7548900D02*
X11231900Y-7574300D01*
X11231900Y-7548900D02*
X11206500Y-7574300D01*
X11257300Y-9936500D02*
X11282700Y-9961900D01*
X11282700Y-9936500D02*
X11257300Y-9961900D01*
X11282700Y-8031500D02*
X11308100Y-8056900D01*
X11308100Y-8031500D02*
X11282700Y-8056900D01*
X11460500Y-7345700D02*
X11485900Y-7371100D01*
X11485900Y-7345700D02*
X11460500Y-7371100D01*
X11480907Y-9733300D02*
X11506307Y-9758700D01*
X11506307Y-9733300D02*
X11480907Y-9758700D01*
X11480907Y-9936500D02*
X11506307Y-9961900D01*
X11506307Y-9936500D02*
X11480907Y-9961900D01*
X11485900Y-9453900D02*
X11511300Y-9479300D01*
X11511300Y-9453900D02*
X11485900Y-9479300D01*
X11511300Y-7761300D02*
X11536700Y-7786700D01*
X11536700Y-7761300D02*
X11511300Y-7786700D01*
X11511300Y-8209300D02*
X11536700Y-8234700D01*
X11536700Y-8209300D02*
X11511300Y-8234700D01*
X11511300Y-8717300D02*
X11536700Y-8742700D01*
X11536700Y-8717300D02*
X11511300Y-8742700D01*
X11511300Y-9225300D02*
X11536700Y-9250700D01*
X11536700Y-9225300D02*
X11511300Y-9250700D01*
X11689100Y-7320300D02*
X11714500Y-7345700D01*
X11714500Y-7320300D02*
X11689100Y-7345700D01*
X11765300Y-9453900D02*
X11790700Y-9479300D01*
X11790700Y-9453900D02*
X11765300Y-9479300D01*
X11767707Y-8053758D02*
X11793107Y-8079158D01*
X11793107Y-8053758D02*
X11767707Y-8079158D01*
X11968500Y-7091700D02*
X11993900Y-7117100D01*
X11993900Y-7091700D02*
X11968500Y-7117100D01*
X11968500Y-7345700D02*
X11993900Y-7371100D01*
X11993900Y-7345700D02*
X11968500Y-7371100D01*
X11993900Y-8717300D02*
X12019300Y-8742700D01*
X12019300Y-8717300D02*
X11993900Y-8742700D01*
X12019300Y-7761300D02*
X12044700Y-7786700D01*
X12044700Y-7761300D02*
X12019300Y-7786700D01*
X12019300Y-8209300D02*
X12044700Y-8234700D01*
X12044700Y-8209300D02*
X12019300Y-8234700D01*
X12019300Y-9225300D02*
X12044700Y-9250700D01*
X12044700Y-9225300D02*
X12019300Y-9250700D01*
X12019300Y-9453900D02*
X12044700Y-9479300D01*
X12044700Y-9453900D02*
X12019300Y-9479300D01*
X12171700Y-8336300D02*
X12197100Y-8361700D01*
X12197100Y-8336300D02*
X12171700Y-8361700D01*
X12222500Y-7345700D02*
X12247900Y-7371100D01*
X12247900Y-7345700D02*
X12222500Y-7371100D01*
X12222500Y-7574300D02*
X12247900Y-7599700D01*
X12247900Y-7574300D02*
X12222500Y-7599700D01*
X12247900Y-8107700D02*
X12273300Y-8133100D01*
X12273300Y-8107700D02*
X12247900Y-8133100D01*
X12273300Y-9453900D02*
X12298700Y-9479300D01*
X12298700Y-9453900D02*
X12273300Y-9479300D01*
X12425700Y-8844300D02*
X12451100Y-8869700D01*
X12451100Y-8844300D02*
X12425700Y-8869700D01*
X12451100Y-9022100D02*
X12476500Y-9047500D01*
X12476500Y-9022100D02*
X12451100Y-9047500D01*
X12476500Y-7345700D02*
X12501900Y-7371100D01*
X12501900Y-7345700D02*
X12476500Y-7371100D01*
X12501900Y-7761300D02*
X12527300Y-7786700D01*
X12527300Y-7761300D02*
X12501900Y-7786700D01*
X12527300Y-8209300D02*
X12552700Y-8234700D01*
X12552700Y-8209300D02*
X12527300Y-8234700D01*
X12730500Y-7117100D02*
X12755900Y-7142500D01*
X12755900Y-7117100D02*
X12730500Y-7142500D01*
X12730500Y-8361700D02*
X12755900Y-8387100D01*
X12755900Y-8361700D02*
X12730500Y-8387100D01*
X12742468Y-7774732D02*
X12767868Y-7800132D01*
X12767868Y-7774732D02*
X12742468Y-7800132D01*
X12755900Y-8742700D02*
X12781300Y-8768100D01*
X12781300Y-8742700D02*
X12755900Y-8768100D01*
X12781300Y-8895100D02*
X12806700Y-8920500D01*
X12806700Y-8895100D02*
X12781300Y-8920500D01*
X12781300Y-9352300D02*
X12806700Y-9377700D01*
X12806700Y-9352300D02*
X12781300Y-9377700D01*
X12781300Y-9453900D02*
X12806700Y-9479300D01*
X12806700Y-9453900D02*
X12781300Y-9479300D01*
X12959100Y-8539500D02*
X12984500Y-8564900D01*
X12984500Y-8539500D02*
X12959100Y-8564900D01*
X13035300Y-7777500D02*
X13060700Y-7802900D01*
X13060700Y-7777500D02*
X13035300Y-7802900D01*
X13035300Y-8209300D02*
X13060700Y-8234700D01*
X13060700Y-8209300D02*
X13035300Y-8234700D01*
X13035300Y-8717300D02*
X13060700Y-8742700D01*
X13060700Y-8717300D02*
X13035300Y-8742700D01*
X13035300Y-9225300D02*
X13060700Y-9250700D01*
X13060700Y-9225300D02*
X13035300Y-9250700D01*
X13035300Y-9453900D02*
X13060700Y-9479300D01*
X13060700Y-9453900D02*
X13035300Y-9479300D01*
X13086100Y-7599700D02*
X13111500Y-7625100D01*
X13111500Y-7599700D02*
X13086100Y-7625100D01*
X13289300Y-7955300D02*
X13314700Y-7980700D01*
X13314700Y-7955300D02*
X13289300Y-7980700D01*
X13289300Y-8869700D02*
X13314700Y-8895100D01*
X13314700Y-8869700D02*
X13289300Y-8895100D01*
X13289300Y-9453900D02*
X13314700Y-9479300D01*
X13314700Y-9453900D02*
X13289300Y-9479300D01*
X13365500Y-8006100D02*
X13390900Y-8031500D01*
X13390900Y-8006100D02*
X13365500Y-8031500D01*
X13416300Y-7650500D02*
X13441700Y-7675900D01*
X13441700Y-7650500D02*
X13416300Y-7675900D01*
X13492500Y-7345700D02*
X13517900Y-7371100D01*
X13517900Y-7345700D02*
X13492500Y-7371100D01*
X13533700Y-7955300D02*
X13559100Y-7980700D01*
X13559100Y-7955300D02*
X13533700Y-7980700D01*
X13538691Y-8712691D02*
X13564091Y-8738091D01*
X13564091Y-8712691D02*
X13538691Y-8738091D01*
X13543300Y-9225300D02*
X13568700Y-9250700D01*
X13568700Y-9225300D02*
X13543300Y-9250700D01*
X13543300Y-9453900D02*
X13568700Y-9479300D01*
X13568700Y-9453900D02*
X13543300Y-9479300D01*
X13589300Y-8234700D02*
X13614700Y-8260100D01*
X13614700Y-8234700D02*
X13589300Y-8260100D01*
X13670300Y-8107700D02*
X13695700Y-8133100D01*
X13695700Y-8107700D02*
X13670300Y-8133100D01*
X13670300Y-8209300D02*
X13695700Y-8234700D01*
X13695700Y-8209300D02*
X13670300Y-8234700D01*
X13695700Y-7802900D02*
X13721100Y-7828300D01*
X13721100Y-7802900D02*
X13695700Y-7828300D01*
X13695700Y-8539500D02*
X13721100Y-8564900D01*
X13721100Y-8539500D02*
X13695700Y-8564900D01*
X13746500Y-7091700D02*
X13771900Y-7117100D01*
X13771900Y-7091700D02*
X13746500Y-7117100D01*
X13746500Y-7345700D02*
X13771900Y-7371100D01*
X13771900Y-7345700D02*
X13746500Y-7371100D01*
X13746500Y-7574300D02*
X13771900Y-7599700D01*
X13771900Y-7574300D02*
X13746500Y-7599700D01*
X13746500Y-7980700D02*
X13771900Y-8006100D01*
X13771900Y-7980700D02*
X13746500Y-8006100D01*
X13787700Y-7701300D02*
X13813100Y-7726700D01*
X13813100Y-7701300D02*
X13787700Y-7726700D01*
X13797300Y-8641100D02*
X13822700Y-8666500D01*
X13822700Y-8641100D02*
X13797300Y-8666500D01*
X13797300Y-9352300D02*
X13822700Y-9377700D01*
X13822700Y-9352300D02*
X13797300Y-9377700D01*
X13797300Y-9453900D02*
X13822700Y-9479300D01*
X13822700Y-9453900D02*
X13797300Y-9479300D01*
X13843491Y-8290109D02*
X13868891Y-8315509D01*
X13868891Y-8290109D02*
X13843491Y-8315509D01*
X13924300Y-8183900D02*
X13949700Y-8209300D01*
X13949700Y-8183900D02*
X13924300Y-8209300D01*
X14000500Y-7142500D02*
X14025900Y-7167900D01*
X14025900Y-7142500D02*
X14000500Y-7167900D01*
X14000500Y-7920300D02*
X14025900Y-7945700D01*
X14025900Y-7920300D02*
X14000500Y-7945700D01*
X14000500Y-8361700D02*
X14025900Y-8387100D01*
X14025900Y-8361700D02*
X14000500Y-8387100D01*
X14041700Y-8285500D02*
X14067100Y-8310900D01*
X14067100Y-8285500D02*
X14041700Y-8310900D01*
X14051300Y-8056900D02*
X14076700Y-8082300D01*
X14076700Y-8056900D02*
X14051300Y-8082300D01*
X14076700Y-7599700D02*
X14102100Y-7625100D01*
X14102100Y-7599700D02*
X14076700Y-7625100D01*
X14102100Y-8719100D02*
X14127500Y-8744500D01*
X14127500Y-8719100D02*
X14102100Y-8744500D01*
X14127500Y-9043700D02*
X14152900Y-9069100D01*
X14152900Y-9043700D02*
X14127500Y-9069100D01*
X14127500Y-9174500D02*
X14152900Y-9199900D01*
X14152900Y-9174500D02*
X14127500Y-9199900D01*
X14162500Y-8590300D02*
X14187900Y-8615700D01*
X14187900Y-8590300D02*
X14162500Y-8615700D01*
X14167346Y-8746589D02*
X14192746Y-8771989D01*
X14192746Y-8746589D02*
X14167346Y-8771989D01*
X14203700Y-7345700D02*
X14229100Y-7371100D01*
X14229100Y-7345700D02*
X14203700Y-7371100D01*
X14203700Y-9047500D02*
X14229100Y-9072900D01*
X14229100Y-9047500D02*
X14203700Y-9072900D01*
X14254500Y-7574300D02*
X14279900Y-7599700D01*
X14279900Y-7574300D02*
X14254500Y-7599700D01*
X14305300Y-7701300D02*
X14330700Y-7726700D01*
X14330700Y-7701300D02*
X14305300Y-7726700D01*
X14305300Y-8209300D02*
X14330700Y-8234700D01*
X14330700Y-8209300D02*
X14305300Y-8234700D01*
X14305300Y-9225300D02*
X14330700Y-9250700D01*
X14330700Y-9225300D02*
X14305300Y-9250700D01*
X14305300Y-9453900D02*
X14330700Y-9479300D01*
X14330700Y-9453900D02*
X14305300Y-9479300D01*
X14381500Y-8539500D02*
X14406900Y-8564900D01*
X14406900Y-8539500D02*
X14381500Y-8564900D01*
X14381500Y-8742700D02*
X14406900Y-8768100D01*
X14406900Y-8742700D02*
X14381500Y-8768100D01*
X14406900Y-8056900D02*
X14432300Y-8082300D01*
X14432300Y-8056900D02*
X14406900Y-8082300D01*
X14508500Y-7345700D02*
X14533900Y-7371100D01*
X14533900Y-7345700D02*
X14508500Y-7371100D01*
X14508500Y-7574300D02*
X14533900Y-7599700D01*
X14533900Y-7574300D02*
X14508500Y-7599700D01*
X14559300Y-7955300D02*
X14584700Y-7980700D01*
X14584700Y-7955300D02*
X14559300Y-7980700D01*
X14559300Y-9453900D02*
X14584700Y-9479300D01*
X14584700Y-9453900D02*
X14559300Y-9479300D01*
X14584700Y-8742700D02*
X14610100Y-8768100D01*
X14610100Y-8742700D02*
X14584700Y-8768100D01*
X14762500Y-7345700D02*
X14787900Y-7371100D01*
X14787900Y-7345700D02*
X14762500Y-7371100D01*
X14762500Y-7574300D02*
X14787900Y-7599700D01*
X14787900Y-7574300D02*
X14762500Y-7599700D01*
X14762500Y-8421010D02*
X14787900Y-8446410D01*
X14787900Y-8421010D02*
X14762500Y-8446410D01*
X14813300Y-7701300D02*
X14838700Y-7726700D01*
X14838700Y-7701300D02*
X14813300Y-7726700D01*
X14813300Y-8209300D02*
X14838700Y-8234700D01*
X14838700Y-8209300D02*
X14813300Y-8234700D01*
X14813300Y-8717300D02*
X14838700Y-8742700D01*
X14838700Y-8717300D02*
X14813300Y-8742700D01*
X14813300Y-9225300D02*
X14838700Y-9250700D01*
X14838700Y-9225300D02*
X14813300Y-9250700D01*
X14813300Y-9453900D02*
X14838700Y-9479300D01*
X14838700Y-9453900D02*
X14813300Y-9479300D01*
X15016500Y-7345700D02*
X15041900Y-7371100D01*
X15041900Y-7345700D02*
X15016500Y-7371100D01*
X15016500Y-7574300D02*
X15041900Y-7599700D01*
X15041900Y-7574300D02*
X15016500Y-7599700D01*
X15092700Y-8412500D02*
X15118100Y-8437900D01*
X15118100Y-8412500D02*
X15092700Y-8437900D01*
X15092700Y-9453900D02*
X15118100Y-9479300D01*
X15118100Y-9453900D02*
X15092700Y-9479300D01*
X15092700Y-9733300D02*
X15118100Y-9758700D01*
X15118100Y-9733300D02*
X15092700Y-9758700D01*
X15092700Y-9936500D02*
X15118100Y-9961900D01*
X15118100Y-9936500D02*
X15092700Y-9961900D01*
X15270500Y-7345700D02*
X15295900Y-7371100D01*
X15295900Y-7345700D02*
X15270500Y-7371100D01*
X15321300Y-7701300D02*
X15346700Y-7726700D01*
X15346700Y-7701300D02*
X15321300Y-7726700D01*
X15321300Y-8209300D02*
X15346700Y-8234700D01*
X15346700Y-8209300D02*
X15321300Y-8234700D01*
X15321300Y-8717300D02*
X15346700Y-8742700D01*
X15346700Y-8717300D02*
X15321300Y-8742700D01*
X15321300Y-9225300D02*
X15346700Y-9250700D01*
X15346700Y-9225300D02*
X15321300Y-9250700D01*
X15321300Y-9733300D02*
X15346700Y-9758700D01*
X15346700Y-9733300D02*
X15321300Y-9758700D01*
X15321300Y-9936500D02*
X15346700Y-9961900D01*
X15346700Y-9936500D02*
X15321300Y-9961900D01*
X15343900Y-8421010D02*
X15369300Y-8446410D01*
X15369300Y-8421010D02*
X15343900Y-8446410D01*
X15524500Y-7117100D02*
X15549900Y-7142500D01*
X15549900Y-7117100D02*
X15524500Y-7142500D01*
X15524500Y-7345700D02*
X15549900Y-7371100D01*
X15549900Y-7345700D02*
X15524500Y-7371100D01*
X15547300Y-8422500D02*
X15572700Y-8447900D01*
X15572700Y-8422500D02*
X15547300Y-8447900D01*
X15575300Y-9936500D02*
X15600700Y-9961900D01*
X15600700Y-9936500D02*
X15575300Y-9961900D01*
X15750300Y-8421010D02*
X15775700Y-8446410D01*
X15775700Y-8421010D02*
X15750300Y-8446410D01*
X15778500Y-7345700D02*
X15803900Y-7371100D01*
X15803900Y-7345700D02*
X15778500Y-7371100D01*
X15829300Y-7701300D02*
X15854700Y-7726700D01*
X15854700Y-7701300D02*
X15829300Y-7726700D01*
X15829300Y-8209300D02*
X15854700Y-8234700D01*
X15854700Y-8209300D02*
X15829300Y-8234700D01*
X15829300Y-8717300D02*
X15854700Y-8742700D01*
X15854700Y-8717300D02*
X15829300Y-8742700D01*
X15829300Y-9225300D02*
X15854700Y-9250700D01*
X15854700Y-9225300D02*
X15829300Y-9250700D01*
X15829300Y-9733300D02*
X15854700Y-9758700D01*
X15854700Y-9733300D02*
X15829300Y-9758700D01*
X15829300Y-9936500D02*
X15854700Y-9961900D01*
X15854700Y-9936500D02*
X15829300Y-9961900D01*
X16083300Y-8421010D02*
X16108700Y-8446410D01*
X16108700Y-8421010D02*
X16083300Y-8446410D01*
X16413500Y-7701300D02*
X16438900Y-7726700D01*
X16438900Y-7701300D02*
X16413500Y-7726700D01*
X16413500Y-7955300D02*
X16438900Y-7980700D01*
X16438900Y-7955300D02*
X16413500Y-7980700D01*
X16413500Y-8209300D02*
X16438900Y-8234700D01*
X16438900Y-8209300D02*
X16413500Y-8234700D01*
X16413500Y-8421010D02*
X16438900Y-8446410D01*
X16438900Y-8421010D02*
X16413500Y-8446410D01*
X16413500Y-8717300D02*
X16438900Y-8742700D01*
X16438900Y-8717300D02*
X16413500Y-8742700D01*
X16413500Y-8971300D02*
X16438900Y-8996700D01*
X16438900Y-8971300D02*
X16413500Y-8996700D01*
X16413500Y-9225300D02*
X16438900Y-9250700D01*
X16438900Y-9225300D02*
X16413500Y-9250700D01*
X12453400Y-8526800D02*
G75*
G02*
X12423400Y-8526800I-15000J0D01*
G01*
X12423400Y-8526800D02*
G75*
G02*
X12453400Y-8526800I15000J0D01*
G01*
X12454400Y-9416800D02*
G75*
G02*
X12424400Y-9416800I-15000J0D01*
G01*
X12424400Y-9416800D02*
G75*
G02*
X12454400Y-9416800I15000J0D01*
G01*
X13317000Y-8552200D02*
G75*
G02*
X13287000Y-8552200I-15000J0D01*
G01*
X13287000Y-8552200D02*
G75*
G02*
X13317000Y-8552200I15000J0D01*
G01*
X13342400Y-8222000D02*
G75*
G02*
X13312400Y-8222000I-15000J0D01*
G01*
X13312400Y-8222000D02*
G75*
G02*
X13342400Y-8222000I15000J0D01*
G01*
X13825000Y-8966800D02*
G75*
G02*
X13795000Y-8966800I-15000J0D01*
G01*
X13795000Y-8966800D02*
G75*
G02*
X13825000Y-8966800I15000J0D01*
G01*
X14063100Y-8516800D02*
G75*
G02*
X14033100Y-8516800I-15000J0D01*
G01*
X14033100Y-8516800D02*
G75*
G02*
X14063100Y-8516800I15000J0D01*
G01*
X14155200Y-8966800D02*
G75*
G02*
X14125200Y-8966800I-15000J0D01*
G01*
X14125200Y-8966800D02*
G75*
G02*
X14155200Y-8966800I15000J0D01*
G01*
X14180600Y-9416800D02*
G75*
G02*
X14150600Y-9416800I-15000J0D01*
G01*
X14150600Y-9416800D02*
G75*
G02*
X14180600Y-9416800I15000J0D01*
G01*
X10837000Y-7173000D02*
X10837000Y-7273000D01*
X10787000Y-7223000D02*
X10887000Y-7223000D01*
X10837000Y-7427000D02*
X10837000Y-7527000D01*
X10787000Y-7477000D02*
X10887000Y-7477000D01*
X11091000Y-7173000D02*
X11091000Y-7273000D01*
X11041000Y-7223000D02*
X11141000Y-7223000D01*
X11091000Y-7427000D02*
X11091000Y-7527000D01*
X11041000Y-7477000D02*
X11141000Y-7477000D01*
X11345000Y-7173000D02*
X11345000Y-7273000D01*
X11295000Y-7223000D02*
X11395000Y-7223000D01*
X11345000Y-7427000D02*
X11345000Y-7527000D01*
X11295000Y-7477000D02*
X11395000Y-7477000D01*
X11599000Y-7173000D02*
X11599000Y-7273000D01*
X11549000Y-7223000D02*
X11649000Y-7223000D01*
X11599000Y-7427000D02*
X11599000Y-7527000D01*
X11549000Y-7477000D02*
X11649000Y-7477000D01*
X11853000Y-7173000D02*
X11853000Y-7273000D01*
X11803000Y-7223000D02*
X11903000Y-7223000D01*
X11853000Y-7427000D02*
X11853000Y-7527000D01*
X11803000Y-7477000D02*
X11903000Y-7477000D01*
X12107000Y-7173000D02*
X12107000Y-7273000D01*
X12057000Y-7223000D02*
X12157000Y-7223000D01*
X12107000Y-7427000D02*
X12107000Y-7527000D01*
X12057000Y-7477000D02*
X12157000Y-7477000D01*
X12361000Y-7173000D02*
X12361000Y-7273000D01*
X12311000Y-7223000D02*
X12411000Y-7223000D01*
X12361000Y-7427000D02*
X12361000Y-7527000D01*
X12311000Y-7477000D02*
X12411000Y-7477000D01*
X12615000Y-7173000D02*
X12615000Y-7273000D01*
X12565000Y-7223000D02*
X12665000Y-7223000D01*
X12615000Y-7427000D02*
X12615000Y-7527000D01*
X12565000Y-7477000D02*
X12665000Y-7477000D01*
X12869000Y-7173000D02*
X12869000Y-7273000D01*
X12819000Y-7223000D02*
X12919000Y-7223000D01*
X12869000Y-7427000D02*
X12869000Y-7527000D01*
X12819000Y-7477000D02*
X12919000Y-7477000D01*
X13123000Y-7173000D02*
X13123000Y-7273000D01*
X13073000Y-7223000D02*
X13173000Y-7223000D01*
X13123000Y-7427000D02*
X13123000Y-7527000D01*
X13073000Y-7477000D02*
X13173000Y-7477000D01*
X13377000Y-7173000D02*
X13377000Y-7273000D01*
X13327000Y-7223000D02*
X13427000Y-7223000D01*
X13377000Y-7427000D02*
X13377000Y-7527000D01*
X13327000Y-7477000D02*
X13427000Y-7477000D01*
X13631000Y-7173000D02*
X13631000Y-7273000D01*
X13581000Y-7223000D02*
X13681000Y-7223000D01*
X13631000Y-7427000D02*
X13631000Y-7527000D01*
X13581000Y-7477000D02*
X13681000Y-7477000D01*
X13885000Y-7173000D02*
X13885000Y-7273000D01*
X13835000Y-7223000D02*
X13935000Y-7223000D01*
X13885000Y-7427000D02*
X13885000Y-7527000D01*
X13835000Y-7477000D02*
X13935000Y-7477000D01*
X14139000Y-7173000D02*
X14139000Y-7273000D01*
X14089000Y-7223000D02*
X14189000Y-7223000D01*
X14139000Y-7427000D02*
X14139000Y-7527000D01*
X14089000Y-7477000D02*
X14189000Y-7477000D01*
X14393000Y-7173000D02*
X14393000Y-7273000D01*
X14343000Y-7223000D02*
X14443000Y-7223000D01*
X14393000Y-7427000D02*
X14393000Y-7527000D01*
X14343000Y-7477000D02*
X14443000Y-7477000D01*
X14647000Y-7173000D02*
X14647000Y-7273000D01*
X14597000Y-7223000D02*
X14697000Y-7223000D01*
X14647000Y-7427000D02*
X14647000Y-7527000D01*
X14597000Y-7477000D02*
X14697000Y-7477000D01*
X14901000Y-7173000D02*
X14901000Y-7273000D01*
X14851000Y-7223000D02*
X14951000Y-7223000D01*
X14901000Y-7427000D02*
X14901000Y-7527000D01*
X14851000Y-7477000D02*
X14951000Y-7477000D01*
X15155000Y-7173000D02*
X15155000Y-7273000D01*
X15105000Y-7223000D02*
X15205000Y-7223000D01*
X15155000Y-7427000D02*
X15155000Y-7527000D01*
X15105000Y-7477000D02*
X15205000Y-7477000D01*
X15409000Y-7173000D02*
X15409000Y-7273000D01*
X15359000Y-7223000D02*
X15459000Y-7223000D01*
X15409000Y-7427000D02*
X15409000Y-7527000D01*
X15359000Y-7477000D02*
X15459000Y-7477000D01*
X15663000Y-7173000D02*
X15663000Y-7273000D01*
X15613000Y-7223000D02*
X15713000Y-7223000D01*
X15663000Y-7427000D02*
X15663000Y-7527000D01*
X15613000Y-7477000D02*
X15713000Y-7477000D01*
D11*
X10255777Y-10316484D02*
X10255777Y-10116484D01*
X10255777Y-10116484D02*
X10303396Y-10116484D01*
X10303396Y-10116484D02*
X10331967Y-10126008D01*
X10331967Y-10126008D02*
X10351015Y-10145055D01*
X10351015Y-10145055D02*
X10360539Y-10164103D01*
X10360539Y-10164103D02*
X10370063Y-10202198D01*
X10370063Y-10202198D02*
X10370063Y-10230770D01*
X10370063Y-10230770D02*
X10360539Y-10268865D01*
X10360539Y-10268865D02*
X10351015Y-10287912D01*
X10351015Y-10287912D02*
X10331967Y-10306960D01*
X10331967Y-10306960D02*
X10303396Y-10316484D01*
X10303396Y-10316484D02*
X10255777Y-10316484D01*
X10455777Y-10316484D02*
X10455777Y-10183150D01*
X10455777Y-10221246D02*
X10465301Y-10202198D01*
X10465301Y-10202198D02*
X10474824Y-10192674D01*
X10474824Y-10192674D02*
X10493872Y-10183150D01*
X10493872Y-10183150D02*
X10512920Y-10183150D01*
X10579586Y-10316484D02*
X10579586Y-10183150D01*
X10579586Y-10116484D02*
X10570063Y-10126008D01*
X10570063Y-10126008D02*
X10579586Y-10135531D01*
X10579586Y-10135531D02*
X10589110Y-10126008D01*
X10589110Y-10126008D02*
X10579586Y-10116484D01*
X10579586Y-10116484D02*
X10579586Y-10135531D01*
X10703396Y-10316484D02*
X10684348Y-10306960D01*
X10684348Y-10306960D02*
X10674824Y-10287912D01*
X10674824Y-10287912D02*
X10674824Y-10116484D01*
X10808158Y-10316484D02*
X10789110Y-10306960D01*
X10789110Y-10306960D02*
X10779586Y-10287912D01*
X10779586Y-10287912D02*
X10779586Y-10116484D01*
X11036729Y-10316484D02*
X11036729Y-10116484D01*
X11036729Y-10116484D02*
X11103396Y-10259341D01*
X11103396Y-10259341D02*
X11170063Y-10116484D01*
X11170063Y-10116484D02*
X11170063Y-10316484D01*
X11351015Y-10316484D02*
X11351015Y-10211722D01*
X11351015Y-10211722D02*
X11341491Y-10192674D01*
X11341491Y-10192674D02*
X11322443Y-10183150D01*
X11322443Y-10183150D02*
X11284348Y-10183150D01*
X11284348Y-10183150D02*
X11265301Y-10192674D01*
X11351015Y-10306960D02*
X11331967Y-10316484D01*
X11331967Y-10316484D02*
X11284348Y-10316484D01*
X11284348Y-10316484D02*
X11265301Y-10306960D01*
X11265301Y-10306960D02*
X11255777Y-10287912D01*
X11255777Y-10287912D02*
X11255777Y-10268865D01*
X11255777Y-10268865D02*
X11265301Y-10249817D01*
X11265301Y-10249817D02*
X11284348Y-10240293D01*
X11284348Y-10240293D02*
X11331967Y-10240293D01*
X11331967Y-10240293D02*
X11351015Y-10230770D01*
X11446253Y-10183150D02*
X11446253Y-10383150D01*
X11446253Y-10192674D02*
X11465301Y-10183150D01*
X11465301Y-10183150D02*
X11503396Y-10183150D01*
X11503396Y-10183150D02*
X11522443Y-10192674D01*
X11522443Y-10192674D02*
X11531967Y-10202198D01*
X11531967Y-10202198D02*
X11541491Y-10221246D01*
X11541491Y-10221246D02*
X11541491Y-10278389D01*
X11541491Y-10278389D02*
X11531967Y-10297436D01*
X11531967Y-10297436D02*
X11522443Y-10306960D01*
X11522443Y-10306960D02*
X11503396Y-10316484D01*
X11503396Y-10316484D02*
X11465301Y-10316484D01*
X11465301Y-10316484D02*
X11446253Y-10306960D01*
X11627205Y-10297436D02*
X11636729Y-10306960D01*
X11636729Y-10306960D02*
X11627205Y-10316484D01*
X11627205Y-10316484D02*
X11617682Y-10306960D01*
X11617682Y-10306960D02*
X11627205Y-10297436D01*
X11627205Y-10297436D02*
X11627205Y-10316484D01*
X11627205Y-10192674D02*
X11636729Y-10202198D01*
X11636729Y-10202198D02*
X11627205Y-10211722D01*
X11627205Y-10211722D02*
X11617682Y-10202198D01*
X11617682Y-10202198D02*
X11627205Y-10192674D01*
X11627205Y-10192674D02*
X11627205Y-10211722D01*
D10*
X9969600Y-10632300D02*
X9995000Y-10657700D01*
X9995000Y-10632300D02*
X9969600Y-10657700D01*
D11*
X10293872Y-10536484D02*
X10312920Y-10536484D01*
X10312920Y-10536484D02*
X10331967Y-10546008D01*
X10331967Y-10546008D02*
X10341491Y-10555531D01*
X10341491Y-10555531D02*
X10351015Y-10574579D01*
X10351015Y-10574579D02*
X10360539Y-10612674D01*
X10360539Y-10612674D02*
X10360539Y-10660293D01*
X10360539Y-10660293D02*
X10351015Y-10698389D01*
X10351015Y-10698389D02*
X10341491Y-10717436D01*
X10341491Y-10717436D02*
X10331967Y-10726960D01*
X10331967Y-10726960D02*
X10312920Y-10736484D01*
X10312920Y-10736484D02*
X10293872Y-10736484D01*
X10293872Y-10736484D02*
X10274824Y-10726960D01*
X10274824Y-10726960D02*
X10265301Y-10717436D01*
X10265301Y-10717436D02*
X10255777Y-10698389D01*
X10255777Y-10698389D02*
X10246253Y-10660293D01*
X10246253Y-10660293D02*
X10246253Y-10612674D01*
X10246253Y-10612674D02*
X10255777Y-10574579D01*
X10255777Y-10574579D02*
X10265301Y-10555531D01*
X10265301Y-10555531D02*
X10274824Y-10546008D01*
X10274824Y-10546008D02*
X10293872Y-10536484D01*
X10446253Y-10717436D02*
X10455777Y-10726960D01*
X10455777Y-10726960D02*
X10446253Y-10736484D01*
X10446253Y-10736484D02*
X10436729Y-10726960D01*
X10436729Y-10726960D02*
X10446253Y-10717436D01*
X10446253Y-10717436D02*
X10446253Y-10736484D01*
X10531967Y-10555531D02*
X10541491Y-10546008D01*
X10541491Y-10546008D02*
X10560539Y-10536484D01*
X10560539Y-10536484D02*
X10608158Y-10536484D01*
X10608158Y-10536484D02*
X10627205Y-10546008D01*
X10627205Y-10546008D02*
X10636729Y-10555531D01*
X10636729Y-10555531D02*
X10646253Y-10574579D01*
X10646253Y-10574579D02*
X10646253Y-10593627D01*
X10646253Y-10593627D02*
X10636729Y-10622198D01*
X10636729Y-10622198D02*
X10522444Y-10736484D01*
X10522444Y-10736484D02*
X10646253Y-10736484D01*
X10827205Y-10536484D02*
X10731967Y-10536484D01*
X10731967Y-10536484D02*
X10722444Y-10631722D01*
X10722444Y-10631722D02*
X10731967Y-10622198D01*
X10731967Y-10622198D02*
X10751015Y-10612674D01*
X10751015Y-10612674D02*
X10798634Y-10612674D01*
X10798634Y-10612674D02*
X10817682Y-10622198D01*
X10817682Y-10622198D02*
X10827205Y-10631722D01*
X10827205Y-10631722D02*
X10836729Y-10650770D01*
X10836729Y-10650770D02*
X10836729Y-10698389D01*
X10836729Y-10698389D02*
X10827205Y-10717436D01*
X10827205Y-10717436D02*
X10817682Y-10726960D01*
X10817682Y-10726960D02*
X10798634Y-10736484D01*
X10798634Y-10736484D02*
X10751015Y-10736484D01*
X10751015Y-10736484D02*
X10731967Y-10726960D01*
X10731967Y-10726960D02*
X10722444Y-10717436D01*
X11008158Y-10603150D02*
X11008158Y-10736484D01*
X10960539Y-10526960D02*
X10912920Y-10669817D01*
X10912920Y-10669817D02*
X11036729Y-10669817D01*
X11112920Y-10736484D02*
X11112920Y-10603150D01*
X11112920Y-10622198D02*
X11122444Y-10612674D01*
X11122444Y-10612674D02*
X11141491Y-10603150D01*
X11141491Y-10603150D02*
X11170063Y-10603150D01*
X11170063Y-10603150D02*
X11189110Y-10612674D01*
X11189110Y-10612674D02*
X11198634Y-10631722D01*
X11198634Y-10631722D02*
X11198634Y-10736484D01*
X11198634Y-10631722D02*
X11208158Y-10612674D01*
X11208158Y-10612674D02*
X11227205Y-10603150D01*
X11227205Y-10603150D02*
X11255777Y-10603150D01*
X11255777Y-10603150D02*
X11274824Y-10612674D01*
X11274824Y-10612674D02*
X11284348Y-10631722D01*
X11284348Y-10631722D02*
X11284348Y-10736484D01*
X11379586Y-10736484D02*
X11379586Y-10603150D01*
X11379586Y-10622198D02*
X11389110Y-10612674D01*
X11389110Y-10612674D02*
X11408158Y-10603150D01*
X11408158Y-10603150D02*
X11436729Y-10603150D01*
X11436729Y-10603150D02*
X11455777Y-10612674D01*
X11455777Y-10612674D02*
X11465301Y-10631722D01*
X11465301Y-10631722D02*
X11465301Y-10736484D01*
X11465301Y-10631722D02*
X11474824Y-10612674D01*
X11474824Y-10612674D02*
X11493872Y-10603150D01*
X11493872Y-10603150D02*
X11522443Y-10603150D01*
X11522443Y-10603150D02*
X11541491Y-10612674D01*
X11541491Y-10612674D02*
X11551015Y-10631722D01*
X11551015Y-10631722D02*
X11551015Y-10736484D01*
X11941491Y-10526960D02*
X11770063Y-10784103D01*
X12198634Y-10536484D02*
X12217682Y-10536484D01*
X12217682Y-10536484D02*
X12236729Y-10546008D01*
X12236729Y-10546008D02*
X12246253Y-10555531D01*
X12246253Y-10555531D02*
X12255777Y-10574579D01*
X12255777Y-10574579D02*
X12265301Y-10612674D01*
X12265301Y-10612674D02*
X12265301Y-10660293D01*
X12265301Y-10660293D02*
X12255777Y-10698389D01*
X12255777Y-10698389D02*
X12246253Y-10717436D01*
X12246253Y-10717436D02*
X12236729Y-10726960D01*
X12236729Y-10726960D02*
X12217682Y-10736484D01*
X12217682Y-10736484D02*
X12198634Y-10736484D01*
X12198634Y-10736484D02*
X12179586Y-10726960D01*
X12179586Y-10726960D02*
X12170063Y-10717436D01*
X12170063Y-10717436D02*
X12160539Y-10698389D01*
X12160539Y-10698389D02*
X12151015Y-10660293D01*
X12151015Y-10660293D02*
X12151015Y-10612674D01*
X12151015Y-10612674D02*
X12160539Y-10574579D01*
X12160539Y-10574579D02*
X12170063Y-10555531D01*
X12170063Y-10555531D02*
X12179586Y-10546008D01*
X12179586Y-10546008D02*
X12198634Y-10536484D01*
X12351015Y-10717436D02*
X12360539Y-10726960D01*
X12360539Y-10726960D02*
X12351015Y-10736484D01*
X12351015Y-10736484D02*
X12341491Y-10726960D01*
X12341491Y-10726960D02*
X12351015Y-10717436D01*
X12351015Y-10717436D02*
X12351015Y-10736484D01*
X12484348Y-10536484D02*
X12503396Y-10536484D01*
X12503396Y-10536484D02*
X12522444Y-10546008D01*
X12522444Y-10546008D02*
X12531967Y-10555531D01*
X12531967Y-10555531D02*
X12541491Y-10574579D01*
X12541491Y-10574579D02*
X12551015Y-10612674D01*
X12551015Y-10612674D02*
X12551015Y-10660293D01*
X12551015Y-10660293D02*
X12541491Y-10698389D01*
X12541491Y-10698389D02*
X12531967Y-10717436D01*
X12531967Y-10717436D02*
X12522444Y-10726960D01*
X12522444Y-10726960D02*
X12503396Y-10736484D01*
X12503396Y-10736484D02*
X12484348Y-10736484D01*
X12484348Y-10736484D02*
X12465301Y-10726960D01*
X12465301Y-10726960D02*
X12455777Y-10717436D01*
X12455777Y-10717436D02*
X12446253Y-10698389D01*
X12446253Y-10698389D02*
X12436729Y-10660293D01*
X12436729Y-10660293D02*
X12436729Y-10612674D01*
X12436729Y-10612674D02*
X12446253Y-10574579D01*
X12446253Y-10574579D02*
X12455777Y-10555531D01*
X12455777Y-10555531D02*
X12465301Y-10546008D01*
X12465301Y-10546008D02*
X12484348Y-10536484D01*
X12741491Y-10736484D02*
X12627206Y-10736484D01*
X12684348Y-10736484D02*
X12684348Y-10536484D01*
X12684348Y-10536484D02*
X12665301Y-10565055D01*
X12665301Y-10565055D02*
X12646253Y-10584103D01*
X12646253Y-10584103D02*
X12627206Y-10593627D01*
X12865301Y-10536484D02*
X12884348Y-10536484D01*
X12884348Y-10536484D02*
X12903396Y-10546008D01*
X12903396Y-10546008D02*
X12912920Y-10555531D01*
X12912920Y-10555531D02*
X12922444Y-10574579D01*
X12922444Y-10574579D02*
X12931967Y-10612674D01*
X12931967Y-10612674D02*
X12931967Y-10660293D01*
X12931967Y-10660293D02*
X12922444Y-10698389D01*
X12922444Y-10698389D02*
X12912920Y-10717436D01*
X12912920Y-10717436D02*
X12903396Y-10726960D01*
X12903396Y-10726960D02*
X12884348Y-10736484D01*
X12884348Y-10736484D02*
X12865301Y-10736484D01*
X12865301Y-10736484D02*
X12846253Y-10726960D01*
X12846253Y-10726960D02*
X12836729Y-10717436D01*
X12836729Y-10717436D02*
X12827206Y-10698389D01*
X12827206Y-10698389D02*
X12817682Y-10660293D01*
X12817682Y-10660293D02*
X12817682Y-10612674D01*
X12817682Y-10612674D02*
X12827206Y-10574579D01*
X12827206Y-10574579D02*
X12836729Y-10555531D01*
X12836729Y-10555531D02*
X12846253Y-10546008D01*
X12846253Y-10546008D02*
X12865301Y-10536484D01*
X13055777Y-10536484D02*
X13074825Y-10536484D01*
X13074825Y-10536484D02*
X13093872Y-10546008D01*
X13093872Y-10546008D02*
X13103396Y-10555531D01*
X13103396Y-10555531D02*
X13112920Y-10574579D01*
X13112920Y-10574579D02*
X13122444Y-10612674D01*
X13122444Y-10612674D02*
X13122444Y-10660293D01*
X13122444Y-10660293D02*
X13112920Y-10698389D01*
X13112920Y-10698389D02*
X13103396Y-10717436D01*
X13103396Y-10717436D02*
X13093872Y-10726960D01*
X13093872Y-10726960D02*
X13074825Y-10736484D01*
X13074825Y-10736484D02*
X13055777Y-10736484D01*
X13055777Y-10736484D02*
X13036729Y-10726960D01*
X13036729Y-10726960D02*
X13027206Y-10717436D01*
X13027206Y-10717436D02*
X13017682Y-10698389D01*
X13017682Y-10698389D02*
X13008158Y-10660293D01*
X13008158Y-10660293D02*
X13008158Y-10612674D01*
X13008158Y-10612674D02*
X13017682Y-10574579D01*
X13017682Y-10574579D02*
X13027206Y-10555531D01*
X13027206Y-10555531D02*
X13036729Y-10546008D01*
X13036729Y-10546008D02*
X13055777Y-10536484D01*
X13198634Y-10536484D02*
X13198634Y-10574579D01*
X13274825Y-10536484D02*
X13274825Y-10574579D01*
X13570063Y-10812674D02*
X13560539Y-10803150D01*
X13560539Y-10803150D02*
X13541491Y-10774579D01*
X13541491Y-10774579D02*
X13531968Y-10755531D01*
X13531968Y-10755531D02*
X13522444Y-10726960D01*
X13522444Y-10726960D02*
X13512920Y-10679341D01*
X13512920Y-10679341D02*
X13512920Y-10641246D01*
X13512920Y-10641246D02*
X13522444Y-10593627D01*
X13522444Y-10593627D02*
X13531968Y-10565055D01*
X13531968Y-10565055D02*
X13541491Y-10546008D01*
X13541491Y-10546008D02*
X13560539Y-10517436D01*
X13560539Y-10517436D02*
X13570063Y-10507912D01*
X13751015Y-10736484D02*
X13636729Y-10736484D01*
X13693872Y-10736484D02*
X13693872Y-10536484D01*
X13693872Y-10536484D02*
X13674825Y-10565055D01*
X13674825Y-10565055D02*
X13655777Y-10584103D01*
X13655777Y-10584103D02*
X13636729Y-10593627D01*
X13922444Y-10536484D02*
X13884348Y-10536484D01*
X13884348Y-10536484D02*
X13865301Y-10546008D01*
X13865301Y-10546008D02*
X13855777Y-10555531D01*
X13855777Y-10555531D02*
X13836729Y-10584103D01*
X13836729Y-10584103D02*
X13827206Y-10622198D01*
X13827206Y-10622198D02*
X13827206Y-10698389D01*
X13827206Y-10698389D02*
X13836729Y-10717436D01*
X13836729Y-10717436D02*
X13846253Y-10726960D01*
X13846253Y-10726960D02*
X13865301Y-10736484D01*
X13865301Y-10736484D02*
X13903396Y-10736484D01*
X13903396Y-10736484D02*
X13922444Y-10726960D01*
X13922444Y-10726960D02*
X13931968Y-10717436D01*
X13931968Y-10717436D02*
X13941491Y-10698389D01*
X13941491Y-10698389D02*
X13941491Y-10650770D01*
X13941491Y-10650770D02*
X13931968Y-10631722D01*
X13931968Y-10631722D02*
X13922444Y-10622198D01*
X13922444Y-10622198D02*
X13903396Y-10612674D01*
X13903396Y-10612674D02*
X13865301Y-10612674D01*
X13865301Y-10612674D02*
X13846253Y-10622198D01*
X13846253Y-10622198D02*
X13836729Y-10631722D01*
X13836729Y-10631722D02*
X13827206Y-10650770D01*
X14036729Y-10736484D02*
X14074825Y-10736484D01*
X14074825Y-10736484D02*
X14093872Y-10726960D01*
X14093872Y-10726960D02*
X14103396Y-10717436D01*
X14103396Y-10717436D02*
X14122444Y-10688865D01*
X14122444Y-10688865D02*
X14131968Y-10650770D01*
X14131968Y-10650770D02*
X14131968Y-10574579D01*
X14131968Y-10574579D02*
X14122444Y-10555531D01*
X14122444Y-10555531D02*
X14112920Y-10546008D01*
X14112920Y-10546008D02*
X14093872Y-10536484D01*
X14093872Y-10536484D02*
X14055777Y-10536484D01*
X14055777Y-10536484D02*
X14036729Y-10546008D01*
X14036729Y-10546008D02*
X14027206Y-10555531D01*
X14027206Y-10555531D02*
X14017682Y-10574579D01*
X14017682Y-10574579D02*
X14017682Y-10622198D01*
X14017682Y-10622198D02*
X14027206Y-10641246D01*
X14027206Y-10641246D02*
X14036729Y-10650770D01*
X14036729Y-10650770D02*
X14055777Y-10660293D01*
X14055777Y-10660293D02*
X14093872Y-10660293D01*
X14093872Y-10660293D02*
X14112920Y-10650770D01*
X14112920Y-10650770D02*
X14122444Y-10641246D01*
X14122444Y-10641246D02*
X14131968Y-10622198D01*
X14370063Y-10736484D02*
X14370063Y-10536484D01*
X14455777Y-10736484D02*
X14455777Y-10631722D01*
X14455777Y-10631722D02*
X14446253Y-10612674D01*
X14446253Y-10612674D02*
X14427206Y-10603150D01*
X14427206Y-10603150D02*
X14398634Y-10603150D01*
X14398634Y-10603150D02*
X14379587Y-10612674D01*
X14379587Y-10612674D02*
X14370063Y-10622198D01*
X14579587Y-10736484D02*
X14560539Y-10726960D01*
X14560539Y-10726960D02*
X14551015Y-10717436D01*
X14551015Y-10717436D02*
X14541491Y-10698389D01*
X14541491Y-10698389D02*
X14541491Y-10641246D01*
X14541491Y-10641246D02*
X14551015Y-10622198D01*
X14551015Y-10622198D02*
X14560539Y-10612674D01*
X14560539Y-10612674D02*
X14579587Y-10603150D01*
X14579587Y-10603150D02*
X14608158Y-10603150D01*
X14608158Y-10603150D02*
X14627206Y-10612674D01*
X14627206Y-10612674D02*
X14636730Y-10622198D01*
X14636730Y-10622198D02*
X14646253Y-10641246D01*
X14646253Y-10641246D02*
X14646253Y-10698389D01*
X14646253Y-10698389D02*
X14636730Y-10717436D01*
X14636730Y-10717436D02*
X14627206Y-10726960D01*
X14627206Y-10726960D02*
X14608158Y-10736484D01*
X14608158Y-10736484D02*
X14579587Y-10736484D01*
X14760539Y-10736484D02*
X14741491Y-10726960D01*
X14741491Y-10726960D02*
X14731968Y-10707912D01*
X14731968Y-10707912D02*
X14731968Y-10536484D01*
X14912920Y-10726960D02*
X14893872Y-10736484D01*
X14893872Y-10736484D02*
X14855777Y-10736484D01*
X14855777Y-10736484D02*
X14836730Y-10726960D01*
X14836730Y-10726960D02*
X14827206Y-10707912D01*
X14827206Y-10707912D02*
X14827206Y-10631722D01*
X14827206Y-10631722D02*
X14836730Y-10612674D01*
X14836730Y-10612674D02*
X14855777Y-10603150D01*
X14855777Y-10603150D02*
X14893872Y-10603150D01*
X14893872Y-10603150D02*
X14912920Y-10612674D01*
X14912920Y-10612674D02*
X14922444Y-10631722D01*
X14922444Y-10631722D02*
X14922444Y-10650770D01*
X14922444Y-10650770D02*
X14827206Y-10669817D01*
X14998634Y-10726960D02*
X15017682Y-10736484D01*
X15017682Y-10736484D02*
X15055777Y-10736484D01*
X15055777Y-10736484D02*
X15074825Y-10726960D01*
X15074825Y-10726960D02*
X15084349Y-10707912D01*
X15084349Y-10707912D02*
X15084349Y-10698389D01*
X15084349Y-10698389D02*
X15074825Y-10679341D01*
X15074825Y-10679341D02*
X15055777Y-10669817D01*
X15055777Y-10669817D02*
X15027206Y-10669817D01*
X15027206Y-10669817D02*
X15008158Y-10660293D01*
X15008158Y-10660293D02*
X14998634Y-10641246D01*
X14998634Y-10641246D02*
X14998634Y-10631722D01*
X14998634Y-10631722D02*
X15008158Y-10612674D01*
X15008158Y-10612674D02*
X15027206Y-10603150D01*
X15027206Y-10603150D02*
X15055777Y-10603150D01*
X15055777Y-10603150D02*
X15074825Y-10612674D01*
X15151015Y-10812674D02*
X15160539Y-10803150D01*
X15160539Y-10803150D02*
X15179587Y-10774579D01*
X15179587Y-10774579D02*
X15189111Y-10755531D01*
X15189111Y-10755531D02*
X15198634Y-10726960D01*
X15198634Y-10726960D02*
X15208158Y-10679341D01*
X15208158Y-10679341D02*
X15208158Y-10641246D01*
X15208158Y-10641246D02*
X15198634Y-10593627D01*
X15198634Y-10593627D02*
X15189111Y-10565055D01*
X15189111Y-10565055D02*
X15179587Y-10546008D01*
X15179587Y-10546008D02*
X15160539Y-10517436D01*
X15160539Y-10517436D02*
X15151015Y-10507912D01*
D10*
X9995000Y-10909000D02*
G75*
G02*
X9965000Y-10909000I-15000J0D01*
G01*
X9965000Y-10909000D02*
G75*
G02*
X9995000Y-10909000I15000J0D01*
G01*
D11*
X10293872Y-10800484D02*
X10312920Y-10800484D01*
X10312920Y-10800484D02*
X10331967Y-10810008D01*
X10331967Y-10810008D02*
X10341491Y-10819531D01*
X10341491Y-10819531D02*
X10351015Y-10838579D01*
X10351015Y-10838579D02*
X10360539Y-10876674D01*
X10360539Y-10876674D02*
X10360539Y-10924293D01*
X10360539Y-10924293D02*
X10351015Y-10962389D01*
X10351015Y-10962389D02*
X10341491Y-10981436D01*
X10341491Y-10981436D02*
X10331967Y-10990960D01*
X10331967Y-10990960D02*
X10312920Y-11000484D01*
X10312920Y-11000484D02*
X10293872Y-11000484D01*
X10293872Y-11000484D02*
X10274824Y-10990960D01*
X10274824Y-10990960D02*
X10265301Y-10981436D01*
X10265301Y-10981436D02*
X10255777Y-10962389D01*
X10255777Y-10962389D02*
X10246253Y-10924293D01*
X10246253Y-10924293D02*
X10246253Y-10876674D01*
X10246253Y-10876674D02*
X10255777Y-10838579D01*
X10255777Y-10838579D02*
X10265301Y-10819531D01*
X10265301Y-10819531D02*
X10274824Y-10810008D01*
X10274824Y-10810008D02*
X10293872Y-10800484D01*
X10446253Y-10981436D02*
X10455777Y-10990960D01*
X10455777Y-10990960D02*
X10446253Y-11000484D01*
X10446253Y-11000484D02*
X10436729Y-10990960D01*
X10436729Y-10990960D02*
X10446253Y-10981436D01*
X10446253Y-10981436D02*
X10446253Y-11000484D01*
X10522444Y-10800484D02*
X10646253Y-10800484D01*
X10646253Y-10800484D02*
X10579586Y-10876674D01*
X10579586Y-10876674D02*
X10608158Y-10876674D01*
X10608158Y-10876674D02*
X10627205Y-10886198D01*
X10627205Y-10886198D02*
X10636729Y-10895722D01*
X10636729Y-10895722D02*
X10646253Y-10914770D01*
X10646253Y-10914770D02*
X10646253Y-10962389D01*
X10646253Y-10962389D02*
X10636729Y-10981436D01*
X10636729Y-10981436D02*
X10627205Y-10990960D01*
X10627205Y-10990960D02*
X10608158Y-11000484D01*
X10608158Y-11000484D02*
X10551015Y-11000484D01*
X10551015Y-11000484D02*
X10531967Y-10990960D01*
X10531967Y-10990960D02*
X10522444Y-10981436D01*
X10770063Y-10800484D02*
X10789110Y-10800484D01*
X10789110Y-10800484D02*
X10808158Y-10810008D01*
X10808158Y-10810008D02*
X10817682Y-10819531D01*
X10817682Y-10819531D02*
X10827205Y-10838579D01*
X10827205Y-10838579D02*
X10836729Y-10876674D01*
X10836729Y-10876674D02*
X10836729Y-10924293D01*
X10836729Y-10924293D02*
X10827205Y-10962389D01*
X10827205Y-10962389D02*
X10817682Y-10981436D01*
X10817682Y-10981436D02*
X10808158Y-10990960D01*
X10808158Y-10990960D02*
X10789110Y-11000484D01*
X10789110Y-11000484D02*
X10770063Y-11000484D01*
X10770063Y-11000484D02*
X10751015Y-10990960D01*
X10751015Y-10990960D02*
X10741491Y-10981436D01*
X10741491Y-10981436D02*
X10731967Y-10962389D01*
X10731967Y-10962389D02*
X10722444Y-10924293D01*
X10722444Y-10924293D02*
X10722444Y-10876674D01*
X10722444Y-10876674D02*
X10731967Y-10838579D01*
X10731967Y-10838579D02*
X10741491Y-10819531D01*
X10741491Y-10819531D02*
X10751015Y-10810008D01*
X10751015Y-10810008D02*
X10770063Y-10800484D01*
X10960539Y-10800484D02*
X10979586Y-10800484D01*
X10979586Y-10800484D02*
X10998634Y-10810008D01*
X10998634Y-10810008D02*
X11008158Y-10819531D01*
X11008158Y-10819531D02*
X11017682Y-10838579D01*
X11017682Y-10838579D02*
X11027205Y-10876674D01*
X11027205Y-10876674D02*
X11027205Y-10924293D01*
X11027205Y-10924293D02*
X11017682Y-10962389D01*
X11017682Y-10962389D02*
X11008158Y-10981436D01*
X11008158Y-10981436D02*
X10998634Y-10990960D01*
X10998634Y-10990960D02*
X10979586Y-11000484D01*
X10979586Y-11000484D02*
X10960539Y-11000484D01*
X10960539Y-11000484D02*
X10941491Y-10990960D01*
X10941491Y-10990960D02*
X10931967Y-10981436D01*
X10931967Y-10981436D02*
X10922444Y-10962389D01*
X10922444Y-10962389D02*
X10912920Y-10924293D01*
X10912920Y-10924293D02*
X10912920Y-10876674D01*
X10912920Y-10876674D02*
X10922444Y-10838579D01*
X10922444Y-10838579D02*
X10931967Y-10819531D01*
X10931967Y-10819531D02*
X10941491Y-10810008D01*
X10941491Y-10810008D02*
X10960539Y-10800484D01*
X11112920Y-11000484D02*
X11112920Y-10867150D01*
X11112920Y-10886198D02*
X11122444Y-10876674D01*
X11122444Y-10876674D02*
X11141491Y-10867150D01*
X11141491Y-10867150D02*
X11170063Y-10867150D01*
X11170063Y-10867150D02*
X11189110Y-10876674D01*
X11189110Y-10876674D02*
X11198634Y-10895722D01*
X11198634Y-10895722D02*
X11198634Y-11000484D01*
X11198634Y-10895722D02*
X11208158Y-10876674D01*
X11208158Y-10876674D02*
X11227205Y-10867150D01*
X11227205Y-10867150D02*
X11255777Y-10867150D01*
X11255777Y-10867150D02*
X11274824Y-10876674D01*
X11274824Y-10876674D02*
X11284348Y-10895722D01*
X11284348Y-10895722D02*
X11284348Y-11000484D01*
X11379586Y-11000484D02*
X11379586Y-10867150D01*
X11379586Y-10886198D02*
X11389110Y-10876674D01*
X11389110Y-10876674D02*
X11408158Y-10867150D01*
X11408158Y-10867150D02*
X11436729Y-10867150D01*
X11436729Y-10867150D02*
X11455777Y-10876674D01*
X11455777Y-10876674D02*
X11465301Y-10895722D01*
X11465301Y-10895722D02*
X11465301Y-11000484D01*
X11465301Y-10895722D02*
X11474824Y-10876674D01*
X11474824Y-10876674D02*
X11493872Y-10867150D01*
X11493872Y-10867150D02*
X11522443Y-10867150D01*
X11522443Y-10867150D02*
X11541491Y-10876674D01*
X11541491Y-10876674D02*
X11551015Y-10895722D01*
X11551015Y-10895722D02*
X11551015Y-11000484D01*
X11941491Y-10790960D02*
X11770063Y-11048103D01*
X12198634Y-10800484D02*
X12217682Y-10800484D01*
X12217682Y-10800484D02*
X12236729Y-10810008D01*
X12236729Y-10810008D02*
X12246253Y-10819531D01*
X12246253Y-10819531D02*
X12255777Y-10838579D01*
X12255777Y-10838579D02*
X12265301Y-10876674D01*
X12265301Y-10876674D02*
X12265301Y-10924293D01*
X12265301Y-10924293D02*
X12255777Y-10962389D01*
X12255777Y-10962389D02*
X12246253Y-10981436D01*
X12246253Y-10981436D02*
X12236729Y-10990960D01*
X12236729Y-10990960D02*
X12217682Y-11000484D01*
X12217682Y-11000484D02*
X12198634Y-11000484D01*
X12198634Y-11000484D02*
X12179586Y-10990960D01*
X12179586Y-10990960D02*
X12170063Y-10981436D01*
X12170063Y-10981436D02*
X12160539Y-10962389D01*
X12160539Y-10962389D02*
X12151015Y-10924293D01*
X12151015Y-10924293D02*
X12151015Y-10876674D01*
X12151015Y-10876674D02*
X12160539Y-10838579D01*
X12160539Y-10838579D02*
X12170063Y-10819531D01*
X12170063Y-10819531D02*
X12179586Y-10810008D01*
X12179586Y-10810008D02*
X12198634Y-10800484D01*
X12351015Y-10981436D02*
X12360539Y-10990960D01*
X12360539Y-10990960D02*
X12351015Y-11000484D01*
X12351015Y-11000484D02*
X12341491Y-10990960D01*
X12341491Y-10990960D02*
X12351015Y-10981436D01*
X12351015Y-10981436D02*
X12351015Y-11000484D01*
X12484348Y-10800484D02*
X12503396Y-10800484D01*
X12503396Y-10800484D02*
X12522444Y-10810008D01*
X12522444Y-10810008D02*
X12531967Y-10819531D01*
X12531967Y-10819531D02*
X12541491Y-10838579D01*
X12541491Y-10838579D02*
X12551015Y-10876674D01*
X12551015Y-10876674D02*
X12551015Y-10924293D01*
X12551015Y-10924293D02*
X12541491Y-10962389D01*
X12541491Y-10962389D02*
X12531967Y-10981436D01*
X12531967Y-10981436D02*
X12522444Y-10990960D01*
X12522444Y-10990960D02*
X12503396Y-11000484D01*
X12503396Y-11000484D02*
X12484348Y-11000484D01*
X12484348Y-11000484D02*
X12465301Y-10990960D01*
X12465301Y-10990960D02*
X12455777Y-10981436D01*
X12455777Y-10981436D02*
X12446253Y-10962389D01*
X12446253Y-10962389D02*
X12436729Y-10924293D01*
X12436729Y-10924293D02*
X12436729Y-10876674D01*
X12436729Y-10876674D02*
X12446253Y-10838579D01*
X12446253Y-10838579D02*
X12455777Y-10819531D01*
X12455777Y-10819531D02*
X12465301Y-10810008D01*
X12465301Y-10810008D02*
X12484348Y-10800484D01*
X12741491Y-11000484D02*
X12627206Y-11000484D01*
X12684348Y-11000484D02*
X12684348Y-10800484D01*
X12684348Y-10800484D02*
X12665301Y-10829055D01*
X12665301Y-10829055D02*
X12646253Y-10848103D01*
X12646253Y-10848103D02*
X12627206Y-10857627D01*
X12931967Y-11000484D02*
X12817682Y-11000484D01*
X12874825Y-11000484D02*
X12874825Y-10800484D01*
X12874825Y-10800484D02*
X12855777Y-10829055D01*
X12855777Y-10829055D02*
X12836729Y-10848103D01*
X12836729Y-10848103D02*
X12817682Y-10857627D01*
X13046253Y-10886198D02*
X13027206Y-10876674D01*
X13027206Y-10876674D02*
X13017682Y-10867150D01*
X13017682Y-10867150D02*
X13008158Y-10848103D01*
X13008158Y-10848103D02*
X13008158Y-10838579D01*
X13008158Y-10838579D02*
X13017682Y-10819531D01*
X13017682Y-10819531D02*
X13027206Y-10810008D01*
X13027206Y-10810008D02*
X13046253Y-10800484D01*
X13046253Y-10800484D02*
X13084348Y-10800484D01*
X13084348Y-10800484D02*
X13103396Y-10810008D01*
X13103396Y-10810008D02*
X13112920Y-10819531D01*
X13112920Y-10819531D02*
X13122444Y-10838579D01*
X13122444Y-10838579D02*
X13122444Y-10848103D01*
X13122444Y-10848103D02*
X13112920Y-10867150D01*
X13112920Y-10867150D02*
X13103396Y-10876674D01*
X13103396Y-10876674D02*
X13084348Y-10886198D01*
X13084348Y-10886198D02*
X13046253Y-10886198D01*
X13046253Y-10886198D02*
X13027206Y-10895722D01*
X13027206Y-10895722D02*
X13017682Y-10905246D01*
X13017682Y-10905246D02*
X13008158Y-10924293D01*
X13008158Y-10924293D02*
X13008158Y-10962389D01*
X13008158Y-10962389D02*
X13017682Y-10981436D01*
X13017682Y-10981436D02*
X13027206Y-10990960D01*
X13027206Y-10990960D02*
X13046253Y-11000484D01*
X13046253Y-11000484D02*
X13084348Y-11000484D01*
X13084348Y-11000484D02*
X13103396Y-10990960D01*
X13103396Y-10990960D02*
X13112920Y-10981436D01*
X13112920Y-10981436D02*
X13122444Y-10962389D01*
X13122444Y-10962389D02*
X13122444Y-10924293D01*
X13122444Y-10924293D02*
X13112920Y-10905246D01*
X13112920Y-10905246D02*
X13103396Y-10895722D01*
X13103396Y-10895722D02*
X13084348Y-10886198D01*
X13198634Y-10800484D02*
X13198634Y-10838579D01*
X13274825Y-10800484D02*
X13274825Y-10838579D01*
X13570063Y-11076674D02*
X13560539Y-11067150D01*
X13560539Y-11067150D02*
X13541491Y-11038579D01*
X13541491Y-11038579D02*
X13531968Y-11019531D01*
X13531968Y-11019531D02*
X13522444Y-10990960D01*
X13522444Y-10990960D02*
X13512920Y-10943341D01*
X13512920Y-10943341D02*
X13512920Y-10905246D01*
X13512920Y-10905246D02*
X13522444Y-10857627D01*
X13522444Y-10857627D02*
X13531968Y-10829055D01*
X13531968Y-10829055D02*
X13541491Y-10810008D01*
X13541491Y-10810008D02*
X13560539Y-10781436D01*
X13560539Y-10781436D02*
X13570063Y-10771912D01*
X13674825Y-10886198D02*
X13655777Y-10876674D01*
X13655777Y-10876674D02*
X13646253Y-10867150D01*
X13646253Y-10867150D02*
X13636729Y-10848103D01*
X13636729Y-10848103D02*
X13636729Y-10838579D01*
X13636729Y-10838579D02*
X13646253Y-10819531D01*
X13646253Y-10819531D02*
X13655777Y-10810008D01*
X13655777Y-10810008D02*
X13674825Y-10800484D01*
X13674825Y-10800484D02*
X13712920Y-10800484D01*
X13712920Y-10800484D02*
X13731968Y-10810008D01*
X13731968Y-10810008D02*
X13741491Y-10819531D01*
X13741491Y-10819531D02*
X13751015Y-10838579D01*
X13751015Y-10838579D02*
X13751015Y-10848103D01*
X13751015Y-10848103D02*
X13741491Y-10867150D01*
X13741491Y-10867150D02*
X13731968Y-10876674D01*
X13731968Y-10876674D02*
X13712920Y-10886198D01*
X13712920Y-10886198D02*
X13674825Y-10886198D01*
X13674825Y-10886198D02*
X13655777Y-10895722D01*
X13655777Y-10895722D02*
X13646253Y-10905246D01*
X13646253Y-10905246D02*
X13636729Y-10924293D01*
X13636729Y-10924293D02*
X13636729Y-10962389D01*
X13636729Y-10962389D02*
X13646253Y-10981436D01*
X13646253Y-10981436D02*
X13655777Y-10990960D01*
X13655777Y-10990960D02*
X13674825Y-11000484D01*
X13674825Y-11000484D02*
X13712920Y-11000484D01*
X13712920Y-11000484D02*
X13731968Y-10990960D01*
X13731968Y-10990960D02*
X13741491Y-10981436D01*
X13741491Y-10981436D02*
X13751015Y-10962389D01*
X13751015Y-10962389D02*
X13751015Y-10924293D01*
X13751015Y-10924293D02*
X13741491Y-10905246D01*
X13741491Y-10905246D02*
X13731968Y-10895722D01*
X13731968Y-10895722D02*
X13712920Y-10886198D01*
X13989110Y-11000484D02*
X13989110Y-10800484D01*
X14074825Y-11000484D02*
X14074825Y-10895722D01*
X14074825Y-10895722D02*
X14065301Y-10876674D01*
X14065301Y-10876674D02*
X14046253Y-10867150D01*
X14046253Y-10867150D02*
X14017682Y-10867150D01*
X14017682Y-10867150D02*
X13998634Y-10876674D01*
X13998634Y-10876674D02*
X13989110Y-10886198D01*
X14198634Y-11000484D02*
X14179587Y-10990960D01*
X14179587Y-10990960D02*
X14170063Y-10981436D01*
X14170063Y-10981436D02*
X14160539Y-10962389D01*
X14160539Y-10962389D02*
X14160539Y-10905246D01*
X14160539Y-10905246D02*
X14170063Y-10886198D01*
X14170063Y-10886198D02*
X14179587Y-10876674D01*
X14179587Y-10876674D02*
X14198634Y-10867150D01*
X14198634Y-10867150D02*
X14227206Y-10867150D01*
X14227206Y-10867150D02*
X14246253Y-10876674D01*
X14246253Y-10876674D02*
X14255777Y-10886198D01*
X14255777Y-10886198D02*
X14265301Y-10905246D01*
X14265301Y-10905246D02*
X14265301Y-10962389D01*
X14265301Y-10962389D02*
X14255777Y-10981436D01*
X14255777Y-10981436D02*
X14246253Y-10990960D01*
X14246253Y-10990960D02*
X14227206Y-11000484D01*
X14227206Y-11000484D02*
X14198634Y-11000484D01*
X14379587Y-11000484D02*
X14360539Y-10990960D01*
X14360539Y-10990960D02*
X14351015Y-10971912D01*
X14351015Y-10971912D02*
X14351015Y-10800484D01*
X14531968Y-10990960D02*
X14512920Y-11000484D01*
X14512920Y-11000484D02*
X14474825Y-11000484D01*
X14474825Y-11000484D02*
X14455777Y-10990960D01*
X14455777Y-10990960D02*
X14446253Y-10971912D01*
X14446253Y-10971912D02*
X14446253Y-10895722D01*
X14446253Y-10895722D02*
X14455777Y-10876674D01*
X14455777Y-10876674D02*
X14474825Y-10867150D01*
X14474825Y-10867150D02*
X14512920Y-10867150D01*
X14512920Y-10867150D02*
X14531968Y-10876674D01*
X14531968Y-10876674D02*
X14541491Y-10895722D01*
X14541491Y-10895722D02*
X14541491Y-10914770D01*
X14541491Y-10914770D02*
X14446253Y-10933817D01*
X14617682Y-10990960D02*
X14636730Y-11000484D01*
X14636730Y-11000484D02*
X14674825Y-11000484D01*
X14674825Y-11000484D02*
X14693872Y-10990960D01*
X14693872Y-10990960D02*
X14703396Y-10971912D01*
X14703396Y-10971912D02*
X14703396Y-10962389D01*
X14703396Y-10962389D02*
X14693872Y-10943341D01*
X14693872Y-10943341D02*
X14674825Y-10933817D01*
X14674825Y-10933817D02*
X14646253Y-10933817D01*
X14646253Y-10933817D02*
X14627206Y-10924293D01*
X14627206Y-10924293D02*
X14617682Y-10905246D01*
X14617682Y-10905246D02*
X14617682Y-10895722D01*
X14617682Y-10895722D02*
X14627206Y-10876674D01*
X14627206Y-10876674D02*
X14646253Y-10867150D01*
X14646253Y-10867150D02*
X14674825Y-10867150D01*
X14674825Y-10867150D02*
X14693872Y-10876674D01*
X14770063Y-11076674D02*
X14779587Y-11067150D01*
X14779587Y-11067150D02*
X14798634Y-11038579D01*
X14798634Y-11038579D02*
X14808158Y-11019531D01*
X14808158Y-11019531D02*
X14817682Y-10990960D01*
X14817682Y-10990960D02*
X14827206Y-10943341D01*
X14827206Y-10943341D02*
X14827206Y-10905246D01*
X14827206Y-10905246D02*
X14817682Y-10857627D01*
X14817682Y-10857627D02*
X14808158Y-10829055D01*
X14808158Y-10829055D02*
X14798634Y-10810008D01*
X14798634Y-10810008D02*
X14779587Y-10781436D01*
X14779587Y-10781436D02*
X14770063Y-10771912D01*
D10*
X9945000Y-11123000D02*
X9945000Y-11223000D01*
X9895000Y-11173000D02*
X9995000Y-11173000D01*
D11*
X10360539Y-11264484D02*
X10246253Y-11264484D01*
X10303396Y-11264484D02*
X10303396Y-11064484D01*
X10303396Y-11064484D02*
X10284348Y-11093055D01*
X10284348Y-11093055D02*
X10265301Y-11112103D01*
X10265301Y-11112103D02*
X10246253Y-11121627D01*
X10446253Y-11245436D02*
X10455777Y-11254960D01*
X10455777Y-11254960D02*
X10446253Y-11264484D01*
X10446253Y-11264484D02*
X10436729Y-11254960D01*
X10436729Y-11254960D02*
X10446253Y-11245436D01*
X10446253Y-11245436D02*
X10446253Y-11264484D01*
X10579586Y-11064484D02*
X10598634Y-11064484D01*
X10598634Y-11064484D02*
X10617682Y-11074008D01*
X10617682Y-11074008D02*
X10627205Y-11083531D01*
X10627205Y-11083531D02*
X10636729Y-11102579D01*
X10636729Y-11102579D02*
X10646253Y-11140674D01*
X10646253Y-11140674D02*
X10646253Y-11188293D01*
X10646253Y-11188293D02*
X10636729Y-11226388D01*
X10636729Y-11226388D02*
X10627205Y-11245436D01*
X10627205Y-11245436D02*
X10617682Y-11254960D01*
X10617682Y-11254960D02*
X10598634Y-11264484D01*
X10598634Y-11264484D02*
X10579586Y-11264484D01*
X10579586Y-11264484D02*
X10560539Y-11254960D01*
X10560539Y-11254960D02*
X10551015Y-11245436D01*
X10551015Y-11245436D02*
X10541491Y-11226388D01*
X10541491Y-11226388D02*
X10531967Y-11188293D01*
X10531967Y-11188293D02*
X10531967Y-11140674D01*
X10531967Y-11140674D02*
X10541491Y-11102579D01*
X10541491Y-11102579D02*
X10551015Y-11083531D01*
X10551015Y-11083531D02*
X10560539Y-11074008D01*
X10560539Y-11074008D02*
X10579586Y-11064484D01*
X10770063Y-11064484D02*
X10789110Y-11064484D01*
X10789110Y-11064484D02*
X10808158Y-11074008D01*
X10808158Y-11074008D02*
X10817682Y-11083531D01*
X10817682Y-11083531D02*
X10827205Y-11102579D01*
X10827205Y-11102579D02*
X10836729Y-11140674D01*
X10836729Y-11140674D02*
X10836729Y-11188293D01*
X10836729Y-11188293D02*
X10827205Y-11226388D01*
X10827205Y-11226388D02*
X10817682Y-11245436D01*
X10817682Y-11245436D02*
X10808158Y-11254960D01*
X10808158Y-11254960D02*
X10789110Y-11264484D01*
X10789110Y-11264484D02*
X10770063Y-11264484D01*
X10770063Y-11264484D02*
X10751015Y-11254960D01*
X10751015Y-11254960D02*
X10741491Y-11245436D01*
X10741491Y-11245436D02*
X10731967Y-11226388D01*
X10731967Y-11226388D02*
X10722444Y-11188293D01*
X10722444Y-11188293D02*
X10722444Y-11140674D01*
X10722444Y-11140674D02*
X10731967Y-11102579D01*
X10731967Y-11102579D02*
X10741491Y-11083531D01*
X10741491Y-11083531D02*
X10751015Y-11074008D01*
X10751015Y-11074008D02*
X10770063Y-11064484D01*
X10960539Y-11064484D02*
X10979586Y-11064484D01*
X10979586Y-11064484D02*
X10998634Y-11074008D01*
X10998634Y-11074008D02*
X11008158Y-11083531D01*
X11008158Y-11083531D02*
X11017682Y-11102579D01*
X11017682Y-11102579D02*
X11027205Y-11140674D01*
X11027205Y-11140674D02*
X11027205Y-11188293D01*
X11027205Y-11188293D02*
X11017682Y-11226388D01*
X11017682Y-11226388D02*
X11008158Y-11245436D01*
X11008158Y-11245436D02*
X10998634Y-11254960D01*
X10998634Y-11254960D02*
X10979586Y-11264484D01*
X10979586Y-11264484D02*
X10960539Y-11264484D01*
X10960539Y-11264484D02*
X10941491Y-11254960D01*
X10941491Y-11254960D02*
X10931967Y-11245436D01*
X10931967Y-11245436D02*
X10922444Y-11226388D01*
X10922444Y-11226388D02*
X10912920Y-11188293D01*
X10912920Y-11188293D02*
X10912920Y-11140674D01*
X10912920Y-11140674D02*
X10922444Y-11102579D01*
X10922444Y-11102579D02*
X10931967Y-11083531D01*
X10931967Y-11083531D02*
X10941491Y-11074008D01*
X10941491Y-11074008D02*
X10960539Y-11064484D01*
X11112920Y-11264484D02*
X11112920Y-11131150D01*
X11112920Y-11150198D02*
X11122444Y-11140674D01*
X11122444Y-11140674D02*
X11141491Y-11131150D01*
X11141491Y-11131150D02*
X11170063Y-11131150D01*
X11170063Y-11131150D02*
X11189110Y-11140674D01*
X11189110Y-11140674D02*
X11198634Y-11159722D01*
X11198634Y-11159722D02*
X11198634Y-11264484D01*
X11198634Y-11159722D02*
X11208158Y-11140674D01*
X11208158Y-11140674D02*
X11227205Y-11131150D01*
X11227205Y-11131150D02*
X11255777Y-11131150D01*
X11255777Y-11131150D02*
X11274824Y-11140674D01*
X11274824Y-11140674D02*
X11284348Y-11159722D01*
X11284348Y-11159722D02*
X11284348Y-11264484D01*
X11379586Y-11264484D02*
X11379586Y-11131150D01*
X11379586Y-11150198D02*
X11389110Y-11140674D01*
X11389110Y-11140674D02*
X11408158Y-11131150D01*
X11408158Y-11131150D02*
X11436729Y-11131150D01*
X11436729Y-11131150D02*
X11455777Y-11140674D01*
X11455777Y-11140674D02*
X11465301Y-11159722D01*
X11465301Y-11159722D02*
X11465301Y-11264484D01*
X11465301Y-11159722D02*
X11474824Y-11140674D01*
X11474824Y-11140674D02*
X11493872Y-11131150D01*
X11493872Y-11131150D02*
X11522443Y-11131150D01*
X11522443Y-11131150D02*
X11541491Y-11140674D01*
X11541491Y-11140674D02*
X11551015Y-11159722D01*
X11551015Y-11159722D02*
X11551015Y-11264484D01*
X11941491Y-11054960D02*
X11770063Y-11312103D01*
X12198634Y-11064484D02*
X12217682Y-11064484D01*
X12217682Y-11064484D02*
X12236729Y-11074008D01*
X12236729Y-11074008D02*
X12246253Y-11083531D01*
X12246253Y-11083531D02*
X12255777Y-11102579D01*
X12255777Y-11102579D02*
X12265301Y-11140674D01*
X12265301Y-11140674D02*
X12265301Y-11188293D01*
X12265301Y-11188293D02*
X12255777Y-11226388D01*
X12255777Y-11226388D02*
X12246253Y-11245436D01*
X12246253Y-11245436D02*
X12236729Y-11254960D01*
X12236729Y-11254960D02*
X12217682Y-11264484D01*
X12217682Y-11264484D02*
X12198634Y-11264484D01*
X12198634Y-11264484D02*
X12179586Y-11254960D01*
X12179586Y-11254960D02*
X12170063Y-11245436D01*
X12170063Y-11245436D02*
X12160539Y-11226388D01*
X12160539Y-11226388D02*
X12151015Y-11188293D01*
X12151015Y-11188293D02*
X12151015Y-11140674D01*
X12151015Y-11140674D02*
X12160539Y-11102579D01*
X12160539Y-11102579D02*
X12170063Y-11083531D01*
X12170063Y-11083531D02*
X12179586Y-11074008D01*
X12179586Y-11074008D02*
X12198634Y-11064484D01*
X12351015Y-11245436D02*
X12360539Y-11254960D01*
X12360539Y-11254960D02*
X12351015Y-11264484D01*
X12351015Y-11264484D02*
X12341491Y-11254960D01*
X12341491Y-11254960D02*
X12351015Y-11245436D01*
X12351015Y-11245436D02*
X12351015Y-11264484D01*
X12484348Y-11064484D02*
X12503396Y-11064484D01*
X12503396Y-11064484D02*
X12522444Y-11074008D01*
X12522444Y-11074008D02*
X12531967Y-11083531D01*
X12531967Y-11083531D02*
X12541491Y-11102579D01*
X12541491Y-11102579D02*
X12551015Y-11140674D01*
X12551015Y-11140674D02*
X12551015Y-11188293D01*
X12551015Y-11188293D02*
X12541491Y-11226388D01*
X12541491Y-11226388D02*
X12531967Y-11245436D01*
X12531967Y-11245436D02*
X12522444Y-11254960D01*
X12522444Y-11254960D02*
X12503396Y-11264484D01*
X12503396Y-11264484D02*
X12484348Y-11264484D01*
X12484348Y-11264484D02*
X12465301Y-11254960D01*
X12465301Y-11254960D02*
X12455777Y-11245436D01*
X12455777Y-11245436D02*
X12446253Y-11226388D01*
X12446253Y-11226388D02*
X12436729Y-11188293D01*
X12436729Y-11188293D02*
X12436729Y-11140674D01*
X12436729Y-11140674D02*
X12446253Y-11102579D01*
X12446253Y-11102579D02*
X12455777Y-11083531D01*
X12455777Y-11083531D02*
X12465301Y-11074008D01*
X12465301Y-11074008D02*
X12484348Y-11064484D01*
X12617682Y-11064484D02*
X12741491Y-11064484D01*
X12741491Y-11064484D02*
X12674825Y-11140674D01*
X12674825Y-11140674D02*
X12703396Y-11140674D01*
X12703396Y-11140674D02*
X12722444Y-11150198D01*
X12722444Y-11150198D02*
X12731967Y-11159722D01*
X12731967Y-11159722D02*
X12741491Y-11178770D01*
X12741491Y-11178770D02*
X12741491Y-11226388D01*
X12741491Y-11226388D02*
X12731967Y-11245436D01*
X12731967Y-11245436D02*
X12722444Y-11254960D01*
X12722444Y-11254960D02*
X12703396Y-11264484D01*
X12703396Y-11264484D02*
X12646253Y-11264484D01*
X12646253Y-11264484D02*
X12627206Y-11254960D01*
X12627206Y-11254960D02*
X12617682Y-11245436D01*
X12836729Y-11264484D02*
X12874825Y-11264484D01*
X12874825Y-11264484D02*
X12893872Y-11254960D01*
X12893872Y-11254960D02*
X12903396Y-11245436D01*
X12903396Y-11245436D02*
X12922444Y-11216865D01*
X12922444Y-11216865D02*
X12931967Y-11178770D01*
X12931967Y-11178770D02*
X12931967Y-11102579D01*
X12931967Y-11102579D02*
X12922444Y-11083531D01*
X12922444Y-11083531D02*
X12912920Y-11074008D01*
X12912920Y-11074008D02*
X12893872Y-11064484D01*
X12893872Y-11064484D02*
X12855777Y-11064484D01*
X12855777Y-11064484D02*
X12836729Y-11074008D01*
X12836729Y-11074008D02*
X12827206Y-11083531D01*
X12827206Y-11083531D02*
X12817682Y-11102579D01*
X12817682Y-11102579D02*
X12817682Y-11150198D01*
X12817682Y-11150198D02*
X12827206Y-11169246D01*
X12827206Y-11169246D02*
X12836729Y-11178770D01*
X12836729Y-11178770D02*
X12855777Y-11188293D01*
X12855777Y-11188293D02*
X12893872Y-11188293D01*
X12893872Y-11188293D02*
X12912920Y-11178770D01*
X12912920Y-11178770D02*
X12922444Y-11169246D01*
X12922444Y-11169246D02*
X12931967Y-11150198D01*
X13103396Y-11131150D02*
X13103396Y-11264484D01*
X13055777Y-11054960D02*
X13008158Y-11197817D01*
X13008158Y-11197817D02*
X13131967Y-11197817D01*
X13198634Y-11064484D02*
X13198634Y-11102579D01*
X13274825Y-11064484D02*
X13274825Y-11102579D01*
X13570063Y-11340674D02*
X13560539Y-11331150D01*
X13560539Y-11331150D02*
X13541491Y-11302579D01*
X13541491Y-11302579D02*
X13531968Y-11283531D01*
X13531968Y-11283531D02*
X13522444Y-11254960D01*
X13522444Y-11254960D02*
X13512920Y-11207341D01*
X13512920Y-11207341D02*
X13512920Y-11169246D01*
X13512920Y-11169246D02*
X13522444Y-11121627D01*
X13522444Y-11121627D02*
X13531968Y-11093055D01*
X13531968Y-11093055D02*
X13541491Y-11074008D01*
X13541491Y-11074008D02*
X13560539Y-11045436D01*
X13560539Y-11045436D02*
X13570063Y-11035912D01*
X13731968Y-11131150D02*
X13731968Y-11264484D01*
X13684348Y-11054960D02*
X13636729Y-11197817D01*
X13636729Y-11197817D02*
X13760539Y-11197817D01*
X13874825Y-11064484D02*
X13893872Y-11064484D01*
X13893872Y-11064484D02*
X13912920Y-11074008D01*
X13912920Y-11074008D02*
X13922444Y-11083531D01*
X13922444Y-11083531D02*
X13931968Y-11102579D01*
X13931968Y-11102579D02*
X13941491Y-11140674D01*
X13941491Y-11140674D02*
X13941491Y-11188293D01*
X13941491Y-11188293D02*
X13931968Y-11226388D01*
X13931968Y-11226388D02*
X13922444Y-11245436D01*
X13922444Y-11245436D02*
X13912920Y-11254960D01*
X13912920Y-11254960D02*
X13893872Y-11264484D01*
X13893872Y-11264484D02*
X13874825Y-11264484D01*
X13874825Y-11264484D02*
X13855777Y-11254960D01*
X13855777Y-11254960D02*
X13846253Y-11245436D01*
X13846253Y-11245436D02*
X13836729Y-11226388D01*
X13836729Y-11226388D02*
X13827206Y-11188293D01*
X13827206Y-11188293D02*
X13827206Y-11140674D01*
X13827206Y-11140674D02*
X13836729Y-11102579D01*
X13836729Y-11102579D02*
X13846253Y-11083531D01*
X13846253Y-11083531D02*
X13855777Y-11074008D01*
X13855777Y-11074008D02*
X13874825Y-11064484D01*
X14179587Y-11264484D02*
X14179587Y-11064484D01*
X14265301Y-11264484D02*
X14265301Y-11159722D01*
X14265301Y-11159722D02*
X14255777Y-11140674D01*
X14255777Y-11140674D02*
X14236730Y-11131150D01*
X14236730Y-11131150D02*
X14208158Y-11131150D01*
X14208158Y-11131150D02*
X14189110Y-11140674D01*
X14189110Y-11140674D02*
X14179587Y-11150198D01*
X14389110Y-11264484D02*
X14370063Y-11254960D01*
X14370063Y-11254960D02*
X14360539Y-11245436D01*
X14360539Y-11245436D02*
X14351015Y-11226388D01*
X14351015Y-11226388D02*
X14351015Y-11169246D01*
X14351015Y-11169246D02*
X14360539Y-11150198D01*
X14360539Y-11150198D02*
X14370063Y-11140674D01*
X14370063Y-11140674D02*
X14389110Y-11131150D01*
X14389110Y-11131150D02*
X14417682Y-11131150D01*
X14417682Y-11131150D02*
X14436730Y-11140674D01*
X14436730Y-11140674D02*
X14446253Y-11150198D01*
X14446253Y-11150198D02*
X14455777Y-11169246D01*
X14455777Y-11169246D02*
X14455777Y-11226388D01*
X14455777Y-11226388D02*
X14446253Y-11245436D01*
X14446253Y-11245436D02*
X14436730Y-11254960D01*
X14436730Y-11254960D02*
X14417682Y-11264484D01*
X14417682Y-11264484D02*
X14389110Y-11264484D01*
X14570063Y-11264484D02*
X14551015Y-11254960D01*
X14551015Y-11254960D02*
X14541491Y-11235912D01*
X14541491Y-11235912D02*
X14541491Y-11064484D01*
X14722444Y-11254960D02*
X14703396Y-11264484D01*
X14703396Y-11264484D02*
X14665301Y-11264484D01*
X14665301Y-11264484D02*
X14646253Y-11254960D01*
X14646253Y-11254960D02*
X14636730Y-11235912D01*
X14636730Y-11235912D02*
X14636730Y-11159722D01*
X14636730Y-11159722D02*
X14646253Y-11140674D01*
X14646253Y-11140674D02*
X14665301Y-11131150D01*
X14665301Y-11131150D02*
X14703396Y-11131150D01*
X14703396Y-11131150D02*
X14722444Y-11140674D01*
X14722444Y-11140674D02*
X14731968Y-11159722D01*
X14731968Y-11159722D02*
X14731968Y-11178770D01*
X14731968Y-11178770D02*
X14636730Y-11197817D01*
X14808158Y-11254960D02*
X14827206Y-11264484D01*
X14827206Y-11264484D02*
X14865301Y-11264484D01*
X14865301Y-11264484D02*
X14884349Y-11254960D01*
X14884349Y-11254960D02*
X14893872Y-11235912D01*
X14893872Y-11235912D02*
X14893872Y-11226388D01*
X14893872Y-11226388D02*
X14884349Y-11207341D01*
X14884349Y-11207341D02*
X14865301Y-11197817D01*
X14865301Y-11197817D02*
X14836730Y-11197817D01*
X14836730Y-11197817D02*
X14817682Y-11188293D01*
X14817682Y-11188293D02*
X14808158Y-11169246D01*
X14808158Y-11169246D02*
X14808158Y-11159722D01*
X14808158Y-11159722D02*
X14817682Y-11140674D01*
X14817682Y-11140674D02*
X14836730Y-11131150D01*
X14836730Y-11131150D02*
X14865301Y-11131150D01*
X14865301Y-11131150D02*
X14884349Y-11140674D01*
X14960539Y-11340674D02*
X14970063Y-11331150D01*
X14970063Y-11331150D02*
X14989111Y-11302579D01*
X14989111Y-11302579D02*
X14998634Y-11283531D01*
X14998634Y-11283531D02*
X15008158Y-11254960D01*
X15008158Y-11254960D02*
X15017682Y-11207341D01*
X15017682Y-11207341D02*
X15017682Y-11169246D01*
X15017682Y-11169246D02*
X15008158Y-11121627D01*
X15008158Y-11121627D02*
X14998634Y-11093055D01*
X14998634Y-11093055D02*
X14989111Y-11074008D01*
X14989111Y-11074008D02*
X14970063Y-11045436D01*
X14970063Y-11045436D02*
X14960539Y-11035912D01*
M02*
