G04 #@! TF.GenerationSoftware,KiCad,Pcbnew,9.0.7*
G04 #@! TF.CreationDate,2026-02-19T07:24:11-06:00*
G04 #@! TF.ProjectId,wireless-uhat-tht-rpi-radio-module-2,77697265-6c65-4737-932d-756861742d74,rev?*
G04 #@! TF.SameCoordinates,Original*
G04 #@! TF.FileFunction,Copper,L2,Bot*
G04 #@! TF.FilePolarity,Positive*
%FSLAX46Y46*%
G04 Gerber Fmt 4.6, Leading zero omitted, Abs format (unit mm)*
G04 Created by KiCad (PCBNEW 9.0.7) date 2026-02-19 07:24:11*
%MOMM*%
%LPD*%
G01*
G04 APERTURE LIST*
%ADD10C,0.100000*%
%ADD11C,0.150000*%
%ADD12C,0.300000*%
%ADD13C,0.400000*%
G04 #@! TA.AperFunction,ComponentPad*
%ADD14R,1.700000X1.700000*%
G04 #@! TD*
G04 #@! TA.AperFunction,ComponentPad*
%ADD15C,1.700000*%
G04 #@! TD*
G04 #@! TA.AperFunction,ViaPad*
%ADD16C,0.600000*%
G04 #@! TD*
G04 #@! TA.AperFunction,ViaPad*
%ADD17C,0.800000*%
G04 #@! TD*
G04 #@! TA.AperFunction,Conductor*
%ADD18C,0.300000*%
G04 #@! TD*
G04 APERTURE END LIST*
D10*
D11*
X299989000Y-253002200D02*
X407989000Y-253002200D01*
X407989000Y-285002200D01*
X299989000Y-285002200D01*
X299989000Y-253002200D01*
D10*
D11*
X10000000Y-10000000D02*
X409989000Y-10000000D01*
X409989000Y-287002200D01*
X10000000Y-287002200D01*
X10000000Y-10000000D01*
D10*
D11*
X12000000Y-12000000D02*
X407989000Y-12000000D01*
X407989000Y-285002200D01*
X12000000Y-285002200D01*
X12000000Y-12000000D01*
D10*
D11*
X60000000Y-12000000D02*
X60000000Y-10000000D01*
D10*
D11*
X110000000Y-12000000D02*
X110000000Y-10000000D01*
D10*
D11*
X160000000Y-12000000D02*
X160000000Y-10000000D01*
D10*
D11*
X210000000Y-12000000D02*
X210000000Y-10000000D01*
D10*
D11*
X260000000Y-12000000D02*
X260000000Y-10000000D01*
D10*
D11*
X310000000Y-12000000D02*
X310000000Y-10000000D01*
D10*
D11*
X360000000Y-12000000D02*
X360000000Y-10000000D01*
D10*
D11*
X36089160Y-11593604D02*
X35346303Y-11593604D01*
X35717731Y-11593604D02*
X35717731Y-10293604D01*
X35717731Y-10293604D02*
X35593922Y-10479319D01*
X35593922Y-10479319D02*
X35470112Y-10603128D01*
X35470112Y-10603128D02*
X35346303Y-10665033D01*
D10*
D11*
X85346303Y-10417414D02*
X85408207Y-10355509D01*
X85408207Y-10355509D02*
X85532017Y-10293604D01*
X85532017Y-10293604D02*
X85841541Y-10293604D01*
X85841541Y-10293604D02*
X85965350Y-10355509D01*
X85965350Y-10355509D02*
X86027255Y-10417414D01*
X86027255Y-10417414D02*
X86089160Y-10541223D01*
X86089160Y-10541223D02*
X86089160Y-10665033D01*
X86089160Y-10665033D02*
X86027255Y-10850747D01*
X86027255Y-10850747D02*
X85284398Y-11593604D01*
X85284398Y-11593604D02*
X86089160Y-11593604D01*
D10*
D11*
X135284398Y-10293604D02*
X136089160Y-10293604D01*
X136089160Y-10293604D02*
X135655826Y-10788842D01*
X135655826Y-10788842D02*
X135841541Y-10788842D01*
X135841541Y-10788842D02*
X135965350Y-10850747D01*
X135965350Y-10850747D02*
X136027255Y-10912652D01*
X136027255Y-10912652D02*
X136089160Y-11036461D01*
X136089160Y-11036461D02*
X136089160Y-11345985D01*
X136089160Y-11345985D02*
X136027255Y-11469795D01*
X136027255Y-11469795D02*
X135965350Y-11531700D01*
X135965350Y-11531700D02*
X135841541Y-11593604D01*
X135841541Y-11593604D02*
X135470112Y-11593604D01*
X135470112Y-11593604D02*
X135346303Y-11531700D01*
X135346303Y-11531700D02*
X135284398Y-11469795D01*
D10*
D11*
X185965350Y-10726938D02*
X185965350Y-11593604D01*
X185655826Y-10231700D02*
X185346303Y-11160271D01*
X185346303Y-11160271D02*
X186151064Y-11160271D01*
D10*
D11*
X236027255Y-10293604D02*
X235408207Y-10293604D01*
X235408207Y-10293604D02*
X235346303Y-10912652D01*
X235346303Y-10912652D02*
X235408207Y-10850747D01*
X235408207Y-10850747D02*
X235532017Y-10788842D01*
X235532017Y-10788842D02*
X235841541Y-10788842D01*
X235841541Y-10788842D02*
X235965350Y-10850747D01*
X235965350Y-10850747D02*
X236027255Y-10912652D01*
X236027255Y-10912652D02*
X236089160Y-11036461D01*
X236089160Y-11036461D02*
X236089160Y-11345985D01*
X236089160Y-11345985D02*
X236027255Y-11469795D01*
X236027255Y-11469795D02*
X235965350Y-11531700D01*
X235965350Y-11531700D02*
X235841541Y-11593604D01*
X235841541Y-11593604D02*
X235532017Y-11593604D01*
X235532017Y-11593604D02*
X235408207Y-11531700D01*
X235408207Y-11531700D02*
X235346303Y-11469795D01*
D10*
D11*
X285965350Y-10293604D02*
X285717731Y-10293604D01*
X285717731Y-10293604D02*
X285593922Y-10355509D01*
X285593922Y-10355509D02*
X285532017Y-10417414D01*
X285532017Y-10417414D02*
X285408207Y-10603128D01*
X285408207Y-10603128D02*
X285346303Y-10850747D01*
X285346303Y-10850747D02*
X285346303Y-11345985D01*
X285346303Y-11345985D02*
X285408207Y-11469795D01*
X285408207Y-11469795D02*
X285470112Y-11531700D01*
X285470112Y-11531700D02*
X285593922Y-11593604D01*
X285593922Y-11593604D02*
X285841541Y-11593604D01*
X285841541Y-11593604D02*
X285965350Y-11531700D01*
X285965350Y-11531700D02*
X286027255Y-11469795D01*
X286027255Y-11469795D02*
X286089160Y-11345985D01*
X286089160Y-11345985D02*
X286089160Y-11036461D01*
X286089160Y-11036461D02*
X286027255Y-10912652D01*
X286027255Y-10912652D02*
X285965350Y-10850747D01*
X285965350Y-10850747D02*
X285841541Y-10788842D01*
X285841541Y-10788842D02*
X285593922Y-10788842D01*
X285593922Y-10788842D02*
X285470112Y-10850747D01*
X285470112Y-10850747D02*
X285408207Y-10912652D01*
X285408207Y-10912652D02*
X285346303Y-11036461D01*
D10*
D11*
X335284398Y-10293604D02*
X336151064Y-10293604D01*
X336151064Y-10293604D02*
X335593922Y-11593604D01*
D10*
D11*
X385593922Y-10850747D02*
X385470112Y-10788842D01*
X385470112Y-10788842D02*
X385408207Y-10726938D01*
X385408207Y-10726938D02*
X385346303Y-10603128D01*
X385346303Y-10603128D02*
X385346303Y-10541223D01*
X385346303Y-10541223D02*
X385408207Y-10417414D01*
X385408207Y-10417414D02*
X385470112Y-10355509D01*
X385470112Y-10355509D02*
X385593922Y-10293604D01*
X385593922Y-10293604D02*
X385841541Y-10293604D01*
X385841541Y-10293604D02*
X385965350Y-10355509D01*
X385965350Y-10355509D02*
X386027255Y-10417414D01*
X386027255Y-10417414D02*
X386089160Y-10541223D01*
X386089160Y-10541223D02*
X386089160Y-10603128D01*
X386089160Y-10603128D02*
X386027255Y-10726938D01*
X386027255Y-10726938D02*
X385965350Y-10788842D01*
X385965350Y-10788842D02*
X385841541Y-10850747D01*
X385841541Y-10850747D02*
X385593922Y-10850747D01*
X385593922Y-10850747D02*
X385470112Y-10912652D01*
X385470112Y-10912652D02*
X385408207Y-10974557D01*
X385408207Y-10974557D02*
X385346303Y-11098366D01*
X385346303Y-11098366D02*
X385346303Y-11345985D01*
X385346303Y-11345985D02*
X385408207Y-11469795D01*
X385408207Y-11469795D02*
X385470112Y-11531700D01*
X385470112Y-11531700D02*
X385593922Y-11593604D01*
X385593922Y-11593604D02*
X385841541Y-11593604D01*
X385841541Y-11593604D02*
X385965350Y-11531700D01*
X385965350Y-11531700D02*
X386027255Y-11469795D01*
X386027255Y-11469795D02*
X386089160Y-11345985D01*
X386089160Y-11345985D02*
X386089160Y-11098366D01*
X386089160Y-11098366D02*
X386027255Y-10974557D01*
X386027255Y-10974557D02*
X385965350Y-10912652D01*
X385965350Y-10912652D02*
X385841541Y-10850747D01*
D10*
D11*
X60000000Y-285002200D02*
X60000000Y-287002200D01*
D10*
D11*
X110000000Y-285002200D02*
X110000000Y-287002200D01*
D10*
D11*
X160000000Y-285002200D02*
X160000000Y-287002200D01*
D10*
D11*
X210000000Y-285002200D02*
X210000000Y-287002200D01*
D10*
D11*
X260000000Y-285002200D02*
X260000000Y-287002200D01*
D10*
D11*
X310000000Y-285002200D02*
X310000000Y-287002200D01*
D10*
D11*
X360000000Y-285002200D02*
X360000000Y-287002200D01*
D10*
D11*
X36089160Y-286595804D02*
X35346303Y-286595804D01*
X35717731Y-286595804D02*
X35717731Y-285295804D01*
X35717731Y-285295804D02*
X35593922Y-285481519D01*
X35593922Y-285481519D02*
X35470112Y-285605328D01*
X35470112Y-285605328D02*
X35346303Y-285667233D01*
D10*
D11*
X85346303Y-285419614D02*
X85408207Y-285357709D01*
X85408207Y-285357709D02*
X85532017Y-285295804D01*
X85532017Y-285295804D02*
X85841541Y-285295804D01*
X85841541Y-285295804D02*
X85965350Y-285357709D01*
X85965350Y-285357709D02*
X86027255Y-285419614D01*
X86027255Y-285419614D02*
X86089160Y-285543423D01*
X86089160Y-285543423D02*
X86089160Y-285667233D01*
X86089160Y-285667233D02*
X86027255Y-285852947D01*
X86027255Y-285852947D02*
X85284398Y-286595804D01*
X85284398Y-286595804D02*
X86089160Y-286595804D01*
D10*
D11*
X135284398Y-285295804D02*
X136089160Y-285295804D01*
X136089160Y-285295804D02*
X135655826Y-285791042D01*
X135655826Y-285791042D02*
X135841541Y-285791042D01*
X135841541Y-285791042D02*
X135965350Y-285852947D01*
X135965350Y-285852947D02*
X136027255Y-285914852D01*
X136027255Y-285914852D02*
X136089160Y-286038661D01*
X136089160Y-286038661D02*
X136089160Y-286348185D01*
X136089160Y-286348185D02*
X136027255Y-286471995D01*
X136027255Y-286471995D02*
X135965350Y-286533900D01*
X135965350Y-286533900D02*
X135841541Y-286595804D01*
X135841541Y-286595804D02*
X135470112Y-286595804D01*
X135470112Y-286595804D02*
X135346303Y-286533900D01*
X135346303Y-286533900D02*
X135284398Y-286471995D01*
D10*
D11*
X185965350Y-285729138D02*
X185965350Y-286595804D01*
X185655826Y-285233900D02*
X185346303Y-286162471D01*
X185346303Y-286162471D02*
X186151064Y-286162471D01*
D10*
D11*
X236027255Y-285295804D02*
X235408207Y-285295804D01*
X235408207Y-285295804D02*
X235346303Y-285914852D01*
X235346303Y-285914852D02*
X235408207Y-285852947D01*
X235408207Y-285852947D02*
X235532017Y-285791042D01*
X235532017Y-285791042D02*
X235841541Y-285791042D01*
X235841541Y-285791042D02*
X235965350Y-285852947D01*
X235965350Y-285852947D02*
X236027255Y-285914852D01*
X236027255Y-285914852D02*
X236089160Y-286038661D01*
X236089160Y-286038661D02*
X236089160Y-286348185D01*
X236089160Y-286348185D02*
X236027255Y-286471995D01*
X236027255Y-286471995D02*
X235965350Y-286533900D01*
X235965350Y-286533900D02*
X235841541Y-286595804D01*
X235841541Y-286595804D02*
X235532017Y-286595804D01*
X235532017Y-286595804D02*
X235408207Y-286533900D01*
X235408207Y-286533900D02*
X235346303Y-286471995D01*
D10*
D11*
X285965350Y-285295804D02*
X285717731Y-285295804D01*
X285717731Y-285295804D02*
X285593922Y-285357709D01*
X285593922Y-285357709D02*
X285532017Y-285419614D01*
X285532017Y-285419614D02*
X285408207Y-285605328D01*
X285408207Y-285605328D02*
X285346303Y-285852947D01*
X285346303Y-285852947D02*
X285346303Y-286348185D01*
X285346303Y-286348185D02*
X285408207Y-286471995D01*
X285408207Y-286471995D02*
X285470112Y-286533900D01*
X285470112Y-286533900D02*
X285593922Y-286595804D01*
X285593922Y-286595804D02*
X285841541Y-286595804D01*
X285841541Y-286595804D02*
X285965350Y-286533900D01*
X285965350Y-286533900D02*
X286027255Y-286471995D01*
X286027255Y-286471995D02*
X286089160Y-286348185D01*
X286089160Y-286348185D02*
X286089160Y-286038661D01*
X286089160Y-286038661D02*
X286027255Y-285914852D01*
X286027255Y-285914852D02*
X285965350Y-285852947D01*
X285965350Y-285852947D02*
X285841541Y-285791042D01*
X285841541Y-285791042D02*
X285593922Y-285791042D01*
X285593922Y-285791042D02*
X285470112Y-285852947D01*
X285470112Y-285852947D02*
X285408207Y-285914852D01*
X285408207Y-285914852D02*
X285346303Y-286038661D01*
D10*
D11*
X335284398Y-285295804D02*
X336151064Y-285295804D01*
X336151064Y-285295804D02*
X335593922Y-286595804D01*
D10*
D11*
X385593922Y-285852947D02*
X385470112Y-285791042D01*
X385470112Y-285791042D02*
X385408207Y-285729138D01*
X385408207Y-285729138D02*
X385346303Y-285605328D01*
X385346303Y-285605328D02*
X385346303Y-285543423D01*
X385346303Y-285543423D02*
X385408207Y-285419614D01*
X385408207Y-285419614D02*
X385470112Y-285357709D01*
X385470112Y-285357709D02*
X385593922Y-285295804D01*
X385593922Y-285295804D02*
X385841541Y-285295804D01*
X385841541Y-285295804D02*
X385965350Y-285357709D01*
X385965350Y-285357709D02*
X386027255Y-285419614D01*
X386027255Y-285419614D02*
X386089160Y-285543423D01*
X386089160Y-285543423D02*
X386089160Y-285605328D01*
X386089160Y-285605328D02*
X386027255Y-285729138D01*
X386027255Y-285729138D02*
X385965350Y-285791042D01*
X385965350Y-285791042D02*
X385841541Y-285852947D01*
X385841541Y-285852947D02*
X385593922Y-285852947D01*
X385593922Y-285852947D02*
X385470112Y-285914852D01*
X385470112Y-285914852D02*
X385408207Y-285976757D01*
X385408207Y-285976757D02*
X385346303Y-286100566D01*
X385346303Y-286100566D02*
X385346303Y-286348185D01*
X385346303Y-286348185D02*
X385408207Y-286471995D01*
X385408207Y-286471995D02*
X385470112Y-286533900D01*
X385470112Y-286533900D02*
X385593922Y-286595804D01*
X385593922Y-286595804D02*
X385841541Y-286595804D01*
X385841541Y-286595804D02*
X385965350Y-286533900D01*
X385965350Y-286533900D02*
X386027255Y-286471995D01*
X386027255Y-286471995D02*
X386089160Y-286348185D01*
X386089160Y-286348185D02*
X386089160Y-286100566D01*
X386089160Y-286100566D02*
X386027255Y-285976757D01*
X386027255Y-285976757D02*
X385965350Y-285914852D01*
X385965350Y-285914852D02*
X385841541Y-285852947D01*
D10*
D11*
X10000000Y-60000000D02*
X12000000Y-60000000D01*
D10*
D11*
X10000000Y-110000000D02*
X12000000Y-110000000D01*
D10*
D11*
X10000000Y-160000000D02*
X12000000Y-160000000D01*
D10*
D11*
X10000000Y-210000000D02*
X12000000Y-210000000D01*
D10*
D11*
X10000000Y-260000000D02*
X12000000Y-260000000D01*
D10*
D11*
X10690476Y-35222176D02*
X11309523Y-35222176D01*
X10566666Y-35593604D02*
X10999999Y-34293604D01*
X10999999Y-34293604D02*
X11433333Y-35593604D01*
D10*
D11*
X11092857Y-84912652D02*
X11278571Y-84974557D01*
X11278571Y-84974557D02*
X11340476Y-85036461D01*
X11340476Y-85036461D02*
X11402380Y-85160271D01*
X11402380Y-85160271D02*
X11402380Y-85345985D01*
X11402380Y-85345985D02*
X11340476Y-85469795D01*
X11340476Y-85469795D02*
X11278571Y-85531700D01*
X11278571Y-85531700D02*
X11154761Y-85593604D01*
X11154761Y-85593604D02*
X10659523Y-85593604D01*
X10659523Y-85593604D02*
X10659523Y-84293604D01*
X10659523Y-84293604D02*
X11092857Y-84293604D01*
X11092857Y-84293604D02*
X11216666Y-84355509D01*
X11216666Y-84355509D02*
X11278571Y-84417414D01*
X11278571Y-84417414D02*
X11340476Y-84541223D01*
X11340476Y-84541223D02*
X11340476Y-84665033D01*
X11340476Y-84665033D02*
X11278571Y-84788842D01*
X11278571Y-84788842D02*
X11216666Y-84850747D01*
X11216666Y-84850747D02*
X11092857Y-84912652D01*
X11092857Y-84912652D02*
X10659523Y-84912652D01*
D10*
D11*
X11402380Y-135469795D02*
X11340476Y-135531700D01*
X11340476Y-135531700D02*
X11154761Y-135593604D01*
X11154761Y-135593604D02*
X11030952Y-135593604D01*
X11030952Y-135593604D02*
X10845238Y-135531700D01*
X10845238Y-135531700D02*
X10721428Y-135407890D01*
X10721428Y-135407890D02*
X10659523Y-135284080D01*
X10659523Y-135284080D02*
X10597619Y-135036461D01*
X10597619Y-135036461D02*
X10597619Y-134850747D01*
X10597619Y-134850747D02*
X10659523Y-134603128D01*
X10659523Y-134603128D02*
X10721428Y-134479319D01*
X10721428Y-134479319D02*
X10845238Y-134355509D01*
X10845238Y-134355509D02*
X11030952Y-134293604D01*
X11030952Y-134293604D02*
X11154761Y-134293604D01*
X11154761Y-134293604D02*
X11340476Y-134355509D01*
X11340476Y-134355509D02*
X11402380Y-134417414D01*
D10*
D11*
X10659523Y-185593604D02*
X10659523Y-184293604D01*
X10659523Y-184293604D02*
X10969047Y-184293604D01*
X10969047Y-184293604D02*
X11154761Y-184355509D01*
X11154761Y-184355509D02*
X11278571Y-184479319D01*
X11278571Y-184479319D02*
X11340476Y-184603128D01*
X11340476Y-184603128D02*
X11402380Y-184850747D01*
X11402380Y-184850747D02*
X11402380Y-185036461D01*
X11402380Y-185036461D02*
X11340476Y-185284080D01*
X11340476Y-185284080D02*
X11278571Y-185407890D01*
X11278571Y-185407890D02*
X11154761Y-185531700D01*
X11154761Y-185531700D02*
X10969047Y-185593604D01*
X10969047Y-185593604D02*
X10659523Y-185593604D01*
D10*
D11*
X10721428Y-234912652D02*
X11154762Y-234912652D01*
X11340476Y-235593604D02*
X10721428Y-235593604D01*
X10721428Y-235593604D02*
X10721428Y-234293604D01*
X10721428Y-234293604D02*
X11340476Y-234293604D01*
D10*
D11*
X11185714Y-284912652D02*
X10752380Y-284912652D01*
X10752380Y-285593604D02*
X10752380Y-284293604D01*
X10752380Y-284293604D02*
X11371428Y-284293604D01*
D10*
D11*
X409989000Y-60000000D02*
X407989000Y-60000000D01*
D10*
D11*
X409989000Y-110000000D02*
X407989000Y-110000000D01*
D10*
D11*
X409989000Y-160000000D02*
X407989000Y-160000000D01*
D10*
D11*
X409989000Y-210000000D02*
X407989000Y-210000000D01*
D10*
D11*
X409989000Y-260000000D02*
X407989000Y-260000000D01*
D10*
D11*
X408679476Y-35222176D02*
X409298523Y-35222176D01*
X408555666Y-35593604D02*
X408988999Y-34293604D01*
X408988999Y-34293604D02*
X409422333Y-35593604D01*
D10*
D11*
X409081857Y-84912652D02*
X409267571Y-84974557D01*
X409267571Y-84974557D02*
X409329476Y-85036461D01*
X409329476Y-85036461D02*
X409391380Y-85160271D01*
X409391380Y-85160271D02*
X409391380Y-85345985D01*
X409391380Y-85345985D02*
X409329476Y-85469795D01*
X409329476Y-85469795D02*
X409267571Y-85531700D01*
X409267571Y-85531700D02*
X409143761Y-85593604D01*
X409143761Y-85593604D02*
X408648523Y-85593604D01*
X408648523Y-85593604D02*
X408648523Y-84293604D01*
X408648523Y-84293604D02*
X409081857Y-84293604D01*
X409081857Y-84293604D02*
X409205666Y-84355509D01*
X409205666Y-84355509D02*
X409267571Y-84417414D01*
X409267571Y-84417414D02*
X409329476Y-84541223D01*
X409329476Y-84541223D02*
X409329476Y-84665033D01*
X409329476Y-84665033D02*
X409267571Y-84788842D01*
X409267571Y-84788842D02*
X409205666Y-84850747D01*
X409205666Y-84850747D02*
X409081857Y-84912652D01*
X409081857Y-84912652D02*
X408648523Y-84912652D01*
D10*
D11*
X409391380Y-135469795D02*
X409329476Y-135531700D01*
X409329476Y-135531700D02*
X409143761Y-135593604D01*
X409143761Y-135593604D02*
X409019952Y-135593604D01*
X409019952Y-135593604D02*
X408834238Y-135531700D01*
X408834238Y-135531700D02*
X408710428Y-135407890D01*
X408710428Y-135407890D02*
X408648523Y-135284080D01*
X408648523Y-135284080D02*
X408586619Y-135036461D01*
X408586619Y-135036461D02*
X408586619Y-134850747D01*
X408586619Y-134850747D02*
X408648523Y-134603128D01*
X408648523Y-134603128D02*
X408710428Y-134479319D01*
X408710428Y-134479319D02*
X408834238Y-134355509D01*
X408834238Y-134355509D02*
X409019952Y-134293604D01*
X409019952Y-134293604D02*
X409143761Y-134293604D01*
X409143761Y-134293604D02*
X409329476Y-134355509D01*
X409329476Y-134355509D02*
X409391380Y-134417414D01*
D10*
D11*
X408648523Y-185593604D02*
X408648523Y-184293604D01*
X408648523Y-184293604D02*
X408958047Y-184293604D01*
X408958047Y-184293604D02*
X409143761Y-184355509D01*
X409143761Y-184355509D02*
X409267571Y-184479319D01*
X409267571Y-184479319D02*
X409329476Y-184603128D01*
X409329476Y-184603128D02*
X409391380Y-184850747D01*
X409391380Y-184850747D02*
X409391380Y-185036461D01*
X409391380Y-185036461D02*
X409329476Y-185284080D01*
X409329476Y-185284080D02*
X409267571Y-185407890D01*
X409267571Y-185407890D02*
X409143761Y-185531700D01*
X409143761Y-185531700D02*
X408958047Y-185593604D01*
X408958047Y-185593604D02*
X408648523Y-185593604D01*
D10*
D11*
X408710428Y-234912652D02*
X409143762Y-234912652D01*
X409329476Y-235593604D02*
X408710428Y-235593604D01*
X408710428Y-235593604D02*
X408710428Y-234293604D01*
X408710428Y-234293604D02*
X409329476Y-234293604D01*
D10*
D11*
X409174714Y-284912652D02*
X408741380Y-284912652D01*
X408741380Y-285593604D02*
X408741380Y-284293604D01*
X408741380Y-284293604D02*
X409360428Y-284293604D01*
D10*
D11*
X323444826Y-280788328D02*
X323444826Y-279288328D01*
X323444826Y-279288328D02*
X323801969Y-279288328D01*
X323801969Y-279288328D02*
X324016255Y-279359757D01*
X324016255Y-279359757D02*
X324159112Y-279502614D01*
X324159112Y-279502614D02*
X324230541Y-279645471D01*
X324230541Y-279645471D02*
X324301969Y-279931185D01*
X324301969Y-279931185D02*
X324301969Y-280145471D01*
X324301969Y-280145471D02*
X324230541Y-280431185D01*
X324230541Y-280431185D02*
X324159112Y-280574042D01*
X324159112Y-280574042D02*
X324016255Y-280716900D01*
X324016255Y-280716900D02*
X323801969Y-280788328D01*
X323801969Y-280788328D02*
X323444826Y-280788328D01*
X325587684Y-280788328D02*
X325587684Y-280002614D01*
X325587684Y-280002614D02*
X325516255Y-279859757D01*
X325516255Y-279859757D02*
X325373398Y-279788328D01*
X325373398Y-279788328D02*
X325087684Y-279788328D01*
X325087684Y-279788328D02*
X324944826Y-279859757D01*
X325587684Y-280716900D02*
X325444826Y-280788328D01*
X325444826Y-280788328D02*
X325087684Y-280788328D01*
X325087684Y-280788328D02*
X324944826Y-280716900D01*
X324944826Y-280716900D02*
X324873398Y-280574042D01*
X324873398Y-280574042D02*
X324873398Y-280431185D01*
X324873398Y-280431185D02*
X324944826Y-280288328D01*
X324944826Y-280288328D02*
X325087684Y-280216900D01*
X325087684Y-280216900D02*
X325444826Y-280216900D01*
X325444826Y-280216900D02*
X325587684Y-280145471D01*
X326087684Y-279788328D02*
X326659112Y-279788328D01*
X326301969Y-279288328D02*
X326301969Y-280574042D01*
X326301969Y-280574042D02*
X326373398Y-280716900D01*
X326373398Y-280716900D02*
X326516255Y-280788328D01*
X326516255Y-280788328D02*
X326659112Y-280788328D01*
X327730541Y-280716900D02*
X327587684Y-280788328D01*
X327587684Y-280788328D02*
X327301970Y-280788328D01*
X327301970Y-280788328D02*
X327159112Y-280716900D01*
X327159112Y-280716900D02*
X327087684Y-280574042D01*
X327087684Y-280574042D02*
X327087684Y-280002614D01*
X327087684Y-280002614D02*
X327159112Y-279859757D01*
X327159112Y-279859757D02*
X327301970Y-279788328D01*
X327301970Y-279788328D02*
X327587684Y-279788328D01*
X327587684Y-279788328D02*
X327730541Y-279859757D01*
X327730541Y-279859757D02*
X327801970Y-280002614D01*
X327801970Y-280002614D02*
X327801970Y-280145471D01*
X327801970Y-280145471D02*
X327087684Y-280288328D01*
X328444826Y-280645471D02*
X328516255Y-280716900D01*
X328516255Y-280716900D02*
X328444826Y-280788328D01*
X328444826Y-280788328D02*
X328373398Y-280716900D01*
X328373398Y-280716900D02*
X328444826Y-280645471D01*
X328444826Y-280645471D02*
X328444826Y-280788328D01*
X328444826Y-279859757D02*
X328516255Y-279931185D01*
X328516255Y-279931185D02*
X328444826Y-280002614D01*
X328444826Y-280002614D02*
X328373398Y-279931185D01*
X328373398Y-279931185D02*
X328444826Y-279859757D01*
X328444826Y-279859757D02*
X328444826Y-280002614D01*
X331087684Y-280788328D02*
X330230541Y-280788328D01*
X330659112Y-280788328D02*
X330659112Y-279288328D01*
X330659112Y-279288328D02*
X330516255Y-279502614D01*
X330516255Y-279502614D02*
X330373398Y-279645471D01*
X330373398Y-279645471D02*
X330230541Y-279716900D01*
X332444826Y-279288328D02*
X331730540Y-279288328D01*
X331730540Y-279288328D02*
X331659112Y-280002614D01*
X331659112Y-280002614D02*
X331730540Y-279931185D01*
X331730540Y-279931185D02*
X331873398Y-279859757D01*
X331873398Y-279859757D02*
X332230540Y-279859757D01*
X332230540Y-279859757D02*
X332373398Y-279931185D01*
X332373398Y-279931185D02*
X332444826Y-280002614D01*
X332444826Y-280002614D02*
X332516255Y-280145471D01*
X332516255Y-280145471D02*
X332516255Y-280502614D01*
X332516255Y-280502614D02*
X332444826Y-280645471D01*
X332444826Y-280645471D02*
X332373398Y-280716900D01*
X332373398Y-280716900D02*
X332230540Y-280788328D01*
X332230540Y-280788328D02*
X331873398Y-280788328D01*
X331873398Y-280788328D02*
X331730540Y-280716900D01*
X331730540Y-280716900D02*
X331659112Y-280645471D01*
X334301968Y-279788328D02*
X334301968Y-280788328D01*
X334301968Y-279931185D02*
X334373397Y-279859757D01*
X334373397Y-279859757D02*
X334516254Y-279788328D01*
X334516254Y-279788328D02*
X334730540Y-279788328D01*
X334730540Y-279788328D02*
X334873397Y-279859757D01*
X334873397Y-279859757D02*
X334944826Y-280002614D01*
X334944826Y-280002614D02*
X334944826Y-280788328D01*
X335873397Y-280788328D02*
X335730540Y-280716900D01*
X335730540Y-280716900D02*
X335659111Y-280645471D01*
X335659111Y-280645471D02*
X335587683Y-280502614D01*
X335587683Y-280502614D02*
X335587683Y-280074042D01*
X335587683Y-280074042D02*
X335659111Y-279931185D01*
X335659111Y-279931185D02*
X335730540Y-279859757D01*
X335730540Y-279859757D02*
X335873397Y-279788328D01*
X335873397Y-279788328D02*
X336087683Y-279788328D01*
X336087683Y-279788328D02*
X336230540Y-279859757D01*
X336230540Y-279859757D02*
X336301969Y-279931185D01*
X336301969Y-279931185D02*
X336373397Y-280074042D01*
X336373397Y-280074042D02*
X336373397Y-280502614D01*
X336373397Y-280502614D02*
X336301969Y-280645471D01*
X336301969Y-280645471D02*
X336230540Y-280716900D01*
X336230540Y-280716900D02*
X336087683Y-280788328D01*
X336087683Y-280788328D02*
X335873397Y-280788328D01*
X336873397Y-279788328D02*
X337230540Y-280788328D01*
X337230540Y-280788328D02*
X337587683Y-279788328D01*
X339230540Y-279431185D02*
X339301968Y-279359757D01*
X339301968Y-279359757D02*
X339444826Y-279288328D01*
X339444826Y-279288328D02*
X339801968Y-279288328D01*
X339801968Y-279288328D02*
X339944826Y-279359757D01*
X339944826Y-279359757D02*
X340016254Y-279431185D01*
X340016254Y-279431185D02*
X340087683Y-279574042D01*
X340087683Y-279574042D02*
X340087683Y-279716900D01*
X340087683Y-279716900D02*
X340016254Y-279931185D01*
X340016254Y-279931185D02*
X339159111Y-280788328D01*
X339159111Y-280788328D02*
X340087683Y-280788328D01*
X341016254Y-279288328D02*
X341159111Y-279288328D01*
X341159111Y-279288328D02*
X341301968Y-279359757D01*
X341301968Y-279359757D02*
X341373397Y-279431185D01*
X341373397Y-279431185D02*
X341444825Y-279574042D01*
X341444825Y-279574042D02*
X341516254Y-279859757D01*
X341516254Y-279859757D02*
X341516254Y-280216900D01*
X341516254Y-280216900D02*
X341444825Y-280502614D01*
X341444825Y-280502614D02*
X341373397Y-280645471D01*
X341373397Y-280645471D02*
X341301968Y-280716900D01*
X341301968Y-280716900D02*
X341159111Y-280788328D01*
X341159111Y-280788328D02*
X341016254Y-280788328D01*
X341016254Y-280788328D02*
X340873397Y-280716900D01*
X340873397Y-280716900D02*
X340801968Y-280645471D01*
X340801968Y-280645471D02*
X340730539Y-280502614D01*
X340730539Y-280502614D02*
X340659111Y-280216900D01*
X340659111Y-280216900D02*
X340659111Y-279859757D01*
X340659111Y-279859757D02*
X340730539Y-279574042D01*
X340730539Y-279574042D02*
X340801968Y-279431185D01*
X340801968Y-279431185D02*
X340873397Y-279359757D01*
X340873397Y-279359757D02*
X341016254Y-279288328D01*
X342944825Y-280788328D02*
X342087682Y-280788328D01*
X342516253Y-280788328D02*
X342516253Y-279288328D01*
X342516253Y-279288328D02*
X342373396Y-279502614D01*
X342373396Y-279502614D02*
X342230539Y-279645471D01*
X342230539Y-279645471D02*
X342087682Y-279716900D01*
X343516253Y-279431185D02*
X343587681Y-279359757D01*
X343587681Y-279359757D02*
X343730539Y-279288328D01*
X343730539Y-279288328D02*
X344087681Y-279288328D01*
X344087681Y-279288328D02*
X344230539Y-279359757D01*
X344230539Y-279359757D02*
X344301967Y-279431185D01*
X344301967Y-279431185D02*
X344373396Y-279574042D01*
X344373396Y-279574042D02*
X344373396Y-279716900D01*
X344373396Y-279716900D02*
X344301967Y-279931185D01*
X344301967Y-279931185D02*
X343444824Y-280788328D01*
X343444824Y-280788328D02*
X344373396Y-280788328D01*
D10*
D11*
X299989000Y-281502200D02*
X407989000Y-281502200D01*
D10*
D11*
X301444826Y-283588328D02*
X301444826Y-282088328D01*
X302301969Y-283588328D02*
X301659112Y-282731185D01*
X302301969Y-282088328D02*
X301444826Y-282945471D01*
X302944826Y-283588328D02*
X302944826Y-282588328D01*
X302944826Y-282088328D02*
X302873398Y-282159757D01*
X302873398Y-282159757D02*
X302944826Y-282231185D01*
X302944826Y-282231185D02*
X303016255Y-282159757D01*
X303016255Y-282159757D02*
X302944826Y-282088328D01*
X302944826Y-282088328D02*
X302944826Y-282231185D01*
X304516255Y-283445471D02*
X304444827Y-283516900D01*
X304444827Y-283516900D02*
X304230541Y-283588328D01*
X304230541Y-283588328D02*
X304087684Y-283588328D01*
X304087684Y-283588328D02*
X303873398Y-283516900D01*
X303873398Y-283516900D02*
X303730541Y-283374042D01*
X303730541Y-283374042D02*
X303659112Y-283231185D01*
X303659112Y-283231185D02*
X303587684Y-282945471D01*
X303587684Y-282945471D02*
X303587684Y-282731185D01*
X303587684Y-282731185D02*
X303659112Y-282445471D01*
X303659112Y-282445471D02*
X303730541Y-282302614D01*
X303730541Y-282302614D02*
X303873398Y-282159757D01*
X303873398Y-282159757D02*
X304087684Y-282088328D01*
X304087684Y-282088328D02*
X304230541Y-282088328D01*
X304230541Y-282088328D02*
X304444827Y-282159757D01*
X304444827Y-282159757D02*
X304516255Y-282231185D01*
X305801970Y-283588328D02*
X305801970Y-282802614D01*
X305801970Y-282802614D02*
X305730541Y-282659757D01*
X305730541Y-282659757D02*
X305587684Y-282588328D01*
X305587684Y-282588328D02*
X305301970Y-282588328D01*
X305301970Y-282588328D02*
X305159112Y-282659757D01*
X305801970Y-283516900D02*
X305659112Y-283588328D01*
X305659112Y-283588328D02*
X305301970Y-283588328D01*
X305301970Y-283588328D02*
X305159112Y-283516900D01*
X305159112Y-283516900D02*
X305087684Y-283374042D01*
X305087684Y-283374042D02*
X305087684Y-283231185D01*
X305087684Y-283231185D02*
X305159112Y-283088328D01*
X305159112Y-283088328D02*
X305301970Y-283016900D01*
X305301970Y-283016900D02*
X305659112Y-283016900D01*
X305659112Y-283016900D02*
X305801970Y-282945471D01*
X307159113Y-283588328D02*
X307159113Y-282088328D01*
X307159113Y-283516900D02*
X307016255Y-283588328D01*
X307016255Y-283588328D02*
X306730541Y-283588328D01*
X306730541Y-283588328D02*
X306587684Y-283516900D01*
X306587684Y-283516900D02*
X306516255Y-283445471D01*
X306516255Y-283445471D02*
X306444827Y-283302614D01*
X306444827Y-283302614D02*
X306444827Y-282874042D01*
X306444827Y-282874042D02*
X306516255Y-282731185D01*
X306516255Y-282731185D02*
X306587684Y-282659757D01*
X306587684Y-282659757D02*
X306730541Y-282588328D01*
X306730541Y-282588328D02*
X307016255Y-282588328D01*
X307016255Y-282588328D02*
X307159113Y-282659757D01*
X309016255Y-282802614D02*
X309516255Y-282802614D01*
X309730541Y-283588328D02*
X309016255Y-283588328D01*
X309016255Y-283588328D02*
X309016255Y-282088328D01*
X309016255Y-282088328D02*
X309730541Y-282088328D01*
X310373398Y-283445471D02*
X310444827Y-283516900D01*
X310444827Y-283516900D02*
X310373398Y-283588328D01*
X310373398Y-283588328D02*
X310301970Y-283516900D01*
X310301970Y-283516900D02*
X310373398Y-283445471D01*
X310373398Y-283445471D02*
X310373398Y-283588328D01*
X311087684Y-283588328D02*
X311087684Y-282088328D01*
X311087684Y-282088328D02*
X311444827Y-282088328D01*
X311444827Y-282088328D02*
X311659113Y-282159757D01*
X311659113Y-282159757D02*
X311801970Y-282302614D01*
X311801970Y-282302614D02*
X311873399Y-282445471D01*
X311873399Y-282445471D02*
X311944827Y-282731185D01*
X311944827Y-282731185D02*
X311944827Y-282945471D01*
X311944827Y-282945471D02*
X311873399Y-283231185D01*
X311873399Y-283231185D02*
X311801970Y-283374042D01*
X311801970Y-283374042D02*
X311659113Y-283516900D01*
X311659113Y-283516900D02*
X311444827Y-283588328D01*
X311444827Y-283588328D02*
X311087684Y-283588328D01*
X312587684Y-283445471D02*
X312659113Y-283516900D01*
X312659113Y-283516900D02*
X312587684Y-283588328D01*
X312587684Y-283588328D02*
X312516256Y-283516900D01*
X312516256Y-283516900D02*
X312587684Y-283445471D01*
X312587684Y-283445471D02*
X312587684Y-283588328D01*
X313230542Y-283159757D02*
X313944828Y-283159757D01*
X313087685Y-283588328D02*
X313587685Y-282088328D01*
X313587685Y-282088328D02*
X314087685Y-283588328D01*
X314587684Y-283445471D02*
X314659113Y-283516900D01*
X314659113Y-283516900D02*
X314587684Y-283588328D01*
X314587684Y-283588328D02*
X314516256Y-283516900D01*
X314516256Y-283516900D02*
X314587684Y-283445471D01*
X314587684Y-283445471D02*
X314587684Y-283588328D01*
X316516256Y-283588328D02*
X316801970Y-283588328D01*
X316801970Y-283588328D02*
X316944827Y-283516900D01*
X316944827Y-283516900D02*
X317016256Y-283445471D01*
X317016256Y-283445471D02*
X317159113Y-283231185D01*
X317159113Y-283231185D02*
X317230542Y-282945471D01*
X317230542Y-282945471D02*
X317230542Y-282374042D01*
X317230542Y-282374042D02*
X317159113Y-282231185D01*
X317159113Y-282231185D02*
X317087685Y-282159757D01*
X317087685Y-282159757D02*
X316944827Y-282088328D01*
X316944827Y-282088328D02*
X316659113Y-282088328D01*
X316659113Y-282088328D02*
X316516256Y-282159757D01*
X316516256Y-282159757D02*
X316444827Y-282231185D01*
X316444827Y-282231185D02*
X316373399Y-282374042D01*
X316373399Y-282374042D02*
X316373399Y-282731185D01*
X316373399Y-282731185D02*
X316444827Y-282874042D01*
X316444827Y-282874042D02*
X316516256Y-282945471D01*
X316516256Y-282945471D02*
X316659113Y-283016900D01*
X316659113Y-283016900D02*
X316944827Y-283016900D01*
X316944827Y-283016900D02*
X317087685Y-282945471D01*
X317087685Y-282945471D02*
X317159113Y-282874042D01*
X317159113Y-282874042D02*
X317230542Y-282731185D01*
X317873398Y-283445471D02*
X317944827Y-283516900D01*
X317944827Y-283516900D02*
X317873398Y-283588328D01*
X317873398Y-283588328D02*
X317801970Y-283516900D01*
X317801970Y-283516900D02*
X317873398Y-283445471D01*
X317873398Y-283445471D02*
X317873398Y-283588328D01*
X318873399Y-282088328D02*
X319016256Y-282088328D01*
X319016256Y-282088328D02*
X319159113Y-282159757D01*
X319159113Y-282159757D02*
X319230542Y-282231185D01*
X319230542Y-282231185D02*
X319301970Y-282374042D01*
X319301970Y-282374042D02*
X319373399Y-282659757D01*
X319373399Y-282659757D02*
X319373399Y-283016900D01*
X319373399Y-283016900D02*
X319301970Y-283302614D01*
X319301970Y-283302614D02*
X319230542Y-283445471D01*
X319230542Y-283445471D02*
X319159113Y-283516900D01*
X319159113Y-283516900D02*
X319016256Y-283588328D01*
X319016256Y-283588328D02*
X318873399Y-283588328D01*
X318873399Y-283588328D02*
X318730542Y-283516900D01*
X318730542Y-283516900D02*
X318659113Y-283445471D01*
X318659113Y-283445471D02*
X318587684Y-283302614D01*
X318587684Y-283302614D02*
X318516256Y-283016900D01*
X318516256Y-283016900D02*
X318516256Y-282659757D01*
X318516256Y-282659757D02*
X318587684Y-282374042D01*
X318587684Y-282374042D02*
X318659113Y-282231185D01*
X318659113Y-282231185D02*
X318730542Y-282159757D01*
X318730542Y-282159757D02*
X318873399Y-282088328D01*
X320016255Y-283445471D02*
X320087684Y-283516900D01*
X320087684Y-283516900D02*
X320016255Y-283588328D01*
X320016255Y-283588328D02*
X319944827Y-283516900D01*
X319944827Y-283516900D02*
X320016255Y-283445471D01*
X320016255Y-283445471D02*
X320016255Y-283588328D01*
X320587684Y-282088328D02*
X321587684Y-282088328D01*
X321587684Y-282088328D02*
X320944827Y-283588328D01*
D10*
D11*
X299989000Y-278502200D02*
X407989000Y-278502200D01*
D10*
D12*
X387400653Y-280780528D02*
X386900653Y-280066242D01*
X386543510Y-280780528D02*
X386543510Y-279280528D01*
X386543510Y-279280528D02*
X387114939Y-279280528D01*
X387114939Y-279280528D02*
X387257796Y-279351957D01*
X387257796Y-279351957D02*
X387329225Y-279423385D01*
X387329225Y-279423385D02*
X387400653Y-279566242D01*
X387400653Y-279566242D02*
X387400653Y-279780528D01*
X387400653Y-279780528D02*
X387329225Y-279923385D01*
X387329225Y-279923385D02*
X387257796Y-279994814D01*
X387257796Y-279994814D02*
X387114939Y-280066242D01*
X387114939Y-280066242D02*
X386543510Y-280066242D01*
X388614939Y-280709100D02*
X388472082Y-280780528D01*
X388472082Y-280780528D02*
X388186368Y-280780528D01*
X388186368Y-280780528D02*
X388043510Y-280709100D01*
X388043510Y-280709100D02*
X387972082Y-280566242D01*
X387972082Y-280566242D02*
X387972082Y-279994814D01*
X387972082Y-279994814D02*
X388043510Y-279851957D01*
X388043510Y-279851957D02*
X388186368Y-279780528D01*
X388186368Y-279780528D02*
X388472082Y-279780528D01*
X388472082Y-279780528D02*
X388614939Y-279851957D01*
X388614939Y-279851957D02*
X388686368Y-279994814D01*
X388686368Y-279994814D02*
X388686368Y-280137671D01*
X388686368Y-280137671D02*
X387972082Y-280280528D01*
X389186367Y-279780528D02*
X389543510Y-280780528D01*
X389543510Y-280780528D02*
X389900653Y-279780528D01*
X390472081Y-280637671D02*
X390543510Y-280709100D01*
X390543510Y-280709100D02*
X390472081Y-280780528D01*
X390472081Y-280780528D02*
X390400653Y-280709100D01*
X390400653Y-280709100D02*
X390472081Y-280637671D01*
X390472081Y-280637671D02*
X390472081Y-280780528D01*
X390472081Y-279851957D02*
X390543510Y-279923385D01*
X390543510Y-279923385D02*
X390472081Y-279994814D01*
X390472081Y-279994814D02*
X390400653Y-279923385D01*
X390400653Y-279923385D02*
X390472081Y-279851957D01*
X390472081Y-279851957D02*
X390472081Y-279994814D01*
D10*
D11*
X301373398Y-280716900D02*
X301587684Y-280788328D01*
X301587684Y-280788328D02*
X301944826Y-280788328D01*
X301944826Y-280788328D02*
X302087684Y-280716900D01*
X302087684Y-280716900D02*
X302159112Y-280645471D01*
X302159112Y-280645471D02*
X302230541Y-280502614D01*
X302230541Y-280502614D02*
X302230541Y-280359757D01*
X302230541Y-280359757D02*
X302159112Y-280216900D01*
X302159112Y-280216900D02*
X302087684Y-280145471D01*
X302087684Y-280145471D02*
X301944826Y-280074042D01*
X301944826Y-280074042D02*
X301659112Y-280002614D01*
X301659112Y-280002614D02*
X301516255Y-279931185D01*
X301516255Y-279931185D02*
X301444826Y-279859757D01*
X301444826Y-279859757D02*
X301373398Y-279716900D01*
X301373398Y-279716900D02*
X301373398Y-279574042D01*
X301373398Y-279574042D02*
X301444826Y-279431185D01*
X301444826Y-279431185D02*
X301516255Y-279359757D01*
X301516255Y-279359757D02*
X301659112Y-279288328D01*
X301659112Y-279288328D02*
X302016255Y-279288328D01*
X302016255Y-279288328D02*
X302230541Y-279359757D01*
X302873397Y-280788328D02*
X302873397Y-279788328D01*
X302873397Y-279288328D02*
X302801969Y-279359757D01*
X302801969Y-279359757D02*
X302873397Y-279431185D01*
X302873397Y-279431185D02*
X302944826Y-279359757D01*
X302944826Y-279359757D02*
X302873397Y-279288328D01*
X302873397Y-279288328D02*
X302873397Y-279431185D01*
X303444826Y-279788328D02*
X304230541Y-279788328D01*
X304230541Y-279788328D02*
X303444826Y-280788328D01*
X303444826Y-280788328D02*
X304230541Y-280788328D01*
X305373398Y-280716900D02*
X305230541Y-280788328D01*
X305230541Y-280788328D02*
X304944827Y-280788328D01*
X304944827Y-280788328D02*
X304801969Y-280716900D01*
X304801969Y-280716900D02*
X304730541Y-280574042D01*
X304730541Y-280574042D02*
X304730541Y-280002614D01*
X304730541Y-280002614D02*
X304801969Y-279859757D01*
X304801969Y-279859757D02*
X304944827Y-279788328D01*
X304944827Y-279788328D02*
X305230541Y-279788328D01*
X305230541Y-279788328D02*
X305373398Y-279859757D01*
X305373398Y-279859757D02*
X305444827Y-280002614D01*
X305444827Y-280002614D02*
X305444827Y-280145471D01*
X305444827Y-280145471D02*
X304730541Y-280288328D01*
X306087683Y-280645471D02*
X306159112Y-280716900D01*
X306159112Y-280716900D02*
X306087683Y-280788328D01*
X306087683Y-280788328D02*
X306016255Y-280716900D01*
X306016255Y-280716900D02*
X306087683Y-280645471D01*
X306087683Y-280645471D02*
X306087683Y-280788328D01*
X306087683Y-279859757D02*
X306159112Y-279931185D01*
X306159112Y-279931185D02*
X306087683Y-280002614D01*
X306087683Y-280002614D02*
X306016255Y-279931185D01*
X306016255Y-279931185D02*
X306087683Y-279859757D01*
X306087683Y-279859757D02*
X306087683Y-280002614D01*
X307873398Y-280359757D02*
X308587684Y-280359757D01*
X307730541Y-280788328D02*
X308230541Y-279288328D01*
X308230541Y-279288328D02*
X308730541Y-280788328D01*
X309087683Y-279288328D02*
X310016255Y-279288328D01*
X310016255Y-279288328D02*
X309516255Y-279859757D01*
X309516255Y-279859757D02*
X309730540Y-279859757D01*
X309730540Y-279859757D02*
X309873398Y-279931185D01*
X309873398Y-279931185D02*
X309944826Y-280002614D01*
X309944826Y-280002614D02*
X310016255Y-280145471D01*
X310016255Y-280145471D02*
X310016255Y-280502614D01*
X310016255Y-280502614D02*
X309944826Y-280645471D01*
X309944826Y-280645471D02*
X309873398Y-280716900D01*
X309873398Y-280716900D02*
X309730540Y-280788328D01*
X309730540Y-280788328D02*
X309301969Y-280788328D01*
X309301969Y-280788328D02*
X309159112Y-280716900D01*
X309159112Y-280716900D02*
X309087683Y-280645471D01*
D10*
D11*
X386444826Y-283588328D02*
X386444826Y-282088328D01*
X387801970Y-283588328D02*
X387801970Y-282088328D01*
X387801970Y-283516900D02*
X387659112Y-283588328D01*
X387659112Y-283588328D02*
X387373398Y-283588328D01*
X387373398Y-283588328D02*
X387230541Y-283516900D01*
X387230541Y-283516900D02*
X387159112Y-283445471D01*
X387159112Y-283445471D02*
X387087684Y-283302614D01*
X387087684Y-283302614D02*
X387087684Y-282874042D01*
X387087684Y-282874042D02*
X387159112Y-282731185D01*
X387159112Y-282731185D02*
X387230541Y-282659757D01*
X387230541Y-282659757D02*
X387373398Y-282588328D01*
X387373398Y-282588328D02*
X387659112Y-282588328D01*
X387659112Y-282588328D02*
X387801970Y-282659757D01*
X388516255Y-283445471D02*
X388587684Y-283516900D01*
X388587684Y-283516900D02*
X388516255Y-283588328D01*
X388516255Y-283588328D02*
X388444827Y-283516900D01*
X388444827Y-283516900D02*
X388516255Y-283445471D01*
X388516255Y-283445471D02*
X388516255Y-283588328D01*
X388516255Y-282659757D02*
X388587684Y-282731185D01*
X388587684Y-282731185D02*
X388516255Y-282802614D01*
X388516255Y-282802614D02*
X388444827Y-282731185D01*
X388444827Y-282731185D02*
X388516255Y-282659757D01*
X388516255Y-282659757D02*
X388516255Y-282802614D01*
X390301970Y-282231185D02*
X390373398Y-282159757D01*
X390373398Y-282159757D02*
X390516256Y-282088328D01*
X390516256Y-282088328D02*
X390873398Y-282088328D01*
X390873398Y-282088328D02*
X391016256Y-282159757D01*
X391016256Y-282159757D02*
X391087684Y-282231185D01*
X391087684Y-282231185D02*
X391159113Y-282374042D01*
X391159113Y-282374042D02*
X391159113Y-282516900D01*
X391159113Y-282516900D02*
X391087684Y-282731185D01*
X391087684Y-282731185D02*
X390230541Y-283588328D01*
X390230541Y-283588328D02*
X391159113Y-283588328D01*
X392873398Y-282016900D02*
X391587684Y-283945471D01*
X393444827Y-283588328D02*
X393730541Y-283588328D01*
X393730541Y-283588328D02*
X393873398Y-283516900D01*
X393873398Y-283516900D02*
X393944827Y-283445471D01*
X393944827Y-283445471D02*
X394087684Y-283231185D01*
X394087684Y-283231185D02*
X394159113Y-282945471D01*
X394159113Y-282945471D02*
X394159113Y-282374042D01*
X394159113Y-282374042D02*
X394087684Y-282231185D01*
X394087684Y-282231185D02*
X394016256Y-282159757D01*
X394016256Y-282159757D02*
X393873398Y-282088328D01*
X393873398Y-282088328D02*
X393587684Y-282088328D01*
X393587684Y-282088328D02*
X393444827Y-282159757D01*
X393444827Y-282159757D02*
X393373398Y-282231185D01*
X393373398Y-282231185D02*
X393301970Y-282374042D01*
X393301970Y-282374042D02*
X393301970Y-282731185D01*
X393301970Y-282731185D02*
X393373398Y-282874042D01*
X393373398Y-282874042D02*
X393444827Y-282945471D01*
X393444827Y-282945471D02*
X393587684Y-283016900D01*
X393587684Y-283016900D02*
X393873398Y-283016900D01*
X393873398Y-283016900D02*
X394016256Y-282945471D01*
X394016256Y-282945471D02*
X394087684Y-282874042D01*
X394087684Y-282874042D02*
X394159113Y-282731185D01*
D10*
D11*
X299989000Y-274502200D02*
X407989000Y-274502200D01*
D10*
D13*
X301680728Y-275206638D02*
X302823585Y-275206638D01*
X302002157Y-277206638D02*
X302252157Y-275206638D01*
X303240252Y-277206638D02*
X303406919Y-275873304D01*
X303490252Y-275206638D02*
X303383109Y-275301876D01*
X303383109Y-275301876D02*
X303466443Y-275397114D01*
X303466443Y-275397114D02*
X303573586Y-275301876D01*
X303573586Y-275301876D02*
X303490252Y-275206638D01*
X303490252Y-275206638D02*
X303466443Y-275397114D01*
X304073586Y-275873304D02*
X304835490Y-275873304D01*
X304442633Y-275206638D02*
X304228348Y-276920923D01*
X304228348Y-276920923D02*
X304299776Y-277111400D01*
X304299776Y-277111400D02*
X304478348Y-277206638D01*
X304478348Y-277206638D02*
X304668824Y-277206638D01*
X305621205Y-277206638D02*
X305442633Y-277111400D01*
X305442633Y-277111400D02*
X305371205Y-276920923D01*
X305371205Y-276920923D02*
X305585490Y-275206638D01*
X307156919Y-277111400D02*
X306954538Y-277206638D01*
X306954538Y-277206638D02*
X306573585Y-277206638D01*
X306573585Y-277206638D02*
X306395014Y-277111400D01*
X306395014Y-277111400D02*
X306323585Y-276920923D01*
X306323585Y-276920923D02*
X306418824Y-276159019D01*
X306418824Y-276159019D02*
X306537871Y-275968542D01*
X306537871Y-275968542D02*
X306740252Y-275873304D01*
X306740252Y-275873304D02*
X307121204Y-275873304D01*
X307121204Y-275873304D02*
X307299776Y-275968542D01*
X307299776Y-275968542D02*
X307371204Y-276159019D01*
X307371204Y-276159019D02*
X307347395Y-276349495D01*
X307347395Y-276349495D02*
X306371204Y-276539971D01*
X308121205Y-277016161D02*
X308204538Y-277111400D01*
X308204538Y-277111400D02*
X308097395Y-277206638D01*
X308097395Y-277206638D02*
X308014062Y-277111400D01*
X308014062Y-277111400D02*
X308121205Y-277016161D01*
X308121205Y-277016161D02*
X308097395Y-277206638D01*
X308252157Y-275968542D02*
X308335490Y-276063780D01*
X308335490Y-276063780D02*
X308228348Y-276159019D01*
X308228348Y-276159019D02*
X308145014Y-276063780D01*
X308145014Y-276063780D02*
X308252157Y-275968542D01*
X308252157Y-275968542D02*
X308228348Y-276159019D01*
D10*
D11*
X301944826Y-272602614D02*
X301444826Y-272602614D01*
X301444826Y-273388328D02*
X301444826Y-271888328D01*
X301444826Y-271888328D02*
X302159112Y-271888328D01*
X302730540Y-273388328D02*
X302730540Y-272388328D01*
X302730540Y-271888328D02*
X302659112Y-271959757D01*
X302659112Y-271959757D02*
X302730540Y-272031185D01*
X302730540Y-272031185D02*
X302801969Y-271959757D01*
X302801969Y-271959757D02*
X302730540Y-271888328D01*
X302730540Y-271888328D02*
X302730540Y-272031185D01*
X303659112Y-273388328D02*
X303516255Y-273316900D01*
X303516255Y-273316900D02*
X303444826Y-273174042D01*
X303444826Y-273174042D02*
X303444826Y-271888328D01*
X304801969Y-273316900D02*
X304659112Y-273388328D01*
X304659112Y-273388328D02*
X304373398Y-273388328D01*
X304373398Y-273388328D02*
X304230540Y-273316900D01*
X304230540Y-273316900D02*
X304159112Y-273174042D01*
X304159112Y-273174042D02*
X304159112Y-272602614D01*
X304159112Y-272602614D02*
X304230540Y-272459757D01*
X304230540Y-272459757D02*
X304373398Y-272388328D01*
X304373398Y-272388328D02*
X304659112Y-272388328D01*
X304659112Y-272388328D02*
X304801969Y-272459757D01*
X304801969Y-272459757D02*
X304873398Y-272602614D01*
X304873398Y-272602614D02*
X304873398Y-272745471D01*
X304873398Y-272745471D02*
X304159112Y-272888328D01*
X305516254Y-273245471D02*
X305587683Y-273316900D01*
X305587683Y-273316900D02*
X305516254Y-273388328D01*
X305516254Y-273388328D02*
X305444826Y-273316900D01*
X305444826Y-273316900D02*
X305516254Y-273245471D01*
X305516254Y-273245471D02*
X305516254Y-273388328D01*
X305516254Y-272459757D02*
X305587683Y-272531185D01*
X305587683Y-272531185D02*
X305516254Y-272602614D01*
X305516254Y-272602614D02*
X305444826Y-272531185D01*
X305444826Y-272531185D02*
X305516254Y-272459757D01*
X305516254Y-272459757D02*
X305516254Y-272602614D01*
X307230540Y-272388328D02*
X307516255Y-273388328D01*
X307516255Y-273388328D02*
X307801969Y-272674042D01*
X307801969Y-272674042D02*
X308087683Y-273388328D01*
X308087683Y-273388328D02*
X308373397Y-272388328D01*
X308944826Y-273388328D02*
X308944826Y-272388328D01*
X308944826Y-271888328D02*
X308873398Y-271959757D01*
X308873398Y-271959757D02*
X308944826Y-272031185D01*
X308944826Y-272031185D02*
X309016255Y-271959757D01*
X309016255Y-271959757D02*
X308944826Y-271888328D01*
X308944826Y-271888328D02*
X308944826Y-272031185D01*
X309659112Y-273388328D02*
X309659112Y-272388328D01*
X309659112Y-272674042D02*
X309730541Y-272531185D01*
X309730541Y-272531185D02*
X309801970Y-272459757D01*
X309801970Y-272459757D02*
X309944827Y-272388328D01*
X309944827Y-272388328D02*
X310087684Y-272388328D01*
X311159112Y-273316900D02*
X311016255Y-273388328D01*
X311016255Y-273388328D02*
X310730541Y-273388328D01*
X310730541Y-273388328D02*
X310587683Y-273316900D01*
X310587683Y-273316900D02*
X310516255Y-273174042D01*
X310516255Y-273174042D02*
X310516255Y-272602614D01*
X310516255Y-272602614D02*
X310587683Y-272459757D01*
X310587683Y-272459757D02*
X310730541Y-272388328D01*
X310730541Y-272388328D02*
X311016255Y-272388328D01*
X311016255Y-272388328D02*
X311159112Y-272459757D01*
X311159112Y-272459757D02*
X311230541Y-272602614D01*
X311230541Y-272602614D02*
X311230541Y-272745471D01*
X311230541Y-272745471D02*
X310516255Y-272888328D01*
X312087683Y-273388328D02*
X311944826Y-273316900D01*
X311944826Y-273316900D02*
X311873397Y-273174042D01*
X311873397Y-273174042D02*
X311873397Y-271888328D01*
X313230540Y-273316900D02*
X313087683Y-273388328D01*
X313087683Y-273388328D02*
X312801969Y-273388328D01*
X312801969Y-273388328D02*
X312659111Y-273316900D01*
X312659111Y-273316900D02*
X312587683Y-273174042D01*
X312587683Y-273174042D02*
X312587683Y-272602614D01*
X312587683Y-272602614D02*
X312659111Y-272459757D01*
X312659111Y-272459757D02*
X312801969Y-272388328D01*
X312801969Y-272388328D02*
X313087683Y-272388328D01*
X313087683Y-272388328D02*
X313230540Y-272459757D01*
X313230540Y-272459757D02*
X313301969Y-272602614D01*
X313301969Y-272602614D02*
X313301969Y-272745471D01*
X313301969Y-272745471D02*
X312587683Y-272888328D01*
X313873397Y-273316900D02*
X314016254Y-273388328D01*
X314016254Y-273388328D02*
X314301968Y-273388328D01*
X314301968Y-273388328D02*
X314444825Y-273316900D01*
X314444825Y-273316900D02*
X314516254Y-273174042D01*
X314516254Y-273174042D02*
X314516254Y-273102614D01*
X314516254Y-273102614D02*
X314444825Y-272959757D01*
X314444825Y-272959757D02*
X314301968Y-272888328D01*
X314301968Y-272888328D02*
X314087683Y-272888328D01*
X314087683Y-272888328D02*
X313944825Y-272816900D01*
X313944825Y-272816900D02*
X313873397Y-272674042D01*
X313873397Y-272674042D02*
X313873397Y-272602614D01*
X313873397Y-272602614D02*
X313944825Y-272459757D01*
X313944825Y-272459757D02*
X314087683Y-272388328D01*
X314087683Y-272388328D02*
X314301968Y-272388328D01*
X314301968Y-272388328D02*
X314444825Y-272459757D01*
X315087683Y-273316900D02*
X315230540Y-273388328D01*
X315230540Y-273388328D02*
X315516254Y-273388328D01*
X315516254Y-273388328D02*
X315659111Y-273316900D01*
X315659111Y-273316900D02*
X315730540Y-273174042D01*
X315730540Y-273174042D02*
X315730540Y-273102614D01*
X315730540Y-273102614D02*
X315659111Y-272959757D01*
X315659111Y-272959757D02*
X315516254Y-272888328D01*
X315516254Y-272888328D02*
X315301969Y-272888328D01*
X315301969Y-272888328D02*
X315159111Y-272816900D01*
X315159111Y-272816900D02*
X315087683Y-272674042D01*
X315087683Y-272674042D02*
X315087683Y-272602614D01*
X315087683Y-272602614D02*
X315159111Y-272459757D01*
X315159111Y-272459757D02*
X315301969Y-272388328D01*
X315301969Y-272388328D02*
X315516254Y-272388328D01*
X315516254Y-272388328D02*
X315659111Y-272459757D01*
X316373397Y-272816900D02*
X317516255Y-272816900D01*
X318873398Y-272388328D02*
X318873398Y-273388328D01*
X318230540Y-272388328D02*
X318230540Y-273174042D01*
X318230540Y-273174042D02*
X318301969Y-273316900D01*
X318301969Y-273316900D02*
X318444826Y-273388328D01*
X318444826Y-273388328D02*
X318659112Y-273388328D01*
X318659112Y-273388328D02*
X318801969Y-273316900D01*
X318801969Y-273316900D02*
X318873398Y-273245471D01*
X319587683Y-273388328D02*
X319587683Y-271888328D01*
X320230541Y-273388328D02*
X320230541Y-272602614D01*
X320230541Y-272602614D02*
X320159112Y-272459757D01*
X320159112Y-272459757D02*
X320016255Y-272388328D01*
X320016255Y-272388328D02*
X319801969Y-272388328D01*
X319801969Y-272388328D02*
X319659112Y-272459757D01*
X319659112Y-272459757D02*
X319587683Y-272531185D01*
X321587684Y-273388328D02*
X321587684Y-272602614D01*
X321587684Y-272602614D02*
X321516255Y-272459757D01*
X321516255Y-272459757D02*
X321373398Y-272388328D01*
X321373398Y-272388328D02*
X321087684Y-272388328D01*
X321087684Y-272388328D02*
X320944826Y-272459757D01*
X321587684Y-273316900D02*
X321444826Y-273388328D01*
X321444826Y-273388328D02*
X321087684Y-273388328D01*
X321087684Y-273388328D02*
X320944826Y-273316900D01*
X320944826Y-273316900D02*
X320873398Y-273174042D01*
X320873398Y-273174042D02*
X320873398Y-273031185D01*
X320873398Y-273031185D02*
X320944826Y-272888328D01*
X320944826Y-272888328D02*
X321087684Y-272816900D01*
X321087684Y-272816900D02*
X321444826Y-272816900D01*
X321444826Y-272816900D02*
X321587684Y-272745471D01*
X322087684Y-272388328D02*
X322659112Y-272388328D01*
X322301969Y-271888328D02*
X322301969Y-273174042D01*
X322301969Y-273174042D02*
X322373398Y-273316900D01*
X322373398Y-273316900D02*
X322516255Y-273388328D01*
X322516255Y-273388328D02*
X322659112Y-273388328D01*
X323159112Y-272816900D02*
X324301970Y-272816900D01*
X324801970Y-272388328D02*
X325373398Y-272388328D01*
X325016255Y-271888328D02*
X325016255Y-273174042D01*
X325016255Y-273174042D02*
X325087684Y-273316900D01*
X325087684Y-273316900D02*
X325230541Y-273388328D01*
X325230541Y-273388328D02*
X325373398Y-273388328D01*
X325873398Y-273388328D02*
X325873398Y-271888328D01*
X326516256Y-273388328D02*
X326516256Y-272602614D01*
X326516256Y-272602614D02*
X326444827Y-272459757D01*
X326444827Y-272459757D02*
X326301970Y-272388328D01*
X326301970Y-272388328D02*
X326087684Y-272388328D01*
X326087684Y-272388328D02*
X325944827Y-272459757D01*
X325944827Y-272459757D02*
X325873398Y-272531185D01*
X327016256Y-272388328D02*
X327587684Y-272388328D01*
X327230541Y-271888328D02*
X327230541Y-273174042D01*
X327230541Y-273174042D02*
X327301970Y-273316900D01*
X327301970Y-273316900D02*
X327444827Y-273388328D01*
X327444827Y-273388328D02*
X327587684Y-273388328D01*
X328087684Y-272816900D02*
X329230542Y-272816900D01*
X329944827Y-273388328D02*
X329944827Y-272388328D01*
X329944827Y-272674042D02*
X330016256Y-272531185D01*
X330016256Y-272531185D02*
X330087685Y-272459757D01*
X330087685Y-272459757D02*
X330230542Y-272388328D01*
X330230542Y-272388328D02*
X330373399Y-272388328D01*
X330873398Y-272388328D02*
X330873398Y-273888328D01*
X330873398Y-272459757D02*
X331016256Y-272388328D01*
X331016256Y-272388328D02*
X331301970Y-272388328D01*
X331301970Y-272388328D02*
X331444827Y-272459757D01*
X331444827Y-272459757D02*
X331516256Y-272531185D01*
X331516256Y-272531185D02*
X331587684Y-272674042D01*
X331587684Y-272674042D02*
X331587684Y-273102614D01*
X331587684Y-273102614D02*
X331516256Y-273245471D01*
X331516256Y-273245471D02*
X331444827Y-273316900D01*
X331444827Y-273316900D02*
X331301970Y-273388328D01*
X331301970Y-273388328D02*
X331016256Y-273388328D01*
X331016256Y-273388328D02*
X330873398Y-273316900D01*
X332230541Y-273388328D02*
X332230541Y-272388328D01*
X332230541Y-271888328D02*
X332159113Y-271959757D01*
X332159113Y-271959757D02*
X332230541Y-272031185D01*
X332230541Y-272031185D02*
X332301970Y-271959757D01*
X332301970Y-271959757D02*
X332230541Y-271888328D01*
X332230541Y-271888328D02*
X332230541Y-272031185D01*
X332944827Y-272816900D02*
X334087685Y-272816900D01*
X334801970Y-273388328D02*
X334801970Y-272388328D01*
X334801970Y-272674042D02*
X334873399Y-272531185D01*
X334873399Y-272531185D02*
X334944828Y-272459757D01*
X334944828Y-272459757D02*
X335087685Y-272388328D01*
X335087685Y-272388328D02*
X335230542Y-272388328D01*
X336373399Y-273388328D02*
X336373399Y-272602614D01*
X336373399Y-272602614D02*
X336301970Y-272459757D01*
X336301970Y-272459757D02*
X336159113Y-272388328D01*
X336159113Y-272388328D02*
X335873399Y-272388328D01*
X335873399Y-272388328D02*
X335730541Y-272459757D01*
X336373399Y-273316900D02*
X336230541Y-273388328D01*
X336230541Y-273388328D02*
X335873399Y-273388328D01*
X335873399Y-273388328D02*
X335730541Y-273316900D01*
X335730541Y-273316900D02*
X335659113Y-273174042D01*
X335659113Y-273174042D02*
X335659113Y-273031185D01*
X335659113Y-273031185D02*
X335730541Y-272888328D01*
X335730541Y-272888328D02*
X335873399Y-272816900D01*
X335873399Y-272816900D02*
X336230541Y-272816900D01*
X336230541Y-272816900D02*
X336373399Y-272745471D01*
X337730542Y-273388328D02*
X337730542Y-271888328D01*
X337730542Y-273316900D02*
X337587684Y-273388328D01*
X337587684Y-273388328D02*
X337301970Y-273388328D01*
X337301970Y-273388328D02*
X337159113Y-273316900D01*
X337159113Y-273316900D02*
X337087684Y-273245471D01*
X337087684Y-273245471D02*
X337016256Y-273102614D01*
X337016256Y-273102614D02*
X337016256Y-272674042D01*
X337016256Y-272674042D02*
X337087684Y-272531185D01*
X337087684Y-272531185D02*
X337159113Y-272459757D01*
X337159113Y-272459757D02*
X337301970Y-272388328D01*
X337301970Y-272388328D02*
X337587684Y-272388328D01*
X337587684Y-272388328D02*
X337730542Y-272459757D01*
X338444827Y-273388328D02*
X338444827Y-272388328D01*
X338444827Y-271888328D02*
X338373399Y-271959757D01*
X338373399Y-271959757D02*
X338444827Y-272031185D01*
X338444827Y-272031185D02*
X338516256Y-271959757D01*
X338516256Y-271959757D02*
X338444827Y-271888328D01*
X338444827Y-271888328D02*
X338444827Y-272031185D01*
X339373399Y-273388328D02*
X339230542Y-273316900D01*
X339230542Y-273316900D02*
X339159113Y-273245471D01*
X339159113Y-273245471D02*
X339087685Y-273102614D01*
X339087685Y-273102614D02*
X339087685Y-272674042D01*
X339087685Y-272674042D02*
X339159113Y-272531185D01*
X339159113Y-272531185D02*
X339230542Y-272459757D01*
X339230542Y-272459757D02*
X339373399Y-272388328D01*
X339373399Y-272388328D02*
X339587685Y-272388328D01*
X339587685Y-272388328D02*
X339730542Y-272459757D01*
X339730542Y-272459757D02*
X339801971Y-272531185D01*
X339801971Y-272531185D02*
X339873399Y-272674042D01*
X339873399Y-272674042D02*
X339873399Y-273102614D01*
X339873399Y-273102614D02*
X339801971Y-273245471D01*
X339801971Y-273245471D02*
X339730542Y-273316900D01*
X339730542Y-273316900D02*
X339587685Y-273388328D01*
X339587685Y-273388328D02*
X339373399Y-273388328D01*
X340516256Y-272816900D02*
X341659114Y-272816900D01*
X342373399Y-273388328D02*
X342373399Y-272388328D01*
X342373399Y-272531185D02*
X342444828Y-272459757D01*
X342444828Y-272459757D02*
X342587685Y-272388328D01*
X342587685Y-272388328D02*
X342801971Y-272388328D01*
X342801971Y-272388328D02*
X342944828Y-272459757D01*
X342944828Y-272459757D02*
X343016257Y-272602614D01*
X343016257Y-272602614D02*
X343016257Y-273388328D01*
X343016257Y-272602614D02*
X343087685Y-272459757D01*
X343087685Y-272459757D02*
X343230542Y-272388328D01*
X343230542Y-272388328D02*
X343444828Y-272388328D01*
X343444828Y-272388328D02*
X343587685Y-272459757D01*
X343587685Y-272459757D02*
X343659114Y-272602614D01*
X343659114Y-272602614D02*
X343659114Y-273388328D01*
X344587685Y-273388328D02*
X344444828Y-273316900D01*
X344444828Y-273316900D02*
X344373399Y-273245471D01*
X344373399Y-273245471D02*
X344301971Y-273102614D01*
X344301971Y-273102614D02*
X344301971Y-272674042D01*
X344301971Y-272674042D02*
X344373399Y-272531185D01*
X344373399Y-272531185D02*
X344444828Y-272459757D01*
X344444828Y-272459757D02*
X344587685Y-272388328D01*
X344587685Y-272388328D02*
X344801971Y-272388328D01*
X344801971Y-272388328D02*
X344944828Y-272459757D01*
X344944828Y-272459757D02*
X345016257Y-272531185D01*
X345016257Y-272531185D02*
X345087685Y-272674042D01*
X345087685Y-272674042D02*
X345087685Y-273102614D01*
X345087685Y-273102614D02*
X345016257Y-273245471D01*
X345016257Y-273245471D02*
X344944828Y-273316900D01*
X344944828Y-273316900D02*
X344801971Y-273388328D01*
X344801971Y-273388328D02*
X344587685Y-273388328D01*
X346373400Y-273388328D02*
X346373400Y-271888328D01*
X346373400Y-273316900D02*
X346230542Y-273388328D01*
X346230542Y-273388328D02*
X345944828Y-273388328D01*
X345944828Y-273388328D02*
X345801971Y-273316900D01*
X345801971Y-273316900D02*
X345730542Y-273245471D01*
X345730542Y-273245471D02*
X345659114Y-273102614D01*
X345659114Y-273102614D02*
X345659114Y-272674042D01*
X345659114Y-272674042D02*
X345730542Y-272531185D01*
X345730542Y-272531185D02*
X345801971Y-272459757D01*
X345801971Y-272459757D02*
X345944828Y-272388328D01*
X345944828Y-272388328D02*
X346230542Y-272388328D01*
X346230542Y-272388328D02*
X346373400Y-272459757D01*
X347730543Y-272388328D02*
X347730543Y-273388328D01*
X347087685Y-272388328D02*
X347087685Y-273174042D01*
X347087685Y-273174042D02*
X347159114Y-273316900D01*
X347159114Y-273316900D02*
X347301971Y-273388328D01*
X347301971Y-273388328D02*
X347516257Y-273388328D01*
X347516257Y-273388328D02*
X347659114Y-273316900D01*
X347659114Y-273316900D02*
X347730543Y-273245471D01*
X348659114Y-273388328D02*
X348516257Y-273316900D01*
X348516257Y-273316900D02*
X348444828Y-273174042D01*
X348444828Y-273174042D02*
X348444828Y-271888328D01*
X349801971Y-273316900D02*
X349659114Y-273388328D01*
X349659114Y-273388328D02*
X349373400Y-273388328D01*
X349373400Y-273388328D02*
X349230542Y-273316900D01*
X349230542Y-273316900D02*
X349159114Y-273174042D01*
X349159114Y-273174042D02*
X349159114Y-272602614D01*
X349159114Y-272602614D02*
X349230542Y-272459757D01*
X349230542Y-272459757D02*
X349373400Y-272388328D01*
X349373400Y-272388328D02*
X349659114Y-272388328D01*
X349659114Y-272388328D02*
X349801971Y-272459757D01*
X349801971Y-272459757D02*
X349873400Y-272602614D01*
X349873400Y-272602614D02*
X349873400Y-272745471D01*
X349873400Y-272745471D02*
X349159114Y-272888328D01*
X350516256Y-272816900D02*
X351659114Y-272816900D01*
X352301971Y-272031185D02*
X352373399Y-271959757D01*
X352373399Y-271959757D02*
X352516257Y-271888328D01*
X352516257Y-271888328D02*
X352873399Y-271888328D01*
X352873399Y-271888328D02*
X353016257Y-271959757D01*
X353016257Y-271959757D02*
X353087685Y-272031185D01*
X353087685Y-272031185D02*
X353159114Y-272174042D01*
X353159114Y-272174042D02*
X353159114Y-272316900D01*
X353159114Y-272316900D02*
X353087685Y-272531185D01*
X353087685Y-272531185D02*
X352230542Y-273388328D01*
X352230542Y-273388328D02*
X353159114Y-273388328D01*
X353801970Y-273245471D02*
X353873399Y-273316900D01*
X353873399Y-273316900D02*
X353801970Y-273388328D01*
X353801970Y-273388328D02*
X353730542Y-273316900D01*
X353730542Y-273316900D02*
X353801970Y-273245471D01*
X353801970Y-273245471D02*
X353801970Y-273388328D01*
X354516256Y-273388328D02*
X354516256Y-271888328D01*
X354659114Y-272816900D02*
X355087685Y-273388328D01*
X355087685Y-272388328D02*
X354516256Y-272959757D01*
X355730542Y-273388328D02*
X355730542Y-272388328D01*
X355730542Y-271888328D02*
X355659114Y-271959757D01*
X355659114Y-271959757D02*
X355730542Y-272031185D01*
X355730542Y-272031185D02*
X355801971Y-271959757D01*
X355801971Y-271959757D02*
X355730542Y-271888328D01*
X355730542Y-271888328D02*
X355730542Y-272031185D01*
X357087686Y-273316900D02*
X356944828Y-273388328D01*
X356944828Y-273388328D02*
X356659114Y-273388328D01*
X356659114Y-273388328D02*
X356516257Y-273316900D01*
X356516257Y-273316900D02*
X356444828Y-273245471D01*
X356444828Y-273245471D02*
X356373400Y-273102614D01*
X356373400Y-273102614D02*
X356373400Y-272674042D01*
X356373400Y-272674042D02*
X356444828Y-272531185D01*
X356444828Y-272531185D02*
X356516257Y-272459757D01*
X356516257Y-272459757D02*
X356659114Y-272388328D01*
X356659114Y-272388328D02*
X356944828Y-272388328D01*
X356944828Y-272388328D02*
X357087686Y-272459757D01*
X358373400Y-273388328D02*
X358373400Y-272602614D01*
X358373400Y-272602614D02*
X358301971Y-272459757D01*
X358301971Y-272459757D02*
X358159114Y-272388328D01*
X358159114Y-272388328D02*
X357873400Y-272388328D01*
X357873400Y-272388328D02*
X357730542Y-272459757D01*
X358373400Y-273316900D02*
X358230542Y-273388328D01*
X358230542Y-273388328D02*
X357873400Y-273388328D01*
X357873400Y-273388328D02*
X357730542Y-273316900D01*
X357730542Y-273316900D02*
X357659114Y-273174042D01*
X357659114Y-273174042D02*
X357659114Y-273031185D01*
X357659114Y-273031185D02*
X357730542Y-272888328D01*
X357730542Y-272888328D02*
X357873400Y-272816900D01*
X357873400Y-272816900D02*
X358230542Y-272816900D01*
X358230542Y-272816900D02*
X358373400Y-272745471D01*
X359730543Y-273388328D02*
X359730543Y-271888328D01*
X359730543Y-273316900D02*
X359587685Y-273388328D01*
X359587685Y-273388328D02*
X359301971Y-273388328D01*
X359301971Y-273388328D02*
X359159114Y-273316900D01*
X359159114Y-273316900D02*
X359087685Y-273245471D01*
X359087685Y-273245471D02*
X359016257Y-273102614D01*
X359016257Y-273102614D02*
X359016257Y-272674042D01*
X359016257Y-272674042D02*
X359087685Y-272531185D01*
X359087685Y-272531185D02*
X359159114Y-272459757D01*
X359159114Y-272459757D02*
X359301971Y-272388328D01*
X359301971Y-272388328D02*
X359587685Y-272388328D01*
X359587685Y-272388328D02*
X359730543Y-272459757D01*
X360087686Y-273531185D02*
X361230543Y-273531185D01*
X361587685Y-272388328D02*
X361587685Y-273888328D01*
X361587685Y-272459757D02*
X361730543Y-272388328D01*
X361730543Y-272388328D02*
X362016257Y-272388328D01*
X362016257Y-272388328D02*
X362159114Y-272459757D01*
X362159114Y-272459757D02*
X362230543Y-272531185D01*
X362230543Y-272531185D02*
X362301971Y-272674042D01*
X362301971Y-272674042D02*
X362301971Y-273102614D01*
X362301971Y-273102614D02*
X362230543Y-273245471D01*
X362230543Y-273245471D02*
X362159114Y-273316900D01*
X362159114Y-273316900D02*
X362016257Y-273388328D01*
X362016257Y-273388328D02*
X361730543Y-273388328D01*
X361730543Y-273388328D02*
X361587685Y-273316900D01*
X363587686Y-273316900D02*
X363444828Y-273388328D01*
X363444828Y-273388328D02*
X363159114Y-273388328D01*
X363159114Y-273388328D02*
X363016257Y-273316900D01*
X363016257Y-273316900D02*
X362944828Y-273245471D01*
X362944828Y-273245471D02*
X362873400Y-273102614D01*
X362873400Y-273102614D02*
X362873400Y-272674042D01*
X362873400Y-272674042D02*
X362944828Y-272531185D01*
X362944828Y-272531185D02*
X363016257Y-272459757D01*
X363016257Y-272459757D02*
X363159114Y-272388328D01*
X363159114Y-272388328D02*
X363444828Y-272388328D01*
X363444828Y-272388328D02*
X363587686Y-272459757D01*
X364230542Y-273388328D02*
X364230542Y-271888328D01*
X364230542Y-272459757D02*
X364373400Y-272388328D01*
X364373400Y-272388328D02*
X364659114Y-272388328D01*
X364659114Y-272388328D02*
X364801971Y-272459757D01*
X364801971Y-272459757D02*
X364873400Y-272531185D01*
X364873400Y-272531185D02*
X364944828Y-272674042D01*
X364944828Y-272674042D02*
X364944828Y-273102614D01*
X364944828Y-273102614D02*
X364873400Y-273245471D01*
X364873400Y-273245471D02*
X364801971Y-273316900D01*
X364801971Y-273316900D02*
X364659114Y-273388328D01*
X364659114Y-273388328D02*
X364373400Y-273388328D01*
X364373400Y-273388328D02*
X364230542Y-273316900D01*
D10*
D11*
X299989000Y-268502200D02*
X407989000Y-268502200D01*
D10*
D11*
X301373398Y-270616900D02*
X301587684Y-270688328D01*
X301587684Y-270688328D02*
X301944826Y-270688328D01*
X301944826Y-270688328D02*
X302087684Y-270616900D01*
X302087684Y-270616900D02*
X302159112Y-270545471D01*
X302159112Y-270545471D02*
X302230541Y-270402614D01*
X302230541Y-270402614D02*
X302230541Y-270259757D01*
X302230541Y-270259757D02*
X302159112Y-270116900D01*
X302159112Y-270116900D02*
X302087684Y-270045471D01*
X302087684Y-270045471D02*
X301944826Y-269974042D01*
X301944826Y-269974042D02*
X301659112Y-269902614D01*
X301659112Y-269902614D02*
X301516255Y-269831185D01*
X301516255Y-269831185D02*
X301444826Y-269759757D01*
X301444826Y-269759757D02*
X301373398Y-269616900D01*
X301373398Y-269616900D02*
X301373398Y-269474042D01*
X301373398Y-269474042D02*
X301444826Y-269331185D01*
X301444826Y-269331185D02*
X301516255Y-269259757D01*
X301516255Y-269259757D02*
X301659112Y-269188328D01*
X301659112Y-269188328D02*
X302016255Y-269188328D01*
X302016255Y-269188328D02*
X302230541Y-269259757D01*
X302873397Y-270688328D02*
X302873397Y-269188328D01*
X303516255Y-270688328D02*
X303516255Y-269902614D01*
X303516255Y-269902614D02*
X303444826Y-269759757D01*
X303444826Y-269759757D02*
X303301969Y-269688328D01*
X303301969Y-269688328D02*
X303087683Y-269688328D01*
X303087683Y-269688328D02*
X302944826Y-269759757D01*
X302944826Y-269759757D02*
X302873397Y-269831185D01*
X304801969Y-270616900D02*
X304659112Y-270688328D01*
X304659112Y-270688328D02*
X304373398Y-270688328D01*
X304373398Y-270688328D02*
X304230540Y-270616900D01*
X304230540Y-270616900D02*
X304159112Y-270474042D01*
X304159112Y-270474042D02*
X304159112Y-269902614D01*
X304159112Y-269902614D02*
X304230540Y-269759757D01*
X304230540Y-269759757D02*
X304373398Y-269688328D01*
X304373398Y-269688328D02*
X304659112Y-269688328D01*
X304659112Y-269688328D02*
X304801969Y-269759757D01*
X304801969Y-269759757D02*
X304873398Y-269902614D01*
X304873398Y-269902614D02*
X304873398Y-270045471D01*
X304873398Y-270045471D02*
X304159112Y-270188328D01*
X306087683Y-270616900D02*
X305944826Y-270688328D01*
X305944826Y-270688328D02*
X305659112Y-270688328D01*
X305659112Y-270688328D02*
X305516254Y-270616900D01*
X305516254Y-270616900D02*
X305444826Y-270474042D01*
X305444826Y-270474042D02*
X305444826Y-269902614D01*
X305444826Y-269902614D02*
X305516254Y-269759757D01*
X305516254Y-269759757D02*
X305659112Y-269688328D01*
X305659112Y-269688328D02*
X305944826Y-269688328D01*
X305944826Y-269688328D02*
X306087683Y-269759757D01*
X306087683Y-269759757D02*
X306159112Y-269902614D01*
X306159112Y-269902614D02*
X306159112Y-270045471D01*
X306159112Y-270045471D02*
X305444826Y-270188328D01*
X306587683Y-269688328D02*
X307159111Y-269688328D01*
X306801968Y-269188328D02*
X306801968Y-270474042D01*
X306801968Y-270474042D02*
X306873397Y-270616900D01*
X306873397Y-270616900D02*
X307016254Y-270688328D01*
X307016254Y-270688328D02*
X307159111Y-270688328D01*
X307659111Y-270545471D02*
X307730540Y-270616900D01*
X307730540Y-270616900D02*
X307659111Y-270688328D01*
X307659111Y-270688328D02*
X307587683Y-270616900D01*
X307587683Y-270616900D02*
X307659111Y-270545471D01*
X307659111Y-270545471D02*
X307659111Y-270688328D01*
X307659111Y-269759757D02*
X307730540Y-269831185D01*
X307730540Y-269831185D02*
X307659111Y-269902614D01*
X307659111Y-269902614D02*
X307587683Y-269831185D01*
X307587683Y-269831185D02*
X307659111Y-269759757D01*
X307659111Y-269759757D02*
X307659111Y-269902614D01*
D10*
D11*
X319989000Y-278502200D02*
X319989000Y-281502200D01*
D10*
D11*
X383989000Y-278502200D02*
X383989000Y-285002200D01*
D14*
X108370000Y-74770000D03*
D15*
X108370000Y-72230000D03*
X110910000Y-74770000D03*
X110910000Y-72230000D03*
X113450000Y-74770000D03*
X113450000Y-72230000D03*
X115990000Y-74770000D03*
X115990000Y-72230000D03*
X118530000Y-74770000D03*
X118530000Y-72230000D03*
X121070000Y-74770000D03*
X121070000Y-72230000D03*
X123610000Y-74770000D03*
X123610000Y-72230000D03*
X126150000Y-74770000D03*
X126150000Y-72230000D03*
X128690000Y-74770000D03*
X128690000Y-72230000D03*
X131230000Y-74770000D03*
X131230000Y-72230000D03*
X133770000Y-74770000D03*
X133770000Y-72230000D03*
X136310000Y-74770000D03*
X136310000Y-72230000D03*
X138850000Y-74770000D03*
X138850000Y-72230000D03*
X141390000Y-74770000D03*
X141390000Y-72230000D03*
X143930000Y-74770000D03*
X143930000Y-72230000D03*
X146470000Y-74770000D03*
X146470000Y-72230000D03*
X149010000Y-74770000D03*
X149010000Y-72230000D03*
X151550000Y-74770000D03*
X151550000Y-72230000D03*
X154090000Y-74770000D03*
X154090000Y-72230000D03*
X156630000Y-74770000D03*
X156630000Y-72230000D03*
D14*
X144704000Y-89307000D03*
D15*
X147244000Y-89307000D03*
X149784000Y-89307000D03*
D16*
X138100000Y-77140000D03*
X133294002Y-88316000D03*
X115494000Y-83490000D03*
X117780000Y-86284000D03*
X115240000Y-94920000D03*
X139370000Y-85268000D03*
X140132000Y-71552000D03*
X118542000Y-83744000D03*
X124892000Y-87300000D03*
X142164000Y-82474000D03*
X150800000Y-97460000D03*
X152832000Y-73584000D03*
X139116000Y-90348000D03*
X117780000Y-79680000D03*
X150800000Y-77140000D03*
X126670000Y-77902000D03*
X135814000Y-85776000D03*
X153340000Y-85268000D03*
X160960000Y-82220000D03*
X150800000Y-82220000D03*
X120320000Y-86538000D03*
X106096000Y-77140000D03*
X136576000Y-97460000D03*
X164262000Y-79680000D03*
X123114000Y-80696000D03*
X155880000Y-92380000D03*
X107620000Y-97460000D03*
X119812000Y-71044000D03*
X141148000Y-77140000D03*
X137592000Y-71044000D03*
X145720000Y-97460000D03*
X115240000Y-79680000D03*
X134798000Y-83490000D03*
X118034000Y-95428000D03*
X109652000Y-73584000D03*
X112192000Y-75616000D03*
X102540000Y-82220000D03*
X139116000Y-94412000D03*
X128702000Y-80950000D03*
X150800000Y-92380000D03*
X155880000Y-82220000D03*
X155880000Y-97460000D03*
X107620000Y-87300000D03*
X111176000Y-80442000D03*
X117018000Y-93650000D03*
X164262000Y-89332000D03*
X109652000Y-70790000D03*
X132258000Y-80950000D03*
X156642000Y-87554000D03*
X127432000Y-71298000D03*
X107620000Y-78410000D03*
X122860000Y-83998000D03*
X121590000Y-77902000D03*
X119050000Y-96952000D03*
X128702000Y-83744000D03*
X129972000Y-85268000D03*
X102540000Y-77140000D03*
X145720000Y-82220000D03*
X141148000Y-85268000D03*
X140640000Y-97460000D03*
D17*
X136818000Y-90248000D03*
D16*
X146990000Y-85268000D03*
X113208000Y-80442000D03*
X148260000Y-87300000D03*
X128956000Y-77394000D03*
X150800000Y-87300000D03*
X160960000Y-87300000D03*
X145720000Y-77140000D03*
X145720000Y-92380000D03*
D17*
X118796000Y-99238000D03*
D16*
X146482000Y-94412000D03*
X122098000Y-88824000D03*
D17*
X136576000Y-94920000D03*
D16*
X164262000Y-92380000D03*
X141148000Y-87300000D03*
X160960000Y-92380000D03*
X155372000Y-71298000D03*
X110922000Y-83744000D03*
X122352000Y-75870000D03*
X143180000Y-87300000D03*
X142672000Y-75870000D03*
X142164000Y-73584000D03*
D17*
X128448000Y-86792000D03*
X136566000Y-99248000D03*
D16*
X157404000Y-85268000D03*
X135052000Y-73584000D03*
X107620000Y-92380000D03*
X107620000Y-82220000D03*
X139116000Y-81712000D03*
X132258000Y-77902000D03*
X160960000Y-77140000D03*
D17*
X119304000Y-90348000D03*
D16*
X143180000Y-94920000D03*
X102540000Y-87300000D03*
X107112000Y-70790000D03*
X119050000Y-93650000D03*
X122098000Y-86538000D03*
X161214000Y-85268000D03*
X164262000Y-77140000D03*
X145720000Y-87300000D03*
X109144000Y-79680000D03*
X113208000Y-89840000D03*
X141148000Y-79680000D03*
X110160000Y-77902000D03*
X135052000Y-79426000D03*
X112700000Y-92380000D03*
X113208000Y-83998000D03*
X112700000Y-97460000D03*
X138100000Y-87300000D03*
X102540000Y-92380000D03*
X115240000Y-92380000D03*
X116764000Y-77902000D03*
X143180000Y-92380000D03*
X141148000Y-89840000D03*
X155880000Y-77140000D03*
X153340000Y-87300000D03*
X132258000Y-84760000D03*
X130734000Y-76632000D03*
X117018000Y-73330000D03*
X114222603Y-78411397D03*
X136068000Y-92398000D03*
X139116000Y-95428000D03*
X131242000Y-87300000D03*
X130988000Y-77648000D03*
X135052000Y-88824000D03*
X131750000Y-86284000D03*
D18*
X136068000Y-92398000D02*
X136068000Y-87554000D01*
X132512000Y-75616000D02*
X132512000Y-74092000D01*
X129891000Y-73431000D02*
X128690000Y-72230000D01*
X133528000Y-85014000D02*
X133528000Y-76632000D01*
X133528000Y-76632000D02*
X132512000Y-75616000D01*
X131851000Y-73431000D02*
X129891000Y-73431000D01*
X136068000Y-87554000D02*
X133528000Y-85014000D01*
X132512000Y-74092000D02*
X131851000Y-73431000D01*
X139116000Y-95428000D02*
X140189000Y-94355000D01*
X140189000Y-94355000D02*
X140189000Y-73431000D01*
X140189000Y-73431000D02*
X141390000Y-72230000D01*
X130988000Y-87046000D02*
X130988000Y-77648000D01*
X131242000Y-87300000D02*
X130988000Y-87046000D01*
X135052000Y-88824000D02*
X132512000Y-86284000D01*
X132512000Y-86284000D02*
X131750000Y-86284000D01*
G04 #@! TA.AperFunction,Conductor*
G36*
X162003472Y-70050695D02*
G01*
X162323297Y-70068656D01*
X162337094Y-70070210D01*
X162649466Y-70123284D01*
X162663009Y-70126375D01*
X162896319Y-70193591D01*
X162907983Y-70197592D01*
X163296835Y-70353134D01*
X163310748Y-70359729D01*
X163563149Y-70499227D01*
X163574905Y-70506614D01*
X163833302Y-70689957D01*
X163844174Y-70698627D01*
X164080418Y-70909749D01*
X164090250Y-70919581D01*
X164301372Y-71155825D01*
X164310035Y-71166687D01*
X164493385Y-71425094D01*
X164500778Y-71436860D01*
X164654040Y-71714166D01*
X164660073Y-71726695D01*
X164781317Y-72019406D01*
X164785910Y-72032530D01*
X164873622Y-72336985D01*
X164876716Y-72350542D01*
X164929787Y-72662894D01*
X164931344Y-72676712D01*
X164949305Y-72996527D01*
X164949500Y-73003480D01*
X164949500Y-96996519D01*
X164949305Y-97003472D01*
X164931344Y-97323287D01*
X164929787Y-97337105D01*
X164876716Y-97649457D01*
X164873622Y-97663014D01*
X164785910Y-97967469D01*
X164781317Y-97980593D01*
X164660073Y-98273304D01*
X164654040Y-98285833D01*
X164500778Y-98563139D01*
X164493380Y-98574913D01*
X164310043Y-98833302D01*
X164301372Y-98844174D01*
X164090255Y-99080413D01*
X164080423Y-99090246D01*
X163876011Y-99272920D01*
X163867784Y-99279660D01*
X163722899Y-99388324D01*
X163720254Y-99390253D01*
X163574909Y-99493381D01*
X163563135Y-99500780D01*
X163285833Y-99654040D01*
X163273304Y-99660073D01*
X162980593Y-99781317D01*
X162967469Y-99785910D01*
X162663014Y-99873622D01*
X162649457Y-99876716D01*
X162337105Y-99929787D01*
X162323287Y-99931344D01*
X162003472Y-99949305D01*
X161996519Y-99949500D01*
X103003481Y-99949500D01*
X102996528Y-99949305D01*
X102676712Y-99931344D01*
X102662894Y-99929787D01*
X102350542Y-99876716D01*
X102336985Y-99873622D01*
X102032530Y-99785910D01*
X102019406Y-99781317D01*
X101726695Y-99660073D01*
X101714166Y-99654040D01*
X101436860Y-99500778D01*
X101425088Y-99493381D01*
X101166687Y-99310035D01*
X101155825Y-99301372D01*
X100919581Y-99090250D01*
X100909749Y-99080418D01*
X100698627Y-98844174D01*
X100689966Y-98833314D01*
X100506611Y-98574900D01*
X100499221Y-98563139D01*
X100345959Y-98285833D01*
X100339926Y-98273304D01*
X100218682Y-97980593D01*
X100214089Y-97967469D01*
X100126377Y-97663014D01*
X100123283Y-97649457D01*
X100077464Y-97379786D01*
X100070210Y-97337094D01*
X100068656Y-97323297D01*
X100050695Y-97003472D01*
X100050500Y-96996519D01*
X100050500Y-96393713D01*
X102149500Y-96393713D01*
X102149500Y-96606287D01*
X102182754Y-96816243D01*
X102241329Y-96996519D01*
X102248444Y-97018414D01*
X102344951Y-97207820D01*
X102469890Y-97379786D01*
X102620213Y-97530109D01*
X102792179Y-97655048D01*
X102792181Y-97655049D01*
X102792184Y-97655051D01*
X102981588Y-97751557D01*
X103183757Y-97817246D01*
X103393713Y-97850500D01*
X103393714Y-97850500D01*
X103606286Y-97850500D01*
X103606287Y-97850500D01*
X103816243Y-97817246D01*
X104018412Y-97751557D01*
X104207816Y-97655051D01*
X104229789Y-97639086D01*
X104379786Y-97530109D01*
X104379788Y-97530106D01*
X104379792Y-97530104D01*
X104530104Y-97379792D01*
X104530106Y-97379788D01*
X104530109Y-97379786D01*
X104655048Y-97207820D01*
X104655047Y-97207820D01*
X104655051Y-97207816D01*
X104751557Y-97018412D01*
X104817246Y-96816243D01*
X104850500Y-96606287D01*
X104850500Y-96393713D01*
X160149500Y-96393713D01*
X160149500Y-96606287D01*
X160182754Y-96816243D01*
X160241329Y-96996519D01*
X160248444Y-97018414D01*
X160344951Y-97207820D01*
X160469890Y-97379786D01*
X160620213Y-97530109D01*
X160792179Y-97655048D01*
X160792181Y-97655049D01*
X160792184Y-97655051D01*
X160981588Y-97751557D01*
X161183757Y-97817246D01*
X161393713Y-97850500D01*
X161393714Y-97850500D01*
X161606286Y-97850500D01*
X161606287Y-97850500D01*
X161816243Y-97817246D01*
X162018412Y-97751557D01*
X162207816Y-97655051D01*
X162229789Y-97639086D01*
X162379786Y-97530109D01*
X162379788Y-97530106D01*
X162379792Y-97530104D01*
X162530104Y-97379792D01*
X162530106Y-97379788D01*
X162530109Y-97379786D01*
X162655048Y-97207820D01*
X162655047Y-97207820D01*
X162655051Y-97207816D01*
X162751557Y-97018412D01*
X162817246Y-96816243D01*
X162850500Y-96606287D01*
X162850500Y-96393713D01*
X162817246Y-96183757D01*
X162751557Y-95981588D01*
X162655051Y-95792184D01*
X162655049Y-95792181D01*
X162655048Y-95792179D01*
X162530109Y-95620213D01*
X162379786Y-95469890D01*
X162207820Y-95344951D01*
X162018414Y-95248444D01*
X162018413Y-95248443D01*
X162018412Y-95248443D01*
X161816243Y-95182754D01*
X161816241Y-95182753D01*
X161816240Y-95182753D01*
X161654957Y-95157208D01*
X161606287Y-95149500D01*
X161393713Y-95149500D01*
X161345042Y-95157208D01*
X161183760Y-95182753D01*
X160981585Y-95248444D01*
X160792179Y-95344951D01*
X160620213Y-95469890D01*
X160469890Y-95620213D01*
X160344951Y-95792179D01*
X160248444Y-95981585D01*
X160182753Y-96183760D01*
X160149500Y-96393713D01*
X104850500Y-96393713D01*
X104817246Y-96183757D01*
X104751557Y-95981588D01*
X104655051Y-95792184D01*
X104655049Y-95792181D01*
X104655048Y-95792179D01*
X104530109Y-95620213D01*
X104379786Y-95469890D01*
X104207820Y-95344951D01*
X104018414Y-95248444D01*
X104018413Y-95248443D01*
X104018412Y-95248443D01*
X103816243Y-95182754D01*
X103816241Y-95182753D01*
X103816240Y-95182753D01*
X103654957Y-95157208D01*
X103606287Y-95149500D01*
X103393713Y-95149500D01*
X103345042Y-95157208D01*
X103183760Y-95182753D01*
X102981585Y-95248444D01*
X102792179Y-95344951D01*
X102620213Y-95469890D01*
X102469890Y-95620213D01*
X102344951Y-95792179D01*
X102248444Y-95981585D01*
X102182753Y-96183760D01*
X102149500Y-96393713D01*
X100050500Y-96393713D01*
X100050500Y-73393713D01*
X102149500Y-73393713D01*
X102149500Y-73606287D01*
X102155342Y-73643170D01*
X102176292Y-73775448D01*
X102182754Y-73816243D01*
X102231286Y-73965609D01*
X102248444Y-74018414D01*
X102344951Y-74207820D01*
X102469890Y-74379786D01*
X102620213Y-74530109D01*
X102792179Y-74655048D01*
X102792181Y-74655049D01*
X102792184Y-74655051D01*
X102981588Y-74751557D01*
X103183757Y-74817246D01*
X103393713Y-74850500D01*
X103393714Y-74850500D01*
X103606286Y-74850500D01*
X103606287Y-74850500D01*
X103816243Y-74817246D01*
X104018412Y-74751557D01*
X104207816Y-74655051D01*
X104233271Y-74636557D01*
X104379786Y-74530109D01*
X104379788Y-74530106D01*
X104379792Y-74530104D01*
X104530104Y-74379792D01*
X104530106Y-74379788D01*
X104530109Y-74379786D01*
X104655048Y-74207820D01*
X104655047Y-74207820D01*
X104655051Y-74207816D01*
X104751557Y-74018412D01*
X104789951Y-73900247D01*
X107319500Y-73900247D01*
X107319500Y-75639752D01*
X107331131Y-75698229D01*
X107331132Y-75698230D01*
X107375447Y-75764552D01*
X107441769Y-75808867D01*
X107441770Y-75808868D01*
X107500247Y-75820499D01*
X107500250Y-75820500D01*
X107500252Y-75820500D01*
X109239750Y-75820500D01*
X109239751Y-75820499D01*
X109254568Y-75817552D01*
X109298229Y-75808868D01*
X109298229Y-75808867D01*
X109298231Y-75808867D01*
X109364552Y-75764552D01*
X109408867Y-75698231D01*
X109408867Y-75698229D01*
X109408868Y-75698229D01*
X109420499Y-75639752D01*
X109420500Y-75639750D01*
X109420500Y-74666530D01*
X109859500Y-74666530D01*
X109859500Y-74873469D01*
X109899868Y-75076412D01*
X109899870Y-75076420D01*
X109965939Y-75235925D01*
X109979059Y-75267598D01*
X109992836Y-75288217D01*
X110094024Y-75439657D01*
X110240342Y-75585975D01*
X110240345Y-75585977D01*
X110412402Y-75700941D01*
X110603580Y-75780130D01*
X110748052Y-75808867D01*
X110806530Y-75820499D01*
X110806534Y-75820500D01*
X110806535Y-75820500D01*
X111013466Y-75820500D01*
X111013467Y-75820499D01*
X111216420Y-75780130D01*
X111407598Y-75700941D01*
X111579655Y-75585977D01*
X111725977Y-75439655D01*
X111840941Y-75267598D01*
X111920130Y-75076420D01*
X111960500Y-74873465D01*
X111960500Y-74666535D01*
X111920130Y-74463580D01*
X111840941Y-74272402D01*
X111725977Y-74100345D01*
X111725975Y-74100342D01*
X111579657Y-73954024D01*
X111464061Y-73876786D01*
X111407598Y-73839059D01*
X111407593Y-73839057D01*
X111216420Y-73759870D01*
X111216412Y-73759868D01*
X111013469Y-73719500D01*
X111013465Y-73719500D01*
X110806535Y-73719500D01*
X110806530Y-73719500D01*
X110603587Y-73759868D01*
X110603579Y-73759870D01*
X110412403Y-73839058D01*
X110240342Y-73954024D01*
X110094024Y-74100342D01*
X109979058Y-74272403D01*
X109899870Y-74463579D01*
X109899868Y-74463587D01*
X109859500Y-74666530D01*
X109420500Y-74666530D01*
X109420500Y-73900249D01*
X109420499Y-73900247D01*
X109408868Y-73841770D01*
X109408867Y-73841769D01*
X109364552Y-73775447D01*
X109298230Y-73731132D01*
X109298229Y-73731131D01*
X109239752Y-73719500D01*
X109239748Y-73719500D01*
X107500252Y-73719500D01*
X107500247Y-73719500D01*
X107441770Y-73731131D01*
X107441769Y-73731132D01*
X107375447Y-73775447D01*
X107331132Y-73841769D01*
X107331131Y-73841770D01*
X107319500Y-73900247D01*
X104789951Y-73900247D01*
X104817246Y-73816243D01*
X104850500Y-73606287D01*
X104850500Y-73393713D01*
X104817246Y-73183757D01*
X104751557Y-72981588D01*
X104655051Y-72792184D01*
X104655049Y-72792181D01*
X104655048Y-72792179D01*
X104530109Y-72620213D01*
X104379786Y-72469890D01*
X104207820Y-72344951D01*
X104018414Y-72248444D01*
X104018413Y-72248443D01*
X104018412Y-72248443D01*
X103816243Y-72182754D01*
X103816241Y-72182753D01*
X103816240Y-72182753D01*
X103654957Y-72157208D01*
X103606287Y-72149500D01*
X103393713Y-72149500D01*
X103345042Y-72157208D01*
X103183760Y-72182753D01*
X102981585Y-72248444D01*
X102792179Y-72344951D01*
X102620213Y-72469890D01*
X102469890Y-72620213D01*
X102344951Y-72792179D01*
X102248444Y-72981585D01*
X102182753Y-73183760D01*
X102167431Y-73280499D01*
X102149500Y-73393713D01*
X100050500Y-73393713D01*
X100050500Y-73003480D01*
X100050695Y-72996527D01*
X100059478Y-72840130D01*
X100068656Y-72676700D01*
X100070210Y-72662907D01*
X100123283Y-72350537D01*
X100126377Y-72336985D01*
X100151886Y-72248444D01*
X100187008Y-72126530D01*
X107319500Y-72126530D01*
X107319500Y-72333469D01*
X107359868Y-72536412D01*
X107359870Y-72536420D01*
X107425939Y-72695925D01*
X107439059Y-72727598D01*
X107452836Y-72748217D01*
X107554024Y-72899657D01*
X107700342Y-73045975D01*
X107700345Y-73045977D01*
X107872402Y-73160941D01*
X108063580Y-73240130D01*
X108228855Y-73273005D01*
X108266530Y-73280499D01*
X108266534Y-73280500D01*
X108266535Y-73280500D01*
X108473466Y-73280500D01*
X108473467Y-73280499D01*
X108676420Y-73240130D01*
X108867598Y-73160941D01*
X109039655Y-73045977D01*
X109185977Y-72899655D01*
X109300941Y-72727598D01*
X109380130Y-72536420D01*
X109420500Y-72333465D01*
X109420500Y-72126535D01*
X109420499Y-72126530D01*
X109859500Y-72126530D01*
X109859500Y-72333469D01*
X109899868Y-72536412D01*
X109899870Y-72536420D01*
X109965939Y-72695925D01*
X109979059Y-72727598D01*
X109992836Y-72748217D01*
X110094024Y-72899657D01*
X110240342Y-73045975D01*
X110240345Y-73045977D01*
X110412402Y-73160941D01*
X110603580Y-73240130D01*
X110768855Y-73273005D01*
X110806530Y-73280499D01*
X110806534Y-73280500D01*
X110806535Y-73280500D01*
X111013466Y-73280500D01*
X111013467Y-73280499D01*
X111216420Y-73240130D01*
X111407598Y-73160941D01*
X111579655Y-73045977D01*
X111725977Y-72899655D01*
X111840941Y-72727598D01*
X111909165Y-72562889D01*
X111953004Y-72508488D01*
X112019298Y-72486423D01*
X112086998Y-72503702D01*
X112134609Y-72554839D01*
X112141656Y-72572026D01*
X112198904Y-72748216D01*
X112295375Y-72937550D01*
X112334728Y-72991716D01*
X112967037Y-72359408D01*
X112984075Y-72422993D01*
X113049901Y-72537007D01*
X113142993Y-72630099D01*
X113257007Y-72695925D01*
X113320590Y-72712962D01*
X112688282Y-73345269D01*
X112688282Y-73345270D01*
X112742449Y-73384624D01*
X112931782Y-73481095D01*
X113107973Y-73538343D01*
X113165648Y-73577780D01*
X113192847Y-73642139D01*
X113180932Y-73710985D01*
X113133688Y-73762461D01*
X113117108Y-73770835D01*
X112952403Y-73839057D01*
X112780342Y-73954024D01*
X112634024Y-74100342D01*
X112519058Y-74272403D01*
X112439870Y-74463579D01*
X112439868Y-74463587D01*
X112399500Y-74666530D01*
X112399500Y-74873469D01*
X112439868Y-75076412D01*
X112439870Y-75076420D01*
X112505939Y-75235925D01*
X112519059Y-75267598D01*
X112532836Y-75288217D01*
X112634024Y-75439657D01*
X112780342Y-75585975D01*
X112780345Y-75585977D01*
X112952402Y-75700941D01*
X113143580Y-75780130D01*
X113288052Y-75808867D01*
X113346530Y-75820499D01*
X113346534Y-75820500D01*
X113346535Y-75820500D01*
X113553466Y-75820500D01*
X113553467Y-75820499D01*
X113756420Y-75780130D01*
X113947598Y-75700941D01*
X114119655Y-75585977D01*
X114265977Y-75439655D01*
X114380941Y-75267598D01*
X114460130Y-75076420D01*
X114500500Y-74873465D01*
X114500500Y-74666535D01*
X114500499Y-74666530D01*
X114939500Y-74666530D01*
X114939500Y-74873469D01*
X114979868Y-75076412D01*
X114979870Y-75076420D01*
X115045939Y-75235925D01*
X115059059Y-75267598D01*
X115072836Y-75288217D01*
X115174024Y-75439657D01*
X115320342Y-75585975D01*
X115320345Y-75585977D01*
X115492402Y-75700941D01*
X115683580Y-75780130D01*
X115828052Y-75808867D01*
X115886530Y-75820499D01*
X115886534Y-75820500D01*
X115886535Y-75820500D01*
X116093466Y-75820500D01*
X116093467Y-75820499D01*
X116296420Y-75780130D01*
X116487598Y-75700941D01*
X116659655Y-75585977D01*
X116805977Y-75439655D01*
X116920941Y-75267598D01*
X116989165Y-75102889D01*
X117033004Y-75048488D01*
X117099298Y-75026423D01*
X117166998Y-75043702D01*
X117214609Y-75094839D01*
X117221656Y-75112026D01*
X117278904Y-75288216D01*
X117375375Y-75477550D01*
X117414728Y-75531716D01*
X118047037Y-74899408D01*
X118064075Y-74962993D01*
X118129901Y-75077007D01*
X118222993Y-75170099D01*
X118337007Y-75235925D01*
X118400590Y-75252962D01*
X117768282Y-75885269D01*
X117768282Y-75885270D01*
X117822449Y-75924624D01*
X118011782Y-76021095D01*
X118213870Y-76086757D01*
X118423754Y-76120000D01*
X118636246Y-76120000D01*
X118846127Y-76086757D01*
X118846130Y-76086757D01*
X119048217Y-76021095D01*
X119237554Y-75924622D01*
X119291716Y-75885270D01*
X119291717Y-75885270D01*
X118659408Y-75252962D01*
X118722993Y-75235925D01*
X118837007Y-75170099D01*
X118930099Y-75077007D01*
X118995925Y-74962993D01*
X119012962Y-74899408D01*
X119645270Y-75531717D01*
X119645270Y-75531716D01*
X119684622Y-75477554D01*
X119781095Y-75288217D01*
X119838343Y-75112026D01*
X119877780Y-75054351D01*
X119942139Y-75027152D01*
X120010985Y-75039066D01*
X120062461Y-75086310D01*
X120070835Y-75102891D01*
X120125939Y-75235925D01*
X120139059Y-75267598D01*
X120152836Y-75288217D01*
X120254024Y-75439657D01*
X120400342Y-75585975D01*
X120400345Y-75585977D01*
X120572402Y-75700941D01*
X120763580Y-75780130D01*
X120908052Y-75808867D01*
X120966530Y-75820499D01*
X120966534Y-75820500D01*
X120966535Y-75820500D01*
X121173466Y-75820500D01*
X121173467Y-75820499D01*
X121376420Y-75780130D01*
X121567598Y-75700941D01*
X121739655Y-75585977D01*
X121885977Y-75439655D01*
X122000941Y-75267598D01*
X122080130Y-75076420D01*
X122120500Y-74873465D01*
X122120500Y-74666535D01*
X122080130Y-74463580D01*
X122000941Y-74272402D01*
X121885977Y-74100345D01*
X121885975Y-74100342D01*
X121739657Y-73954024D01*
X121624061Y-73876786D01*
X121567598Y-73839059D01*
X121567593Y-73839057D01*
X121376420Y-73759870D01*
X121376412Y-73759868D01*
X121173469Y-73719500D01*
X121173465Y-73719500D01*
X120966535Y-73719500D01*
X120966530Y-73719500D01*
X120763587Y-73759868D01*
X120763579Y-73759870D01*
X120572403Y-73839058D01*
X120400342Y-73954024D01*
X120254024Y-74100342D01*
X120139057Y-74272403D01*
X120070835Y-74437108D01*
X120026994Y-74491511D01*
X119960700Y-74513576D01*
X119893000Y-74496297D01*
X119845390Y-74445159D01*
X119838343Y-74427973D01*
X119781095Y-74251782D01*
X119684624Y-74062449D01*
X119645270Y-74008282D01*
X119645269Y-74008282D01*
X119012962Y-74640590D01*
X118995925Y-74577007D01*
X118930099Y-74462993D01*
X118837007Y-74369901D01*
X118722993Y-74304075D01*
X118659409Y-74287037D01*
X119291716Y-73654728D01*
X119237550Y-73615375D01*
X119048216Y-73518904D01*
X118872026Y-73461656D01*
X118814350Y-73422218D01*
X118787152Y-73357860D01*
X118799067Y-73289013D01*
X118846311Y-73237538D01*
X118862882Y-73229168D01*
X119027598Y-73160941D01*
X119199655Y-73045977D01*
X119345977Y-72899655D01*
X119460941Y-72727598D01*
X119540130Y-72536420D01*
X119580500Y-72333465D01*
X119580500Y-72126535D01*
X119580499Y-72126530D01*
X120019500Y-72126530D01*
X120019500Y-72333469D01*
X120059868Y-72536412D01*
X120059870Y-72536420D01*
X120125939Y-72695925D01*
X120139059Y-72727598D01*
X120152836Y-72748217D01*
X120254024Y-72899657D01*
X120400342Y-73045975D01*
X120400345Y-73045977D01*
X120572402Y-73160941D01*
X120763580Y-73240130D01*
X120928855Y-73273005D01*
X120966530Y-73280499D01*
X120966534Y-73280500D01*
X120966535Y-73280500D01*
X121173466Y-73280500D01*
X121173467Y-73280499D01*
X121376420Y-73240130D01*
X121567598Y-73160941D01*
X121739655Y-73045977D01*
X121885977Y-72899655D01*
X122000941Y-72727598D01*
X122069165Y-72562889D01*
X122113004Y-72508488D01*
X122179298Y-72486423D01*
X122246998Y-72503702D01*
X122294609Y-72554839D01*
X122301656Y-72572026D01*
X122358904Y-72748216D01*
X122455375Y-72937550D01*
X122494728Y-72991716D01*
X123127037Y-72359408D01*
X123144075Y-72422993D01*
X123209901Y-72537007D01*
X123302993Y-72630099D01*
X123417007Y-72695925D01*
X123480590Y-72712962D01*
X122848282Y-73345269D01*
X122848282Y-73345270D01*
X122902449Y-73384624D01*
X123091782Y-73481095D01*
X123267973Y-73538343D01*
X123325648Y-73577780D01*
X123352847Y-73642139D01*
X123340932Y-73710985D01*
X123293688Y-73762461D01*
X123277108Y-73770835D01*
X123112403Y-73839057D01*
X122940342Y-73954024D01*
X122794024Y-74100342D01*
X122679058Y-74272403D01*
X122599870Y-74463579D01*
X122599868Y-74463587D01*
X122559500Y-74666530D01*
X122559500Y-74873469D01*
X122599868Y-75076412D01*
X122599870Y-75076420D01*
X122665939Y-75235925D01*
X122679059Y-75267598D01*
X122692836Y-75288217D01*
X122794024Y-75439657D01*
X122940342Y-75585975D01*
X122940345Y-75585977D01*
X123112402Y-75700941D01*
X123303580Y-75780130D01*
X123448052Y-75808867D01*
X123506530Y-75820499D01*
X123506534Y-75820500D01*
X123506535Y-75820500D01*
X123713466Y-75820500D01*
X123713467Y-75820499D01*
X123916420Y-75780130D01*
X124107598Y-75700941D01*
X124279655Y-75585977D01*
X124425977Y-75439655D01*
X124540941Y-75267598D01*
X124620130Y-75076420D01*
X124660500Y-74873465D01*
X124660500Y-74666535D01*
X124660499Y-74666530D01*
X125099500Y-74666530D01*
X125099500Y-74873469D01*
X125139868Y-75076412D01*
X125139870Y-75076420D01*
X125205939Y-75235925D01*
X125219059Y-75267598D01*
X125232836Y-75288217D01*
X125334024Y-75439657D01*
X125480342Y-75585975D01*
X125480345Y-75585977D01*
X125652402Y-75700941D01*
X125843580Y-75780130D01*
X125988052Y-75808867D01*
X126046530Y-75820499D01*
X126046534Y-75820500D01*
X126046535Y-75820500D01*
X126253466Y-75820500D01*
X126253467Y-75820499D01*
X126456420Y-75780130D01*
X126647598Y-75700941D01*
X126819655Y-75585977D01*
X126965977Y-75439655D01*
X127080941Y-75267598D01*
X127160130Y-75076420D01*
X127200500Y-74873465D01*
X127200500Y-74666535D01*
X127200499Y-74666530D01*
X127639500Y-74666530D01*
X127639500Y-74873469D01*
X127679868Y-75076412D01*
X127679870Y-75076420D01*
X127745939Y-75235925D01*
X127759059Y-75267598D01*
X127772836Y-75288217D01*
X127874024Y-75439657D01*
X128020342Y-75585975D01*
X128020345Y-75585977D01*
X128192402Y-75700941D01*
X128383580Y-75780130D01*
X128528052Y-75808867D01*
X128586530Y-75820499D01*
X128586534Y-75820500D01*
X128586535Y-75820500D01*
X128793466Y-75820500D01*
X128793467Y-75820499D01*
X128996420Y-75780130D01*
X129187598Y-75700941D01*
X129359655Y-75585977D01*
X129505977Y-75439655D01*
X129620941Y-75267598D01*
X129700130Y-75076420D01*
X129740500Y-74873465D01*
X129740500Y-74666535D01*
X129700130Y-74463580D01*
X129620941Y-74272402D01*
X129505977Y-74100345D01*
X129505975Y-74100342D01*
X129359657Y-73954024D01*
X129244061Y-73876786D01*
X129187598Y-73839059D01*
X129187593Y-73839057D01*
X128996420Y-73759870D01*
X128996412Y-73759868D01*
X128793469Y-73719500D01*
X128793465Y-73719500D01*
X128586535Y-73719500D01*
X128586530Y-73719500D01*
X128383587Y-73759868D01*
X128383579Y-73759870D01*
X128192403Y-73839058D01*
X128020342Y-73954024D01*
X127874024Y-74100342D01*
X127759058Y-74272403D01*
X127679870Y-74463579D01*
X127679868Y-74463587D01*
X127639500Y-74666530D01*
X127200499Y-74666530D01*
X127160130Y-74463580D01*
X127080941Y-74272402D01*
X126965977Y-74100345D01*
X126965975Y-74100342D01*
X126819657Y-73954024D01*
X126704061Y-73876786D01*
X126647598Y-73839059D01*
X126647593Y-73839057D01*
X126456420Y-73759870D01*
X126456412Y-73759868D01*
X126253469Y-73719500D01*
X126253465Y-73719500D01*
X126046535Y-73719500D01*
X126046530Y-73719500D01*
X125843587Y-73759868D01*
X125843579Y-73759870D01*
X125652403Y-73839058D01*
X125480342Y-73954024D01*
X125334024Y-74100342D01*
X125219058Y-74272403D01*
X125139870Y-74463579D01*
X125139868Y-74463587D01*
X125099500Y-74666530D01*
X124660499Y-74666530D01*
X124620130Y-74463580D01*
X124540941Y-74272402D01*
X124425977Y-74100345D01*
X124425975Y-74100342D01*
X124279657Y-73954024D01*
X124164061Y-73876786D01*
X124107598Y-73839059D01*
X124107593Y-73839057D01*
X124045891Y-73813499D01*
X123942890Y-73770834D01*
X123888488Y-73726994D01*
X123866423Y-73660700D01*
X123883702Y-73593001D01*
X123934839Y-73545390D01*
X123952026Y-73538343D01*
X124128217Y-73481095D01*
X124317554Y-73384622D01*
X124371716Y-73345270D01*
X124371717Y-73345270D01*
X123739408Y-72712962D01*
X123802993Y-72695925D01*
X123917007Y-72630099D01*
X124010099Y-72537007D01*
X124075925Y-72422993D01*
X124092962Y-72359408D01*
X124725270Y-72991717D01*
X124725270Y-72991716D01*
X124764622Y-72937554D01*
X124861095Y-72748217D01*
X124918343Y-72572026D01*
X124957780Y-72514351D01*
X125022139Y-72487152D01*
X125090985Y-72499066D01*
X125142461Y-72546310D01*
X125150833Y-72562887D01*
X125178673Y-72630099D01*
X125205939Y-72695925D01*
X125219059Y-72727598D01*
X125232836Y-72748217D01*
X125334024Y-72899657D01*
X125480342Y-73045975D01*
X125480345Y-73045977D01*
X125652402Y-73160941D01*
X125843580Y-73240130D01*
X126008855Y-73273005D01*
X126046530Y-73280499D01*
X126046534Y-73280500D01*
X126046535Y-73280500D01*
X126253466Y-73280500D01*
X126253467Y-73280499D01*
X126456420Y-73240130D01*
X126647598Y-73160941D01*
X126819655Y-73045977D01*
X126965977Y-72899655D01*
X127080941Y-72727598D01*
X127160130Y-72536420D01*
X127200500Y-72333465D01*
X127200500Y-72126535D01*
X127200499Y-72126530D01*
X127639500Y-72126530D01*
X127639500Y-72333469D01*
X127679868Y-72536412D01*
X127679870Y-72536420D01*
X127745939Y-72695925D01*
X127759059Y-72727598D01*
X127772836Y-72748217D01*
X127874024Y-72899657D01*
X128020342Y-73045975D01*
X128020345Y-73045977D01*
X128192402Y-73160941D01*
X128383580Y-73240130D01*
X128548855Y-73273005D01*
X128586530Y-73280499D01*
X128586534Y-73280500D01*
X128586535Y-73280500D01*
X128793466Y-73280500D01*
X128793467Y-73280499D01*
X128996420Y-73240130D01*
X129066972Y-73210905D01*
X129136438Y-73203437D01*
X129198918Y-73234711D01*
X129202104Y-73237786D01*
X129675787Y-73711469D01*
X129702677Y-73726994D01*
X129709846Y-73731133D01*
X129709847Y-73731134D01*
X129755706Y-73757611D01*
X129755707Y-73757611D01*
X129755712Y-73757614D01*
X129844856Y-73781500D01*
X130433505Y-73781500D01*
X130500544Y-73801185D01*
X130546299Y-73853989D01*
X130556243Y-73923147D01*
X130527218Y-73986703D01*
X130521186Y-73993181D01*
X130414025Y-74100341D01*
X130414024Y-74100342D01*
X130299058Y-74272403D01*
X130219870Y-74463579D01*
X130219868Y-74463587D01*
X130179500Y-74666530D01*
X130179500Y-74873469D01*
X130219868Y-75076412D01*
X130219870Y-75076420D01*
X130285939Y-75235925D01*
X130299059Y-75267598D01*
X130312836Y-75288217D01*
X130414024Y-75439657D01*
X130560342Y-75585975D01*
X130560345Y-75585977D01*
X130732402Y-75700941D01*
X130923580Y-75780130D01*
X131068052Y-75808867D01*
X131126530Y-75820499D01*
X131126534Y-75820500D01*
X131126535Y-75820500D01*
X131333466Y-75820500D01*
X131333467Y-75820499D01*
X131536420Y-75780130D01*
X131727598Y-75700941D01*
X131899655Y-75585977D01*
X131922189Y-75563443D01*
X131949819Y-75535814D01*
X131962183Y-75529062D01*
X131971518Y-75518507D01*
X131992243Y-75512648D01*
X132011142Y-75502329D01*
X132025193Y-75503333D01*
X132038753Y-75499501D01*
X132059354Y-75505776D01*
X132080834Y-75507313D01*
X132092112Y-75515756D01*
X132105590Y-75519862D01*
X132119527Y-75536279D01*
X132136767Y-75549185D01*
X132142588Y-75563443D01*
X132150809Y-75573126D01*
X132155427Y-75594887D01*
X132160410Y-75607089D01*
X132161500Y-75615255D01*
X132161500Y-75662144D01*
X132171896Y-75700941D01*
X132173968Y-75708676D01*
X132173970Y-75708687D01*
X132185384Y-75751285D01*
X132185385Y-75751286D01*
X132231527Y-75831208D01*
X132231531Y-75831213D01*
X133141181Y-76740863D01*
X133174666Y-76802186D01*
X133177500Y-76828544D01*
X133177500Y-85060143D01*
X133201386Y-85149287D01*
X133201387Y-85149290D01*
X133247527Y-85229208D01*
X133247531Y-85229213D01*
X135681181Y-87662863D01*
X135714666Y-87724186D01*
X135717500Y-87750544D01*
X135717500Y-88512904D01*
X135697815Y-88579943D01*
X135645011Y-88625698D01*
X135575853Y-88635642D01*
X135512297Y-88606617D01*
X135486113Y-88574905D01*
X135469010Y-88545282D01*
X135452500Y-88516686D01*
X135359314Y-88423500D01*
X135277144Y-88376059D01*
X135245187Y-88357608D01*
X135181539Y-88340554D01*
X135117892Y-88323500D01*
X135117891Y-88323500D01*
X135098544Y-88323500D01*
X135031505Y-88303815D01*
X135010863Y-88287181D01*
X132727213Y-86003531D01*
X132727208Y-86003527D01*
X132647290Y-85957387D01*
X132647289Y-85957386D01*
X132647288Y-85957386D01*
X132558144Y-85933500D01*
X132558143Y-85933500D01*
X132158676Y-85933500D01*
X132091637Y-85913815D01*
X132070995Y-85897181D01*
X132057316Y-85883502D01*
X132057314Y-85883500D01*
X131975499Y-85836264D01*
X131943187Y-85817608D01*
X131879539Y-85800554D01*
X131815892Y-85783500D01*
X131684108Y-85783500D01*
X131556814Y-85817608D01*
X131556813Y-85817608D01*
X131556811Y-85817609D01*
X131556810Y-85817609D01*
X131524500Y-85836264D01*
X131456600Y-85852737D01*
X131390573Y-85829885D01*
X131347382Y-85774963D01*
X131338500Y-85728877D01*
X131338500Y-78056676D01*
X131358185Y-77989637D01*
X131374819Y-77968995D01*
X131388500Y-77955314D01*
X131454392Y-77841186D01*
X131488500Y-77713892D01*
X131488500Y-77582108D01*
X131454392Y-77454814D01*
X131388500Y-77340686D01*
X131295314Y-77247500D01*
X131238250Y-77214554D01*
X131181187Y-77181608D01*
X131117539Y-77164554D01*
X131053892Y-77147500D01*
X130922108Y-77147500D01*
X130794812Y-77181608D01*
X130680686Y-77247500D01*
X130680683Y-77247502D01*
X130587502Y-77340683D01*
X130587500Y-77340686D01*
X130521608Y-77454812D01*
X130487500Y-77582108D01*
X130487500Y-77713891D01*
X130521608Y-77841187D01*
X130554554Y-77898250D01*
X130587500Y-77955314D01*
X130587502Y-77955316D01*
X130601181Y-77968995D01*
X130634666Y-78030318D01*
X130637500Y-78056676D01*
X130637500Y-87092144D01*
X130641431Y-87106812D01*
X130661386Y-87181287D01*
X130661387Y-87181290D01*
X130707528Y-87261209D01*
X130712477Y-87267658D01*
X130710719Y-87269006D01*
X130738666Y-87320186D01*
X130741500Y-87346544D01*
X130741500Y-87365892D01*
X130755653Y-87418712D01*
X130775608Y-87493187D01*
X130808554Y-87550250D01*
X130841500Y-87607314D01*
X130934686Y-87700500D01*
X131048814Y-87766392D01*
X131176108Y-87800500D01*
X131176110Y-87800500D01*
X131307890Y-87800500D01*
X131307892Y-87800500D01*
X131435186Y-87766392D01*
X131549314Y-87700500D01*
X131642500Y-87607314D01*
X131708392Y-87493186D01*
X131742500Y-87365892D01*
X131742500Y-87234108D01*
X131708392Y-87106814D01*
X131642500Y-86992686D01*
X131642495Y-86992681D01*
X131637553Y-86986240D01*
X131639676Y-86984610D01*
X131612510Y-86934858D01*
X131617494Y-86865166D01*
X131659366Y-86809233D01*
X131724830Y-86784816D01*
X131733676Y-86784500D01*
X131815890Y-86784500D01*
X131815892Y-86784500D01*
X131943186Y-86750392D01*
X132057314Y-86684500D01*
X132070995Y-86670819D01*
X132097922Y-86656115D01*
X132123741Y-86639523D01*
X132129941Y-86638631D01*
X132132318Y-86637334D01*
X132158676Y-86634500D01*
X132315456Y-86634500D01*
X132382495Y-86654185D01*
X132403137Y-86670819D01*
X134515181Y-88782863D01*
X134548666Y-88844186D01*
X134551500Y-88870544D01*
X134551500Y-88889891D01*
X134585608Y-89017187D01*
X134597408Y-89037625D01*
X134651500Y-89131314D01*
X134744686Y-89224500D01*
X134858814Y-89290392D01*
X134986108Y-89324500D01*
X134986110Y-89324500D01*
X135117890Y-89324500D01*
X135117892Y-89324500D01*
X135245186Y-89290392D01*
X135359314Y-89224500D01*
X135452500Y-89131314D01*
X135486113Y-89073095D01*
X135536680Y-89024879D01*
X135605287Y-89011657D01*
X135670152Y-89037625D01*
X135710680Y-89094539D01*
X135717500Y-89135095D01*
X135717500Y-91989324D01*
X135697815Y-92056363D01*
X135681181Y-92077005D01*
X135667502Y-92090683D01*
X135667500Y-92090686D01*
X135601608Y-92204812D01*
X135567500Y-92332108D01*
X135567500Y-92463891D01*
X135601608Y-92591187D01*
X135634554Y-92648250D01*
X135667500Y-92705314D01*
X135760686Y-92798500D01*
X135874814Y-92864392D01*
X136002108Y-92898500D01*
X136002110Y-92898500D01*
X136133890Y-92898500D01*
X136133892Y-92898500D01*
X136261186Y-92864392D01*
X136375314Y-92798500D01*
X136468500Y-92705314D01*
X136534392Y-92591186D01*
X136568500Y-92463892D01*
X136568500Y-92332108D01*
X136534392Y-92204814D01*
X136468500Y-92090686D01*
X136454819Y-92077005D01*
X136421334Y-92015682D01*
X136418500Y-91989324D01*
X136418500Y-87507858D01*
X136418500Y-87507856D01*
X136394614Y-87418712D01*
X136364118Y-87365892D01*
X136364118Y-87365891D01*
X136364116Y-87365889D01*
X136348471Y-87338790D01*
X136348467Y-87338785D01*
X133914819Y-84905137D01*
X133881334Y-84843814D01*
X133878500Y-84817456D01*
X133878500Y-76585858D01*
X133878500Y-76585856D01*
X133854614Y-76496712D01*
X133808470Y-76416788D01*
X133388411Y-75996729D01*
X133354926Y-75935406D01*
X133359910Y-75865714D01*
X133401782Y-75809781D01*
X133467246Y-75785364D01*
X133500283Y-75787431D01*
X133666530Y-75820499D01*
X133666534Y-75820500D01*
X133666535Y-75820500D01*
X133873466Y-75820500D01*
X133873467Y-75820499D01*
X134076420Y-75780130D01*
X134267598Y-75700941D01*
X134439655Y-75585977D01*
X134585977Y-75439655D01*
X134700941Y-75267598D01*
X134780130Y-75076420D01*
X134820500Y-74873465D01*
X134820500Y-74666535D01*
X134820499Y-74666530D01*
X135259500Y-74666530D01*
X135259500Y-74873469D01*
X135299868Y-75076412D01*
X135299870Y-75076420D01*
X135365939Y-75235925D01*
X135379059Y-75267598D01*
X135392836Y-75288217D01*
X135494024Y-75439657D01*
X135640342Y-75585975D01*
X135640345Y-75585977D01*
X135812402Y-75700941D01*
X136003580Y-75780130D01*
X136148052Y-75808867D01*
X136206530Y-75820499D01*
X136206534Y-75820500D01*
X136206535Y-75820500D01*
X136413466Y-75820500D01*
X136413467Y-75820499D01*
X136616420Y-75780130D01*
X136807598Y-75700941D01*
X136979655Y-75585977D01*
X137125977Y-75439655D01*
X137240941Y-75267598D01*
X137309165Y-75102889D01*
X137353004Y-75048488D01*
X137419298Y-75026423D01*
X137486998Y-75043702D01*
X137534609Y-75094839D01*
X137541656Y-75112026D01*
X137598904Y-75288216D01*
X137695375Y-75477550D01*
X137734728Y-75531716D01*
X138367037Y-74899408D01*
X138384075Y-74962993D01*
X138449901Y-75077007D01*
X138542993Y-75170099D01*
X138657007Y-75235925D01*
X138720589Y-75252962D01*
X138088282Y-75885269D01*
X138088282Y-75885270D01*
X138142449Y-75924624D01*
X138331782Y-76021095D01*
X138533870Y-76086757D01*
X138743754Y-76120000D01*
X138956246Y-76120000D01*
X139166127Y-76086757D01*
X139166130Y-76086757D01*
X139368217Y-76021095D01*
X139557557Y-75924620D01*
X139641615Y-75863550D01*
X139707421Y-75840070D01*
X139775475Y-75855896D01*
X139824170Y-75906001D01*
X139838500Y-75963868D01*
X139838500Y-94158456D01*
X139818815Y-94225495D01*
X139802181Y-94246137D01*
X139157137Y-94891181D01*
X139095814Y-94924666D01*
X139069456Y-94927500D01*
X139050108Y-94927500D01*
X138922812Y-94961608D01*
X138808686Y-95027500D01*
X138808683Y-95027502D01*
X138715502Y-95120683D01*
X138715500Y-95120686D01*
X138649608Y-95234812D01*
X138615500Y-95362108D01*
X138615500Y-95493891D01*
X138649608Y-95621187D01*
X138682554Y-95678250D01*
X138715500Y-95735314D01*
X138808686Y-95828500D01*
X138922814Y-95894392D01*
X139050108Y-95928500D01*
X139050110Y-95928500D01*
X139181890Y-95928500D01*
X139181892Y-95928500D01*
X139309186Y-95894392D01*
X139423314Y-95828500D01*
X139516500Y-95735314D01*
X139582392Y-95621186D01*
X139616500Y-95493892D01*
X139616500Y-95474544D01*
X139636185Y-95407505D01*
X139652819Y-95386863D01*
X140012182Y-95027500D01*
X140469470Y-94570212D01*
X140515614Y-94490288D01*
X140539500Y-94401144D01*
X140539500Y-88437247D01*
X143653500Y-88437247D01*
X143653500Y-90176752D01*
X143665131Y-90235229D01*
X143665132Y-90235230D01*
X143709447Y-90301552D01*
X143775769Y-90345867D01*
X143775770Y-90345868D01*
X143834247Y-90357499D01*
X143834250Y-90357500D01*
X143834252Y-90357500D01*
X145573750Y-90357500D01*
X145573751Y-90357499D01*
X145588568Y-90354552D01*
X145632229Y-90345868D01*
X145632229Y-90345867D01*
X145632231Y-90345867D01*
X145698552Y-90301552D01*
X145742867Y-90235231D01*
X145742867Y-90235229D01*
X145742868Y-90235229D01*
X145754499Y-90176752D01*
X145754500Y-90176750D01*
X145754500Y-89873048D01*
X145774185Y-89806009D01*
X145826989Y-89760254D01*
X145896147Y-89750310D01*
X145959703Y-89779335D01*
X145989938Y-89821264D01*
X145990694Y-89820879D01*
X146089375Y-90014550D01*
X146128728Y-90068716D01*
X146761036Y-89436407D01*
X146778075Y-89499993D01*
X146843901Y-89614007D01*
X146936993Y-89707099D01*
X147051007Y-89772925D01*
X147114590Y-89789962D01*
X146482282Y-90422269D01*
X146482282Y-90422270D01*
X146536449Y-90461624D01*
X146725782Y-90558095D01*
X146927870Y-90623757D01*
X147137754Y-90657000D01*
X147350246Y-90657000D01*
X147560127Y-90623757D01*
X147560130Y-90623757D01*
X147762217Y-90558095D01*
X147951554Y-90461622D01*
X148005716Y-90422270D01*
X148005717Y-90422270D01*
X147373408Y-89789962D01*
X147436993Y-89772925D01*
X147551007Y-89707099D01*
X147644099Y-89614007D01*
X147709925Y-89499993D01*
X147726962Y-89436408D01*
X148359270Y-90068717D01*
X148359270Y-90068716D01*
X148398622Y-90014554D01*
X148495095Y-89825217D01*
X148552343Y-89649026D01*
X148591780Y-89591351D01*
X148656139Y-89564152D01*
X148724985Y-89576066D01*
X148776461Y-89623310D01*
X148784835Y-89639891D01*
X148853058Y-89804596D01*
X148968024Y-89976657D01*
X149114342Y-90122975D01*
X149114345Y-90122977D01*
X149286402Y-90237941D01*
X149477580Y-90317130D01*
X149622052Y-90345867D01*
X149680530Y-90357499D01*
X149680534Y-90357500D01*
X149680535Y-90357500D01*
X149887466Y-90357500D01*
X149887467Y-90357499D01*
X150090420Y-90317130D01*
X150281598Y-90237941D01*
X150453655Y-90122977D01*
X150599977Y-89976655D01*
X150714941Y-89804598D01*
X150794130Y-89613420D01*
X150834500Y-89410465D01*
X150834500Y-89203535D01*
X150794130Y-89000580D01*
X150714941Y-88809402D01*
X150599977Y-88637345D01*
X150599975Y-88637342D01*
X150453657Y-88491024D01*
X150285655Y-88378770D01*
X150281598Y-88376059D01*
X150090420Y-88296870D01*
X150090412Y-88296868D01*
X149887469Y-88256500D01*
X149887465Y-88256500D01*
X149680535Y-88256500D01*
X149680530Y-88256500D01*
X149477587Y-88296868D01*
X149477579Y-88296870D01*
X149286403Y-88376058D01*
X149114342Y-88491024D01*
X148968024Y-88637342D01*
X148853057Y-88809403D01*
X148784835Y-88974108D01*
X148740994Y-89028511D01*
X148674700Y-89050576D01*
X148607000Y-89033297D01*
X148559390Y-88982159D01*
X148552343Y-88964973D01*
X148495095Y-88788782D01*
X148398624Y-88599449D01*
X148359270Y-88545282D01*
X148359269Y-88545282D01*
X147726962Y-89177590D01*
X147709925Y-89114007D01*
X147644099Y-88999993D01*
X147551007Y-88906901D01*
X147436993Y-88841075D01*
X147373409Y-88824037D01*
X148005716Y-88191728D01*
X147951550Y-88152375D01*
X147762217Y-88055904D01*
X147560129Y-87990242D01*
X147350246Y-87957000D01*
X147137754Y-87957000D01*
X146927872Y-87990242D01*
X146927869Y-87990242D01*
X146725782Y-88055904D01*
X146536439Y-88152380D01*
X146482282Y-88191727D01*
X146482282Y-88191728D01*
X147114591Y-88824037D01*
X147051007Y-88841075D01*
X146936993Y-88906901D01*
X146843901Y-88999993D01*
X146778075Y-89114007D01*
X146761037Y-89177591D01*
X146128728Y-88545282D01*
X146128727Y-88545282D01*
X146089380Y-88599439D01*
X145990694Y-88793121D01*
X145989678Y-88792603D01*
X145949212Y-88842813D01*
X145882916Y-88864872D01*
X145815218Y-88847588D01*
X145767612Y-88796447D01*
X145754500Y-88740951D01*
X145754500Y-88437249D01*
X145754499Y-88437247D01*
X145742868Y-88378770D01*
X145742867Y-88378769D01*
X145698552Y-88312447D01*
X145632230Y-88268132D01*
X145632229Y-88268131D01*
X145573752Y-88256500D01*
X145573748Y-88256500D01*
X143834252Y-88256500D01*
X143834247Y-88256500D01*
X143775770Y-88268131D01*
X143775769Y-88268132D01*
X143709447Y-88312447D01*
X143665132Y-88378769D01*
X143665131Y-88378770D01*
X143653500Y-88437247D01*
X140539500Y-88437247D01*
X140539500Y-75697128D01*
X140559185Y-75630089D01*
X140611989Y-75584334D01*
X140681147Y-75574390D01*
X140732390Y-75594026D01*
X140892400Y-75700940D01*
X140892401Y-75700940D01*
X140892402Y-75700941D01*
X141083580Y-75780130D01*
X141228052Y-75808867D01*
X141286530Y-75820499D01*
X141286534Y-75820500D01*
X141286535Y-75820500D01*
X141493466Y-75820500D01*
X141493467Y-75820499D01*
X141696420Y-75780130D01*
X141887598Y-75700941D01*
X142059655Y-75585977D01*
X142205977Y-75439655D01*
X142320941Y-75267598D01*
X142400130Y-75076420D01*
X142440500Y-74873465D01*
X142440500Y-74666535D01*
X142400130Y-74463580D01*
X142320941Y-74272402D01*
X142205977Y-74100345D01*
X142205975Y-74100342D01*
X142059657Y-73954024D01*
X141944061Y-73876786D01*
X141887598Y-73839059D01*
X141887593Y-73839057D01*
X141696420Y-73759870D01*
X141696412Y-73759868D01*
X141493469Y-73719500D01*
X141493465Y-73719500D01*
X141286535Y-73719500D01*
X141286530Y-73719500D01*
X141083587Y-73759868D01*
X141083579Y-73759870D01*
X140892403Y-73839058D01*
X140732390Y-73945974D01*
X140722690Y-73949011D01*
X140715011Y-73955665D01*
X140689912Y-73959273D01*
X140665712Y-73966851D01*
X140655912Y-73964162D01*
X140645853Y-73965609D01*
X140622786Y-73955074D01*
X140598332Y-73948366D01*
X140591541Y-73940805D01*
X140582297Y-73936584D01*
X140568587Y-73915251D01*
X140551643Y-73896387D01*
X140549011Y-73884790D01*
X140544523Y-73877806D01*
X140539500Y-73842871D01*
X140539500Y-73627543D01*
X140559185Y-73560504D01*
X140575815Y-73539866D01*
X140877896Y-73237784D01*
X140939217Y-73204301D01*
X141008908Y-73209285D01*
X141013028Y-73210906D01*
X141083580Y-73240130D01*
X141248855Y-73273005D01*
X141286530Y-73280499D01*
X141286534Y-73280500D01*
X141286535Y-73280500D01*
X141493466Y-73280500D01*
X141493467Y-73280499D01*
X141696420Y-73240130D01*
X141887598Y-73160941D01*
X142059655Y-73045977D01*
X142205977Y-72899655D01*
X142320941Y-72727598D01*
X142389165Y-72562889D01*
X142433004Y-72508488D01*
X142499298Y-72486423D01*
X142566998Y-72503702D01*
X142614609Y-72554839D01*
X142621656Y-72572026D01*
X142678904Y-72748216D01*
X142775375Y-72937550D01*
X142814728Y-72991716D01*
X143447036Y-72359407D01*
X143464075Y-72422993D01*
X143529901Y-72537007D01*
X143622993Y-72630099D01*
X143737007Y-72695925D01*
X143800590Y-72712962D01*
X143168282Y-73345269D01*
X143168282Y-73345270D01*
X143222449Y-73384624D01*
X143411782Y-73481095D01*
X143587973Y-73538343D01*
X143645648Y-73577780D01*
X143672847Y-73642139D01*
X143660932Y-73710985D01*
X143613688Y-73762461D01*
X143597108Y-73770835D01*
X143432403Y-73839057D01*
X143260342Y-73954024D01*
X143114024Y-74100342D01*
X142999058Y-74272403D01*
X142919870Y-74463579D01*
X142919868Y-74463587D01*
X142879500Y-74666530D01*
X142879500Y-74873469D01*
X142919868Y-75076412D01*
X142919870Y-75076420D01*
X142985939Y-75235925D01*
X142999059Y-75267598D01*
X143012836Y-75288217D01*
X143114024Y-75439657D01*
X143260342Y-75585975D01*
X143260345Y-75585977D01*
X143432402Y-75700941D01*
X143623580Y-75780130D01*
X143768052Y-75808867D01*
X143826530Y-75820499D01*
X143826534Y-75820500D01*
X143826535Y-75820500D01*
X144033466Y-75820500D01*
X144033467Y-75820499D01*
X144236420Y-75780130D01*
X144427598Y-75700941D01*
X144599655Y-75585977D01*
X144745977Y-75439655D01*
X144860941Y-75267598D01*
X144940130Y-75076420D01*
X144980500Y-74873465D01*
X144980500Y-74666535D01*
X144980499Y-74666530D01*
X145419500Y-74666530D01*
X145419500Y-74873469D01*
X145459868Y-75076412D01*
X145459870Y-75076420D01*
X145525939Y-75235925D01*
X145539059Y-75267598D01*
X145552836Y-75288217D01*
X145654024Y-75439657D01*
X145800342Y-75585975D01*
X145800345Y-75585977D01*
X145972402Y-75700941D01*
X146163580Y-75780130D01*
X146308052Y-75808867D01*
X146366530Y-75820499D01*
X146366534Y-75820500D01*
X146366535Y-75820500D01*
X146573466Y-75820500D01*
X146573467Y-75820499D01*
X146776420Y-75780130D01*
X146967598Y-75700941D01*
X147139655Y-75585977D01*
X147285977Y-75439655D01*
X147400941Y-75267598D01*
X147480130Y-75076420D01*
X147520500Y-74873465D01*
X147520500Y-74666535D01*
X147480130Y-74463580D01*
X147400941Y-74272402D01*
X147285977Y-74100345D01*
X147285975Y-74100342D01*
X147139657Y-73954024D01*
X147024061Y-73876786D01*
X146967598Y-73839059D01*
X146967593Y-73839057D01*
X146776420Y-73759870D01*
X146776412Y-73759868D01*
X146573469Y-73719500D01*
X146573465Y-73719500D01*
X146366535Y-73719500D01*
X146366530Y-73719500D01*
X146163587Y-73759868D01*
X146163579Y-73759870D01*
X145972403Y-73839058D01*
X145800342Y-73954024D01*
X145654024Y-74100342D01*
X145539058Y-74272403D01*
X145459870Y-74463579D01*
X145459868Y-74463587D01*
X145419500Y-74666530D01*
X144980499Y-74666530D01*
X144940130Y-74463580D01*
X144860941Y-74272402D01*
X144745977Y-74100345D01*
X144745975Y-74100342D01*
X144599657Y-73954024D01*
X144484061Y-73876786D01*
X144427598Y-73839059D01*
X144427593Y-73839057D01*
X144365891Y-73813499D01*
X144262890Y-73770834D01*
X144208488Y-73726994D01*
X144186423Y-73660700D01*
X144203702Y-73593001D01*
X144254839Y-73545390D01*
X144272026Y-73538343D01*
X144448217Y-73481095D01*
X144637554Y-73384622D01*
X144691716Y-73345270D01*
X144691717Y-73345270D01*
X144059408Y-72712962D01*
X144122993Y-72695925D01*
X144237007Y-72630099D01*
X144330099Y-72537007D01*
X144395925Y-72422993D01*
X144412962Y-72359408D01*
X145045270Y-72991717D01*
X145045270Y-72991716D01*
X145084622Y-72937554D01*
X145181095Y-72748217D01*
X145238343Y-72572026D01*
X145277780Y-72514351D01*
X145342139Y-72487152D01*
X145410985Y-72499066D01*
X145462461Y-72546310D01*
X145470833Y-72562887D01*
X145498673Y-72630099D01*
X145525939Y-72695925D01*
X145539059Y-72727598D01*
X145552836Y-72748217D01*
X145654024Y-72899657D01*
X145800342Y-73045975D01*
X145800345Y-73045977D01*
X145972402Y-73160941D01*
X146163580Y-73240130D01*
X146328855Y-73273005D01*
X146366530Y-73280499D01*
X146366534Y-73280500D01*
X146366535Y-73280500D01*
X146573466Y-73280500D01*
X146573467Y-73280499D01*
X146776420Y-73240130D01*
X146967598Y-73160941D01*
X147139655Y-73045977D01*
X147285977Y-72899655D01*
X147400941Y-72727598D01*
X147469165Y-72562889D01*
X147513004Y-72508488D01*
X147579298Y-72486423D01*
X147646998Y-72503702D01*
X147694609Y-72554839D01*
X147701656Y-72572026D01*
X147758904Y-72748216D01*
X147855375Y-72937550D01*
X147894728Y-72991716D01*
X148527036Y-72359407D01*
X148544075Y-72422993D01*
X148609901Y-72537007D01*
X148702993Y-72630099D01*
X148817007Y-72695925D01*
X148880590Y-72712962D01*
X148248282Y-73345269D01*
X148248282Y-73345270D01*
X148302449Y-73384624D01*
X148491782Y-73481095D01*
X148667973Y-73538343D01*
X148725648Y-73577780D01*
X148752847Y-73642139D01*
X148740932Y-73710985D01*
X148693688Y-73762461D01*
X148677108Y-73770835D01*
X148512403Y-73839057D01*
X148340342Y-73954024D01*
X148194024Y-74100342D01*
X148079058Y-74272403D01*
X147999870Y-74463579D01*
X147999868Y-74463587D01*
X147959500Y-74666530D01*
X147959500Y-74873469D01*
X147999868Y-75076412D01*
X147999870Y-75076420D01*
X148065939Y-75235925D01*
X148079059Y-75267598D01*
X148092836Y-75288217D01*
X148194024Y-75439657D01*
X148340342Y-75585975D01*
X148340345Y-75585977D01*
X148512402Y-75700941D01*
X148703580Y-75780130D01*
X148848052Y-75808867D01*
X148906530Y-75820499D01*
X148906534Y-75820500D01*
X148906535Y-75820500D01*
X149113466Y-75820500D01*
X149113467Y-75820499D01*
X149316420Y-75780130D01*
X149507598Y-75700941D01*
X149679655Y-75585977D01*
X149825977Y-75439655D01*
X149940941Y-75267598D01*
X150020130Y-75076420D01*
X150060500Y-74873465D01*
X150060500Y-74666535D01*
X150060499Y-74666530D01*
X150499500Y-74666530D01*
X150499500Y-74873469D01*
X150539868Y-75076412D01*
X150539870Y-75076420D01*
X150605939Y-75235925D01*
X150619059Y-75267598D01*
X150632836Y-75288217D01*
X150734024Y-75439657D01*
X150880342Y-75585975D01*
X150880345Y-75585977D01*
X151052402Y-75700941D01*
X151243580Y-75780130D01*
X151388052Y-75808867D01*
X151446530Y-75820499D01*
X151446534Y-75820500D01*
X151446535Y-75820500D01*
X151653466Y-75820500D01*
X151653467Y-75820499D01*
X151856420Y-75780130D01*
X152047598Y-75700941D01*
X152219655Y-75585977D01*
X152365977Y-75439655D01*
X152480941Y-75267598D01*
X152560130Y-75076420D01*
X152600500Y-74873465D01*
X152600500Y-74666535D01*
X152600499Y-74666530D01*
X153039500Y-74666530D01*
X153039500Y-74873469D01*
X153079868Y-75076412D01*
X153079870Y-75076420D01*
X153145939Y-75235925D01*
X153159059Y-75267598D01*
X153172836Y-75288217D01*
X153274024Y-75439657D01*
X153420342Y-75585975D01*
X153420345Y-75585977D01*
X153592402Y-75700941D01*
X153783580Y-75780130D01*
X153928052Y-75808867D01*
X153986530Y-75820499D01*
X153986534Y-75820500D01*
X153986535Y-75820500D01*
X154193466Y-75820500D01*
X154193467Y-75820499D01*
X154396420Y-75780130D01*
X154587598Y-75700941D01*
X154759655Y-75585977D01*
X154905977Y-75439655D01*
X155020941Y-75267598D01*
X155089165Y-75102889D01*
X155133004Y-75048488D01*
X155199298Y-75026423D01*
X155266998Y-75043702D01*
X155314609Y-75094839D01*
X155321656Y-75112026D01*
X155378904Y-75288216D01*
X155475375Y-75477550D01*
X155514728Y-75531716D01*
X156147036Y-74899407D01*
X156164075Y-74962993D01*
X156229901Y-75077007D01*
X156322993Y-75170099D01*
X156437007Y-75235925D01*
X156500590Y-75252962D01*
X155868282Y-75885269D01*
X155868282Y-75885270D01*
X155922449Y-75924624D01*
X156111782Y-76021095D01*
X156313870Y-76086757D01*
X156523754Y-76120000D01*
X156736246Y-76120000D01*
X156946127Y-76086757D01*
X156946130Y-76086757D01*
X157148217Y-76021095D01*
X157337554Y-75924622D01*
X157391716Y-75885270D01*
X157391717Y-75885270D01*
X156759408Y-75252962D01*
X156822993Y-75235925D01*
X156937007Y-75170099D01*
X157030099Y-75077007D01*
X157095925Y-74962993D01*
X157112962Y-74899408D01*
X157745270Y-75531717D01*
X157745270Y-75531716D01*
X157784622Y-75477554D01*
X157881095Y-75288217D01*
X157946757Y-75086130D01*
X157946757Y-75086127D01*
X157980000Y-74876246D01*
X157980000Y-74663753D01*
X157946757Y-74453872D01*
X157946757Y-74453869D01*
X157881095Y-74251782D01*
X157784624Y-74062449D01*
X157745270Y-74008282D01*
X157745269Y-74008282D01*
X157112962Y-74640590D01*
X157095925Y-74577007D01*
X157030099Y-74462993D01*
X156937007Y-74369901D01*
X156822993Y-74304075D01*
X156759409Y-74287037D01*
X157391716Y-73654728D01*
X157337550Y-73615375D01*
X157148218Y-73518905D01*
X157110877Y-73506772D01*
X157110877Y-73506771D01*
X156972026Y-73461656D01*
X156914350Y-73422218D01*
X156902304Y-73393713D01*
X160149500Y-73393713D01*
X160149500Y-73606287D01*
X160155342Y-73643170D01*
X160176292Y-73775448D01*
X160182754Y-73816243D01*
X160231286Y-73965609D01*
X160248444Y-74018414D01*
X160344951Y-74207820D01*
X160469890Y-74379786D01*
X160620213Y-74530109D01*
X160792179Y-74655048D01*
X160792181Y-74655049D01*
X160792184Y-74655051D01*
X160981588Y-74751557D01*
X161183757Y-74817246D01*
X161393713Y-74850500D01*
X161393714Y-74850500D01*
X161606286Y-74850500D01*
X161606287Y-74850500D01*
X161816243Y-74817246D01*
X162018412Y-74751557D01*
X162207816Y-74655051D01*
X162233271Y-74636557D01*
X162379786Y-74530109D01*
X162379788Y-74530106D01*
X162379792Y-74530104D01*
X162530104Y-74379792D01*
X162530106Y-74379788D01*
X162530109Y-74379786D01*
X162655048Y-74207820D01*
X162655047Y-74207820D01*
X162655051Y-74207816D01*
X162751557Y-74018412D01*
X162817246Y-73816243D01*
X162850500Y-73606287D01*
X162850500Y-73393713D01*
X162817246Y-73183757D01*
X162751557Y-72981588D01*
X162655051Y-72792184D01*
X162655049Y-72792181D01*
X162655048Y-72792179D01*
X162530109Y-72620213D01*
X162379786Y-72469890D01*
X162207820Y-72344951D01*
X162018414Y-72248444D01*
X162018413Y-72248443D01*
X162018412Y-72248443D01*
X161816243Y-72182754D01*
X161816241Y-72182753D01*
X161816240Y-72182753D01*
X161654957Y-72157208D01*
X161606287Y-72149500D01*
X161393713Y-72149500D01*
X161345042Y-72157208D01*
X161183760Y-72182753D01*
X160981585Y-72248444D01*
X160792179Y-72344951D01*
X160620213Y-72469890D01*
X160469890Y-72620213D01*
X160344951Y-72792179D01*
X160248444Y-72981585D01*
X160182753Y-73183760D01*
X160167431Y-73280499D01*
X160149500Y-73393713D01*
X156902304Y-73393713D01*
X156887152Y-73357860D01*
X156899067Y-73289013D01*
X156946311Y-73237538D01*
X156962882Y-73229168D01*
X157127598Y-73160941D01*
X157299655Y-73045977D01*
X157445977Y-72899655D01*
X157560941Y-72727598D01*
X157640130Y-72536420D01*
X157680500Y-72333465D01*
X157680500Y-72126535D01*
X157640130Y-71923580D01*
X157560941Y-71732402D01*
X157445977Y-71560345D01*
X157445975Y-71560342D01*
X157299657Y-71414024D01*
X157183332Y-71336299D01*
X157127598Y-71299059D01*
X156936420Y-71219870D01*
X156936412Y-71219868D01*
X156733469Y-71179500D01*
X156733465Y-71179500D01*
X156526535Y-71179500D01*
X156526530Y-71179500D01*
X156323587Y-71219868D01*
X156323579Y-71219870D01*
X156132403Y-71299058D01*
X155960342Y-71414024D01*
X155814024Y-71560342D01*
X155699058Y-71732403D01*
X155619870Y-71923579D01*
X155619868Y-71923587D01*
X155579500Y-72126530D01*
X155579500Y-72333469D01*
X155619868Y-72536412D01*
X155619870Y-72536420D01*
X155685939Y-72695925D01*
X155699059Y-72727598D01*
X155712836Y-72748217D01*
X155814024Y-72899657D01*
X155960342Y-73045975D01*
X156132405Y-73160943D01*
X156234996Y-73203437D01*
X156297108Y-73229164D01*
X156351511Y-73273005D01*
X156373576Y-73339299D01*
X156356297Y-73406998D01*
X156305160Y-73454609D01*
X156287974Y-73461656D01*
X156111781Y-73518905D01*
X155922439Y-73615380D01*
X155868282Y-73654727D01*
X155868282Y-73654728D01*
X156500591Y-74287037D01*
X156437007Y-74304075D01*
X156322993Y-74369901D01*
X156229901Y-74462993D01*
X156164075Y-74577007D01*
X156147037Y-74640591D01*
X155514728Y-74008282D01*
X155514727Y-74008282D01*
X155475380Y-74062439D01*
X155378905Y-74251781D01*
X155321656Y-74427974D01*
X155282218Y-74485649D01*
X155217859Y-74512847D01*
X155149013Y-74500932D01*
X155097537Y-74453688D01*
X155089164Y-74437107D01*
X155020943Y-74272405D01*
X154905975Y-74100342D01*
X154759657Y-73954024D01*
X154644061Y-73876786D01*
X154587598Y-73839059D01*
X154587593Y-73839057D01*
X154396420Y-73759870D01*
X154396412Y-73759868D01*
X154193469Y-73719500D01*
X154193465Y-73719500D01*
X153986535Y-73719500D01*
X153986530Y-73719500D01*
X153783587Y-73759868D01*
X153783579Y-73759870D01*
X153592403Y-73839058D01*
X153420342Y-73954024D01*
X153274024Y-74100342D01*
X153159058Y-74272403D01*
X153079870Y-74463579D01*
X153079868Y-74463587D01*
X153039500Y-74666530D01*
X152600499Y-74666530D01*
X152560130Y-74463580D01*
X152480941Y-74272402D01*
X152365977Y-74100345D01*
X152365975Y-74100342D01*
X152219657Y-73954024D01*
X152104061Y-73876786D01*
X152047598Y-73839059D01*
X152047593Y-73839057D01*
X151856420Y-73759870D01*
X151856412Y-73759868D01*
X151653469Y-73719500D01*
X151653465Y-73719500D01*
X151446535Y-73719500D01*
X151446530Y-73719500D01*
X151243587Y-73759868D01*
X151243579Y-73759870D01*
X151052403Y-73839058D01*
X150880342Y-73954024D01*
X150734024Y-74100342D01*
X150619058Y-74272403D01*
X150539870Y-74463579D01*
X150539868Y-74463587D01*
X150499500Y-74666530D01*
X150060499Y-74666530D01*
X150020130Y-74463580D01*
X149940941Y-74272402D01*
X149825977Y-74100345D01*
X149825975Y-74100342D01*
X149679657Y-73954024D01*
X149564061Y-73876786D01*
X149507598Y-73839059D01*
X149507593Y-73839057D01*
X149445891Y-73813499D01*
X149342890Y-73770834D01*
X149288488Y-73726994D01*
X149266423Y-73660700D01*
X149283702Y-73593001D01*
X149334839Y-73545390D01*
X149352026Y-73538343D01*
X149528217Y-73481095D01*
X149717554Y-73384622D01*
X149771716Y-73345270D01*
X149771717Y-73345270D01*
X149139408Y-72712962D01*
X149202993Y-72695925D01*
X149317007Y-72630099D01*
X149410099Y-72537007D01*
X149475925Y-72422993D01*
X149492962Y-72359408D01*
X150125270Y-72991717D01*
X150125270Y-72991716D01*
X150164622Y-72937554D01*
X150261095Y-72748217D01*
X150318343Y-72572026D01*
X150357780Y-72514351D01*
X150422139Y-72487152D01*
X150490985Y-72499066D01*
X150542461Y-72546310D01*
X150550833Y-72562887D01*
X150578673Y-72630099D01*
X150605939Y-72695925D01*
X150619059Y-72727598D01*
X150632836Y-72748217D01*
X150734024Y-72899657D01*
X150880342Y-73045975D01*
X150880345Y-73045977D01*
X151052402Y-73160941D01*
X151243580Y-73240130D01*
X151408855Y-73273005D01*
X151446530Y-73280499D01*
X151446534Y-73280500D01*
X151446535Y-73280500D01*
X151653466Y-73280500D01*
X151653467Y-73280499D01*
X151856420Y-73240130D01*
X152047598Y-73160941D01*
X152219655Y-73045977D01*
X152365977Y-72899655D01*
X152480941Y-72727598D01*
X152560130Y-72536420D01*
X152600500Y-72333465D01*
X152600500Y-72126535D01*
X152600499Y-72126530D01*
X153039500Y-72126530D01*
X153039500Y-72333469D01*
X153079868Y-72536412D01*
X153079870Y-72536420D01*
X153145939Y-72695925D01*
X153159059Y-72727598D01*
X153172836Y-72748217D01*
X153274024Y-72899657D01*
X153420342Y-73045975D01*
X153420345Y-73045977D01*
X153592402Y-73160941D01*
X153783580Y-73240130D01*
X153948855Y-73273005D01*
X153986530Y-73280499D01*
X153986534Y-73280500D01*
X153986535Y-73280500D01*
X154193466Y-73280500D01*
X154193467Y-73280499D01*
X154396420Y-73240130D01*
X154587598Y-73160941D01*
X154759655Y-73045977D01*
X154905977Y-72899655D01*
X155020941Y-72727598D01*
X155100130Y-72536420D01*
X155140500Y-72333465D01*
X155140500Y-72126535D01*
X155100130Y-71923580D01*
X155020941Y-71732402D01*
X154905977Y-71560345D01*
X154905975Y-71560342D01*
X154759657Y-71414024D01*
X154643332Y-71336299D01*
X154587598Y-71299059D01*
X154396420Y-71219870D01*
X154396412Y-71219868D01*
X154193469Y-71179500D01*
X154193465Y-71179500D01*
X153986535Y-71179500D01*
X153986530Y-71179500D01*
X153783587Y-71219868D01*
X153783579Y-71219870D01*
X153592403Y-71299058D01*
X153420342Y-71414024D01*
X153274024Y-71560342D01*
X153159058Y-71732403D01*
X153079870Y-71923579D01*
X153079868Y-71923587D01*
X153039500Y-72126530D01*
X152600499Y-72126530D01*
X152560130Y-71923580D01*
X152480941Y-71732402D01*
X152365977Y-71560345D01*
X152365975Y-71560342D01*
X152219657Y-71414024D01*
X152103332Y-71336299D01*
X152047598Y-71299059D01*
X151856420Y-71219870D01*
X151856412Y-71219868D01*
X151653469Y-71179500D01*
X151653465Y-71179500D01*
X151446535Y-71179500D01*
X151446530Y-71179500D01*
X151243587Y-71219868D01*
X151243579Y-71219870D01*
X151052403Y-71299058D01*
X150880342Y-71414024D01*
X150734024Y-71560342D01*
X150619057Y-71732403D01*
X150550835Y-71897108D01*
X150506994Y-71951511D01*
X150440700Y-71973576D01*
X150373000Y-71956297D01*
X150325390Y-71905159D01*
X150318343Y-71887973D01*
X150261095Y-71711782D01*
X150164624Y-71522449D01*
X150125270Y-71468282D01*
X149492962Y-72100590D01*
X149475925Y-72037007D01*
X149410099Y-71922993D01*
X149317007Y-71829901D01*
X149202993Y-71764075D01*
X149139409Y-71747037D01*
X149771716Y-71114728D01*
X149717550Y-71075375D01*
X149528217Y-70978904D01*
X149326129Y-70913242D01*
X149116246Y-70880000D01*
X148903754Y-70880000D01*
X148693872Y-70913242D01*
X148693869Y-70913242D01*
X148491782Y-70978904D01*
X148302439Y-71075380D01*
X148248282Y-71114727D01*
X148248282Y-71114728D01*
X148880591Y-71747037D01*
X148817007Y-71764075D01*
X148702993Y-71829901D01*
X148609901Y-71922993D01*
X148544075Y-72037007D01*
X148527037Y-72100591D01*
X147894728Y-71468282D01*
X147894727Y-71468282D01*
X147855380Y-71522439D01*
X147758905Y-71711781D01*
X147701656Y-71887974D01*
X147662218Y-71945649D01*
X147597859Y-71972847D01*
X147529013Y-71960932D01*
X147477537Y-71913688D01*
X147469164Y-71897107D01*
X147400943Y-71732405D01*
X147285975Y-71560342D01*
X147139657Y-71414024D01*
X147023332Y-71336299D01*
X146967598Y-71299059D01*
X146776420Y-71219870D01*
X146776412Y-71219868D01*
X146573469Y-71179500D01*
X146573465Y-71179500D01*
X146366535Y-71179500D01*
X146366530Y-71179500D01*
X146163587Y-71219868D01*
X146163579Y-71219870D01*
X145972403Y-71299058D01*
X145800342Y-71414024D01*
X145654024Y-71560342D01*
X145539057Y-71732403D01*
X145470835Y-71897108D01*
X145426994Y-71951511D01*
X145360700Y-71973576D01*
X145293000Y-71956297D01*
X145245390Y-71905159D01*
X145238343Y-71887973D01*
X145181095Y-71711782D01*
X145084624Y-71522449D01*
X145045270Y-71468282D01*
X144412962Y-72100590D01*
X144395925Y-72037007D01*
X144330099Y-71922993D01*
X144237007Y-71829901D01*
X144122993Y-71764075D01*
X144059409Y-71747037D01*
X144691716Y-71114728D01*
X144637550Y-71075375D01*
X144448217Y-70978904D01*
X144246129Y-70913242D01*
X144036246Y-70880000D01*
X143823754Y-70880000D01*
X143613872Y-70913242D01*
X143613869Y-70913242D01*
X143411782Y-70978904D01*
X143222439Y-71075380D01*
X143168282Y-71114727D01*
X143168282Y-71114728D01*
X143800591Y-71747037D01*
X143737007Y-71764075D01*
X143622993Y-71829901D01*
X143529901Y-71922993D01*
X143464075Y-72037007D01*
X143447037Y-72100591D01*
X142814728Y-71468282D01*
X142814727Y-71468282D01*
X142775380Y-71522439D01*
X142678905Y-71711781D01*
X142621656Y-71887974D01*
X142582218Y-71945649D01*
X142517859Y-71972847D01*
X142449013Y-71960932D01*
X142397537Y-71913688D01*
X142389164Y-71897107D01*
X142320943Y-71732405D01*
X142205975Y-71560342D01*
X142059657Y-71414024D01*
X141943332Y-71336299D01*
X141887598Y-71299059D01*
X141696420Y-71219870D01*
X141696412Y-71219868D01*
X141493469Y-71179500D01*
X141493465Y-71179500D01*
X141286535Y-71179500D01*
X141286530Y-71179500D01*
X141083587Y-71219868D01*
X141083579Y-71219870D01*
X140892403Y-71299058D01*
X140720342Y-71414024D01*
X140574024Y-71560342D01*
X140459058Y-71732403D01*
X140379870Y-71923579D01*
X140379868Y-71923587D01*
X140339500Y-72126530D01*
X140339500Y-72333469D01*
X140379868Y-72536412D01*
X140379870Y-72536420D01*
X140409093Y-72606970D01*
X140416562Y-72676440D01*
X140385287Y-72738919D01*
X140382213Y-72742104D01*
X139908531Y-73215786D01*
X139908529Y-73215789D01*
X139871171Y-73280497D01*
X139871169Y-73280499D01*
X139862387Y-73295709D01*
X139838500Y-73384856D01*
X139838500Y-73576131D01*
X139818815Y-73643170D01*
X139766011Y-73688925D01*
X139696853Y-73698869D01*
X139641616Y-73676450D01*
X139557556Y-73615378D01*
X139368216Y-73518904D01*
X139192026Y-73461656D01*
X139134350Y-73422218D01*
X139107152Y-73357860D01*
X139119067Y-73289013D01*
X139166311Y-73237538D01*
X139182882Y-73229168D01*
X139347598Y-73160941D01*
X139519655Y-73045977D01*
X139665977Y-72899655D01*
X139780941Y-72727598D01*
X139860130Y-72536420D01*
X139900500Y-72333465D01*
X139900500Y-72126535D01*
X139860130Y-71923580D01*
X139780941Y-71732402D01*
X139665977Y-71560345D01*
X139665975Y-71560342D01*
X139519657Y-71414024D01*
X139403332Y-71336299D01*
X139347598Y-71299059D01*
X139156420Y-71219870D01*
X139156412Y-71219868D01*
X138953469Y-71179500D01*
X138953465Y-71179500D01*
X138746535Y-71179500D01*
X138746530Y-71179500D01*
X138543587Y-71219868D01*
X138543579Y-71219870D01*
X138352403Y-71299058D01*
X138180342Y-71414024D01*
X138034024Y-71560342D01*
X137919058Y-71732403D01*
X137839870Y-71923579D01*
X137839868Y-71923587D01*
X137799500Y-72126530D01*
X137799500Y-72333469D01*
X137839868Y-72536412D01*
X137839870Y-72536420D01*
X137905939Y-72695925D01*
X137919059Y-72727598D01*
X137932836Y-72748217D01*
X138034024Y-72899657D01*
X138180342Y-73045975D01*
X138352405Y-73160943D01*
X138454996Y-73203437D01*
X138517108Y-73229164D01*
X138571511Y-73273005D01*
X138593576Y-73339299D01*
X138576297Y-73406998D01*
X138525160Y-73454609D01*
X138507974Y-73461656D01*
X138331781Y-73518905D01*
X138142439Y-73615380D01*
X138088282Y-73654727D01*
X138088282Y-73654728D01*
X138720591Y-74287037D01*
X138657007Y-74304075D01*
X138542993Y-74369901D01*
X138449901Y-74462993D01*
X138384075Y-74577007D01*
X138367037Y-74640590D01*
X137734728Y-74008282D01*
X137734727Y-74008282D01*
X137695380Y-74062439D01*
X137598905Y-74251781D01*
X137541656Y-74427974D01*
X137502218Y-74485649D01*
X137437859Y-74512847D01*
X137369013Y-74500932D01*
X137317537Y-74453688D01*
X137309164Y-74437107D01*
X137240943Y-74272405D01*
X137125975Y-74100342D01*
X136979657Y-73954024D01*
X136864061Y-73876786D01*
X136807598Y-73839059D01*
X136807593Y-73839057D01*
X136616420Y-73759870D01*
X136616412Y-73759868D01*
X136413469Y-73719500D01*
X136413465Y-73719500D01*
X136206535Y-73719500D01*
X136206530Y-73719500D01*
X136003587Y-73759868D01*
X136003579Y-73759870D01*
X135812403Y-73839058D01*
X135640342Y-73954024D01*
X135494024Y-74100342D01*
X135379058Y-74272403D01*
X135299870Y-74463579D01*
X135299868Y-74463587D01*
X135259500Y-74666530D01*
X134820499Y-74666530D01*
X134780130Y-74463580D01*
X134700941Y-74272402D01*
X134585977Y-74100345D01*
X134585975Y-74100342D01*
X134439657Y-73954024D01*
X134324061Y-73876786D01*
X134267598Y-73839059D01*
X134267593Y-73839057D01*
X134076420Y-73759870D01*
X134076412Y-73759868D01*
X133873469Y-73719500D01*
X133873465Y-73719500D01*
X133666535Y-73719500D01*
X133666530Y-73719500D01*
X133463587Y-73759868D01*
X133463579Y-73759870D01*
X133272403Y-73839058D01*
X133100344Y-73954023D01*
X133045223Y-74009144D01*
X132983899Y-74042628D01*
X132914207Y-74037643D01*
X132858274Y-73995772D01*
X132842744Y-73963796D01*
X132841723Y-73964219D01*
X132838615Y-73956717D01*
X132838614Y-73956712D01*
X132806014Y-73900247D01*
X132792472Y-73876791D01*
X132792468Y-73876786D01*
X132066213Y-73150531D01*
X132066208Y-73150527D01*
X131986290Y-73104387D01*
X131986289Y-73104386D01*
X131986288Y-73104386D01*
X131897144Y-73080500D01*
X131897143Y-73080500D01*
X131778308Y-73080500D01*
X131711269Y-73060815D01*
X131690627Y-73044181D01*
X131359408Y-72712962D01*
X131422993Y-72695925D01*
X131537007Y-72630099D01*
X131630099Y-72537007D01*
X131695925Y-72422993D01*
X131712962Y-72359409D01*
X132345270Y-72991717D01*
X132345270Y-72991716D01*
X132384622Y-72937554D01*
X132481095Y-72748217D01*
X132538343Y-72572026D01*
X132577780Y-72514351D01*
X132642139Y-72487152D01*
X132710985Y-72499066D01*
X132762461Y-72546310D01*
X132770833Y-72562887D01*
X132798673Y-72630099D01*
X132825939Y-72695925D01*
X132839059Y-72727598D01*
X132852836Y-72748217D01*
X132954024Y-72899657D01*
X133100342Y-73045975D01*
X133100345Y-73045977D01*
X133272402Y-73160941D01*
X133463580Y-73240130D01*
X133628855Y-73273005D01*
X133666530Y-73280499D01*
X133666534Y-73280500D01*
X133666535Y-73280500D01*
X133873466Y-73280500D01*
X133873467Y-73280499D01*
X134076420Y-73240130D01*
X134267598Y-73160941D01*
X134439655Y-73045977D01*
X134585977Y-72899655D01*
X134700941Y-72727598D01*
X134780130Y-72536420D01*
X134820500Y-72333465D01*
X134820500Y-72126535D01*
X134820499Y-72126530D01*
X135259500Y-72126530D01*
X135259500Y-72333469D01*
X135299868Y-72536412D01*
X135299870Y-72536420D01*
X135365939Y-72695925D01*
X135379059Y-72727598D01*
X135392836Y-72748217D01*
X135494024Y-72899657D01*
X135640342Y-73045975D01*
X135640345Y-73045977D01*
X135812402Y-73160941D01*
X136003580Y-73240130D01*
X136168855Y-73273005D01*
X136206530Y-73280499D01*
X136206534Y-73280500D01*
X136206535Y-73280500D01*
X136413466Y-73280500D01*
X136413467Y-73280499D01*
X136616420Y-73240130D01*
X136807598Y-73160941D01*
X136979655Y-73045977D01*
X137125977Y-72899655D01*
X137240941Y-72727598D01*
X137320130Y-72536420D01*
X137360500Y-72333465D01*
X137360500Y-72126535D01*
X137320130Y-71923580D01*
X137240941Y-71732402D01*
X137125977Y-71560345D01*
X137125975Y-71560342D01*
X136979657Y-71414024D01*
X136863332Y-71336299D01*
X136807598Y-71299059D01*
X136616420Y-71219870D01*
X136616412Y-71219868D01*
X136413469Y-71179500D01*
X136413465Y-71179500D01*
X136206535Y-71179500D01*
X136206530Y-71179500D01*
X136003587Y-71219868D01*
X136003579Y-71219870D01*
X135812403Y-71299058D01*
X135640342Y-71414024D01*
X135494024Y-71560342D01*
X135379058Y-71732403D01*
X135299870Y-71923579D01*
X135299868Y-71923587D01*
X135259500Y-72126530D01*
X134820499Y-72126530D01*
X134780130Y-71923580D01*
X134700941Y-71732402D01*
X134585977Y-71560345D01*
X134585975Y-71560342D01*
X134439657Y-71414024D01*
X134323332Y-71336299D01*
X134267598Y-71299059D01*
X134076420Y-71219870D01*
X134076412Y-71219868D01*
X133873469Y-71179500D01*
X133873465Y-71179500D01*
X133666535Y-71179500D01*
X133666530Y-71179500D01*
X133463587Y-71219868D01*
X133463579Y-71219870D01*
X133272403Y-71299058D01*
X133100342Y-71414024D01*
X132954024Y-71560342D01*
X132839057Y-71732403D01*
X132770835Y-71897108D01*
X132726994Y-71951511D01*
X132660700Y-71973576D01*
X132593000Y-71956297D01*
X132545390Y-71905159D01*
X132538343Y-71887973D01*
X132481095Y-71711782D01*
X132384624Y-71522449D01*
X132345270Y-71468282D01*
X132345269Y-71468282D01*
X131712962Y-72100590D01*
X131695925Y-72037007D01*
X131630099Y-71922993D01*
X131537007Y-71829901D01*
X131422993Y-71764075D01*
X131359409Y-71747037D01*
X131991716Y-71114728D01*
X131937550Y-71075375D01*
X131748217Y-70978904D01*
X131546129Y-70913242D01*
X131336246Y-70880000D01*
X131123754Y-70880000D01*
X130913872Y-70913242D01*
X130913869Y-70913242D01*
X130711782Y-70978904D01*
X130522439Y-71075380D01*
X130468282Y-71114727D01*
X130468282Y-71114728D01*
X131100591Y-71747037D01*
X131037007Y-71764075D01*
X130922993Y-71829901D01*
X130829901Y-71922993D01*
X130764075Y-72037007D01*
X130747037Y-72100591D01*
X130114728Y-71468282D01*
X130114727Y-71468282D01*
X130075380Y-71522439D01*
X129978905Y-71711781D01*
X129921656Y-71887974D01*
X129882218Y-71945649D01*
X129817859Y-71972847D01*
X129749013Y-71960932D01*
X129697537Y-71913688D01*
X129689164Y-71897107D01*
X129620943Y-71732405D01*
X129505975Y-71560342D01*
X129359657Y-71414024D01*
X129243332Y-71336299D01*
X129187598Y-71299059D01*
X128996420Y-71219870D01*
X128996412Y-71219868D01*
X128793469Y-71179500D01*
X128793465Y-71179500D01*
X128586535Y-71179500D01*
X128586530Y-71179500D01*
X128383587Y-71219868D01*
X128383579Y-71219870D01*
X128192403Y-71299058D01*
X128020342Y-71414024D01*
X127874024Y-71560342D01*
X127759058Y-71732403D01*
X127679870Y-71923579D01*
X127679868Y-71923587D01*
X127639500Y-72126530D01*
X127200499Y-72126530D01*
X127160130Y-71923580D01*
X127080941Y-71732402D01*
X126965977Y-71560345D01*
X126965975Y-71560342D01*
X126819657Y-71414024D01*
X126703332Y-71336299D01*
X126647598Y-71299059D01*
X126456420Y-71219870D01*
X126456412Y-71219868D01*
X126253469Y-71179500D01*
X126253465Y-71179500D01*
X126046535Y-71179500D01*
X126046530Y-71179500D01*
X125843587Y-71219868D01*
X125843579Y-71219870D01*
X125652403Y-71299058D01*
X125480342Y-71414024D01*
X125334024Y-71560342D01*
X125219057Y-71732403D01*
X125150835Y-71897108D01*
X125106994Y-71951511D01*
X125040700Y-71973576D01*
X124973000Y-71956297D01*
X124925390Y-71905159D01*
X124918343Y-71887973D01*
X124861095Y-71711782D01*
X124764624Y-71522449D01*
X124725270Y-71468282D01*
X124725269Y-71468282D01*
X124092962Y-72100590D01*
X124075925Y-72037007D01*
X124010099Y-71922993D01*
X123917007Y-71829901D01*
X123802993Y-71764075D01*
X123739409Y-71747037D01*
X124371716Y-71114728D01*
X124317550Y-71075375D01*
X124128217Y-70978904D01*
X123926129Y-70913242D01*
X123716246Y-70880000D01*
X123503754Y-70880000D01*
X123293872Y-70913242D01*
X123293869Y-70913242D01*
X123091782Y-70978904D01*
X122902439Y-71075380D01*
X122848282Y-71114727D01*
X122848282Y-71114728D01*
X123480591Y-71747037D01*
X123417007Y-71764075D01*
X123302993Y-71829901D01*
X123209901Y-71922993D01*
X123144075Y-72037007D01*
X123127037Y-72100591D01*
X122494728Y-71468282D01*
X122494727Y-71468282D01*
X122455380Y-71522439D01*
X122358905Y-71711781D01*
X122301656Y-71887974D01*
X122262218Y-71945649D01*
X122197859Y-71972847D01*
X122129013Y-71960932D01*
X122077537Y-71913688D01*
X122069164Y-71897107D01*
X122000943Y-71732405D01*
X121885975Y-71560342D01*
X121739657Y-71414024D01*
X121623332Y-71336299D01*
X121567598Y-71299059D01*
X121376420Y-71219870D01*
X121376412Y-71219868D01*
X121173469Y-71179500D01*
X121173465Y-71179500D01*
X120966535Y-71179500D01*
X120966530Y-71179500D01*
X120763587Y-71219868D01*
X120763579Y-71219870D01*
X120572403Y-71299058D01*
X120400342Y-71414024D01*
X120254024Y-71560342D01*
X120139058Y-71732403D01*
X120059870Y-71923579D01*
X120059868Y-71923587D01*
X120019500Y-72126530D01*
X119580499Y-72126530D01*
X119540130Y-71923580D01*
X119460941Y-71732402D01*
X119345977Y-71560345D01*
X119345975Y-71560342D01*
X119199657Y-71414024D01*
X119083332Y-71336299D01*
X119027598Y-71299059D01*
X118836420Y-71219870D01*
X118836412Y-71219868D01*
X118633469Y-71179500D01*
X118633465Y-71179500D01*
X118426535Y-71179500D01*
X118426530Y-71179500D01*
X118223587Y-71219868D01*
X118223579Y-71219870D01*
X118032403Y-71299058D01*
X117860342Y-71414024D01*
X117714024Y-71560342D01*
X117599058Y-71732403D01*
X117519870Y-71923579D01*
X117519868Y-71923587D01*
X117479500Y-72126530D01*
X117479500Y-72333469D01*
X117519868Y-72536412D01*
X117519870Y-72536420D01*
X117585939Y-72695925D01*
X117599059Y-72727598D01*
X117612836Y-72748217D01*
X117714024Y-72899657D01*
X117860342Y-73045975D01*
X118032405Y-73160943D01*
X118134996Y-73203437D01*
X118197108Y-73229164D01*
X118251511Y-73273005D01*
X118273576Y-73339299D01*
X118256297Y-73406998D01*
X118205160Y-73454609D01*
X118187974Y-73461656D01*
X118011781Y-73518905D01*
X117822439Y-73615380D01*
X117768282Y-73654727D01*
X117768282Y-73654728D01*
X118400591Y-74287037D01*
X118337007Y-74304075D01*
X118222993Y-74369901D01*
X118129901Y-74462993D01*
X118064075Y-74577007D01*
X118047037Y-74640591D01*
X117414728Y-74008282D01*
X117414727Y-74008282D01*
X117375380Y-74062439D01*
X117278905Y-74251781D01*
X117221656Y-74427974D01*
X117182218Y-74485649D01*
X117117859Y-74512847D01*
X117049013Y-74500932D01*
X116997537Y-74453688D01*
X116989164Y-74437107D01*
X116920943Y-74272405D01*
X116805975Y-74100342D01*
X116659657Y-73954024D01*
X116544061Y-73876786D01*
X116487598Y-73839059D01*
X116487593Y-73839057D01*
X116296420Y-73759870D01*
X116296412Y-73759868D01*
X116093469Y-73719500D01*
X116093465Y-73719500D01*
X115886535Y-73719500D01*
X115886530Y-73719500D01*
X115683587Y-73759868D01*
X115683579Y-73759870D01*
X115492403Y-73839058D01*
X115320342Y-73954024D01*
X115174024Y-74100342D01*
X115059058Y-74272403D01*
X114979870Y-74463579D01*
X114979868Y-74463587D01*
X114939500Y-74666530D01*
X114500499Y-74666530D01*
X114460130Y-74463580D01*
X114380941Y-74272402D01*
X114265977Y-74100345D01*
X114265975Y-74100342D01*
X114119657Y-73954024D01*
X114004061Y-73876786D01*
X113947598Y-73839059D01*
X113947593Y-73839057D01*
X113885891Y-73813499D01*
X113782890Y-73770834D01*
X113728488Y-73726994D01*
X113706423Y-73660700D01*
X113723702Y-73593001D01*
X113774839Y-73545390D01*
X113792026Y-73538343D01*
X113968217Y-73481095D01*
X114157554Y-73384622D01*
X114211716Y-73345270D01*
X114211717Y-73345270D01*
X113579408Y-72712962D01*
X113642993Y-72695925D01*
X113757007Y-72630099D01*
X113850099Y-72537007D01*
X113915925Y-72422993D01*
X113932962Y-72359408D01*
X114565270Y-72991717D01*
X114565270Y-72991716D01*
X114604622Y-72937554D01*
X114701095Y-72748217D01*
X114758343Y-72572026D01*
X114797780Y-72514351D01*
X114862139Y-72487152D01*
X114930985Y-72499066D01*
X114982461Y-72546310D01*
X114990833Y-72562887D01*
X115018673Y-72630099D01*
X115045939Y-72695925D01*
X115059059Y-72727598D01*
X115072836Y-72748217D01*
X115174024Y-72899657D01*
X115320342Y-73045975D01*
X115320345Y-73045977D01*
X115492402Y-73160941D01*
X115683580Y-73240130D01*
X115848855Y-73273005D01*
X115886530Y-73280499D01*
X115886534Y-73280500D01*
X115886535Y-73280500D01*
X116093466Y-73280500D01*
X116093467Y-73280499D01*
X116296420Y-73240130D01*
X116487598Y-73160941D01*
X116659655Y-73045977D01*
X116805977Y-72899655D01*
X116920941Y-72727598D01*
X117000130Y-72536420D01*
X117040500Y-72333465D01*
X117040500Y-72126535D01*
X117000130Y-71923580D01*
X116920941Y-71732402D01*
X116805977Y-71560345D01*
X116805975Y-71560342D01*
X116659657Y-71414024D01*
X116543332Y-71336299D01*
X116487598Y-71299059D01*
X116296420Y-71219870D01*
X116296412Y-71219868D01*
X116093469Y-71179500D01*
X116093465Y-71179500D01*
X115886535Y-71179500D01*
X115886530Y-71179500D01*
X115683587Y-71219868D01*
X115683579Y-71219870D01*
X115492403Y-71299058D01*
X115320342Y-71414024D01*
X115174024Y-71560342D01*
X115059057Y-71732403D01*
X114990835Y-71897108D01*
X114946994Y-71951511D01*
X114880700Y-71973576D01*
X114813000Y-71956297D01*
X114765390Y-71905159D01*
X114758343Y-71887973D01*
X114701095Y-71711782D01*
X114604624Y-71522449D01*
X114565270Y-71468282D01*
X114565269Y-71468282D01*
X113932962Y-72100590D01*
X113915925Y-72037007D01*
X113850099Y-71922993D01*
X113757007Y-71829901D01*
X113642993Y-71764075D01*
X113579409Y-71747037D01*
X114211716Y-71114728D01*
X114157550Y-71075375D01*
X113968217Y-70978904D01*
X113766129Y-70913242D01*
X113556246Y-70880000D01*
X113343754Y-70880000D01*
X113133872Y-70913242D01*
X113133869Y-70913242D01*
X112931782Y-70978904D01*
X112742439Y-71075380D01*
X112688282Y-71114727D01*
X112688282Y-71114728D01*
X113320591Y-71747037D01*
X113257007Y-71764075D01*
X113142993Y-71829901D01*
X113049901Y-71922993D01*
X112984075Y-72037007D01*
X112967037Y-72100591D01*
X112334728Y-71468282D01*
X112334727Y-71468282D01*
X112295380Y-71522439D01*
X112198905Y-71711781D01*
X112141656Y-71887974D01*
X112102218Y-71945649D01*
X112037859Y-71972847D01*
X111969013Y-71960932D01*
X111917537Y-71913688D01*
X111909164Y-71897107D01*
X111840943Y-71732405D01*
X111725975Y-71560342D01*
X111579657Y-71414024D01*
X111463332Y-71336299D01*
X111407598Y-71299059D01*
X111216420Y-71219870D01*
X111216412Y-71219868D01*
X111013469Y-71179500D01*
X111013465Y-71179500D01*
X110806535Y-71179500D01*
X110806530Y-71179500D01*
X110603587Y-71219868D01*
X110603579Y-71219870D01*
X110412403Y-71299058D01*
X110240342Y-71414024D01*
X110094024Y-71560342D01*
X109979058Y-71732403D01*
X109899870Y-71923579D01*
X109899868Y-71923587D01*
X109859500Y-72126530D01*
X109420499Y-72126530D01*
X109380130Y-71923580D01*
X109300941Y-71732402D01*
X109185977Y-71560345D01*
X109185975Y-71560342D01*
X109039657Y-71414024D01*
X108923332Y-71336299D01*
X108867598Y-71299059D01*
X108676420Y-71219870D01*
X108676412Y-71219868D01*
X108473469Y-71179500D01*
X108473465Y-71179500D01*
X108266535Y-71179500D01*
X108266530Y-71179500D01*
X108063587Y-71219868D01*
X108063579Y-71219870D01*
X107872403Y-71299058D01*
X107700342Y-71414024D01*
X107554024Y-71560342D01*
X107439058Y-71732403D01*
X107359870Y-71923579D01*
X107359868Y-71923587D01*
X107319500Y-72126530D01*
X100187008Y-72126530D01*
X100214090Y-72032526D01*
X100218682Y-72019406D01*
X100337562Y-71732403D01*
X100339929Y-71726686D01*
X100345951Y-71714180D01*
X100499227Y-71436850D01*
X100506605Y-71425107D01*
X100689972Y-71166676D01*
X100698619Y-71155834D01*
X100909750Y-70919579D01*
X100919581Y-70909749D01*
X100952870Y-70880000D01*
X101155834Y-70698619D01*
X101166676Y-70689972D01*
X101425107Y-70506605D01*
X101436850Y-70499227D01*
X101714180Y-70345951D01*
X101726686Y-70339929D01*
X102019406Y-70218682D01*
X102032526Y-70214090D01*
X102336990Y-70126375D01*
X102350537Y-70123283D01*
X102662907Y-70070210D01*
X102676700Y-70068656D01*
X102996528Y-70050695D01*
X103003481Y-70050500D01*
X103016408Y-70050500D01*
X161983592Y-70050500D01*
X161996519Y-70050500D01*
X162003472Y-70050695D01*
G37*
G04 #@! TD.AperFunction*
M02*
