M48
; DRILL file {KiCad 9.0.7} date 2026-02-20T19:56:07-0600
; FORMAT={-:-/ absolute / inch / decimal}
; #@! TF.CreationDate,2026-02-20T19:56:07-06:00
; #@! TF.GenerationSoftware,Kicad,Pcbnew,9.0.7
; #@! TF.FileFunction,Plated,1,2,PTH
FMAT,2
INCH
; #@! TA.AperFunction,Plated,PTH,ViaDrill
T1C0.0100
; #@! TA.AperFunction,Plated,PTH,ViaDrill
T2C0.0118
; #@! TA.AperFunction,Plated,PTH,ComponentDrill
T3C0.0394
%
G90
G05
T1
X3.967Y-3.037
X3.967Y-3.137
X3.967Y-3.237
X3.967Y-3.337
X3.967Y-3.437
X3.967Y-3.537
X3.967Y-3.637
X4.137Y-3.037
X4.137Y-3.237
X4.137Y-3.437
X4.137Y-3.637
X4.137Y-3.917
X4.2053Y-3.0387
X4.217Y-2.787
X4.237Y-2.887
X4.237Y-2.997
X4.237Y-3.917
X4.257Y-3.097
X4.287Y-3.237
X4.307Y-3.167
X4.317Y-2.787
X4.317Y-2.897
X4.337Y-3.0606
X4.337Y-3.257
X4.337Y-3.437
X4.337Y-3.637
X4.337Y-3.837
X4.337Y-3.917
X4.377Y-3.167
X4.407Y-2.787
X4.417Y-2.897
X4.417Y-2.977
X4.437Y-3.917
X4.447Y-3.167
X4.517Y-2.897
X4.525Y-3.837
X4.525Y-3.917
X4.527Y-3.727
X4.537Y-3.0606
X4.537Y-3.237
X4.537Y-3.437
X4.537Y-3.637
X4.607Y-2.887
X4.637Y-3.727
X4.638Y-3.1758
X4.717Y-2.797
X4.717Y-2.897
X4.727Y-3.437
X4.737Y-3.0606
X4.737Y-3.237
X4.737Y-3.637
X4.737Y-3.727
X4.797Y-3.287
X4.817Y-2.897
X4.817Y-2.987
X4.827Y-3.197
X4.837Y-3.727
X4.897Y-3.487
X4.907Y-3.557
X4.917Y-2.897
X4.927Y-3.0606
X4.937Y-3.237
X5.017Y-2.807
X5.017Y-3.297
X5.0217Y-3.0659
X5.027Y-3.447
X5.037Y-3.507
X5.037Y-3.687
X5.037Y-3.727
X5.107Y-3.367
X5.137Y-3.067
X5.137Y-3.237
X5.137Y-3.437
X5.137Y-3.637
X5.137Y-3.727
X5.157Y-2.997
X5.237Y-3.137
X5.237Y-3.497
X5.237Y-3.727
X5.267Y-3.157
X5.287Y-3.017
X5.317Y-2.897
X5.3332Y-3.137
X5.3352Y-3.4352
X5.337Y-3.637
X5.337Y-3.727
X5.3551Y-3.247
X5.387Y-3.197
X5.387Y-3.237
X5.397Y-3.077
X5.397Y-3.367
X5.417Y-2.797
X5.417Y-2.897
X5.417Y-2.987
X5.417Y-3.147
X5.4332Y-3.037
X5.437Y-3.407
X5.437Y-3.687
X5.437Y-3.727
X5.4552Y-3.2688
X5.487Y-3.227
X5.517Y-2.817
X5.517Y-3.1232
X5.517Y-3.297
X5.5332Y-3.267
X5.537Y-3.177
X5.547Y-2.997
X5.557Y-3.4377
X5.567Y-3.5655
X5.567Y-3.617
X5.5808Y-3.387
X5.5827Y-3.4485
X5.597Y-2.897
X5.597Y-3.567
X5.617Y-2.987
X5.637Y-3.037
X5.637Y-3.237
X5.637Y-3.637
X5.637Y-3.727
X5.667Y-3.367
X5.667Y-3.447
X5.677Y-3.177
X5.717Y-2.897
X5.717Y-2.987
X5.737Y-3.137
X5.737Y-3.727
X5.747Y-3.447
X5.817Y-2.897
X5.817Y-2.987
X5.817Y-3.3204
X5.837Y-3.037
X5.837Y-3.237
X5.837Y-3.437
X5.837Y-3.637
X5.837Y-3.727
X5.917Y-2.897
X5.917Y-2.987
X5.947Y-3.317
X5.947Y-3.727
X5.947Y-3.837
X5.947Y-3.917
X6.017Y-2.897
X6.037Y-3.037
X6.037Y-3.237
X6.037Y-3.437
X6.037Y-3.637
X6.037Y-3.837
X6.037Y-3.917
X6.0459Y-3.3204
X6.117Y-2.807
X6.117Y-2.897
X6.126Y-3.3209
X6.137Y-3.917
X6.2059Y-3.3204
X6.217Y-2.897
X6.237Y-3.037
X6.237Y-3.237
X6.237Y-3.437
X6.237Y-3.637
X6.237Y-3.837
X6.237Y-3.917
X6.337Y-3.3204
X6.467Y-3.037
X6.467Y-3.137
X6.467Y-3.237
X6.467Y-3.3204
X6.467Y-3.437
X6.467Y-3.537
X6.467Y-3.637
T2
X4.897Y-3.357
X4.8974Y-3.7074
X5.237Y-3.367
X5.247Y-3.237
X5.437Y-3.5302
X5.5307Y-3.3531
X5.567Y-3.5302
X5.577Y-3.7074
T3
X4.2665Y-2.8437
X4.2665Y-2.9437
X4.3665Y-2.8437
X4.3665Y-2.9437
X4.4665Y-2.8437
X4.4665Y-2.9437
X4.5665Y-2.8437
X4.5665Y-2.9437
X4.6665Y-2.8437
X4.6665Y-2.9437
X4.7665Y-2.8437
X4.7665Y-2.9437
X4.8665Y-2.8437
X4.8665Y-2.9437
X4.9665Y-2.8437
X4.9665Y-2.9437
X5.0665Y-2.8437
X5.0665Y-2.9437
X5.1665Y-2.8437
X5.1665Y-2.9437
X5.2665Y-2.8437
X5.2665Y-2.9437
X5.3665Y-2.8437
X5.3665Y-2.9437
X5.4665Y-2.8437
X5.4665Y-2.9437
X5.5665Y-2.8437
X5.5665Y-2.9437
X5.6665Y-2.8437
X5.6665Y-2.9437
X5.7665Y-2.8437
X5.7665Y-2.9437
X5.8665Y-2.8437
X5.8665Y-2.9437
X5.9665Y-2.8437
X5.9665Y-2.9437
X6.0665Y-2.8437
X6.0665Y-2.9437
X6.1665Y-2.8437
X6.1665Y-2.9437
M30
