G04 #@! TF.GenerationSoftware,KiCad,Pcbnew,9.0.7*
G04 #@! TF.CreationDate,2026-02-19T11:55:31-06:00*
G04 #@! TF.ProjectId,wireless-uhat-tht-rpi-radio-module-2,77697265-6c65-4737-932d-756861742d74,rev?*
G04 #@! TF.SameCoordinates,Original*
G04 #@! TF.FileFunction,Copper,L1,Top*
G04 #@! TF.FilePolarity,Positive*
%FSLAX46Y46*%
G04 Gerber Fmt 4.6, Leading zero omitted, Abs format (unit mm)*
G04 Created by KiCad (PCBNEW 9.0.7) date 2026-02-19 11:55:31*
%MOMM*%
%LPD*%
G01*
G04 APERTURE LIST*
G04 Aperture macros list*
%AMRoundRect*
0 Rectangle with rounded corners*
0 $1 Rounding radius*
0 $2 $3 $4 $5 $6 $7 $8 $9 X,Y pos of 4 corners*
0 Add a 4 corners polygon primitive as box body*
4,1,4,$2,$3,$4,$5,$6,$7,$8,$9,$2,$3,0*
0 Add four circle primitives for the rounded corners*
1,1,$1+$1,$2,$3*
1,1,$1+$1,$4,$5*
1,1,$1+$1,$6,$7*
1,1,$1+$1,$8,$9*
0 Add four rect primitives between the rounded corners*
20,1,$1+$1,$2,$3,$4,$5,0*
20,1,$1+$1,$4,$5,$6,$7,0*
20,1,$1+$1,$6,$7,$8,$9,0*
20,1,$1+$1,$8,$9,$2,$3,0*%
G04 Aperture macros list end*
%ADD10C,0.100000*%
%ADD11C,0.150000*%
%ADD12C,0.300000*%
%ADD13C,0.400000*%
G04 #@! TA.AperFunction,SMDPad,CuDef*
%ADD14RoundRect,0.200000X-0.200000X0.200000X-0.200000X-0.200000X0.200000X-0.200000X0.200000X0.200000X0*%
G04 #@! TD*
G04 #@! TA.AperFunction,SMDPad,CuDef*
%ADD15RoundRect,0.250000X0.262500X0.450000X-0.262500X0.450000X-0.262500X-0.450000X0.262500X-0.450000X0*%
G04 #@! TD*
G04 #@! TA.AperFunction,SMDPad,CuDef*
%ADD16RoundRect,0.250000X-0.262500X-0.450000X0.262500X-0.450000X0.262500X0.450000X-0.262500X0.450000X0*%
G04 #@! TD*
G04 #@! TA.AperFunction,SMDPad,CuDef*
%ADD17R,2.000000X1.000000*%
G04 #@! TD*
G04 #@! TA.AperFunction,SMDPad,CuDef*
%ADD18R,1.000000X2.000000*%
G04 #@! TD*
G04 #@! TA.AperFunction,SMDPad,CuDef*
%ADD19RoundRect,0.250000X0.450000X-0.262500X0.450000X0.262500X-0.450000X0.262500X-0.450000X-0.262500X0*%
G04 #@! TD*
G04 #@! TA.AperFunction,SMDPad,CuDef*
%ADD20RoundRect,0.237500X-0.237500X0.287500X-0.237500X-0.287500X0.237500X-0.287500X0.237500X0.287500X0*%
G04 #@! TD*
G04 #@! TA.AperFunction,ComponentPad*
%ADD21R,1.700000X1.700000*%
G04 #@! TD*
G04 #@! TA.AperFunction,ComponentPad*
%ADD22C,1.700000*%
G04 #@! TD*
G04 #@! TA.AperFunction,ViaPad*
%ADD23C,0.508000*%
G04 #@! TD*
G04 #@! TA.AperFunction,ViaPad*
%ADD24C,0.634000*%
G04 #@! TD*
G04 #@! TA.AperFunction,Conductor*
%ADD25C,0.800000*%
G04 #@! TD*
G04 #@! TA.AperFunction,Conductor*
%ADD26C,0.300000*%
G04 #@! TD*
G04 #@! TA.AperFunction,Conductor*
%ADD27C,0.600000*%
G04 #@! TD*
G04 APERTURE END LIST*
D10*
D11*
X299989000Y-253002200D02*
X407989000Y-253002200D01*
X407989000Y-285002200D01*
X299989000Y-285002200D01*
X299989000Y-253002200D01*
D10*
D11*
X10000000Y-10000000D02*
X409989000Y-10000000D01*
X409989000Y-287002200D01*
X10000000Y-287002200D01*
X10000000Y-10000000D01*
D10*
D11*
X12000000Y-12000000D02*
X407989000Y-12000000D01*
X407989000Y-285002200D01*
X12000000Y-285002200D01*
X12000000Y-12000000D01*
D10*
D11*
X60000000Y-12000000D02*
X60000000Y-10000000D01*
D10*
D11*
X110000000Y-12000000D02*
X110000000Y-10000000D01*
D10*
D11*
X160000000Y-12000000D02*
X160000000Y-10000000D01*
D10*
D11*
X210000000Y-12000000D02*
X210000000Y-10000000D01*
D10*
D11*
X260000000Y-12000000D02*
X260000000Y-10000000D01*
D10*
D11*
X310000000Y-12000000D02*
X310000000Y-10000000D01*
D10*
D11*
X360000000Y-12000000D02*
X360000000Y-10000000D01*
D10*
D11*
X36089160Y-11593604D02*
X35346303Y-11593604D01*
X35717731Y-11593604D02*
X35717731Y-10293604D01*
X35717731Y-10293604D02*
X35593922Y-10479319D01*
X35593922Y-10479319D02*
X35470112Y-10603128D01*
X35470112Y-10603128D02*
X35346303Y-10665033D01*
D10*
D11*
X85346303Y-10417414D02*
X85408207Y-10355509D01*
X85408207Y-10355509D02*
X85532017Y-10293604D01*
X85532017Y-10293604D02*
X85841541Y-10293604D01*
X85841541Y-10293604D02*
X85965350Y-10355509D01*
X85965350Y-10355509D02*
X86027255Y-10417414D01*
X86027255Y-10417414D02*
X86089160Y-10541223D01*
X86089160Y-10541223D02*
X86089160Y-10665033D01*
X86089160Y-10665033D02*
X86027255Y-10850747D01*
X86027255Y-10850747D02*
X85284398Y-11593604D01*
X85284398Y-11593604D02*
X86089160Y-11593604D01*
D10*
D11*
X135284398Y-10293604D02*
X136089160Y-10293604D01*
X136089160Y-10293604D02*
X135655826Y-10788842D01*
X135655826Y-10788842D02*
X135841541Y-10788842D01*
X135841541Y-10788842D02*
X135965350Y-10850747D01*
X135965350Y-10850747D02*
X136027255Y-10912652D01*
X136027255Y-10912652D02*
X136089160Y-11036461D01*
X136089160Y-11036461D02*
X136089160Y-11345985D01*
X136089160Y-11345985D02*
X136027255Y-11469795D01*
X136027255Y-11469795D02*
X135965350Y-11531700D01*
X135965350Y-11531700D02*
X135841541Y-11593604D01*
X135841541Y-11593604D02*
X135470112Y-11593604D01*
X135470112Y-11593604D02*
X135346303Y-11531700D01*
X135346303Y-11531700D02*
X135284398Y-11469795D01*
D10*
D11*
X185965350Y-10726938D02*
X185965350Y-11593604D01*
X185655826Y-10231700D02*
X185346303Y-11160271D01*
X185346303Y-11160271D02*
X186151064Y-11160271D01*
D10*
D11*
X236027255Y-10293604D02*
X235408207Y-10293604D01*
X235408207Y-10293604D02*
X235346303Y-10912652D01*
X235346303Y-10912652D02*
X235408207Y-10850747D01*
X235408207Y-10850747D02*
X235532017Y-10788842D01*
X235532017Y-10788842D02*
X235841541Y-10788842D01*
X235841541Y-10788842D02*
X235965350Y-10850747D01*
X235965350Y-10850747D02*
X236027255Y-10912652D01*
X236027255Y-10912652D02*
X236089160Y-11036461D01*
X236089160Y-11036461D02*
X236089160Y-11345985D01*
X236089160Y-11345985D02*
X236027255Y-11469795D01*
X236027255Y-11469795D02*
X235965350Y-11531700D01*
X235965350Y-11531700D02*
X235841541Y-11593604D01*
X235841541Y-11593604D02*
X235532017Y-11593604D01*
X235532017Y-11593604D02*
X235408207Y-11531700D01*
X235408207Y-11531700D02*
X235346303Y-11469795D01*
D10*
D11*
X285965350Y-10293604D02*
X285717731Y-10293604D01*
X285717731Y-10293604D02*
X285593922Y-10355509D01*
X285593922Y-10355509D02*
X285532017Y-10417414D01*
X285532017Y-10417414D02*
X285408207Y-10603128D01*
X285408207Y-10603128D02*
X285346303Y-10850747D01*
X285346303Y-10850747D02*
X285346303Y-11345985D01*
X285346303Y-11345985D02*
X285408207Y-11469795D01*
X285408207Y-11469795D02*
X285470112Y-11531700D01*
X285470112Y-11531700D02*
X285593922Y-11593604D01*
X285593922Y-11593604D02*
X285841541Y-11593604D01*
X285841541Y-11593604D02*
X285965350Y-11531700D01*
X285965350Y-11531700D02*
X286027255Y-11469795D01*
X286027255Y-11469795D02*
X286089160Y-11345985D01*
X286089160Y-11345985D02*
X286089160Y-11036461D01*
X286089160Y-11036461D02*
X286027255Y-10912652D01*
X286027255Y-10912652D02*
X285965350Y-10850747D01*
X285965350Y-10850747D02*
X285841541Y-10788842D01*
X285841541Y-10788842D02*
X285593922Y-10788842D01*
X285593922Y-10788842D02*
X285470112Y-10850747D01*
X285470112Y-10850747D02*
X285408207Y-10912652D01*
X285408207Y-10912652D02*
X285346303Y-11036461D01*
D10*
D11*
X335284398Y-10293604D02*
X336151064Y-10293604D01*
X336151064Y-10293604D02*
X335593922Y-11593604D01*
D10*
D11*
X385593922Y-10850747D02*
X385470112Y-10788842D01*
X385470112Y-10788842D02*
X385408207Y-10726938D01*
X385408207Y-10726938D02*
X385346303Y-10603128D01*
X385346303Y-10603128D02*
X385346303Y-10541223D01*
X385346303Y-10541223D02*
X385408207Y-10417414D01*
X385408207Y-10417414D02*
X385470112Y-10355509D01*
X385470112Y-10355509D02*
X385593922Y-10293604D01*
X385593922Y-10293604D02*
X385841541Y-10293604D01*
X385841541Y-10293604D02*
X385965350Y-10355509D01*
X385965350Y-10355509D02*
X386027255Y-10417414D01*
X386027255Y-10417414D02*
X386089160Y-10541223D01*
X386089160Y-10541223D02*
X386089160Y-10603128D01*
X386089160Y-10603128D02*
X386027255Y-10726938D01*
X386027255Y-10726938D02*
X385965350Y-10788842D01*
X385965350Y-10788842D02*
X385841541Y-10850747D01*
X385841541Y-10850747D02*
X385593922Y-10850747D01*
X385593922Y-10850747D02*
X385470112Y-10912652D01*
X385470112Y-10912652D02*
X385408207Y-10974557D01*
X385408207Y-10974557D02*
X385346303Y-11098366D01*
X385346303Y-11098366D02*
X385346303Y-11345985D01*
X385346303Y-11345985D02*
X385408207Y-11469795D01*
X385408207Y-11469795D02*
X385470112Y-11531700D01*
X385470112Y-11531700D02*
X385593922Y-11593604D01*
X385593922Y-11593604D02*
X385841541Y-11593604D01*
X385841541Y-11593604D02*
X385965350Y-11531700D01*
X385965350Y-11531700D02*
X386027255Y-11469795D01*
X386027255Y-11469795D02*
X386089160Y-11345985D01*
X386089160Y-11345985D02*
X386089160Y-11098366D01*
X386089160Y-11098366D02*
X386027255Y-10974557D01*
X386027255Y-10974557D02*
X385965350Y-10912652D01*
X385965350Y-10912652D02*
X385841541Y-10850747D01*
D10*
D11*
X60000000Y-285002200D02*
X60000000Y-287002200D01*
D10*
D11*
X110000000Y-285002200D02*
X110000000Y-287002200D01*
D10*
D11*
X160000000Y-285002200D02*
X160000000Y-287002200D01*
D10*
D11*
X210000000Y-285002200D02*
X210000000Y-287002200D01*
D10*
D11*
X260000000Y-285002200D02*
X260000000Y-287002200D01*
D10*
D11*
X310000000Y-285002200D02*
X310000000Y-287002200D01*
D10*
D11*
X360000000Y-285002200D02*
X360000000Y-287002200D01*
D10*
D11*
X36089160Y-286595804D02*
X35346303Y-286595804D01*
X35717731Y-286595804D02*
X35717731Y-285295804D01*
X35717731Y-285295804D02*
X35593922Y-285481519D01*
X35593922Y-285481519D02*
X35470112Y-285605328D01*
X35470112Y-285605328D02*
X35346303Y-285667233D01*
D10*
D11*
X85346303Y-285419614D02*
X85408207Y-285357709D01*
X85408207Y-285357709D02*
X85532017Y-285295804D01*
X85532017Y-285295804D02*
X85841541Y-285295804D01*
X85841541Y-285295804D02*
X85965350Y-285357709D01*
X85965350Y-285357709D02*
X86027255Y-285419614D01*
X86027255Y-285419614D02*
X86089160Y-285543423D01*
X86089160Y-285543423D02*
X86089160Y-285667233D01*
X86089160Y-285667233D02*
X86027255Y-285852947D01*
X86027255Y-285852947D02*
X85284398Y-286595804D01*
X85284398Y-286595804D02*
X86089160Y-286595804D01*
D10*
D11*
X135284398Y-285295804D02*
X136089160Y-285295804D01*
X136089160Y-285295804D02*
X135655826Y-285791042D01*
X135655826Y-285791042D02*
X135841541Y-285791042D01*
X135841541Y-285791042D02*
X135965350Y-285852947D01*
X135965350Y-285852947D02*
X136027255Y-285914852D01*
X136027255Y-285914852D02*
X136089160Y-286038661D01*
X136089160Y-286038661D02*
X136089160Y-286348185D01*
X136089160Y-286348185D02*
X136027255Y-286471995D01*
X136027255Y-286471995D02*
X135965350Y-286533900D01*
X135965350Y-286533900D02*
X135841541Y-286595804D01*
X135841541Y-286595804D02*
X135470112Y-286595804D01*
X135470112Y-286595804D02*
X135346303Y-286533900D01*
X135346303Y-286533900D02*
X135284398Y-286471995D01*
D10*
D11*
X185965350Y-285729138D02*
X185965350Y-286595804D01*
X185655826Y-285233900D02*
X185346303Y-286162471D01*
X185346303Y-286162471D02*
X186151064Y-286162471D01*
D10*
D11*
X236027255Y-285295804D02*
X235408207Y-285295804D01*
X235408207Y-285295804D02*
X235346303Y-285914852D01*
X235346303Y-285914852D02*
X235408207Y-285852947D01*
X235408207Y-285852947D02*
X235532017Y-285791042D01*
X235532017Y-285791042D02*
X235841541Y-285791042D01*
X235841541Y-285791042D02*
X235965350Y-285852947D01*
X235965350Y-285852947D02*
X236027255Y-285914852D01*
X236027255Y-285914852D02*
X236089160Y-286038661D01*
X236089160Y-286038661D02*
X236089160Y-286348185D01*
X236089160Y-286348185D02*
X236027255Y-286471995D01*
X236027255Y-286471995D02*
X235965350Y-286533900D01*
X235965350Y-286533900D02*
X235841541Y-286595804D01*
X235841541Y-286595804D02*
X235532017Y-286595804D01*
X235532017Y-286595804D02*
X235408207Y-286533900D01*
X235408207Y-286533900D02*
X235346303Y-286471995D01*
D10*
D11*
X285965350Y-285295804D02*
X285717731Y-285295804D01*
X285717731Y-285295804D02*
X285593922Y-285357709D01*
X285593922Y-285357709D02*
X285532017Y-285419614D01*
X285532017Y-285419614D02*
X285408207Y-285605328D01*
X285408207Y-285605328D02*
X285346303Y-285852947D01*
X285346303Y-285852947D02*
X285346303Y-286348185D01*
X285346303Y-286348185D02*
X285408207Y-286471995D01*
X285408207Y-286471995D02*
X285470112Y-286533900D01*
X285470112Y-286533900D02*
X285593922Y-286595804D01*
X285593922Y-286595804D02*
X285841541Y-286595804D01*
X285841541Y-286595804D02*
X285965350Y-286533900D01*
X285965350Y-286533900D02*
X286027255Y-286471995D01*
X286027255Y-286471995D02*
X286089160Y-286348185D01*
X286089160Y-286348185D02*
X286089160Y-286038661D01*
X286089160Y-286038661D02*
X286027255Y-285914852D01*
X286027255Y-285914852D02*
X285965350Y-285852947D01*
X285965350Y-285852947D02*
X285841541Y-285791042D01*
X285841541Y-285791042D02*
X285593922Y-285791042D01*
X285593922Y-285791042D02*
X285470112Y-285852947D01*
X285470112Y-285852947D02*
X285408207Y-285914852D01*
X285408207Y-285914852D02*
X285346303Y-286038661D01*
D10*
D11*
X335284398Y-285295804D02*
X336151064Y-285295804D01*
X336151064Y-285295804D02*
X335593922Y-286595804D01*
D10*
D11*
X385593922Y-285852947D02*
X385470112Y-285791042D01*
X385470112Y-285791042D02*
X385408207Y-285729138D01*
X385408207Y-285729138D02*
X385346303Y-285605328D01*
X385346303Y-285605328D02*
X385346303Y-285543423D01*
X385346303Y-285543423D02*
X385408207Y-285419614D01*
X385408207Y-285419614D02*
X385470112Y-285357709D01*
X385470112Y-285357709D02*
X385593922Y-285295804D01*
X385593922Y-285295804D02*
X385841541Y-285295804D01*
X385841541Y-285295804D02*
X385965350Y-285357709D01*
X385965350Y-285357709D02*
X386027255Y-285419614D01*
X386027255Y-285419614D02*
X386089160Y-285543423D01*
X386089160Y-285543423D02*
X386089160Y-285605328D01*
X386089160Y-285605328D02*
X386027255Y-285729138D01*
X386027255Y-285729138D02*
X385965350Y-285791042D01*
X385965350Y-285791042D02*
X385841541Y-285852947D01*
X385841541Y-285852947D02*
X385593922Y-285852947D01*
X385593922Y-285852947D02*
X385470112Y-285914852D01*
X385470112Y-285914852D02*
X385408207Y-285976757D01*
X385408207Y-285976757D02*
X385346303Y-286100566D01*
X385346303Y-286100566D02*
X385346303Y-286348185D01*
X385346303Y-286348185D02*
X385408207Y-286471995D01*
X385408207Y-286471995D02*
X385470112Y-286533900D01*
X385470112Y-286533900D02*
X385593922Y-286595804D01*
X385593922Y-286595804D02*
X385841541Y-286595804D01*
X385841541Y-286595804D02*
X385965350Y-286533900D01*
X385965350Y-286533900D02*
X386027255Y-286471995D01*
X386027255Y-286471995D02*
X386089160Y-286348185D01*
X386089160Y-286348185D02*
X386089160Y-286100566D01*
X386089160Y-286100566D02*
X386027255Y-285976757D01*
X386027255Y-285976757D02*
X385965350Y-285914852D01*
X385965350Y-285914852D02*
X385841541Y-285852947D01*
D10*
D11*
X10000000Y-60000000D02*
X12000000Y-60000000D01*
D10*
D11*
X10000000Y-110000000D02*
X12000000Y-110000000D01*
D10*
D11*
X10000000Y-160000000D02*
X12000000Y-160000000D01*
D10*
D11*
X10000000Y-210000000D02*
X12000000Y-210000000D01*
D10*
D11*
X10000000Y-260000000D02*
X12000000Y-260000000D01*
D10*
D11*
X10690476Y-35222176D02*
X11309523Y-35222176D01*
X10566666Y-35593604D02*
X10999999Y-34293604D01*
X10999999Y-34293604D02*
X11433333Y-35593604D01*
D10*
D11*
X11092857Y-84912652D02*
X11278571Y-84974557D01*
X11278571Y-84974557D02*
X11340476Y-85036461D01*
X11340476Y-85036461D02*
X11402380Y-85160271D01*
X11402380Y-85160271D02*
X11402380Y-85345985D01*
X11402380Y-85345985D02*
X11340476Y-85469795D01*
X11340476Y-85469795D02*
X11278571Y-85531700D01*
X11278571Y-85531700D02*
X11154761Y-85593604D01*
X11154761Y-85593604D02*
X10659523Y-85593604D01*
X10659523Y-85593604D02*
X10659523Y-84293604D01*
X10659523Y-84293604D02*
X11092857Y-84293604D01*
X11092857Y-84293604D02*
X11216666Y-84355509D01*
X11216666Y-84355509D02*
X11278571Y-84417414D01*
X11278571Y-84417414D02*
X11340476Y-84541223D01*
X11340476Y-84541223D02*
X11340476Y-84665033D01*
X11340476Y-84665033D02*
X11278571Y-84788842D01*
X11278571Y-84788842D02*
X11216666Y-84850747D01*
X11216666Y-84850747D02*
X11092857Y-84912652D01*
X11092857Y-84912652D02*
X10659523Y-84912652D01*
D10*
D11*
X11402380Y-135469795D02*
X11340476Y-135531700D01*
X11340476Y-135531700D02*
X11154761Y-135593604D01*
X11154761Y-135593604D02*
X11030952Y-135593604D01*
X11030952Y-135593604D02*
X10845238Y-135531700D01*
X10845238Y-135531700D02*
X10721428Y-135407890D01*
X10721428Y-135407890D02*
X10659523Y-135284080D01*
X10659523Y-135284080D02*
X10597619Y-135036461D01*
X10597619Y-135036461D02*
X10597619Y-134850747D01*
X10597619Y-134850747D02*
X10659523Y-134603128D01*
X10659523Y-134603128D02*
X10721428Y-134479319D01*
X10721428Y-134479319D02*
X10845238Y-134355509D01*
X10845238Y-134355509D02*
X11030952Y-134293604D01*
X11030952Y-134293604D02*
X11154761Y-134293604D01*
X11154761Y-134293604D02*
X11340476Y-134355509D01*
X11340476Y-134355509D02*
X11402380Y-134417414D01*
D10*
D11*
X10659523Y-185593604D02*
X10659523Y-184293604D01*
X10659523Y-184293604D02*
X10969047Y-184293604D01*
X10969047Y-184293604D02*
X11154761Y-184355509D01*
X11154761Y-184355509D02*
X11278571Y-184479319D01*
X11278571Y-184479319D02*
X11340476Y-184603128D01*
X11340476Y-184603128D02*
X11402380Y-184850747D01*
X11402380Y-184850747D02*
X11402380Y-185036461D01*
X11402380Y-185036461D02*
X11340476Y-185284080D01*
X11340476Y-185284080D02*
X11278571Y-185407890D01*
X11278571Y-185407890D02*
X11154761Y-185531700D01*
X11154761Y-185531700D02*
X10969047Y-185593604D01*
X10969047Y-185593604D02*
X10659523Y-185593604D01*
D10*
D11*
X10721428Y-234912652D02*
X11154762Y-234912652D01*
X11340476Y-235593604D02*
X10721428Y-235593604D01*
X10721428Y-235593604D02*
X10721428Y-234293604D01*
X10721428Y-234293604D02*
X11340476Y-234293604D01*
D10*
D11*
X11185714Y-284912652D02*
X10752380Y-284912652D01*
X10752380Y-285593604D02*
X10752380Y-284293604D01*
X10752380Y-284293604D02*
X11371428Y-284293604D01*
D10*
D11*
X409989000Y-60000000D02*
X407989000Y-60000000D01*
D10*
D11*
X409989000Y-110000000D02*
X407989000Y-110000000D01*
D10*
D11*
X409989000Y-160000000D02*
X407989000Y-160000000D01*
D10*
D11*
X409989000Y-210000000D02*
X407989000Y-210000000D01*
D10*
D11*
X409989000Y-260000000D02*
X407989000Y-260000000D01*
D10*
D11*
X408679476Y-35222176D02*
X409298523Y-35222176D01*
X408555666Y-35593604D02*
X408988999Y-34293604D01*
X408988999Y-34293604D02*
X409422333Y-35593604D01*
D10*
D11*
X409081857Y-84912652D02*
X409267571Y-84974557D01*
X409267571Y-84974557D02*
X409329476Y-85036461D01*
X409329476Y-85036461D02*
X409391380Y-85160271D01*
X409391380Y-85160271D02*
X409391380Y-85345985D01*
X409391380Y-85345985D02*
X409329476Y-85469795D01*
X409329476Y-85469795D02*
X409267571Y-85531700D01*
X409267571Y-85531700D02*
X409143761Y-85593604D01*
X409143761Y-85593604D02*
X408648523Y-85593604D01*
X408648523Y-85593604D02*
X408648523Y-84293604D01*
X408648523Y-84293604D02*
X409081857Y-84293604D01*
X409081857Y-84293604D02*
X409205666Y-84355509D01*
X409205666Y-84355509D02*
X409267571Y-84417414D01*
X409267571Y-84417414D02*
X409329476Y-84541223D01*
X409329476Y-84541223D02*
X409329476Y-84665033D01*
X409329476Y-84665033D02*
X409267571Y-84788842D01*
X409267571Y-84788842D02*
X409205666Y-84850747D01*
X409205666Y-84850747D02*
X409081857Y-84912652D01*
X409081857Y-84912652D02*
X408648523Y-84912652D01*
D10*
D11*
X409391380Y-135469795D02*
X409329476Y-135531700D01*
X409329476Y-135531700D02*
X409143761Y-135593604D01*
X409143761Y-135593604D02*
X409019952Y-135593604D01*
X409019952Y-135593604D02*
X408834238Y-135531700D01*
X408834238Y-135531700D02*
X408710428Y-135407890D01*
X408710428Y-135407890D02*
X408648523Y-135284080D01*
X408648523Y-135284080D02*
X408586619Y-135036461D01*
X408586619Y-135036461D02*
X408586619Y-134850747D01*
X408586619Y-134850747D02*
X408648523Y-134603128D01*
X408648523Y-134603128D02*
X408710428Y-134479319D01*
X408710428Y-134479319D02*
X408834238Y-134355509D01*
X408834238Y-134355509D02*
X409019952Y-134293604D01*
X409019952Y-134293604D02*
X409143761Y-134293604D01*
X409143761Y-134293604D02*
X409329476Y-134355509D01*
X409329476Y-134355509D02*
X409391380Y-134417414D01*
D10*
D11*
X408648523Y-185593604D02*
X408648523Y-184293604D01*
X408648523Y-184293604D02*
X408958047Y-184293604D01*
X408958047Y-184293604D02*
X409143761Y-184355509D01*
X409143761Y-184355509D02*
X409267571Y-184479319D01*
X409267571Y-184479319D02*
X409329476Y-184603128D01*
X409329476Y-184603128D02*
X409391380Y-184850747D01*
X409391380Y-184850747D02*
X409391380Y-185036461D01*
X409391380Y-185036461D02*
X409329476Y-185284080D01*
X409329476Y-185284080D02*
X409267571Y-185407890D01*
X409267571Y-185407890D02*
X409143761Y-185531700D01*
X409143761Y-185531700D02*
X408958047Y-185593604D01*
X408958047Y-185593604D02*
X408648523Y-185593604D01*
D10*
D11*
X408710428Y-234912652D02*
X409143762Y-234912652D01*
X409329476Y-235593604D02*
X408710428Y-235593604D01*
X408710428Y-235593604D02*
X408710428Y-234293604D01*
X408710428Y-234293604D02*
X409329476Y-234293604D01*
D10*
D11*
X409174714Y-284912652D02*
X408741380Y-284912652D01*
X408741380Y-285593604D02*
X408741380Y-284293604D01*
X408741380Y-284293604D02*
X409360428Y-284293604D01*
D10*
D11*
X323444826Y-280788328D02*
X323444826Y-279288328D01*
X323444826Y-279288328D02*
X323801969Y-279288328D01*
X323801969Y-279288328D02*
X324016255Y-279359757D01*
X324016255Y-279359757D02*
X324159112Y-279502614D01*
X324159112Y-279502614D02*
X324230541Y-279645471D01*
X324230541Y-279645471D02*
X324301969Y-279931185D01*
X324301969Y-279931185D02*
X324301969Y-280145471D01*
X324301969Y-280145471D02*
X324230541Y-280431185D01*
X324230541Y-280431185D02*
X324159112Y-280574042D01*
X324159112Y-280574042D02*
X324016255Y-280716900D01*
X324016255Y-280716900D02*
X323801969Y-280788328D01*
X323801969Y-280788328D02*
X323444826Y-280788328D01*
X325587684Y-280788328D02*
X325587684Y-280002614D01*
X325587684Y-280002614D02*
X325516255Y-279859757D01*
X325516255Y-279859757D02*
X325373398Y-279788328D01*
X325373398Y-279788328D02*
X325087684Y-279788328D01*
X325087684Y-279788328D02*
X324944826Y-279859757D01*
X325587684Y-280716900D02*
X325444826Y-280788328D01*
X325444826Y-280788328D02*
X325087684Y-280788328D01*
X325087684Y-280788328D02*
X324944826Y-280716900D01*
X324944826Y-280716900D02*
X324873398Y-280574042D01*
X324873398Y-280574042D02*
X324873398Y-280431185D01*
X324873398Y-280431185D02*
X324944826Y-280288328D01*
X324944826Y-280288328D02*
X325087684Y-280216900D01*
X325087684Y-280216900D02*
X325444826Y-280216900D01*
X325444826Y-280216900D02*
X325587684Y-280145471D01*
X326087684Y-279788328D02*
X326659112Y-279788328D01*
X326301969Y-279288328D02*
X326301969Y-280574042D01*
X326301969Y-280574042D02*
X326373398Y-280716900D01*
X326373398Y-280716900D02*
X326516255Y-280788328D01*
X326516255Y-280788328D02*
X326659112Y-280788328D01*
X327730541Y-280716900D02*
X327587684Y-280788328D01*
X327587684Y-280788328D02*
X327301970Y-280788328D01*
X327301970Y-280788328D02*
X327159112Y-280716900D01*
X327159112Y-280716900D02*
X327087684Y-280574042D01*
X327087684Y-280574042D02*
X327087684Y-280002614D01*
X327087684Y-280002614D02*
X327159112Y-279859757D01*
X327159112Y-279859757D02*
X327301970Y-279788328D01*
X327301970Y-279788328D02*
X327587684Y-279788328D01*
X327587684Y-279788328D02*
X327730541Y-279859757D01*
X327730541Y-279859757D02*
X327801970Y-280002614D01*
X327801970Y-280002614D02*
X327801970Y-280145471D01*
X327801970Y-280145471D02*
X327087684Y-280288328D01*
X328444826Y-280645471D02*
X328516255Y-280716900D01*
X328516255Y-280716900D02*
X328444826Y-280788328D01*
X328444826Y-280788328D02*
X328373398Y-280716900D01*
X328373398Y-280716900D02*
X328444826Y-280645471D01*
X328444826Y-280645471D02*
X328444826Y-280788328D01*
X328444826Y-279859757D02*
X328516255Y-279931185D01*
X328516255Y-279931185D02*
X328444826Y-280002614D01*
X328444826Y-280002614D02*
X328373398Y-279931185D01*
X328373398Y-279931185D02*
X328444826Y-279859757D01*
X328444826Y-279859757D02*
X328444826Y-280002614D01*
X331087684Y-280788328D02*
X330230541Y-280788328D01*
X330659112Y-280788328D02*
X330659112Y-279288328D01*
X330659112Y-279288328D02*
X330516255Y-279502614D01*
X330516255Y-279502614D02*
X330373398Y-279645471D01*
X330373398Y-279645471D02*
X330230541Y-279716900D01*
X332444826Y-279288328D02*
X331730540Y-279288328D01*
X331730540Y-279288328D02*
X331659112Y-280002614D01*
X331659112Y-280002614D02*
X331730540Y-279931185D01*
X331730540Y-279931185D02*
X331873398Y-279859757D01*
X331873398Y-279859757D02*
X332230540Y-279859757D01*
X332230540Y-279859757D02*
X332373398Y-279931185D01*
X332373398Y-279931185D02*
X332444826Y-280002614D01*
X332444826Y-280002614D02*
X332516255Y-280145471D01*
X332516255Y-280145471D02*
X332516255Y-280502614D01*
X332516255Y-280502614D02*
X332444826Y-280645471D01*
X332444826Y-280645471D02*
X332373398Y-280716900D01*
X332373398Y-280716900D02*
X332230540Y-280788328D01*
X332230540Y-280788328D02*
X331873398Y-280788328D01*
X331873398Y-280788328D02*
X331730540Y-280716900D01*
X331730540Y-280716900D02*
X331659112Y-280645471D01*
X334301968Y-279788328D02*
X334301968Y-280788328D01*
X334301968Y-279931185D02*
X334373397Y-279859757D01*
X334373397Y-279859757D02*
X334516254Y-279788328D01*
X334516254Y-279788328D02*
X334730540Y-279788328D01*
X334730540Y-279788328D02*
X334873397Y-279859757D01*
X334873397Y-279859757D02*
X334944826Y-280002614D01*
X334944826Y-280002614D02*
X334944826Y-280788328D01*
X335873397Y-280788328D02*
X335730540Y-280716900D01*
X335730540Y-280716900D02*
X335659111Y-280645471D01*
X335659111Y-280645471D02*
X335587683Y-280502614D01*
X335587683Y-280502614D02*
X335587683Y-280074042D01*
X335587683Y-280074042D02*
X335659111Y-279931185D01*
X335659111Y-279931185D02*
X335730540Y-279859757D01*
X335730540Y-279859757D02*
X335873397Y-279788328D01*
X335873397Y-279788328D02*
X336087683Y-279788328D01*
X336087683Y-279788328D02*
X336230540Y-279859757D01*
X336230540Y-279859757D02*
X336301969Y-279931185D01*
X336301969Y-279931185D02*
X336373397Y-280074042D01*
X336373397Y-280074042D02*
X336373397Y-280502614D01*
X336373397Y-280502614D02*
X336301969Y-280645471D01*
X336301969Y-280645471D02*
X336230540Y-280716900D01*
X336230540Y-280716900D02*
X336087683Y-280788328D01*
X336087683Y-280788328D02*
X335873397Y-280788328D01*
X336873397Y-279788328D02*
X337230540Y-280788328D01*
X337230540Y-280788328D02*
X337587683Y-279788328D01*
X339230540Y-279431185D02*
X339301968Y-279359757D01*
X339301968Y-279359757D02*
X339444826Y-279288328D01*
X339444826Y-279288328D02*
X339801968Y-279288328D01*
X339801968Y-279288328D02*
X339944826Y-279359757D01*
X339944826Y-279359757D02*
X340016254Y-279431185D01*
X340016254Y-279431185D02*
X340087683Y-279574042D01*
X340087683Y-279574042D02*
X340087683Y-279716900D01*
X340087683Y-279716900D02*
X340016254Y-279931185D01*
X340016254Y-279931185D02*
X339159111Y-280788328D01*
X339159111Y-280788328D02*
X340087683Y-280788328D01*
X341016254Y-279288328D02*
X341159111Y-279288328D01*
X341159111Y-279288328D02*
X341301968Y-279359757D01*
X341301968Y-279359757D02*
X341373397Y-279431185D01*
X341373397Y-279431185D02*
X341444825Y-279574042D01*
X341444825Y-279574042D02*
X341516254Y-279859757D01*
X341516254Y-279859757D02*
X341516254Y-280216900D01*
X341516254Y-280216900D02*
X341444825Y-280502614D01*
X341444825Y-280502614D02*
X341373397Y-280645471D01*
X341373397Y-280645471D02*
X341301968Y-280716900D01*
X341301968Y-280716900D02*
X341159111Y-280788328D01*
X341159111Y-280788328D02*
X341016254Y-280788328D01*
X341016254Y-280788328D02*
X340873397Y-280716900D01*
X340873397Y-280716900D02*
X340801968Y-280645471D01*
X340801968Y-280645471D02*
X340730539Y-280502614D01*
X340730539Y-280502614D02*
X340659111Y-280216900D01*
X340659111Y-280216900D02*
X340659111Y-279859757D01*
X340659111Y-279859757D02*
X340730539Y-279574042D01*
X340730539Y-279574042D02*
X340801968Y-279431185D01*
X340801968Y-279431185D02*
X340873397Y-279359757D01*
X340873397Y-279359757D02*
X341016254Y-279288328D01*
X342944825Y-280788328D02*
X342087682Y-280788328D01*
X342516253Y-280788328D02*
X342516253Y-279288328D01*
X342516253Y-279288328D02*
X342373396Y-279502614D01*
X342373396Y-279502614D02*
X342230539Y-279645471D01*
X342230539Y-279645471D02*
X342087682Y-279716900D01*
X343516253Y-279431185D02*
X343587681Y-279359757D01*
X343587681Y-279359757D02*
X343730539Y-279288328D01*
X343730539Y-279288328D02*
X344087681Y-279288328D01*
X344087681Y-279288328D02*
X344230539Y-279359757D01*
X344230539Y-279359757D02*
X344301967Y-279431185D01*
X344301967Y-279431185D02*
X344373396Y-279574042D01*
X344373396Y-279574042D02*
X344373396Y-279716900D01*
X344373396Y-279716900D02*
X344301967Y-279931185D01*
X344301967Y-279931185D02*
X343444824Y-280788328D01*
X343444824Y-280788328D02*
X344373396Y-280788328D01*
D10*
D11*
X299989000Y-281502200D02*
X407989000Y-281502200D01*
D10*
D11*
X301444826Y-283588328D02*
X301444826Y-282088328D01*
X302301969Y-283588328D02*
X301659112Y-282731185D01*
X302301969Y-282088328D02*
X301444826Y-282945471D01*
X302944826Y-283588328D02*
X302944826Y-282588328D01*
X302944826Y-282088328D02*
X302873398Y-282159757D01*
X302873398Y-282159757D02*
X302944826Y-282231185D01*
X302944826Y-282231185D02*
X303016255Y-282159757D01*
X303016255Y-282159757D02*
X302944826Y-282088328D01*
X302944826Y-282088328D02*
X302944826Y-282231185D01*
X304516255Y-283445471D02*
X304444827Y-283516900D01*
X304444827Y-283516900D02*
X304230541Y-283588328D01*
X304230541Y-283588328D02*
X304087684Y-283588328D01*
X304087684Y-283588328D02*
X303873398Y-283516900D01*
X303873398Y-283516900D02*
X303730541Y-283374042D01*
X303730541Y-283374042D02*
X303659112Y-283231185D01*
X303659112Y-283231185D02*
X303587684Y-282945471D01*
X303587684Y-282945471D02*
X303587684Y-282731185D01*
X303587684Y-282731185D02*
X303659112Y-282445471D01*
X303659112Y-282445471D02*
X303730541Y-282302614D01*
X303730541Y-282302614D02*
X303873398Y-282159757D01*
X303873398Y-282159757D02*
X304087684Y-282088328D01*
X304087684Y-282088328D02*
X304230541Y-282088328D01*
X304230541Y-282088328D02*
X304444827Y-282159757D01*
X304444827Y-282159757D02*
X304516255Y-282231185D01*
X305801970Y-283588328D02*
X305801970Y-282802614D01*
X305801970Y-282802614D02*
X305730541Y-282659757D01*
X305730541Y-282659757D02*
X305587684Y-282588328D01*
X305587684Y-282588328D02*
X305301970Y-282588328D01*
X305301970Y-282588328D02*
X305159112Y-282659757D01*
X305801970Y-283516900D02*
X305659112Y-283588328D01*
X305659112Y-283588328D02*
X305301970Y-283588328D01*
X305301970Y-283588328D02*
X305159112Y-283516900D01*
X305159112Y-283516900D02*
X305087684Y-283374042D01*
X305087684Y-283374042D02*
X305087684Y-283231185D01*
X305087684Y-283231185D02*
X305159112Y-283088328D01*
X305159112Y-283088328D02*
X305301970Y-283016900D01*
X305301970Y-283016900D02*
X305659112Y-283016900D01*
X305659112Y-283016900D02*
X305801970Y-282945471D01*
X307159113Y-283588328D02*
X307159113Y-282088328D01*
X307159113Y-283516900D02*
X307016255Y-283588328D01*
X307016255Y-283588328D02*
X306730541Y-283588328D01*
X306730541Y-283588328D02*
X306587684Y-283516900D01*
X306587684Y-283516900D02*
X306516255Y-283445471D01*
X306516255Y-283445471D02*
X306444827Y-283302614D01*
X306444827Y-283302614D02*
X306444827Y-282874042D01*
X306444827Y-282874042D02*
X306516255Y-282731185D01*
X306516255Y-282731185D02*
X306587684Y-282659757D01*
X306587684Y-282659757D02*
X306730541Y-282588328D01*
X306730541Y-282588328D02*
X307016255Y-282588328D01*
X307016255Y-282588328D02*
X307159113Y-282659757D01*
X309016255Y-282802614D02*
X309516255Y-282802614D01*
X309730541Y-283588328D02*
X309016255Y-283588328D01*
X309016255Y-283588328D02*
X309016255Y-282088328D01*
X309016255Y-282088328D02*
X309730541Y-282088328D01*
X310373398Y-283445471D02*
X310444827Y-283516900D01*
X310444827Y-283516900D02*
X310373398Y-283588328D01*
X310373398Y-283588328D02*
X310301970Y-283516900D01*
X310301970Y-283516900D02*
X310373398Y-283445471D01*
X310373398Y-283445471D02*
X310373398Y-283588328D01*
X311087684Y-283588328D02*
X311087684Y-282088328D01*
X311087684Y-282088328D02*
X311444827Y-282088328D01*
X311444827Y-282088328D02*
X311659113Y-282159757D01*
X311659113Y-282159757D02*
X311801970Y-282302614D01*
X311801970Y-282302614D02*
X311873399Y-282445471D01*
X311873399Y-282445471D02*
X311944827Y-282731185D01*
X311944827Y-282731185D02*
X311944827Y-282945471D01*
X311944827Y-282945471D02*
X311873399Y-283231185D01*
X311873399Y-283231185D02*
X311801970Y-283374042D01*
X311801970Y-283374042D02*
X311659113Y-283516900D01*
X311659113Y-283516900D02*
X311444827Y-283588328D01*
X311444827Y-283588328D02*
X311087684Y-283588328D01*
X312587684Y-283445471D02*
X312659113Y-283516900D01*
X312659113Y-283516900D02*
X312587684Y-283588328D01*
X312587684Y-283588328D02*
X312516256Y-283516900D01*
X312516256Y-283516900D02*
X312587684Y-283445471D01*
X312587684Y-283445471D02*
X312587684Y-283588328D01*
X313230542Y-283159757D02*
X313944828Y-283159757D01*
X313087685Y-283588328D02*
X313587685Y-282088328D01*
X313587685Y-282088328D02*
X314087685Y-283588328D01*
X314587684Y-283445471D02*
X314659113Y-283516900D01*
X314659113Y-283516900D02*
X314587684Y-283588328D01*
X314587684Y-283588328D02*
X314516256Y-283516900D01*
X314516256Y-283516900D02*
X314587684Y-283445471D01*
X314587684Y-283445471D02*
X314587684Y-283588328D01*
X316516256Y-283588328D02*
X316801970Y-283588328D01*
X316801970Y-283588328D02*
X316944827Y-283516900D01*
X316944827Y-283516900D02*
X317016256Y-283445471D01*
X317016256Y-283445471D02*
X317159113Y-283231185D01*
X317159113Y-283231185D02*
X317230542Y-282945471D01*
X317230542Y-282945471D02*
X317230542Y-282374042D01*
X317230542Y-282374042D02*
X317159113Y-282231185D01*
X317159113Y-282231185D02*
X317087685Y-282159757D01*
X317087685Y-282159757D02*
X316944827Y-282088328D01*
X316944827Y-282088328D02*
X316659113Y-282088328D01*
X316659113Y-282088328D02*
X316516256Y-282159757D01*
X316516256Y-282159757D02*
X316444827Y-282231185D01*
X316444827Y-282231185D02*
X316373399Y-282374042D01*
X316373399Y-282374042D02*
X316373399Y-282731185D01*
X316373399Y-282731185D02*
X316444827Y-282874042D01*
X316444827Y-282874042D02*
X316516256Y-282945471D01*
X316516256Y-282945471D02*
X316659113Y-283016900D01*
X316659113Y-283016900D02*
X316944827Y-283016900D01*
X316944827Y-283016900D02*
X317087685Y-282945471D01*
X317087685Y-282945471D02*
X317159113Y-282874042D01*
X317159113Y-282874042D02*
X317230542Y-282731185D01*
X317873398Y-283445471D02*
X317944827Y-283516900D01*
X317944827Y-283516900D02*
X317873398Y-283588328D01*
X317873398Y-283588328D02*
X317801970Y-283516900D01*
X317801970Y-283516900D02*
X317873398Y-283445471D01*
X317873398Y-283445471D02*
X317873398Y-283588328D01*
X318873399Y-282088328D02*
X319016256Y-282088328D01*
X319016256Y-282088328D02*
X319159113Y-282159757D01*
X319159113Y-282159757D02*
X319230542Y-282231185D01*
X319230542Y-282231185D02*
X319301970Y-282374042D01*
X319301970Y-282374042D02*
X319373399Y-282659757D01*
X319373399Y-282659757D02*
X319373399Y-283016900D01*
X319373399Y-283016900D02*
X319301970Y-283302614D01*
X319301970Y-283302614D02*
X319230542Y-283445471D01*
X319230542Y-283445471D02*
X319159113Y-283516900D01*
X319159113Y-283516900D02*
X319016256Y-283588328D01*
X319016256Y-283588328D02*
X318873399Y-283588328D01*
X318873399Y-283588328D02*
X318730542Y-283516900D01*
X318730542Y-283516900D02*
X318659113Y-283445471D01*
X318659113Y-283445471D02*
X318587684Y-283302614D01*
X318587684Y-283302614D02*
X318516256Y-283016900D01*
X318516256Y-283016900D02*
X318516256Y-282659757D01*
X318516256Y-282659757D02*
X318587684Y-282374042D01*
X318587684Y-282374042D02*
X318659113Y-282231185D01*
X318659113Y-282231185D02*
X318730542Y-282159757D01*
X318730542Y-282159757D02*
X318873399Y-282088328D01*
X320016255Y-283445471D02*
X320087684Y-283516900D01*
X320087684Y-283516900D02*
X320016255Y-283588328D01*
X320016255Y-283588328D02*
X319944827Y-283516900D01*
X319944827Y-283516900D02*
X320016255Y-283445471D01*
X320016255Y-283445471D02*
X320016255Y-283588328D01*
X320587684Y-282088328D02*
X321587684Y-282088328D01*
X321587684Y-282088328D02*
X320944827Y-283588328D01*
D10*
D11*
X299989000Y-278502200D02*
X407989000Y-278502200D01*
D10*
D12*
X387400653Y-280780528D02*
X386900653Y-280066242D01*
X386543510Y-280780528D02*
X386543510Y-279280528D01*
X386543510Y-279280528D02*
X387114939Y-279280528D01*
X387114939Y-279280528D02*
X387257796Y-279351957D01*
X387257796Y-279351957D02*
X387329225Y-279423385D01*
X387329225Y-279423385D02*
X387400653Y-279566242D01*
X387400653Y-279566242D02*
X387400653Y-279780528D01*
X387400653Y-279780528D02*
X387329225Y-279923385D01*
X387329225Y-279923385D02*
X387257796Y-279994814D01*
X387257796Y-279994814D02*
X387114939Y-280066242D01*
X387114939Y-280066242D02*
X386543510Y-280066242D01*
X388614939Y-280709100D02*
X388472082Y-280780528D01*
X388472082Y-280780528D02*
X388186368Y-280780528D01*
X388186368Y-280780528D02*
X388043510Y-280709100D01*
X388043510Y-280709100D02*
X387972082Y-280566242D01*
X387972082Y-280566242D02*
X387972082Y-279994814D01*
X387972082Y-279994814D02*
X388043510Y-279851957D01*
X388043510Y-279851957D02*
X388186368Y-279780528D01*
X388186368Y-279780528D02*
X388472082Y-279780528D01*
X388472082Y-279780528D02*
X388614939Y-279851957D01*
X388614939Y-279851957D02*
X388686368Y-279994814D01*
X388686368Y-279994814D02*
X388686368Y-280137671D01*
X388686368Y-280137671D02*
X387972082Y-280280528D01*
X389186367Y-279780528D02*
X389543510Y-280780528D01*
X389543510Y-280780528D02*
X389900653Y-279780528D01*
X390472081Y-280637671D02*
X390543510Y-280709100D01*
X390543510Y-280709100D02*
X390472081Y-280780528D01*
X390472081Y-280780528D02*
X390400653Y-280709100D01*
X390400653Y-280709100D02*
X390472081Y-280637671D01*
X390472081Y-280637671D02*
X390472081Y-280780528D01*
X390472081Y-279851957D02*
X390543510Y-279923385D01*
X390543510Y-279923385D02*
X390472081Y-279994814D01*
X390472081Y-279994814D02*
X390400653Y-279923385D01*
X390400653Y-279923385D02*
X390472081Y-279851957D01*
X390472081Y-279851957D02*
X390472081Y-279994814D01*
D10*
D11*
X301373398Y-280716900D02*
X301587684Y-280788328D01*
X301587684Y-280788328D02*
X301944826Y-280788328D01*
X301944826Y-280788328D02*
X302087684Y-280716900D01*
X302087684Y-280716900D02*
X302159112Y-280645471D01*
X302159112Y-280645471D02*
X302230541Y-280502614D01*
X302230541Y-280502614D02*
X302230541Y-280359757D01*
X302230541Y-280359757D02*
X302159112Y-280216900D01*
X302159112Y-280216900D02*
X302087684Y-280145471D01*
X302087684Y-280145471D02*
X301944826Y-280074042D01*
X301944826Y-280074042D02*
X301659112Y-280002614D01*
X301659112Y-280002614D02*
X301516255Y-279931185D01*
X301516255Y-279931185D02*
X301444826Y-279859757D01*
X301444826Y-279859757D02*
X301373398Y-279716900D01*
X301373398Y-279716900D02*
X301373398Y-279574042D01*
X301373398Y-279574042D02*
X301444826Y-279431185D01*
X301444826Y-279431185D02*
X301516255Y-279359757D01*
X301516255Y-279359757D02*
X301659112Y-279288328D01*
X301659112Y-279288328D02*
X302016255Y-279288328D01*
X302016255Y-279288328D02*
X302230541Y-279359757D01*
X302873397Y-280788328D02*
X302873397Y-279788328D01*
X302873397Y-279288328D02*
X302801969Y-279359757D01*
X302801969Y-279359757D02*
X302873397Y-279431185D01*
X302873397Y-279431185D02*
X302944826Y-279359757D01*
X302944826Y-279359757D02*
X302873397Y-279288328D01*
X302873397Y-279288328D02*
X302873397Y-279431185D01*
X303444826Y-279788328D02*
X304230541Y-279788328D01*
X304230541Y-279788328D02*
X303444826Y-280788328D01*
X303444826Y-280788328D02*
X304230541Y-280788328D01*
X305373398Y-280716900D02*
X305230541Y-280788328D01*
X305230541Y-280788328D02*
X304944827Y-280788328D01*
X304944827Y-280788328D02*
X304801969Y-280716900D01*
X304801969Y-280716900D02*
X304730541Y-280574042D01*
X304730541Y-280574042D02*
X304730541Y-280002614D01*
X304730541Y-280002614D02*
X304801969Y-279859757D01*
X304801969Y-279859757D02*
X304944827Y-279788328D01*
X304944827Y-279788328D02*
X305230541Y-279788328D01*
X305230541Y-279788328D02*
X305373398Y-279859757D01*
X305373398Y-279859757D02*
X305444827Y-280002614D01*
X305444827Y-280002614D02*
X305444827Y-280145471D01*
X305444827Y-280145471D02*
X304730541Y-280288328D01*
X306087683Y-280645471D02*
X306159112Y-280716900D01*
X306159112Y-280716900D02*
X306087683Y-280788328D01*
X306087683Y-280788328D02*
X306016255Y-280716900D01*
X306016255Y-280716900D02*
X306087683Y-280645471D01*
X306087683Y-280645471D02*
X306087683Y-280788328D01*
X306087683Y-279859757D02*
X306159112Y-279931185D01*
X306159112Y-279931185D02*
X306087683Y-280002614D01*
X306087683Y-280002614D02*
X306016255Y-279931185D01*
X306016255Y-279931185D02*
X306087683Y-279859757D01*
X306087683Y-279859757D02*
X306087683Y-280002614D01*
X307873398Y-280359757D02*
X308587684Y-280359757D01*
X307730541Y-280788328D02*
X308230541Y-279288328D01*
X308230541Y-279288328D02*
X308730541Y-280788328D01*
X309087683Y-279288328D02*
X310016255Y-279288328D01*
X310016255Y-279288328D02*
X309516255Y-279859757D01*
X309516255Y-279859757D02*
X309730540Y-279859757D01*
X309730540Y-279859757D02*
X309873398Y-279931185D01*
X309873398Y-279931185D02*
X309944826Y-280002614D01*
X309944826Y-280002614D02*
X310016255Y-280145471D01*
X310016255Y-280145471D02*
X310016255Y-280502614D01*
X310016255Y-280502614D02*
X309944826Y-280645471D01*
X309944826Y-280645471D02*
X309873398Y-280716900D01*
X309873398Y-280716900D02*
X309730540Y-280788328D01*
X309730540Y-280788328D02*
X309301969Y-280788328D01*
X309301969Y-280788328D02*
X309159112Y-280716900D01*
X309159112Y-280716900D02*
X309087683Y-280645471D01*
D10*
D11*
X386444826Y-283588328D02*
X386444826Y-282088328D01*
X387801970Y-283588328D02*
X387801970Y-282088328D01*
X387801970Y-283516900D02*
X387659112Y-283588328D01*
X387659112Y-283588328D02*
X387373398Y-283588328D01*
X387373398Y-283588328D02*
X387230541Y-283516900D01*
X387230541Y-283516900D02*
X387159112Y-283445471D01*
X387159112Y-283445471D02*
X387087684Y-283302614D01*
X387087684Y-283302614D02*
X387087684Y-282874042D01*
X387087684Y-282874042D02*
X387159112Y-282731185D01*
X387159112Y-282731185D02*
X387230541Y-282659757D01*
X387230541Y-282659757D02*
X387373398Y-282588328D01*
X387373398Y-282588328D02*
X387659112Y-282588328D01*
X387659112Y-282588328D02*
X387801970Y-282659757D01*
X388516255Y-283445471D02*
X388587684Y-283516900D01*
X388587684Y-283516900D02*
X388516255Y-283588328D01*
X388516255Y-283588328D02*
X388444827Y-283516900D01*
X388444827Y-283516900D02*
X388516255Y-283445471D01*
X388516255Y-283445471D02*
X388516255Y-283588328D01*
X388516255Y-282659757D02*
X388587684Y-282731185D01*
X388587684Y-282731185D02*
X388516255Y-282802614D01*
X388516255Y-282802614D02*
X388444827Y-282731185D01*
X388444827Y-282731185D02*
X388516255Y-282659757D01*
X388516255Y-282659757D02*
X388516255Y-282802614D01*
X391159113Y-283588328D02*
X390301970Y-283588328D01*
X390730541Y-283588328D02*
X390730541Y-282088328D01*
X390730541Y-282088328D02*
X390587684Y-282302614D01*
X390587684Y-282302614D02*
X390444827Y-282445471D01*
X390444827Y-282445471D02*
X390301970Y-282516900D01*
X392873398Y-282016900D02*
X391587684Y-283945471D01*
X393444827Y-283588328D02*
X393730541Y-283588328D01*
X393730541Y-283588328D02*
X393873398Y-283516900D01*
X393873398Y-283516900D02*
X393944827Y-283445471D01*
X393944827Y-283445471D02*
X394087684Y-283231185D01*
X394087684Y-283231185D02*
X394159113Y-282945471D01*
X394159113Y-282945471D02*
X394159113Y-282374042D01*
X394159113Y-282374042D02*
X394087684Y-282231185D01*
X394087684Y-282231185D02*
X394016256Y-282159757D01*
X394016256Y-282159757D02*
X393873398Y-282088328D01*
X393873398Y-282088328D02*
X393587684Y-282088328D01*
X393587684Y-282088328D02*
X393444827Y-282159757D01*
X393444827Y-282159757D02*
X393373398Y-282231185D01*
X393373398Y-282231185D02*
X393301970Y-282374042D01*
X393301970Y-282374042D02*
X393301970Y-282731185D01*
X393301970Y-282731185D02*
X393373398Y-282874042D01*
X393373398Y-282874042D02*
X393444827Y-282945471D01*
X393444827Y-282945471D02*
X393587684Y-283016900D01*
X393587684Y-283016900D02*
X393873398Y-283016900D01*
X393873398Y-283016900D02*
X394016256Y-282945471D01*
X394016256Y-282945471D02*
X394087684Y-282874042D01*
X394087684Y-282874042D02*
X394159113Y-282731185D01*
D10*
D11*
X299989000Y-274502200D02*
X407989000Y-274502200D01*
D10*
D13*
X301680728Y-275206638D02*
X302823585Y-275206638D01*
X302002157Y-277206638D02*
X302252157Y-275206638D01*
X303240252Y-277206638D02*
X303406919Y-275873304D01*
X303490252Y-275206638D02*
X303383109Y-275301876D01*
X303383109Y-275301876D02*
X303466443Y-275397114D01*
X303466443Y-275397114D02*
X303573586Y-275301876D01*
X303573586Y-275301876D02*
X303490252Y-275206638D01*
X303490252Y-275206638D02*
X303466443Y-275397114D01*
X304073586Y-275873304D02*
X304835490Y-275873304D01*
X304442633Y-275206638D02*
X304228348Y-276920923D01*
X304228348Y-276920923D02*
X304299776Y-277111400D01*
X304299776Y-277111400D02*
X304478348Y-277206638D01*
X304478348Y-277206638D02*
X304668824Y-277206638D01*
X305621205Y-277206638D02*
X305442633Y-277111400D01*
X305442633Y-277111400D02*
X305371205Y-276920923D01*
X305371205Y-276920923D02*
X305585490Y-275206638D01*
X307156919Y-277111400D02*
X306954538Y-277206638D01*
X306954538Y-277206638D02*
X306573585Y-277206638D01*
X306573585Y-277206638D02*
X306395014Y-277111400D01*
X306395014Y-277111400D02*
X306323585Y-276920923D01*
X306323585Y-276920923D02*
X306418824Y-276159019D01*
X306418824Y-276159019D02*
X306537871Y-275968542D01*
X306537871Y-275968542D02*
X306740252Y-275873304D01*
X306740252Y-275873304D02*
X307121204Y-275873304D01*
X307121204Y-275873304D02*
X307299776Y-275968542D01*
X307299776Y-275968542D02*
X307371204Y-276159019D01*
X307371204Y-276159019D02*
X307347395Y-276349495D01*
X307347395Y-276349495D02*
X306371204Y-276539971D01*
X308121205Y-277016161D02*
X308204538Y-277111400D01*
X308204538Y-277111400D02*
X308097395Y-277206638D01*
X308097395Y-277206638D02*
X308014062Y-277111400D01*
X308014062Y-277111400D02*
X308121205Y-277016161D01*
X308121205Y-277016161D02*
X308097395Y-277206638D01*
X308252157Y-275968542D02*
X308335490Y-276063780D01*
X308335490Y-276063780D02*
X308228348Y-276159019D01*
X308228348Y-276159019D02*
X308145014Y-276063780D01*
X308145014Y-276063780D02*
X308252157Y-275968542D01*
X308252157Y-275968542D02*
X308228348Y-276159019D01*
D10*
D11*
X301944826Y-272602614D02*
X301444826Y-272602614D01*
X301444826Y-273388328D02*
X301444826Y-271888328D01*
X301444826Y-271888328D02*
X302159112Y-271888328D01*
X302730540Y-273388328D02*
X302730540Y-272388328D01*
X302730540Y-271888328D02*
X302659112Y-271959757D01*
X302659112Y-271959757D02*
X302730540Y-272031185D01*
X302730540Y-272031185D02*
X302801969Y-271959757D01*
X302801969Y-271959757D02*
X302730540Y-271888328D01*
X302730540Y-271888328D02*
X302730540Y-272031185D01*
X303659112Y-273388328D02*
X303516255Y-273316900D01*
X303516255Y-273316900D02*
X303444826Y-273174042D01*
X303444826Y-273174042D02*
X303444826Y-271888328D01*
X304801969Y-273316900D02*
X304659112Y-273388328D01*
X304659112Y-273388328D02*
X304373398Y-273388328D01*
X304373398Y-273388328D02*
X304230540Y-273316900D01*
X304230540Y-273316900D02*
X304159112Y-273174042D01*
X304159112Y-273174042D02*
X304159112Y-272602614D01*
X304159112Y-272602614D02*
X304230540Y-272459757D01*
X304230540Y-272459757D02*
X304373398Y-272388328D01*
X304373398Y-272388328D02*
X304659112Y-272388328D01*
X304659112Y-272388328D02*
X304801969Y-272459757D01*
X304801969Y-272459757D02*
X304873398Y-272602614D01*
X304873398Y-272602614D02*
X304873398Y-272745471D01*
X304873398Y-272745471D02*
X304159112Y-272888328D01*
X305516254Y-273245471D02*
X305587683Y-273316900D01*
X305587683Y-273316900D02*
X305516254Y-273388328D01*
X305516254Y-273388328D02*
X305444826Y-273316900D01*
X305444826Y-273316900D02*
X305516254Y-273245471D01*
X305516254Y-273245471D02*
X305516254Y-273388328D01*
X305516254Y-272459757D02*
X305587683Y-272531185D01*
X305587683Y-272531185D02*
X305516254Y-272602614D01*
X305516254Y-272602614D02*
X305444826Y-272531185D01*
X305444826Y-272531185D02*
X305516254Y-272459757D01*
X305516254Y-272459757D02*
X305516254Y-272602614D01*
X307230540Y-272388328D02*
X307516255Y-273388328D01*
X307516255Y-273388328D02*
X307801969Y-272674042D01*
X307801969Y-272674042D02*
X308087683Y-273388328D01*
X308087683Y-273388328D02*
X308373397Y-272388328D01*
X308944826Y-273388328D02*
X308944826Y-272388328D01*
X308944826Y-271888328D02*
X308873398Y-271959757D01*
X308873398Y-271959757D02*
X308944826Y-272031185D01*
X308944826Y-272031185D02*
X309016255Y-271959757D01*
X309016255Y-271959757D02*
X308944826Y-271888328D01*
X308944826Y-271888328D02*
X308944826Y-272031185D01*
X309659112Y-273388328D02*
X309659112Y-272388328D01*
X309659112Y-272674042D02*
X309730541Y-272531185D01*
X309730541Y-272531185D02*
X309801970Y-272459757D01*
X309801970Y-272459757D02*
X309944827Y-272388328D01*
X309944827Y-272388328D02*
X310087684Y-272388328D01*
X311159112Y-273316900D02*
X311016255Y-273388328D01*
X311016255Y-273388328D02*
X310730541Y-273388328D01*
X310730541Y-273388328D02*
X310587683Y-273316900D01*
X310587683Y-273316900D02*
X310516255Y-273174042D01*
X310516255Y-273174042D02*
X310516255Y-272602614D01*
X310516255Y-272602614D02*
X310587683Y-272459757D01*
X310587683Y-272459757D02*
X310730541Y-272388328D01*
X310730541Y-272388328D02*
X311016255Y-272388328D01*
X311016255Y-272388328D02*
X311159112Y-272459757D01*
X311159112Y-272459757D02*
X311230541Y-272602614D01*
X311230541Y-272602614D02*
X311230541Y-272745471D01*
X311230541Y-272745471D02*
X310516255Y-272888328D01*
X312087683Y-273388328D02*
X311944826Y-273316900D01*
X311944826Y-273316900D02*
X311873397Y-273174042D01*
X311873397Y-273174042D02*
X311873397Y-271888328D01*
X313230540Y-273316900D02*
X313087683Y-273388328D01*
X313087683Y-273388328D02*
X312801969Y-273388328D01*
X312801969Y-273388328D02*
X312659111Y-273316900D01*
X312659111Y-273316900D02*
X312587683Y-273174042D01*
X312587683Y-273174042D02*
X312587683Y-272602614D01*
X312587683Y-272602614D02*
X312659111Y-272459757D01*
X312659111Y-272459757D02*
X312801969Y-272388328D01*
X312801969Y-272388328D02*
X313087683Y-272388328D01*
X313087683Y-272388328D02*
X313230540Y-272459757D01*
X313230540Y-272459757D02*
X313301969Y-272602614D01*
X313301969Y-272602614D02*
X313301969Y-272745471D01*
X313301969Y-272745471D02*
X312587683Y-272888328D01*
X313873397Y-273316900D02*
X314016254Y-273388328D01*
X314016254Y-273388328D02*
X314301968Y-273388328D01*
X314301968Y-273388328D02*
X314444825Y-273316900D01*
X314444825Y-273316900D02*
X314516254Y-273174042D01*
X314516254Y-273174042D02*
X314516254Y-273102614D01*
X314516254Y-273102614D02*
X314444825Y-272959757D01*
X314444825Y-272959757D02*
X314301968Y-272888328D01*
X314301968Y-272888328D02*
X314087683Y-272888328D01*
X314087683Y-272888328D02*
X313944825Y-272816900D01*
X313944825Y-272816900D02*
X313873397Y-272674042D01*
X313873397Y-272674042D02*
X313873397Y-272602614D01*
X313873397Y-272602614D02*
X313944825Y-272459757D01*
X313944825Y-272459757D02*
X314087683Y-272388328D01*
X314087683Y-272388328D02*
X314301968Y-272388328D01*
X314301968Y-272388328D02*
X314444825Y-272459757D01*
X315087683Y-273316900D02*
X315230540Y-273388328D01*
X315230540Y-273388328D02*
X315516254Y-273388328D01*
X315516254Y-273388328D02*
X315659111Y-273316900D01*
X315659111Y-273316900D02*
X315730540Y-273174042D01*
X315730540Y-273174042D02*
X315730540Y-273102614D01*
X315730540Y-273102614D02*
X315659111Y-272959757D01*
X315659111Y-272959757D02*
X315516254Y-272888328D01*
X315516254Y-272888328D02*
X315301969Y-272888328D01*
X315301969Y-272888328D02*
X315159111Y-272816900D01*
X315159111Y-272816900D02*
X315087683Y-272674042D01*
X315087683Y-272674042D02*
X315087683Y-272602614D01*
X315087683Y-272602614D02*
X315159111Y-272459757D01*
X315159111Y-272459757D02*
X315301969Y-272388328D01*
X315301969Y-272388328D02*
X315516254Y-272388328D01*
X315516254Y-272388328D02*
X315659111Y-272459757D01*
X316373397Y-272816900D02*
X317516255Y-272816900D01*
X318873398Y-272388328D02*
X318873398Y-273388328D01*
X318230540Y-272388328D02*
X318230540Y-273174042D01*
X318230540Y-273174042D02*
X318301969Y-273316900D01*
X318301969Y-273316900D02*
X318444826Y-273388328D01*
X318444826Y-273388328D02*
X318659112Y-273388328D01*
X318659112Y-273388328D02*
X318801969Y-273316900D01*
X318801969Y-273316900D02*
X318873398Y-273245471D01*
X319587683Y-273388328D02*
X319587683Y-271888328D01*
X320230541Y-273388328D02*
X320230541Y-272602614D01*
X320230541Y-272602614D02*
X320159112Y-272459757D01*
X320159112Y-272459757D02*
X320016255Y-272388328D01*
X320016255Y-272388328D02*
X319801969Y-272388328D01*
X319801969Y-272388328D02*
X319659112Y-272459757D01*
X319659112Y-272459757D02*
X319587683Y-272531185D01*
X321587684Y-273388328D02*
X321587684Y-272602614D01*
X321587684Y-272602614D02*
X321516255Y-272459757D01*
X321516255Y-272459757D02*
X321373398Y-272388328D01*
X321373398Y-272388328D02*
X321087684Y-272388328D01*
X321087684Y-272388328D02*
X320944826Y-272459757D01*
X321587684Y-273316900D02*
X321444826Y-273388328D01*
X321444826Y-273388328D02*
X321087684Y-273388328D01*
X321087684Y-273388328D02*
X320944826Y-273316900D01*
X320944826Y-273316900D02*
X320873398Y-273174042D01*
X320873398Y-273174042D02*
X320873398Y-273031185D01*
X320873398Y-273031185D02*
X320944826Y-272888328D01*
X320944826Y-272888328D02*
X321087684Y-272816900D01*
X321087684Y-272816900D02*
X321444826Y-272816900D01*
X321444826Y-272816900D02*
X321587684Y-272745471D01*
X322087684Y-272388328D02*
X322659112Y-272388328D01*
X322301969Y-271888328D02*
X322301969Y-273174042D01*
X322301969Y-273174042D02*
X322373398Y-273316900D01*
X322373398Y-273316900D02*
X322516255Y-273388328D01*
X322516255Y-273388328D02*
X322659112Y-273388328D01*
X323159112Y-272816900D02*
X324301970Y-272816900D01*
X324801970Y-272388328D02*
X325373398Y-272388328D01*
X325016255Y-271888328D02*
X325016255Y-273174042D01*
X325016255Y-273174042D02*
X325087684Y-273316900D01*
X325087684Y-273316900D02*
X325230541Y-273388328D01*
X325230541Y-273388328D02*
X325373398Y-273388328D01*
X325873398Y-273388328D02*
X325873398Y-271888328D01*
X326516256Y-273388328D02*
X326516256Y-272602614D01*
X326516256Y-272602614D02*
X326444827Y-272459757D01*
X326444827Y-272459757D02*
X326301970Y-272388328D01*
X326301970Y-272388328D02*
X326087684Y-272388328D01*
X326087684Y-272388328D02*
X325944827Y-272459757D01*
X325944827Y-272459757D02*
X325873398Y-272531185D01*
X327016256Y-272388328D02*
X327587684Y-272388328D01*
X327230541Y-271888328D02*
X327230541Y-273174042D01*
X327230541Y-273174042D02*
X327301970Y-273316900D01*
X327301970Y-273316900D02*
X327444827Y-273388328D01*
X327444827Y-273388328D02*
X327587684Y-273388328D01*
X328087684Y-272816900D02*
X329230542Y-272816900D01*
X329944827Y-273388328D02*
X329944827Y-272388328D01*
X329944827Y-272674042D02*
X330016256Y-272531185D01*
X330016256Y-272531185D02*
X330087685Y-272459757D01*
X330087685Y-272459757D02*
X330230542Y-272388328D01*
X330230542Y-272388328D02*
X330373399Y-272388328D01*
X330873398Y-272388328D02*
X330873398Y-273888328D01*
X330873398Y-272459757D02*
X331016256Y-272388328D01*
X331016256Y-272388328D02*
X331301970Y-272388328D01*
X331301970Y-272388328D02*
X331444827Y-272459757D01*
X331444827Y-272459757D02*
X331516256Y-272531185D01*
X331516256Y-272531185D02*
X331587684Y-272674042D01*
X331587684Y-272674042D02*
X331587684Y-273102614D01*
X331587684Y-273102614D02*
X331516256Y-273245471D01*
X331516256Y-273245471D02*
X331444827Y-273316900D01*
X331444827Y-273316900D02*
X331301970Y-273388328D01*
X331301970Y-273388328D02*
X331016256Y-273388328D01*
X331016256Y-273388328D02*
X330873398Y-273316900D01*
X332230541Y-273388328D02*
X332230541Y-272388328D01*
X332230541Y-271888328D02*
X332159113Y-271959757D01*
X332159113Y-271959757D02*
X332230541Y-272031185D01*
X332230541Y-272031185D02*
X332301970Y-271959757D01*
X332301970Y-271959757D02*
X332230541Y-271888328D01*
X332230541Y-271888328D02*
X332230541Y-272031185D01*
X332944827Y-272816900D02*
X334087685Y-272816900D01*
X334801970Y-273388328D02*
X334801970Y-272388328D01*
X334801970Y-272674042D02*
X334873399Y-272531185D01*
X334873399Y-272531185D02*
X334944828Y-272459757D01*
X334944828Y-272459757D02*
X335087685Y-272388328D01*
X335087685Y-272388328D02*
X335230542Y-272388328D01*
X336373399Y-273388328D02*
X336373399Y-272602614D01*
X336373399Y-272602614D02*
X336301970Y-272459757D01*
X336301970Y-272459757D02*
X336159113Y-272388328D01*
X336159113Y-272388328D02*
X335873399Y-272388328D01*
X335873399Y-272388328D02*
X335730541Y-272459757D01*
X336373399Y-273316900D02*
X336230541Y-273388328D01*
X336230541Y-273388328D02*
X335873399Y-273388328D01*
X335873399Y-273388328D02*
X335730541Y-273316900D01*
X335730541Y-273316900D02*
X335659113Y-273174042D01*
X335659113Y-273174042D02*
X335659113Y-273031185D01*
X335659113Y-273031185D02*
X335730541Y-272888328D01*
X335730541Y-272888328D02*
X335873399Y-272816900D01*
X335873399Y-272816900D02*
X336230541Y-272816900D01*
X336230541Y-272816900D02*
X336373399Y-272745471D01*
X337730542Y-273388328D02*
X337730542Y-271888328D01*
X337730542Y-273316900D02*
X337587684Y-273388328D01*
X337587684Y-273388328D02*
X337301970Y-273388328D01*
X337301970Y-273388328D02*
X337159113Y-273316900D01*
X337159113Y-273316900D02*
X337087684Y-273245471D01*
X337087684Y-273245471D02*
X337016256Y-273102614D01*
X337016256Y-273102614D02*
X337016256Y-272674042D01*
X337016256Y-272674042D02*
X337087684Y-272531185D01*
X337087684Y-272531185D02*
X337159113Y-272459757D01*
X337159113Y-272459757D02*
X337301970Y-272388328D01*
X337301970Y-272388328D02*
X337587684Y-272388328D01*
X337587684Y-272388328D02*
X337730542Y-272459757D01*
X338444827Y-273388328D02*
X338444827Y-272388328D01*
X338444827Y-271888328D02*
X338373399Y-271959757D01*
X338373399Y-271959757D02*
X338444827Y-272031185D01*
X338444827Y-272031185D02*
X338516256Y-271959757D01*
X338516256Y-271959757D02*
X338444827Y-271888328D01*
X338444827Y-271888328D02*
X338444827Y-272031185D01*
X339373399Y-273388328D02*
X339230542Y-273316900D01*
X339230542Y-273316900D02*
X339159113Y-273245471D01*
X339159113Y-273245471D02*
X339087685Y-273102614D01*
X339087685Y-273102614D02*
X339087685Y-272674042D01*
X339087685Y-272674042D02*
X339159113Y-272531185D01*
X339159113Y-272531185D02*
X339230542Y-272459757D01*
X339230542Y-272459757D02*
X339373399Y-272388328D01*
X339373399Y-272388328D02*
X339587685Y-272388328D01*
X339587685Y-272388328D02*
X339730542Y-272459757D01*
X339730542Y-272459757D02*
X339801971Y-272531185D01*
X339801971Y-272531185D02*
X339873399Y-272674042D01*
X339873399Y-272674042D02*
X339873399Y-273102614D01*
X339873399Y-273102614D02*
X339801971Y-273245471D01*
X339801971Y-273245471D02*
X339730542Y-273316900D01*
X339730542Y-273316900D02*
X339587685Y-273388328D01*
X339587685Y-273388328D02*
X339373399Y-273388328D01*
X340516256Y-272816900D02*
X341659114Y-272816900D01*
X342373399Y-273388328D02*
X342373399Y-272388328D01*
X342373399Y-272531185D02*
X342444828Y-272459757D01*
X342444828Y-272459757D02*
X342587685Y-272388328D01*
X342587685Y-272388328D02*
X342801971Y-272388328D01*
X342801971Y-272388328D02*
X342944828Y-272459757D01*
X342944828Y-272459757D02*
X343016257Y-272602614D01*
X343016257Y-272602614D02*
X343016257Y-273388328D01*
X343016257Y-272602614D02*
X343087685Y-272459757D01*
X343087685Y-272459757D02*
X343230542Y-272388328D01*
X343230542Y-272388328D02*
X343444828Y-272388328D01*
X343444828Y-272388328D02*
X343587685Y-272459757D01*
X343587685Y-272459757D02*
X343659114Y-272602614D01*
X343659114Y-272602614D02*
X343659114Y-273388328D01*
X344587685Y-273388328D02*
X344444828Y-273316900D01*
X344444828Y-273316900D02*
X344373399Y-273245471D01*
X344373399Y-273245471D02*
X344301971Y-273102614D01*
X344301971Y-273102614D02*
X344301971Y-272674042D01*
X344301971Y-272674042D02*
X344373399Y-272531185D01*
X344373399Y-272531185D02*
X344444828Y-272459757D01*
X344444828Y-272459757D02*
X344587685Y-272388328D01*
X344587685Y-272388328D02*
X344801971Y-272388328D01*
X344801971Y-272388328D02*
X344944828Y-272459757D01*
X344944828Y-272459757D02*
X345016257Y-272531185D01*
X345016257Y-272531185D02*
X345087685Y-272674042D01*
X345087685Y-272674042D02*
X345087685Y-273102614D01*
X345087685Y-273102614D02*
X345016257Y-273245471D01*
X345016257Y-273245471D02*
X344944828Y-273316900D01*
X344944828Y-273316900D02*
X344801971Y-273388328D01*
X344801971Y-273388328D02*
X344587685Y-273388328D01*
X346373400Y-273388328D02*
X346373400Y-271888328D01*
X346373400Y-273316900D02*
X346230542Y-273388328D01*
X346230542Y-273388328D02*
X345944828Y-273388328D01*
X345944828Y-273388328D02*
X345801971Y-273316900D01*
X345801971Y-273316900D02*
X345730542Y-273245471D01*
X345730542Y-273245471D02*
X345659114Y-273102614D01*
X345659114Y-273102614D02*
X345659114Y-272674042D01*
X345659114Y-272674042D02*
X345730542Y-272531185D01*
X345730542Y-272531185D02*
X345801971Y-272459757D01*
X345801971Y-272459757D02*
X345944828Y-272388328D01*
X345944828Y-272388328D02*
X346230542Y-272388328D01*
X346230542Y-272388328D02*
X346373400Y-272459757D01*
X347730543Y-272388328D02*
X347730543Y-273388328D01*
X347087685Y-272388328D02*
X347087685Y-273174042D01*
X347087685Y-273174042D02*
X347159114Y-273316900D01*
X347159114Y-273316900D02*
X347301971Y-273388328D01*
X347301971Y-273388328D02*
X347516257Y-273388328D01*
X347516257Y-273388328D02*
X347659114Y-273316900D01*
X347659114Y-273316900D02*
X347730543Y-273245471D01*
X348659114Y-273388328D02*
X348516257Y-273316900D01*
X348516257Y-273316900D02*
X348444828Y-273174042D01*
X348444828Y-273174042D02*
X348444828Y-271888328D01*
X349801971Y-273316900D02*
X349659114Y-273388328D01*
X349659114Y-273388328D02*
X349373400Y-273388328D01*
X349373400Y-273388328D02*
X349230542Y-273316900D01*
X349230542Y-273316900D02*
X349159114Y-273174042D01*
X349159114Y-273174042D02*
X349159114Y-272602614D01*
X349159114Y-272602614D02*
X349230542Y-272459757D01*
X349230542Y-272459757D02*
X349373400Y-272388328D01*
X349373400Y-272388328D02*
X349659114Y-272388328D01*
X349659114Y-272388328D02*
X349801971Y-272459757D01*
X349801971Y-272459757D02*
X349873400Y-272602614D01*
X349873400Y-272602614D02*
X349873400Y-272745471D01*
X349873400Y-272745471D02*
X349159114Y-272888328D01*
X350516256Y-272816900D02*
X351659114Y-272816900D01*
X352301971Y-272031185D02*
X352373399Y-271959757D01*
X352373399Y-271959757D02*
X352516257Y-271888328D01*
X352516257Y-271888328D02*
X352873399Y-271888328D01*
X352873399Y-271888328D02*
X353016257Y-271959757D01*
X353016257Y-271959757D02*
X353087685Y-272031185D01*
X353087685Y-272031185D02*
X353159114Y-272174042D01*
X353159114Y-272174042D02*
X353159114Y-272316900D01*
X353159114Y-272316900D02*
X353087685Y-272531185D01*
X353087685Y-272531185D02*
X352230542Y-273388328D01*
X352230542Y-273388328D02*
X353159114Y-273388328D01*
X353801970Y-273245471D02*
X353873399Y-273316900D01*
X353873399Y-273316900D02*
X353801970Y-273388328D01*
X353801970Y-273388328D02*
X353730542Y-273316900D01*
X353730542Y-273316900D02*
X353801970Y-273245471D01*
X353801970Y-273245471D02*
X353801970Y-273388328D01*
X354516256Y-273388328D02*
X354516256Y-271888328D01*
X354659114Y-272816900D02*
X355087685Y-273388328D01*
X355087685Y-272388328D02*
X354516256Y-272959757D01*
X355730542Y-273388328D02*
X355730542Y-272388328D01*
X355730542Y-271888328D02*
X355659114Y-271959757D01*
X355659114Y-271959757D02*
X355730542Y-272031185D01*
X355730542Y-272031185D02*
X355801971Y-271959757D01*
X355801971Y-271959757D02*
X355730542Y-271888328D01*
X355730542Y-271888328D02*
X355730542Y-272031185D01*
X357087686Y-273316900D02*
X356944828Y-273388328D01*
X356944828Y-273388328D02*
X356659114Y-273388328D01*
X356659114Y-273388328D02*
X356516257Y-273316900D01*
X356516257Y-273316900D02*
X356444828Y-273245471D01*
X356444828Y-273245471D02*
X356373400Y-273102614D01*
X356373400Y-273102614D02*
X356373400Y-272674042D01*
X356373400Y-272674042D02*
X356444828Y-272531185D01*
X356444828Y-272531185D02*
X356516257Y-272459757D01*
X356516257Y-272459757D02*
X356659114Y-272388328D01*
X356659114Y-272388328D02*
X356944828Y-272388328D01*
X356944828Y-272388328D02*
X357087686Y-272459757D01*
X358373400Y-273388328D02*
X358373400Y-272602614D01*
X358373400Y-272602614D02*
X358301971Y-272459757D01*
X358301971Y-272459757D02*
X358159114Y-272388328D01*
X358159114Y-272388328D02*
X357873400Y-272388328D01*
X357873400Y-272388328D02*
X357730542Y-272459757D01*
X358373400Y-273316900D02*
X358230542Y-273388328D01*
X358230542Y-273388328D02*
X357873400Y-273388328D01*
X357873400Y-273388328D02*
X357730542Y-273316900D01*
X357730542Y-273316900D02*
X357659114Y-273174042D01*
X357659114Y-273174042D02*
X357659114Y-273031185D01*
X357659114Y-273031185D02*
X357730542Y-272888328D01*
X357730542Y-272888328D02*
X357873400Y-272816900D01*
X357873400Y-272816900D02*
X358230542Y-272816900D01*
X358230542Y-272816900D02*
X358373400Y-272745471D01*
X359730543Y-273388328D02*
X359730543Y-271888328D01*
X359730543Y-273316900D02*
X359587685Y-273388328D01*
X359587685Y-273388328D02*
X359301971Y-273388328D01*
X359301971Y-273388328D02*
X359159114Y-273316900D01*
X359159114Y-273316900D02*
X359087685Y-273245471D01*
X359087685Y-273245471D02*
X359016257Y-273102614D01*
X359016257Y-273102614D02*
X359016257Y-272674042D01*
X359016257Y-272674042D02*
X359087685Y-272531185D01*
X359087685Y-272531185D02*
X359159114Y-272459757D01*
X359159114Y-272459757D02*
X359301971Y-272388328D01*
X359301971Y-272388328D02*
X359587685Y-272388328D01*
X359587685Y-272388328D02*
X359730543Y-272459757D01*
X360087686Y-273531185D02*
X361230543Y-273531185D01*
X361587685Y-272388328D02*
X361587685Y-273888328D01*
X361587685Y-272459757D02*
X361730543Y-272388328D01*
X361730543Y-272388328D02*
X362016257Y-272388328D01*
X362016257Y-272388328D02*
X362159114Y-272459757D01*
X362159114Y-272459757D02*
X362230543Y-272531185D01*
X362230543Y-272531185D02*
X362301971Y-272674042D01*
X362301971Y-272674042D02*
X362301971Y-273102614D01*
X362301971Y-273102614D02*
X362230543Y-273245471D01*
X362230543Y-273245471D02*
X362159114Y-273316900D01*
X362159114Y-273316900D02*
X362016257Y-273388328D01*
X362016257Y-273388328D02*
X361730543Y-273388328D01*
X361730543Y-273388328D02*
X361587685Y-273316900D01*
X363587686Y-273316900D02*
X363444828Y-273388328D01*
X363444828Y-273388328D02*
X363159114Y-273388328D01*
X363159114Y-273388328D02*
X363016257Y-273316900D01*
X363016257Y-273316900D02*
X362944828Y-273245471D01*
X362944828Y-273245471D02*
X362873400Y-273102614D01*
X362873400Y-273102614D02*
X362873400Y-272674042D01*
X362873400Y-272674042D02*
X362944828Y-272531185D01*
X362944828Y-272531185D02*
X363016257Y-272459757D01*
X363016257Y-272459757D02*
X363159114Y-272388328D01*
X363159114Y-272388328D02*
X363444828Y-272388328D01*
X363444828Y-272388328D02*
X363587686Y-272459757D01*
X364230542Y-273388328D02*
X364230542Y-271888328D01*
X364230542Y-272459757D02*
X364373400Y-272388328D01*
X364373400Y-272388328D02*
X364659114Y-272388328D01*
X364659114Y-272388328D02*
X364801971Y-272459757D01*
X364801971Y-272459757D02*
X364873400Y-272531185D01*
X364873400Y-272531185D02*
X364944828Y-272674042D01*
X364944828Y-272674042D02*
X364944828Y-273102614D01*
X364944828Y-273102614D02*
X364873400Y-273245471D01*
X364873400Y-273245471D02*
X364801971Y-273316900D01*
X364801971Y-273316900D02*
X364659114Y-273388328D01*
X364659114Y-273388328D02*
X364373400Y-273388328D01*
X364373400Y-273388328D02*
X364230542Y-273316900D01*
D10*
D11*
X299989000Y-268502200D02*
X407989000Y-268502200D01*
D10*
D11*
X301373398Y-270616900D02*
X301587684Y-270688328D01*
X301587684Y-270688328D02*
X301944826Y-270688328D01*
X301944826Y-270688328D02*
X302087684Y-270616900D01*
X302087684Y-270616900D02*
X302159112Y-270545471D01*
X302159112Y-270545471D02*
X302230541Y-270402614D01*
X302230541Y-270402614D02*
X302230541Y-270259757D01*
X302230541Y-270259757D02*
X302159112Y-270116900D01*
X302159112Y-270116900D02*
X302087684Y-270045471D01*
X302087684Y-270045471D02*
X301944826Y-269974042D01*
X301944826Y-269974042D02*
X301659112Y-269902614D01*
X301659112Y-269902614D02*
X301516255Y-269831185D01*
X301516255Y-269831185D02*
X301444826Y-269759757D01*
X301444826Y-269759757D02*
X301373398Y-269616900D01*
X301373398Y-269616900D02*
X301373398Y-269474042D01*
X301373398Y-269474042D02*
X301444826Y-269331185D01*
X301444826Y-269331185D02*
X301516255Y-269259757D01*
X301516255Y-269259757D02*
X301659112Y-269188328D01*
X301659112Y-269188328D02*
X302016255Y-269188328D01*
X302016255Y-269188328D02*
X302230541Y-269259757D01*
X302873397Y-270688328D02*
X302873397Y-269188328D01*
X303516255Y-270688328D02*
X303516255Y-269902614D01*
X303516255Y-269902614D02*
X303444826Y-269759757D01*
X303444826Y-269759757D02*
X303301969Y-269688328D01*
X303301969Y-269688328D02*
X303087683Y-269688328D01*
X303087683Y-269688328D02*
X302944826Y-269759757D01*
X302944826Y-269759757D02*
X302873397Y-269831185D01*
X304801969Y-270616900D02*
X304659112Y-270688328D01*
X304659112Y-270688328D02*
X304373398Y-270688328D01*
X304373398Y-270688328D02*
X304230540Y-270616900D01*
X304230540Y-270616900D02*
X304159112Y-270474042D01*
X304159112Y-270474042D02*
X304159112Y-269902614D01*
X304159112Y-269902614D02*
X304230540Y-269759757D01*
X304230540Y-269759757D02*
X304373398Y-269688328D01*
X304373398Y-269688328D02*
X304659112Y-269688328D01*
X304659112Y-269688328D02*
X304801969Y-269759757D01*
X304801969Y-269759757D02*
X304873398Y-269902614D01*
X304873398Y-269902614D02*
X304873398Y-270045471D01*
X304873398Y-270045471D02*
X304159112Y-270188328D01*
X306087683Y-270616900D02*
X305944826Y-270688328D01*
X305944826Y-270688328D02*
X305659112Y-270688328D01*
X305659112Y-270688328D02*
X305516254Y-270616900D01*
X305516254Y-270616900D02*
X305444826Y-270474042D01*
X305444826Y-270474042D02*
X305444826Y-269902614D01*
X305444826Y-269902614D02*
X305516254Y-269759757D01*
X305516254Y-269759757D02*
X305659112Y-269688328D01*
X305659112Y-269688328D02*
X305944826Y-269688328D01*
X305944826Y-269688328D02*
X306087683Y-269759757D01*
X306087683Y-269759757D02*
X306159112Y-269902614D01*
X306159112Y-269902614D02*
X306159112Y-270045471D01*
X306159112Y-270045471D02*
X305444826Y-270188328D01*
X306587683Y-269688328D02*
X307159111Y-269688328D01*
X306801968Y-269188328D02*
X306801968Y-270474042D01*
X306801968Y-270474042D02*
X306873397Y-270616900D01*
X306873397Y-270616900D02*
X307016254Y-270688328D01*
X307016254Y-270688328D02*
X307159111Y-270688328D01*
X307659111Y-270545471D02*
X307730540Y-270616900D01*
X307730540Y-270616900D02*
X307659111Y-270688328D01*
X307659111Y-270688328D02*
X307587683Y-270616900D01*
X307587683Y-270616900D02*
X307659111Y-270545471D01*
X307659111Y-270545471D02*
X307659111Y-270688328D01*
X307659111Y-269759757D02*
X307730540Y-269831185D01*
X307730540Y-269831185D02*
X307659111Y-269902614D01*
X307659111Y-269902614D02*
X307587683Y-269831185D01*
X307587683Y-269831185D02*
X307659111Y-269759757D01*
X307659111Y-269759757D02*
X307659111Y-269902614D01*
D10*
D11*
X319989000Y-278502200D02*
X319989000Y-281502200D01*
D10*
D11*
X383989000Y-278502200D02*
X383989000Y-285002200D01*
D14*
X162242000Y-85353100D03*
X163742000Y-85353100D03*
D15*
X156510500Y-85353100D03*
X154685500Y-85353100D03*
D14*
X163742000Y-83236000D03*
X162242000Y-83236000D03*
D16*
X110263500Y-79426000D03*
X112088500Y-79426000D03*
D17*
X134544000Y-99248000D03*
X134544000Y-97748000D03*
X134544000Y-96248000D03*
X134544000Y-94748000D03*
X134544000Y-93248000D03*
X134544000Y-91748000D03*
X134544000Y-90248000D03*
D18*
X132294000Y-88948000D03*
X130794000Y-88948000D03*
X129294000Y-88948000D03*
X127794000Y-88948000D03*
X126294000Y-88948000D03*
X124794000Y-88948000D03*
X123294000Y-88948000D03*
D17*
X121044000Y-90248000D03*
X121044000Y-91748000D03*
X121044000Y-93248000D03*
X121044000Y-94748000D03*
X121044000Y-96248000D03*
X121044000Y-97748000D03*
X121044000Y-99248000D03*
D15*
X156510500Y-83321100D03*
X154685500Y-83321100D03*
X112088500Y-81712000D03*
X110263500Y-81712000D03*
D19*
X137846000Y-93546500D03*
X137846000Y-91721500D03*
X139878000Y-93546500D03*
X139878000Y-91721500D03*
D20*
X123368000Y-85155000D03*
X123368000Y-86905000D03*
D21*
X108370000Y-74770000D03*
D22*
X108370000Y-72230000D03*
X110910000Y-74770000D03*
X110910000Y-72230000D03*
X113450000Y-74770000D03*
X113450000Y-72230000D03*
X115990000Y-74770000D03*
X115990000Y-72230000D03*
X118530000Y-74770000D03*
X118530000Y-72230000D03*
X121070000Y-74770000D03*
X121070000Y-72230000D03*
X123610000Y-74770000D03*
X123610000Y-72230000D03*
X126150000Y-74770000D03*
X126150000Y-72230000D03*
X128690000Y-74770000D03*
X128690000Y-72230000D03*
X131230000Y-74770000D03*
X131230000Y-72230000D03*
X133770000Y-74770000D03*
X133770000Y-72230000D03*
X136310000Y-74770000D03*
X136310000Y-72230000D03*
X138850000Y-74770000D03*
X138850000Y-72230000D03*
X141390000Y-74770000D03*
X141390000Y-72230000D03*
X143930000Y-74770000D03*
X143930000Y-72230000D03*
X146470000Y-74770000D03*
X146470000Y-72230000D03*
X149010000Y-74770000D03*
X149010000Y-72230000D03*
X151550000Y-74770000D03*
X151550000Y-72230000D03*
X154090000Y-74770000D03*
X154090000Y-72230000D03*
X156630000Y-74770000D03*
X156630000Y-72230000D03*
D23*
X139370000Y-77140000D03*
X133294002Y-88316000D03*
X115494000Y-83490000D03*
X117780000Y-86284000D03*
X115240000Y-94920000D03*
X139116000Y-84337100D03*
X140132000Y-71552000D03*
X118542000Y-83744000D03*
X124892000Y-87300000D03*
X141148000Y-82220000D03*
X150800000Y-97460000D03*
X152832000Y-73584000D03*
X139116000Y-90348000D03*
X117780000Y-79680000D03*
X150800000Y-77140000D03*
X126670000Y-77902000D03*
X135814000Y-85776000D03*
X153566000Y-84337100D03*
X160960000Y-82220000D03*
X150800000Y-82220000D03*
X120320000Y-86284000D03*
X106813880Y-77184120D03*
X136576000Y-97460000D03*
X164262000Y-79680000D03*
X123114000Y-80696000D03*
X155880000Y-92380000D03*
X107620000Y-97460000D03*
X119812000Y-71044000D03*
X141148000Y-77140000D03*
X137592000Y-71044000D03*
X145720000Y-97460000D03*
X115240000Y-79680000D03*
X134798000Y-83490000D03*
X118034000Y-95428000D03*
X109652000Y-73584000D03*
X112192000Y-75616000D03*
X102540000Y-82220000D03*
X141148000Y-94666000D03*
X128702000Y-80950000D03*
X150800000Y-92380000D03*
X155880000Y-82220000D03*
X155880000Y-97460000D03*
X107620000Y-87300000D03*
X117526000Y-93904000D03*
X111176000Y-80442000D03*
X116256000Y-93396000D03*
X164262000Y-87300000D03*
X109652000Y-70790000D03*
X132258000Y-80950000D03*
X155880000Y-87300000D03*
X127432000Y-71298000D03*
X108128000Y-78664000D03*
X122352000Y-83998000D03*
X121590000Y-77902000D03*
X119050000Y-96952000D03*
X128702000Y-83744000D03*
X129972000Y-85268000D03*
X102540000Y-77140000D03*
X145720000Y-82220000D03*
X141148000Y-84337100D03*
X140640000Y-97460000D03*
D24*
X136818000Y-90248000D03*
D23*
X147216000Y-84337100D03*
X112724069Y-80664583D03*
X128956000Y-77394000D03*
X150800000Y-87300000D03*
X136858724Y-92634000D03*
X160960000Y-87300000D03*
X145720000Y-77140000D03*
X145720000Y-92380000D03*
D24*
X118796000Y-99238000D03*
D23*
X122339998Y-89078000D03*
X164262000Y-84337100D03*
D24*
X136576000Y-94920000D03*
D23*
X164262000Y-92380000D03*
X141148000Y-87300000D03*
X160960000Y-92380000D03*
X155372000Y-71298000D03*
X111176000Y-83490000D03*
X122352000Y-75870000D03*
X142672000Y-75870000D03*
X142164000Y-73584000D03*
D24*
X127794000Y-87446000D03*
X136566000Y-99248000D03*
D23*
X157630000Y-84337100D03*
X135052000Y-73584000D03*
X107620000Y-92380000D03*
X107620000Y-82220000D03*
X139116000Y-82220000D03*
X132258000Y-77902000D03*
X160960000Y-77140000D03*
D24*
X119304000Y-90348000D03*
D23*
X102540000Y-87300000D03*
X107112000Y-70790000D03*
X119304000Y-93904000D03*
X122352000Y-86284000D03*
X160960000Y-84337100D03*
X164262000Y-77140000D03*
X145720000Y-87300000D03*
X109398000Y-80442000D03*
X112954000Y-90094000D03*
X141148000Y-79680000D03*
X110160000Y-77902000D03*
X135052000Y-79426000D03*
X112700000Y-92380000D03*
X112700000Y-87300000D03*
X112700000Y-97460000D03*
X135464000Y-88062000D03*
X102540000Y-92380000D03*
X114732000Y-91872000D03*
X138100000Y-87300000D03*
X116764000Y-77902000D03*
X141148000Y-92634000D03*
X141148000Y-89840000D03*
X155626000Y-84252000D03*
X155880000Y-77140000D03*
X132258000Y-84760000D03*
X130734000Y-76632000D03*
X117018000Y-73330000D03*
X114222603Y-78411397D03*
X136068000Y-92398000D03*
X139116000Y-95428000D03*
X131242000Y-87300000D03*
X130988000Y-77648000D03*
X135052000Y-88824000D03*
X131750000Y-86284000D03*
D25*
X134544000Y-94748000D02*
X136404000Y-94748000D01*
X136404000Y-94748000D02*
X136576000Y-94920000D01*
X121044000Y-99248000D02*
X118806000Y-99248000D01*
X127794000Y-87446000D02*
X127794000Y-88948000D01*
X119404000Y-90248000D02*
X119304000Y-90348000D01*
X136818000Y-90248000D02*
X134544000Y-90248000D01*
X134544000Y-99248000D02*
X136566000Y-99248000D01*
X118806000Y-99248000D02*
X118796000Y-99238000D01*
X121044000Y-90248000D02*
X119404000Y-90248000D01*
X136566000Y-99248000D02*
X136576000Y-99238000D01*
D26*
X127489000Y-73569000D02*
X126150000Y-72230000D01*
X126294000Y-87676000D02*
X129891000Y-84079000D01*
X126294000Y-88948000D02*
X124794000Y-88948000D01*
X126294000Y-88948000D02*
X126294000Y-87676000D01*
X129187471Y-73569000D02*
X127489000Y-73569000D01*
X129891000Y-74272529D02*
X129187471Y-73569000D01*
X129891000Y-84079000D02*
X129891000Y-74272529D01*
X136218500Y-93546500D02*
X137846000Y-93546500D01*
X136068000Y-93100000D02*
X136068000Y-92398000D01*
X134544000Y-93248000D02*
X135920000Y-93248000D01*
X137846000Y-93546500D02*
X139878000Y-93546500D01*
X135920000Y-93248000D02*
X136068000Y-93100000D01*
X135920000Y-93248000D02*
X136218500Y-93546500D01*
X138296000Y-96248000D02*
X139116000Y-95428000D01*
X134544000Y-96248000D02*
X138296000Y-96248000D01*
X132431000Y-73569000D02*
X133770000Y-72230000D01*
X130794000Y-88948000D02*
X130794000Y-87748000D01*
X130794000Y-87748000D02*
X131242000Y-87300000D01*
X132431000Y-76205000D02*
X132431000Y-73569000D01*
X130988000Y-77648000D02*
X132431000Y-76205000D01*
X134544000Y-91748000D02*
X137819500Y-91748000D01*
D25*
X108008000Y-72230000D02*
X106919000Y-73319000D01*
X110910000Y-72230000D02*
X108008000Y-72230000D01*
X106919000Y-73319000D02*
X106919000Y-76081500D01*
X106919000Y-76081500D02*
X110263500Y-79426000D01*
X108370000Y-74770000D02*
X108370000Y-75604000D01*
X108370000Y-75604000D02*
X109652000Y-76886000D01*
X127432000Y-76886000D02*
X128702000Y-75616000D01*
X128690000Y-75604000D02*
X128690000Y-74770000D01*
X128702000Y-75616000D02*
X128690000Y-75604000D01*
X116510000Y-83236000D02*
X116510000Y-79426000D01*
X112192000Y-76886000D02*
X127432000Y-76886000D01*
X109652000Y-76886000D02*
X112700000Y-76886000D01*
X116510000Y-79426000D02*
X113970000Y-76886000D01*
X123368000Y-85155000D02*
X118429000Y-85155000D01*
X118429000Y-85155000D02*
X116510000Y-83236000D01*
X113970000Y-76886000D02*
X112192000Y-76886000D01*
D26*
X121044000Y-93248000D02*
X130374000Y-93248000D01*
X133193000Y-89397000D02*
X136306000Y-86284000D01*
X136306000Y-86284000D02*
X137236900Y-85353100D01*
X133193000Y-90429000D02*
X133193000Y-89397000D01*
X137236900Y-85353100D02*
X154685500Y-85353100D01*
X130374000Y-93248000D02*
X133193000Y-90429000D01*
X136744900Y-83321100D02*
X154685500Y-83321100D01*
X132294000Y-88948000D02*
X132294000Y-87772000D01*
X135814000Y-84252000D02*
X136744900Y-83321100D01*
X132294000Y-87772000D02*
X135814000Y-84252000D01*
X121044000Y-94748000D02*
X116592000Y-94748000D01*
X116592000Y-94748000D02*
X112088500Y-90244500D01*
X112088500Y-90244500D02*
X112088500Y-81712000D01*
X112088500Y-81712000D02*
X112088500Y-79426000D01*
D27*
X123294000Y-88948000D02*
X123294000Y-90548000D01*
X123294000Y-90548000D02*
X122094000Y-91748000D01*
X122094000Y-91748000D02*
X121044000Y-91748000D01*
X123368000Y-86905000D02*
X123368000Y-88874000D01*
D26*
X129294000Y-86962000D02*
X129294000Y-88948000D01*
X139878000Y-91721500D02*
X139878000Y-90094000D01*
X129972000Y-86284000D02*
X129294000Y-86962000D01*
X135306000Y-89078000D02*
X135052000Y-88824000D01*
X138862000Y-89078000D02*
X135306000Y-89078000D01*
X139878000Y-90094000D02*
X138862000Y-89078000D01*
X131750000Y-86284000D02*
X129972000Y-86284000D01*
X162156900Y-83321100D02*
X162242000Y-83236000D01*
X156510500Y-83321100D02*
X162156900Y-83321100D01*
X156510500Y-85353100D02*
X162242000Y-85353100D01*
G04 #@! TA.AperFunction,Conductor*
G36*
X162003472Y-70050695D02*
G01*
X162323297Y-70068656D01*
X162337094Y-70070210D01*
X162649466Y-70123284D01*
X162663009Y-70126375D01*
X162896319Y-70193591D01*
X162907983Y-70197592D01*
X163296835Y-70353134D01*
X163310748Y-70359729D01*
X163563149Y-70499227D01*
X163574905Y-70506614D01*
X163833302Y-70689957D01*
X163844174Y-70698627D01*
X164080418Y-70909749D01*
X164090250Y-70919581D01*
X164301372Y-71155825D01*
X164310035Y-71166687D01*
X164493385Y-71425094D01*
X164500778Y-71436860D01*
X164654040Y-71714166D01*
X164660073Y-71726695D01*
X164781317Y-72019406D01*
X164785910Y-72032530D01*
X164873622Y-72336985D01*
X164876716Y-72350542D01*
X164929787Y-72662894D01*
X164931344Y-72676712D01*
X164949305Y-72996527D01*
X164949500Y-73003480D01*
X164949500Y-96996519D01*
X164949305Y-97003472D01*
X164931344Y-97323287D01*
X164929787Y-97337105D01*
X164876716Y-97649457D01*
X164873622Y-97663014D01*
X164785910Y-97967469D01*
X164781317Y-97980593D01*
X164660073Y-98273304D01*
X164654040Y-98285833D01*
X164500778Y-98563139D01*
X164493380Y-98574913D01*
X164310043Y-98833302D01*
X164301372Y-98844174D01*
X164090255Y-99080413D01*
X164080423Y-99090246D01*
X163876011Y-99272920D01*
X163867784Y-99279660D01*
X163722899Y-99388324D01*
X163720254Y-99390253D01*
X163574909Y-99493381D01*
X163563135Y-99500780D01*
X163285833Y-99654040D01*
X163273304Y-99660073D01*
X162980593Y-99781317D01*
X162967469Y-99785910D01*
X162663014Y-99873622D01*
X162649457Y-99876716D01*
X162337105Y-99929787D01*
X162323287Y-99931344D01*
X162003472Y-99949305D01*
X161996519Y-99949500D01*
X136165525Y-99949500D01*
X136098486Y-99929815D01*
X136052731Y-99877011D01*
X136042235Y-99812245D01*
X136043999Y-99795828D01*
X136044000Y-99795827D01*
X136044000Y-98700172D01*
X136043999Y-98700155D01*
X136037598Y-98640627D01*
X136037596Y-98640620D01*
X135987354Y-98505913D01*
X135987350Y-98505906D01*
X135901190Y-98390812D01*
X135794188Y-98310709D01*
X135752318Y-98254775D01*
X135744500Y-98211443D01*
X135744500Y-97228249D01*
X135744499Y-97228247D01*
X135732868Y-97169770D01*
X135732867Y-97169769D01*
X135688552Y-97103447D01*
X135685043Y-97101103D01*
X135640237Y-97047492D01*
X135631528Y-96978167D01*
X135661682Y-96915139D01*
X135685043Y-96894897D01*
X135688552Y-96892552D01*
X135732867Y-96826231D01*
X135732867Y-96826229D01*
X135732868Y-96826229D01*
X135744499Y-96767752D01*
X135744500Y-96767750D01*
X135744500Y-96722500D01*
X135764185Y-96655461D01*
X135816989Y-96609706D01*
X135868500Y-96598500D01*
X138342142Y-96598500D01*
X138342144Y-96598500D01*
X138431288Y-96574614D01*
X138511212Y-96528470D01*
X138655964Y-96383718D01*
X160022500Y-96383718D01*
X160022500Y-96616281D01*
X160058881Y-96845983D01*
X160058881Y-96845986D01*
X160130745Y-97067160D01*
X160130747Y-97067163D01*
X160236328Y-97274379D01*
X160373026Y-97462527D01*
X160537473Y-97626974D01*
X160725621Y-97763672D01*
X160932837Y-97869253D01*
X160932839Y-97869254D01*
X161154014Y-97941118D01*
X161154015Y-97941118D01*
X161154018Y-97941119D01*
X161383718Y-97977500D01*
X161383719Y-97977500D01*
X161616281Y-97977500D01*
X161616282Y-97977500D01*
X161845982Y-97941119D01*
X161845985Y-97941118D01*
X161845986Y-97941118D01*
X162067160Y-97869254D01*
X162067160Y-97869253D01*
X162067163Y-97869253D01*
X162274379Y-97763672D01*
X162462527Y-97626974D01*
X162626974Y-97462527D01*
X162763672Y-97274379D01*
X162869253Y-97067163D01*
X162875642Y-97047500D01*
X162941118Y-96845986D01*
X162941118Y-96845985D01*
X162941119Y-96845982D01*
X162977500Y-96616282D01*
X162977500Y-96383718D01*
X162941119Y-96154018D01*
X162941118Y-96154014D01*
X162941118Y-96154013D01*
X162869254Y-95932839D01*
X162841218Y-95877815D01*
X162763672Y-95725621D01*
X162626974Y-95537473D01*
X162462527Y-95373026D01*
X162274379Y-95236328D01*
X162196404Y-95196598D01*
X162067160Y-95130745D01*
X161845985Y-95058881D01*
X161673707Y-95031595D01*
X161616282Y-95022500D01*
X161383718Y-95022500D01*
X161307151Y-95034627D01*
X161154016Y-95058881D01*
X161154013Y-95058881D01*
X160932839Y-95130745D01*
X160725620Y-95236328D01*
X160618275Y-95314319D01*
X160537473Y-95373026D01*
X160537471Y-95373028D01*
X160537470Y-95373028D01*
X160373028Y-95537470D01*
X160373028Y-95537471D01*
X160373026Y-95537473D01*
X160326796Y-95601103D01*
X160236328Y-95725620D01*
X160130745Y-95932839D01*
X160058881Y-96154013D01*
X160058881Y-96154016D01*
X160022500Y-96383718D01*
X138655964Y-96383718D01*
X138983586Y-96056095D01*
X138991036Y-96049230D01*
X138998598Y-96042814D01*
X139013155Y-96034014D01*
X139067682Y-95984207D01*
X139069385Y-95982763D01*
X139070085Y-95982452D01*
X139077869Y-95976176D01*
X139103503Y-95958002D01*
X139118507Y-95948891D01*
X139175093Y-95919806D01*
X139176905Y-95918894D01*
X139248649Y-95883502D01*
X139256482Y-95879427D01*
X139257358Y-95878947D01*
X139264903Y-95874602D01*
X139352971Y-95821375D01*
X139356539Y-95819169D01*
X139356950Y-95818909D01*
X139359103Y-95816815D01*
X139383514Y-95798361D01*
X139395070Y-95791691D01*
X139479691Y-95707070D01*
X139539527Y-95603431D01*
X139570500Y-95487836D01*
X139570500Y-95368164D01*
X139539527Y-95252569D01*
X139479691Y-95148930D01*
X139395070Y-95064309D01*
X139291431Y-95004473D01*
X139175836Y-94973500D01*
X139056164Y-94973500D01*
X138940569Y-95004473D01*
X138940566Y-95004474D01*
X138836933Y-95064307D01*
X138836931Y-95064308D01*
X138752308Y-95148930D01*
X138740788Y-95168882D01*
X138740558Y-95169277D01*
X138734800Y-95179164D01*
X138719777Y-95196598D01*
X138637334Y-95342285D01*
X138633628Y-95349134D01*
X138633230Y-95349904D01*
X138629731Y-95357006D01*
X138624447Y-95368271D01*
X138621881Y-95373064D01*
X138621856Y-95373109D01*
X138591745Y-95429379D01*
X138576949Y-95451119D01*
X138545784Y-95487834D01*
X138504480Y-95536491D01*
X138502294Y-95540241D01*
X138482856Y-95565460D01*
X138187135Y-95861182D01*
X138125815Y-95894666D01*
X138099456Y-95897500D01*
X135883269Y-95897500D01*
X135816230Y-95877815D01*
X135770475Y-95825011D01*
X135760531Y-95755853D01*
X135789556Y-95692297D01*
X135808958Y-95674234D01*
X135901187Y-95605190D01*
X135901190Y-95605187D01*
X135987350Y-95490093D01*
X135987354Y-95490086D01*
X136037596Y-95355379D01*
X136037598Y-95355372D01*
X136043999Y-95295844D01*
X136044000Y-95295827D01*
X136044000Y-94200172D01*
X136043999Y-94200155D01*
X136037598Y-94140627D01*
X136037597Y-94140623D01*
X136005733Y-94055192D01*
X136000749Y-93985500D01*
X136034233Y-93924177D01*
X136095557Y-93890692D01*
X136154009Y-93892083D01*
X136172356Y-93897000D01*
X136172357Y-93897000D01*
X136264644Y-93897000D01*
X136861526Y-93897000D01*
X136928565Y-93916685D01*
X136974320Y-93969489D01*
X136978567Y-93980044D01*
X136993207Y-94021882D01*
X137073850Y-94131150D01*
X137183118Y-94211793D01*
X137225845Y-94226744D01*
X137311299Y-94256646D01*
X137341730Y-94259500D01*
X137341734Y-94259500D01*
X138350270Y-94259500D01*
X138380699Y-94256646D01*
X138380701Y-94256646D01*
X138444790Y-94234219D01*
X138508882Y-94211793D01*
X138618150Y-94131150D01*
X138698793Y-94021882D01*
X138713433Y-93980044D01*
X138727052Y-93961055D01*
X138736761Y-93939797D01*
X138747036Y-93933193D01*
X138754155Y-93923269D01*
X138775878Y-93914657D01*
X138795539Y-93902023D01*
X138814705Y-93899267D01*
X138819108Y-93897522D01*
X138830474Y-93897000D01*
X138893526Y-93897000D01*
X138960565Y-93916685D01*
X139006320Y-93969489D01*
X139010567Y-93980044D01*
X139025207Y-94021882D01*
X139105850Y-94131150D01*
X139215118Y-94211793D01*
X139257845Y-94226744D01*
X139343299Y-94256646D01*
X139373730Y-94259500D01*
X139373734Y-94259500D01*
X140382270Y-94259500D01*
X140412699Y-94256646D01*
X140412701Y-94256646D01*
X140476790Y-94234219D01*
X140540882Y-94211793D01*
X140650150Y-94131150D01*
X140730793Y-94021882D01*
X140761827Y-93933193D01*
X140775646Y-93893701D01*
X140775646Y-93893699D01*
X140778500Y-93863269D01*
X140778500Y-93229730D01*
X140775646Y-93199300D01*
X140775646Y-93199298D01*
X140742006Y-93103163D01*
X140730793Y-93071118D01*
X140650150Y-92961850D01*
X140540882Y-92881207D01*
X140540880Y-92881206D01*
X140412700Y-92836353D01*
X140382270Y-92833500D01*
X140382266Y-92833500D01*
X139373734Y-92833500D01*
X139373730Y-92833500D01*
X139343300Y-92836353D01*
X139343298Y-92836353D01*
X139215119Y-92881206D01*
X139215117Y-92881207D01*
X139105850Y-92961850D01*
X139025207Y-93071118D01*
X139010567Y-93112956D01*
X138996947Y-93131944D01*
X138987239Y-93153203D01*
X138976963Y-93159806D01*
X138969845Y-93169731D01*
X138948121Y-93178342D01*
X138928461Y-93190977D01*
X138909294Y-93193732D01*
X138904892Y-93195478D01*
X138893526Y-93196000D01*
X138830474Y-93196000D01*
X138763435Y-93176315D01*
X138717680Y-93123511D01*
X138713433Y-93112956D01*
X138710188Y-93103683D01*
X138698793Y-93071118D01*
X138618150Y-92961850D01*
X138508882Y-92881207D01*
X138508880Y-92881206D01*
X138380700Y-92836353D01*
X138350270Y-92833500D01*
X138350266Y-92833500D01*
X137341734Y-92833500D01*
X137341730Y-92833500D01*
X137311300Y-92836353D01*
X137311298Y-92836353D01*
X137183119Y-92881206D01*
X137183117Y-92881207D01*
X137073850Y-92961850D01*
X136993207Y-93071118D01*
X136978567Y-93112956D01*
X136937845Y-93169731D01*
X136872892Y-93195478D01*
X136861526Y-93196000D01*
X136542500Y-93196000D01*
X136533814Y-93193449D01*
X136524853Y-93194738D01*
X136500812Y-93183759D01*
X136475461Y-93176315D01*
X136469533Y-93169474D01*
X136461297Y-93165713D01*
X136447007Y-93143478D01*
X136429706Y-93123511D01*
X136427418Y-93112996D01*
X136423523Y-93106935D01*
X136418500Y-93072000D01*
X136418500Y-92935780D01*
X136422099Y-92906121D01*
X136423796Y-92899235D01*
X136427027Y-92827781D01*
X136428660Y-92812574D01*
X136433935Y-92781600D01*
X136438106Y-92764532D01*
X136457532Y-92704019D01*
X136458171Y-92702082D01*
X136483886Y-92626289D01*
X136486529Y-92617916D01*
X136486809Y-92616958D01*
X136489084Y-92608508D01*
X136511443Y-92517837D01*
X136513707Y-92508657D01*
X136513722Y-92508595D01*
X136514746Y-92504242D01*
X136514852Y-92503768D01*
X136514891Y-92500897D01*
X136519105Y-92470504D01*
X136522500Y-92457836D01*
X136522500Y-92338164D01*
X136500107Y-92254590D01*
X136501770Y-92184743D01*
X136540933Y-92126881D01*
X136605161Y-92099377D01*
X136619882Y-92098500D01*
X136870799Y-92098500D01*
X136937838Y-92118185D01*
X136983593Y-92170989D01*
X136987841Y-92181547D01*
X136993205Y-92196879D01*
X136993206Y-92196881D01*
X136993207Y-92196882D01*
X137073850Y-92306150D01*
X137183118Y-92386793D01*
X137206284Y-92394899D01*
X137311299Y-92431646D01*
X137341730Y-92434500D01*
X137341734Y-92434500D01*
X138350270Y-92434500D01*
X138380699Y-92431646D01*
X138380701Y-92431646D01*
X138444790Y-92409219D01*
X138508882Y-92386793D01*
X138618150Y-92306150D01*
X138698793Y-92196882D01*
X138723287Y-92126881D01*
X138744959Y-92064949D01*
X138785681Y-92008173D01*
X138850634Y-91982426D01*
X138919195Y-91995883D01*
X138969598Y-92044270D01*
X138979041Y-92064949D01*
X139019841Y-92181547D01*
X139025207Y-92196882D01*
X139105850Y-92306150D01*
X139215118Y-92386793D01*
X139238284Y-92394899D01*
X139343299Y-92431646D01*
X139373730Y-92434500D01*
X139373734Y-92434500D01*
X140382270Y-92434500D01*
X140412699Y-92431646D01*
X140412701Y-92431646D01*
X140476790Y-92409219D01*
X140540882Y-92386793D01*
X140650150Y-92306150D01*
X140730793Y-92196882D01*
X140755287Y-92126881D01*
X140775646Y-92068701D01*
X140775646Y-92068699D01*
X140778500Y-92038269D01*
X140778500Y-91404730D01*
X140775646Y-91374300D01*
X140775646Y-91374298D01*
X140730793Y-91246119D01*
X140730792Y-91246117D01*
X140727841Y-91242118D01*
X140650150Y-91136850D01*
X140540882Y-91056207D01*
X140540880Y-91056206D01*
X140412700Y-91011353D01*
X140382270Y-91008500D01*
X140382266Y-91008500D01*
X140352500Y-91008500D01*
X140285461Y-90988815D01*
X140239706Y-90936011D01*
X140228500Y-90884500D01*
X140228500Y-90047858D01*
X140228500Y-90047856D01*
X140204614Y-89958712D01*
X140181043Y-89917886D01*
X140158470Y-89878788D01*
X139077212Y-88797530D01*
X139077211Y-88797529D01*
X139077208Y-88797527D01*
X138997288Y-88751386D01*
X138997286Y-88751385D01*
X138993448Y-88750356D01*
X138993448Y-88750357D01*
X138957394Y-88740696D01*
X138908144Y-88727500D01*
X138908143Y-88727500D01*
X135592824Y-88727500D01*
X135581366Y-88724135D01*
X135569480Y-88725283D01*
X135548458Y-88714472D01*
X135525785Y-88707815D01*
X135516407Y-88697990D01*
X135507345Y-88693330D01*
X135493343Y-88673826D01*
X135485500Y-88665609D01*
X135482722Y-88660810D01*
X135480191Y-88655364D01*
X135451855Y-88600376D01*
X135446367Y-88590413D01*
X135445709Y-88589293D01*
X135434364Y-88577245D01*
X135427476Y-88565343D01*
X135427166Y-88564806D01*
X135427158Y-88564772D01*
X135427106Y-88564703D01*
X135415691Y-88544930D01*
X135331070Y-88460309D01*
X135227431Y-88400473D01*
X135111836Y-88369500D01*
X135015544Y-88369500D01*
X134948505Y-88349815D01*
X134902750Y-88297011D01*
X134892806Y-88227853D01*
X134921831Y-88164297D01*
X134927863Y-88157819D01*
X135762562Y-87323120D01*
X136586470Y-86499212D01*
X136586470Y-86499211D01*
X137345762Y-85739919D01*
X137407085Y-85706434D01*
X137433443Y-85703600D01*
X153848500Y-85703600D01*
X153915539Y-85723285D01*
X153961294Y-85776089D01*
X153972500Y-85827600D01*
X153972500Y-85857369D01*
X153975353Y-85887799D01*
X153975353Y-85887801D01*
X154020206Y-86015980D01*
X154020207Y-86015982D01*
X154100850Y-86125250D01*
X154210118Y-86205893D01*
X154252845Y-86220844D01*
X154338299Y-86250746D01*
X154368730Y-86253600D01*
X154368734Y-86253600D01*
X155002270Y-86253600D01*
X155032699Y-86250746D01*
X155032701Y-86250746D01*
X155103751Y-86225884D01*
X155160882Y-86205893D01*
X155270150Y-86125250D01*
X155350793Y-86015982D01*
X155384270Y-85920311D01*
X155395646Y-85887801D01*
X155395646Y-85887799D01*
X155398500Y-85857369D01*
X155398500Y-84848830D01*
X155395646Y-84818400D01*
X155395646Y-84818398D01*
X155350793Y-84690219D01*
X155350792Y-84690217D01*
X155270150Y-84580950D01*
X155160882Y-84500307D01*
X155160880Y-84500306D01*
X155028949Y-84454141D01*
X154972173Y-84413419D01*
X154946426Y-84348466D01*
X154959883Y-84279905D01*
X155008270Y-84229502D01*
X155028949Y-84220059D01*
X155100260Y-84195105D01*
X155160882Y-84173893D01*
X155270150Y-84093250D01*
X155350793Y-83983982D01*
X155373219Y-83919890D01*
X155395646Y-83855801D01*
X155395646Y-83855799D01*
X155398500Y-83825369D01*
X155398500Y-82816830D01*
X155797500Y-82816830D01*
X155797500Y-83825369D01*
X155800353Y-83855799D01*
X155800353Y-83855801D01*
X155845206Y-83983980D01*
X155845207Y-83983982D01*
X155925850Y-84093250D01*
X156035118Y-84173893D01*
X156093330Y-84194262D01*
X156167051Y-84220059D01*
X156223826Y-84260781D01*
X156249573Y-84325734D01*
X156236116Y-84394295D01*
X156187729Y-84444698D01*
X156167051Y-84454141D01*
X156035117Y-84500307D01*
X155925850Y-84580950D01*
X155845207Y-84690217D01*
X155845206Y-84690219D01*
X155800353Y-84818398D01*
X155800353Y-84818400D01*
X155797500Y-84848830D01*
X155797500Y-85857369D01*
X155800353Y-85887799D01*
X155800353Y-85887801D01*
X155845206Y-86015980D01*
X155845207Y-86015982D01*
X155925850Y-86125250D01*
X156035118Y-86205893D01*
X156077845Y-86220844D01*
X156163299Y-86250746D01*
X156193730Y-86253600D01*
X156193734Y-86253600D01*
X156827270Y-86253600D01*
X156857699Y-86250746D01*
X156857701Y-86250746D01*
X156928751Y-86225884D01*
X156985882Y-86205893D01*
X157095150Y-86125250D01*
X157175793Y-86015982D01*
X157209270Y-85920311D01*
X157220646Y-85887801D01*
X157220646Y-85887799D01*
X157223500Y-85857369D01*
X157223500Y-85827600D01*
X157243185Y-85760561D01*
X157295989Y-85714806D01*
X157347500Y-85703600D01*
X161593205Y-85703600D01*
X161660244Y-85723285D01*
X161703689Y-85771304D01*
X161713949Y-85791440D01*
X161713954Y-85791447D01*
X161803652Y-85881145D01*
X161803654Y-85881146D01*
X161803658Y-85881150D01*
X161906400Y-85933500D01*
X161916698Y-85938747D01*
X162010475Y-85953599D01*
X162010481Y-85953600D01*
X162473518Y-85953599D01*
X162567304Y-85938746D01*
X162680342Y-85881150D01*
X162719251Y-85842241D01*
X162780574Y-85808755D01*
X162850265Y-85813739D01*
X162906199Y-85855609D01*
X162913049Y-85865770D01*
X162986925Y-85987974D01*
X162986928Y-85987978D01*
X163107122Y-86108172D01*
X163252604Y-86196119D01*
X163252603Y-86196119D01*
X163414894Y-86246690D01*
X163414893Y-86246690D01*
X163485408Y-86253098D01*
X163485426Y-86253099D01*
X163992000Y-86253099D01*
X163998581Y-86253099D01*
X164069102Y-86246691D01*
X164069107Y-86246690D01*
X164231396Y-86196118D01*
X164376877Y-86108172D01*
X164497072Y-85987977D01*
X164585019Y-85842495D01*
X164635590Y-85680206D01*
X164642000Y-85609672D01*
X164642000Y-85603100D01*
X163992000Y-85603100D01*
X163992000Y-86253099D01*
X163485426Y-86253099D01*
X163491999Y-86253098D01*
X163492000Y-86253098D01*
X163492000Y-85103100D01*
X163992000Y-85103100D01*
X164641999Y-85103100D01*
X164641999Y-85096517D01*
X164635591Y-85025997D01*
X164635590Y-85025992D01*
X164585018Y-84863703D01*
X164497072Y-84718222D01*
X164376877Y-84598027D01*
X164231395Y-84510080D01*
X164231396Y-84510080D01*
X164069105Y-84459509D01*
X164069106Y-84459509D01*
X163998572Y-84453100D01*
X163992000Y-84453100D01*
X163992000Y-85103100D01*
X163492000Y-85103100D01*
X163492000Y-84453100D01*
X163491999Y-84453099D01*
X163485436Y-84453100D01*
X163485417Y-84453101D01*
X163414897Y-84459508D01*
X163414892Y-84459509D01*
X163252603Y-84510081D01*
X163107122Y-84598027D01*
X162986928Y-84718221D01*
X162986925Y-84718225D01*
X162913049Y-84840429D01*
X162861521Y-84887616D01*
X162792661Y-84899454D01*
X162728333Y-84872184D01*
X162719252Y-84863959D01*
X162680347Y-84825054D01*
X162680344Y-84825052D01*
X162680342Y-84825050D01*
X162602034Y-84785150D01*
X162567301Y-84767452D01*
X162473524Y-84752600D01*
X162010482Y-84752600D01*
X161929519Y-84765423D01*
X161916696Y-84767454D01*
X161803658Y-84825050D01*
X161803657Y-84825051D01*
X161803652Y-84825054D01*
X161713954Y-84914752D01*
X161713949Y-84914759D01*
X161703689Y-84934896D01*
X161655714Y-84985691D01*
X161593205Y-85002600D01*
X157347500Y-85002600D01*
X157280461Y-84982915D01*
X157234706Y-84930111D01*
X157223500Y-84878600D01*
X157223500Y-84848830D01*
X157220646Y-84818400D01*
X157220646Y-84818398D01*
X157175793Y-84690219D01*
X157175792Y-84690217D01*
X157095150Y-84580950D01*
X156985882Y-84500307D01*
X156985880Y-84500306D01*
X156853949Y-84454141D01*
X156797173Y-84413419D01*
X156771426Y-84348466D01*
X156784883Y-84279905D01*
X156833270Y-84229502D01*
X156853949Y-84220059D01*
X156925260Y-84195105D01*
X156985882Y-84173893D01*
X157095150Y-84093250D01*
X157175793Y-83983982D01*
X157198219Y-83919890D01*
X157220646Y-83855801D01*
X157220646Y-83855799D01*
X157223500Y-83825369D01*
X157223500Y-83795600D01*
X157243185Y-83728561D01*
X157295989Y-83682806D01*
X157347500Y-83671600D01*
X161659845Y-83671600D01*
X161726884Y-83691285D01*
X161747526Y-83707919D01*
X161803652Y-83764045D01*
X161803654Y-83764046D01*
X161803658Y-83764050D01*
X161916694Y-83821645D01*
X161916698Y-83821647D01*
X162010475Y-83836499D01*
X162010481Y-83836500D01*
X162473518Y-83836499D01*
X162567304Y-83821646D01*
X162680342Y-83764050D01*
X162719251Y-83725141D01*
X162780574Y-83691655D01*
X162850265Y-83696639D01*
X162906199Y-83738509D01*
X162913049Y-83748670D01*
X162986925Y-83870874D01*
X162986928Y-83870878D01*
X163107122Y-83991072D01*
X163252604Y-84079019D01*
X163252603Y-84079019D01*
X163414894Y-84129590D01*
X163414893Y-84129590D01*
X163485408Y-84135998D01*
X163485426Y-84135999D01*
X163992000Y-84135999D01*
X163998581Y-84135999D01*
X164069102Y-84129591D01*
X164069107Y-84129590D01*
X164231396Y-84079018D01*
X164376877Y-83991072D01*
X164497072Y-83870877D01*
X164585019Y-83725395D01*
X164635590Y-83563106D01*
X164642000Y-83492572D01*
X164642000Y-83486000D01*
X163992000Y-83486000D01*
X163992000Y-84135999D01*
X163485426Y-84135999D01*
X163491999Y-84135998D01*
X163492000Y-84135998D01*
X163492000Y-82986000D01*
X163992000Y-82986000D01*
X164641999Y-82986000D01*
X164641999Y-82979417D01*
X164635591Y-82908897D01*
X164635590Y-82908892D01*
X164585018Y-82746603D01*
X164497072Y-82601122D01*
X164376877Y-82480927D01*
X164231395Y-82392980D01*
X164231396Y-82392980D01*
X164069105Y-82342409D01*
X164069106Y-82342409D01*
X163998572Y-82336000D01*
X163992000Y-82336000D01*
X163992000Y-82986000D01*
X163492000Y-82986000D01*
X163492000Y-82336000D01*
X163491999Y-82335999D01*
X163485436Y-82336000D01*
X163485417Y-82336001D01*
X163414897Y-82342408D01*
X163414892Y-82342409D01*
X163252603Y-82392981D01*
X163107122Y-82480927D01*
X162986928Y-82601121D01*
X162986925Y-82601125D01*
X162913049Y-82723329D01*
X162861521Y-82770516D01*
X162792661Y-82782354D01*
X162728333Y-82755084D01*
X162719252Y-82746859D01*
X162680347Y-82707954D01*
X162680344Y-82707952D01*
X162680342Y-82707950D01*
X162582736Y-82658217D01*
X162567301Y-82650352D01*
X162473524Y-82635500D01*
X162010482Y-82635500D01*
X161929519Y-82648323D01*
X161916696Y-82650354D01*
X161803658Y-82707950D01*
X161803657Y-82707951D01*
X161803652Y-82707954D01*
X161713954Y-82797652D01*
X161713950Y-82797657D01*
X161704181Y-82816830D01*
X161662767Y-82898111D01*
X161660329Y-82902895D01*
X161612354Y-82953691D01*
X161549844Y-82970600D01*
X157347500Y-82970600D01*
X157280461Y-82950915D01*
X157234706Y-82898111D01*
X157223500Y-82846600D01*
X157223500Y-82816830D01*
X157220646Y-82786400D01*
X157220646Y-82786398D01*
X157175793Y-82658219D01*
X157175792Y-82658217D01*
X157169989Y-82650354D01*
X157095150Y-82548950D01*
X156985882Y-82468307D01*
X156985880Y-82468306D01*
X156857700Y-82423453D01*
X156827270Y-82420600D01*
X156827266Y-82420600D01*
X156193734Y-82420600D01*
X156193730Y-82420600D01*
X156163300Y-82423453D01*
X156163298Y-82423453D01*
X156035119Y-82468306D01*
X156035117Y-82468307D01*
X155925850Y-82548950D01*
X155845207Y-82658217D01*
X155845206Y-82658219D01*
X155800353Y-82786398D01*
X155800353Y-82786400D01*
X155797500Y-82816830D01*
X155398500Y-82816830D01*
X155395646Y-82786400D01*
X155395646Y-82786398D01*
X155350793Y-82658219D01*
X155350792Y-82658217D01*
X155344989Y-82650354D01*
X155270150Y-82548950D01*
X155160882Y-82468307D01*
X155160880Y-82468306D01*
X155032700Y-82423453D01*
X155002270Y-82420600D01*
X155002266Y-82420600D01*
X154368734Y-82420600D01*
X154368730Y-82420600D01*
X154338300Y-82423453D01*
X154338298Y-82423453D01*
X154210119Y-82468306D01*
X154210117Y-82468307D01*
X154100850Y-82548950D01*
X154020207Y-82658217D01*
X154020206Y-82658219D01*
X153975353Y-82786398D01*
X153975353Y-82786400D01*
X153972500Y-82816830D01*
X153972500Y-82846600D01*
X153952815Y-82913639D01*
X153900011Y-82959394D01*
X153848500Y-82970600D01*
X136698756Y-82970600D01*
X136609612Y-82994486D01*
X136609611Y-82994486D01*
X136609609Y-82994487D01*
X136609606Y-82994488D01*
X136529694Y-83040626D01*
X136529685Y-83040633D01*
X135581347Y-83988970D01*
X132013531Y-87556786D01*
X132013527Y-87556791D01*
X131975147Y-87623267D01*
X131975143Y-87623275D01*
X131970071Y-87632062D01*
X131967386Y-87636712D01*
X131960744Y-87661496D01*
X131958590Y-87667217D01*
X131941092Y-87690430D01*
X131925963Y-87715253D01*
X131920313Y-87717997D01*
X131916534Y-87723012D01*
X131889263Y-87733081D01*
X131863116Y-87745783D01*
X131852449Y-87746673D01*
X131850989Y-87747213D01*
X131849618Y-87746910D01*
X131842552Y-87747500D01*
X131774251Y-87747500D01*
X131742375Y-87753840D01*
X131672784Y-87747611D01*
X131617607Y-87704747D01*
X131594364Y-87638857D01*
X131610433Y-87570860D01*
X131610799Y-87570222D01*
X131665527Y-87475431D01*
X131696500Y-87359836D01*
X131696500Y-87240164D01*
X131665527Y-87124569D01*
X131605691Y-87020930D01*
X131522728Y-86937967D01*
X131508373Y-86911679D01*
X131491870Y-86886679D01*
X131491804Y-86881334D01*
X131489243Y-86876644D01*
X131491379Y-86846764D01*
X131491012Y-86816814D01*
X131493845Y-86812283D01*
X131494227Y-86806952D01*
X131512178Y-86782972D01*
X131528062Y-86757577D01*
X131532896Y-86755297D01*
X131536099Y-86751019D01*
X131564163Y-86740551D01*
X131591257Y-86727774D01*
X131597758Y-86728021D01*
X131601563Y-86726602D01*
X131626548Y-86727341D01*
X131633391Y-86728239D01*
X131639404Y-86729722D01*
X131643757Y-86730746D01*
X131644231Y-86730852D01*
X131654354Y-86730991D01*
X131661537Y-86731934D01*
X131664697Y-86733330D01*
X131677489Y-86735103D01*
X131690164Y-86738500D01*
X131690166Y-86738500D01*
X131809834Y-86738500D01*
X131809836Y-86738500D01*
X131925431Y-86707527D01*
X132029070Y-86647691D01*
X132113691Y-86563070D01*
X132173527Y-86459431D01*
X132204500Y-86343836D01*
X132204500Y-86224164D01*
X132173527Y-86108569D01*
X132113691Y-86004930D01*
X132029070Y-85920309D01*
X131925431Y-85860473D01*
X131809836Y-85829500D01*
X131690164Y-85829500D01*
X131690158Y-85829500D01*
X131667910Y-85835461D01*
X131667469Y-85835578D01*
X131656402Y-85838498D01*
X131633451Y-85840203D01*
X131472121Y-85884928D01*
X131464407Y-85887230D01*
X131463613Y-85887484D01*
X131456367Y-85889952D01*
X131444651Y-85894186D01*
X131439450Y-85895760D01*
X131439397Y-85895775D01*
X131378322Y-85914271D01*
X131352484Y-85919182D01*
X131240885Y-85928304D01*
X131238541Y-85928921D01*
X131236690Y-85929409D01*
X131205104Y-85933500D01*
X129925856Y-85933500D01*
X129836712Y-85957386D01*
X129836709Y-85957387D01*
X129756791Y-86003527D01*
X129756786Y-86003531D01*
X129013531Y-86746786D01*
X129013527Y-86746791D01*
X128967387Y-86826709D01*
X128967386Y-86826712D01*
X128943500Y-86915856D01*
X128943500Y-87608730D01*
X128923815Y-87675769D01*
X128871011Y-87721524D01*
X128801853Y-87731468D01*
X128738297Y-87702443D01*
X128720234Y-87683042D01*
X128651187Y-87590809D01*
X128536093Y-87504649D01*
X128536086Y-87504645D01*
X128401379Y-87454403D01*
X128401372Y-87454401D01*
X128341844Y-87448000D01*
X127317044Y-87448000D01*
X127250005Y-87428315D01*
X127204250Y-87375511D01*
X127194306Y-87306353D01*
X127223331Y-87242797D01*
X127229363Y-87236319D01*
X128694378Y-85771304D01*
X130171470Y-84294212D01*
X130217614Y-84214288D01*
X130219873Y-84205856D01*
X130241500Y-84125144D01*
X130241500Y-75566495D01*
X130261185Y-75499456D01*
X130313989Y-75453701D01*
X130383147Y-75443757D01*
X130446703Y-75472782D01*
X130453181Y-75478814D01*
X130560342Y-75585975D01*
X130560345Y-75585977D01*
X130732402Y-75700941D01*
X130923580Y-75780130D01*
X131126530Y-75820499D01*
X131126534Y-75820500D01*
X131126535Y-75820500D01*
X131333466Y-75820500D01*
X131333467Y-75820499D01*
X131536420Y-75780130D01*
X131727598Y-75700941D01*
X131727599Y-75700940D01*
X131727600Y-75700940D01*
X131887610Y-75594026D01*
X131954287Y-75573148D01*
X132021667Y-75591633D01*
X132068357Y-75643612D01*
X132080500Y-75697128D01*
X132080500Y-76008455D01*
X132060815Y-76075494D01*
X132044181Y-76096136D01*
X131120429Y-77019887D01*
X131112964Y-77026765D01*
X131105393Y-77033187D01*
X131090844Y-77041984D01*
X131036352Y-77091755D01*
X131034619Y-77093226D01*
X131033919Y-77093536D01*
X131026121Y-77099823D01*
X131000500Y-77117988D01*
X130985467Y-77127117D01*
X130928874Y-77156205D01*
X130927051Y-77157123D01*
X130855366Y-77192488D01*
X130847467Y-77196598D01*
X130846590Y-77197079D01*
X130839091Y-77201398D01*
X130750985Y-77254648D01*
X130747205Y-77256991D01*
X130746783Y-77257258D01*
X130746783Y-77257259D01*
X130744734Y-77259253D01*
X130720265Y-77277764D01*
X130708930Y-77284308D01*
X130624308Y-77368931D01*
X130624307Y-77368933D01*
X130564474Y-77472566D01*
X130564473Y-77472569D01*
X130533500Y-77588164D01*
X130533500Y-77707836D01*
X130564473Y-77823431D01*
X130624309Y-77927070D01*
X130708930Y-78011691D01*
X130812569Y-78071527D01*
X130928164Y-78102500D01*
X130928166Y-78102500D01*
X131047834Y-78102500D01*
X131047836Y-78102500D01*
X131163431Y-78071527D01*
X131267070Y-78011691D01*
X131351691Y-77927070D01*
X131363438Y-77906723D01*
X131369193Y-77896839D01*
X131384225Y-77879398D01*
X131466659Y-77733724D01*
X131470354Y-77726896D01*
X131470764Y-77726103D01*
X131474269Y-77718991D01*
X131479565Y-77707700D01*
X131512248Y-77646622D01*
X131527040Y-77624888D01*
X131599512Y-77539516D01*
X131601701Y-77535762D01*
X131621141Y-77510540D01*
X132111794Y-77019887D01*
X132711470Y-76420212D01*
X132757614Y-76340288D01*
X132764849Y-76313285D01*
X132781500Y-76251144D01*
X132781500Y-75566495D01*
X132801185Y-75499456D01*
X132853989Y-75453701D01*
X132923147Y-75443757D01*
X132986703Y-75472782D01*
X132993181Y-75478814D01*
X133100342Y-75585975D01*
X133100345Y-75585977D01*
X133272402Y-75700941D01*
X133463580Y-75780130D01*
X133666530Y-75820499D01*
X133666534Y-75820500D01*
X133666535Y-75820500D01*
X133873466Y-75820500D01*
X133873467Y-75820499D01*
X134076420Y-75780130D01*
X134267598Y-75700941D01*
X134439655Y-75585977D01*
X134585977Y-75439655D01*
X134700941Y-75267598D01*
X134780130Y-75076420D01*
X134820500Y-74873465D01*
X134820500Y-74666535D01*
X134820499Y-74666530D01*
X135259500Y-74666530D01*
X135259500Y-74873469D01*
X135299868Y-75076412D01*
X135299870Y-75076420D01*
X135365939Y-75235925D01*
X135379059Y-75267598D01*
X135392836Y-75288217D01*
X135494024Y-75439657D01*
X135640342Y-75585975D01*
X135640345Y-75585977D01*
X135812402Y-75700941D01*
X136003580Y-75780130D01*
X136206530Y-75820499D01*
X136206534Y-75820500D01*
X136206535Y-75820500D01*
X136413466Y-75820500D01*
X136413467Y-75820499D01*
X136616420Y-75780130D01*
X136807598Y-75700941D01*
X136979655Y-75585977D01*
X137125977Y-75439655D01*
X137240941Y-75267598D01*
X137309165Y-75102889D01*
X137353004Y-75048488D01*
X137419298Y-75026423D01*
X137486998Y-75043702D01*
X137534609Y-75094839D01*
X137541656Y-75112026D01*
X137598904Y-75288216D01*
X137695375Y-75477550D01*
X137734728Y-75531716D01*
X138367037Y-74899408D01*
X138384075Y-74962993D01*
X138449901Y-75077007D01*
X138542993Y-75170099D01*
X138657007Y-75235925D01*
X138720590Y-75252962D01*
X138088282Y-75885269D01*
X138088282Y-75885270D01*
X138142449Y-75924624D01*
X138331782Y-76021095D01*
X138533870Y-76086757D01*
X138743754Y-76120000D01*
X138956246Y-76120000D01*
X139166127Y-76086757D01*
X139166130Y-76086757D01*
X139368217Y-76021095D01*
X139557554Y-75924622D01*
X139611716Y-75885270D01*
X139611717Y-75885270D01*
X138979408Y-75252962D01*
X139042993Y-75235925D01*
X139157007Y-75170099D01*
X139250099Y-75077007D01*
X139315925Y-74962993D01*
X139332962Y-74899409D01*
X139965270Y-75531717D01*
X139965270Y-75531716D01*
X140004622Y-75477554D01*
X140101095Y-75288217D01*
X140158343Y-75112026D01*
X140197780Y-75054351D01*
X140262139Y-75027152D01*
X140330985Y-75039066D01*
X140382461Y-75086310D01*
X140390835Y-75102891D01*
X140445939Y-75235925D01*
X140459059Y-75267598D01*
X140472836Y-75288217D01*
X140574024Y-75439657D01*
X140720342Y-75585975D01*
X140720345Y-75585977D01*
X140892402Y-75700941D01*
X141083580Y-75780130D01*
X141286530Y-75820499D01*
X141286534Y-75820500D01*
X141286535Y-75820500D01*
X141493466Y-75820500D01*
X141493467Y-75820499D01*
X141696420Y-75780130D01*
X141887598Y-75700941D01*
X142059655Y-75585977D01*
X142205977Y-75439655D01*
X142320941Y-75267598D01*
X142400130Y-75076420D01*
X142440500Y-74873465D01*
X142440500Y-74666535D01*
X142400130Y-74463580D01*
X142320941Y-74272402D01*
X142205977Y-74100345D01*
X142205975Y-74100342D01*
X142059657Y-73954024D01*
X141897965Y-73845986D01*
X141887598Y-73839059D01*
X141887593Y-73839057D01*
X141696420Y-73759870D01*
X141696412Y-73759868D01*
X141493469Y-73719500D01*
X141493465Y-73719500D01*
X141286535Y-73719500D01*
X141286530Y-73719500D01*
X141083587Y-73759868D01*
X141083579Y-73759870D01*
X140892403Y-73839058D01*
X140720342Y-73954024D01*
X140574024Y-74100342D01*
X140459057Y-74272403D01*
X140390835Y-74437108D01*
X140346994Y-74491511D01*
X140280700Y-74513576D01*
X140213000Y-74496297D01*
X140165390Y-74445159D01*
X140158343Y-74427973D01*
X140101095Y-74251782D01*
X140004624Y-74062449D01*
X139965270Y-74008282D01*
X139965269Y-74008282D01*
X139332962Y-74640590D01*
X139315925Y-74577007D01*
X139250099Y-74462993D01*
X139157007Y-74369901D01*
X139042993Y-74304075D01*
X138979409Y-74287037D01*
X139611716Y-73654728D01*
X139557550Y-73615375D01*
X139368216Y-73518904D01*
X139192026Y-73461656D01*
X139134350Y-73422218D01*
X139107152Y-73357860D01*
X139119067Y-73289013D01*
X139166311Y-73237538D01*
X139182882Y-73229168D01*
X139347598Y-73160941D01*
X139519655Y-73045977D01*
X139665977Y-72899655D01*
X139780941Y-72727598D01*
X139860130Y-72536420D01*
X139900500Y-72333465D01*
X139900500Y-72126535D01*
X139900499Y-72126530D01*
X140339500Y-72126530D01*
X140339500Y-72333469D01*
X140379868Y-72536412D01*
X140379870Y-72536420D01*
X140445939Y-72695925D01*
X140459059Y-72727598D01*
X140472836Y-72748217D01*
X140574024Y-72899657D01*
X140720342Y-73045975D01*
X140720345Y-73045977D01*
X140892402Y-73160941D01*
X141083580Y-73240130D01*
X141195912Y-73262474D01*
X141286530Y-73280499D01*
X141286534Y-73280500D01*
X141286535Y-73280500D01*
X141493466Y-73280500D01*
X141493467Y-73280499D01*
X141696420Y-73240130D01*
X141887598Y-73160941D01*
X142059655Y-73045977D01*
X142205977Y-72899655D01*
X142320941Y-72727598D01*
X142389165Y-72562889D01*
X142433004Y-72508488D01*
X142499298Y-72486423D01*
X142566998Y-72503702D01*
X142614609Y-72554839D01*
X142621656Y-72572026D01*
X142678904Y-72748216D01*
X142775375Y-72937550D01*
X142814728Y-72991716D01*
X143447036Y-72359407D01*
X143464075Y-72422993D01*
X143529901Y-72537007D01*
X143622993Y-72630099D01*
X143737007Y-72695925D01*
X143800590Y-72712962D01*
X143168282Y-73345269D01*
X143168282Y-73345270D01*
X143222449Y-73384624D01*
X143411782Y-73481095D01*
X143587973Y-73538343D01*
X143645648Y-73577780D01*
X143672847Y-73642139D01*
X143660932Y-73710985D01*
X143613688Y-73762461D01*
X143597108Y-73770835D01*
X143432403Y-73839057D01*
X143260342Y-73954024D01*
X143114024Y-74100342D01*
X142999058Y-74272403D01*
X142919870Y-74463579D01*
X142919868Y-74463587D01*
X142879500Y-74666530D01*
X142879500Y-74873469D01*
X142919868Y-75076412D01*
X142919870Y-75076420D01*
X142985939Y-75235925D01*
X142999059Y-75267598D01*
X143012836Y-75288217D01*
X143114024Y-75439657D01*
X143260342Y-75585975D01*
X143260345Y-75585977D01*
X143432402Y-75700941D01*
X143623580Y-75780130D01*
X143826530Y-75820499D01*
X143826534Y-75820500D01*
X143826535Y-75820500D01*
X144033466Y-75820500D01*
X144033467Y-75820499D01*
X144236420Y-75780130D01*
X144427598Y-75700941D01*
X144599655Y-75585977D01*
X144745977Y-75439655D01*
X144860941Y-75267598D01*
X144940130Y-75076420D01*
X144980500Y-74873465D01*
X144980500Y-74666535D01*
X144980499Y-74666530D01*
X145419500Y-74666530D01*
X145419500Y-74873469D01*
X145459868Y-75076412D01*
X145459870Y-75076420D01*
X145525939Y-75235925D01*
X145539059Y-75267598D01*
X145552836Y-75288217D01*
X145654024Y-75439657D01*
X145800342Y-75585975D01*
X145800345Y-75585977D01*
X145972402Y-75700941D01*
X146163580Y-75780130D01*
X146366530Y-75820499D01*
X146366534Y-75820500D01*
X146366535Y-75820500D01*
X146573466Y-75820500D01*
X146573467Y-75820499D01*
X146776420Y-75780130D01*
X146967598Y-75700941D01*
X147139655Y-75585977D01*
X147285977Y-75439655D01*
X147400941Y-75267598D01*
X147480130Y-75076420D01*
X147520500Y-74873465D01*
X147520500Y-74666535D01*
X147480130Y-74463580D01*
X147400941Y-74272402D01*
X147285977Y-74100345D01*
X147285975Y-74100342D01*
X147139657Y-73954024D01*
X146977965Y-73845986D01*
X146967598Y-73839059D01*
X146967593Y-73839057D01*
X146776420Y-73759870D01*
X146776412Y-73759868D01*
X146573469Y-73719500D01*
X146573465Y-73719500D01*
X146366535Y-73719500D01*
X146366530Y-73719500D01*
X146163587Y-73759868D01*
X146163579Y-73759870D01*
X145972403Y-73839058D01*
X145800342Y-73954024D01*
X145654024Y-74100342D01*
X145539058Y-74272403D01*
X145459870Y-74463579D01*
X145459868Y-74463587D01*
X145419500Y-74666530D01*
X144980499Y-74666530D01*
X144940130Y-74463580D01*
X144860941Y-74272402D01*
X144745977Y-74100345D01*
X144745975Y-74100342D01*
X144599657Y-73954024D01*
X144437965Y-73845986D01*
X144427598Y-73839059D01*
X144427593Y-73839057D01*
X144274028Y-73775448D01*
X144262890Y-73770834D01*
X144208488Y-73726994D01*
X144186423Y-73660700D01*
X144203702Y-73593001D01*
X144254839Y-73545390D01*
X144272026Y-73538343D01*
X144448217Y-73481095D01*
X144637554Y-73384622D01*
X144691716Y-73345270D01*
X144691717Y-73345270D01*
X144059408Y-72712962D01*
X144122993Y-72695925D01*
X144237007Y-72630099D01*
X144330099Y-72537007D01*
X144395925Y-72422993D01*
X144412962Y-72359408D01*
X145045270Y-72991717D01*
X145045270Y-72991716D01*
X145084622Y-72937554D01*
X145181095Y-72748217D01*
X145238343Y-72572026D01*
X145277780Y-72514351D01*
X145342139Y-72487152D01*
X145410985Y-72499066D01*
X145462461Y-72546310D01*
X145470835Y-72562891D01*
X145525939Y-72695925D01*
X145539059Y-72727598D01*
X145552836Y-72748217D01*
X145654024Y-72899657D01*
X145800342Y-73045975D01*
X145800345Y-73045977D01*
X145972402Y-73160941D01*
X146163580Y-73240130D01*
X146275912Y-73262474D01*
X146366530Y-73280499D01*
X146366534Y-73280500D01*
X146366535Y-73280500D01*
X146573466Y-73280500D01*
X146573467Y-73280499D01*
X146776420Y-73240130D01*
X146967598Y-73160941D01*
X147139655Y-73045977D01*
X147285977Y-72899655D01*
X147400941Y-72727598D01*
X147469165Y-72562889D01*
X147513004Y-72508488D01*
X147579298Y-72486423D01*
X147646998Y-72503702D01*
X147694609Y-72554839D01*
X147701656Y-72572026D01*
X147758904Y-72748216D01*
X147855375Y-72937550D01*
X147894728Y-72991716D01*
X148527036Y-72359407D01*
X148544075Y-72422993D01*
X148609901Y-72537007D01*
X148702993Y-72630099D01*
X148817007Y-72695925D01*
X148880590Y-72712962D01*
X148248282Y-73345269D01*
X148248282Y-73345270D01*
X148302449Y-73384624D01*
X148491782Y-73481095D01*
X148667973Y-73538343D01*
X148725648Y-73577780D01*
X148752847Y-73642139D01*
X148740932Y-73710985D01*
X148693688Y-73762461D01*
X148677108Y-73770835D01*
X148512403Y-73839057D01*
X148340342Y-73954024D01*
X148194024Y-74100342D01*
X148079058Y-74272403D01*
X147999870Y-74463579D01*
X147999868Y-74463587D01*
X147959500Y-74666530D01*
X147959500Y-74873469D01*
X147999868Y-75076412D01*
X147999870Y-75076420D01*
X148065939Y-75235925D01*
X148079059Y-75267598D01*
X148092836Y-75288217D01*
X148194024Y-75439657D01*
X148340342Y-75585975D01*
X148340345Y-75585977D01*
X148512402Y-75700941D01*
X148703580Y-75780130D01*
X148906530Y-75820499D01*
X148906534Y-75820500D01*
X148906535Y-75820500D01*
X149113466Y-75820500D01*
X149113467Y-75820499D01*
X149316420Y-75780130D01*
X149507598Y-75700941D01*
X149679655Y-75585977D01*
X149825977Y-75439655D01*
X149940941Y-75267598D01*
X150020130Y-75076420D01*
X150060500Y-74873465D01*
X150060500Y-74666535D01*
X150060499Y-74666530D01*
X150499500Y-74666530D01*
X150499500Y-74873469D01*
X150539868Y-75076412D01*
X150539870Y-75076420D01*
X150605939Y-75235925D01*
X150619059Y-75267598D01*
X150632836Y-75288217D01*
X150734024Y-75439657D01*
X150880342Y-75585975D01*
X150880345Y-75585977D01*
X151052402Y-75700941D01*
X151243580Y-75780130D01*
X151446530Y-75820499D01*
X151446534Y-75820500D01*
X151446535Y-75820500D01*
X151653466Y-75820500D01*
X151653467Y-75820499D01*
X151856420Y-75780130D01*
X152047598Y-75700941D01*
X152219655Y-75585977D01*
X152365977Y-75439655D01*
X152480941Y-75267598D01*
X152560130Y-75076420D01*
X152600500Y-74873465D01*
X152600500Y-74666535D01*
X152600499Y-74666530D01*
X153039500Y-74666530D01*
X153039500Y-74873469D01*
X153079868Y-75076412D01*
X153079870Y-75076420D01*
X153145939Y-75235925D01*
X153159059Y-75267598D01*
X153172836Y-75288217D01*
X153274024Y-75439657D01*
X153420342Y-75585975D01*
X153420345Y-75585977D01*
X153592402Y-75700941D01*
X153783580Y-75780130D01*
X153986530Y-75820499D01*
X153986534Y-75820500D01*
X153986535Y-75820500D01*
X154193466Y-75820500D01*
X154193467Y-75820499D01*
X154396420Y-75780130D01*
X154587598Y-75700941D01*
X154759655Y-75585977D01*
X154905977Y-75439655D01*
X155020941Y-75267598D01*
X155089165Y-75102889D01*
X155133004Y-75048488D01*
X155199298Y-75026423D01*
X155266998Y-75043702D01*
X155314609Y-75094839D01*
X155321656Y-75112026D01*
X155378904Y-75288216D01*
X155475375Y-75477550D01*
X155514728Y-75531716D01*
X156147036Y-74899407D01*
X156164075Y-74962993D01*
X156229901Y-75077007D01*
X156322993Y-75170099D01*
X156437007Y-75235925D01*
X156500590Y-75252962D01*
X155868282Y-75885269D01*
X155868282Y-75885270D01*
X155922449Y-75924624D01*
X156111782Y-76021095D01*
X156313870Y-76086757D01*
X156523754Y-76120000D01*
X156736246Y-76120000D01*
X156946127Y-76086757D01*
X156946130Y-76086757D01*
X157148217Y-76021095D01*
X157337554Y-75924622D01*
X157391716Y-75885270D01*
X157391717Y-75885270D01*
X156759408Y-75252962D01*
X156822993Y-75235925D01*
X156937007Y-75170099D01*
X157030099Y-75077007D01*
X157095925Y-74962993D01*
X157112962Y-74899408D01*
X157745270Y-75531717D01*
X157745270Y-75531716D01*
X157784622Y-75477554D01*
X157881095Y-75288217D01*
X157946757Y-75086130D01*
X157946757Y-75086127D01*
X157980000Y-74876246D01*
X157980000Y-74663753D01*
X157946757Y-74453872D01*
X157946757Y-74453869D01*
X157881095Y-74251782D01*
X157784624Y-74062449D01*
X157745270Y-74008282D01*
X157745269Y-74008282D01*
X157112962Y-74640590D01*
X157095925Y-74577007D01*
X157030099Y-74462993D01*
X156937007Y-74369901D01*
X156822993Y-74304075D01*
X156759409Y-74287037D01*
X157391716Y-73654728D01*
X157337550Y-73615375D01*
X157148218Y-73518905D01*
X157080116Y-73496777D01*
X157080116Y-73496776D01*
X156972026Y-73461656D01*
X156914350Y-73422218D01*
X156898080Y-73383718D01*
X160022500Y-73383718D01*
X160022500Y-73616281D01*
X160058881Y-73845983D01*
X160058881Y-73845986D01*
X160130745Y-74067160D01*
X160153791Y-74112390D01*
X160236328Y-74274379D01*
X160373026Y-74462527D01*
X160537473Y-74626974D01*
X160725621Y-74763672D01*
X160932837Y-74869253D01*
X160932839Y-74869254D01*
X161154014Y-74941118D01*
X161154015Y-74941118D01*
X161154018Y-74941119D01*
X161383718Y-74977500D01*
X161383719Y-74977500D01*
X161616281Y-74977500D01*
X161616282Y-74977500D01*
X161845982Y-74941119D01*
X161845985Y-74941118D01*
X161845986Y-74941118D01*
X162067160Y-74869254D01*
X162067160Y-74869253D01*
X162067163Y-74869253D01*
X162274379Y-74763672D01*
X162462527Y-74626974D01*
X162626974Y-74462527D01*
X162763672Y-74274379D01*
X162869253Y-74067163D01*
X162888385Y-74008282D01*
X162941118Y-73845986D01*
X162941118Y-73845985D01*
X162941119Y-73845982D01*
X162977500Y-73616282D01*
X162977500Y-73383718D01*
X162941119Y-73154018D01*
X162941118Y-73154014D01*
X162941118Y-73154013D01*
X162869254Y-72932839D01*
X162869253Y-72932837D01*
X162763672Y-72725621D01*
X162626974Y-72537473D01*
X162462527Y-72373026D01*
X162274379Y-72236328D01*
X162132768Y-72164174D01*
X162067160Y-72130745D01*
X161845985Y-72058881D01*
X161673707Y-72031595D01*
X161616282Y-72022500D01*
X161383718Y-72022500D01*
X161320391Y-72032530D01*
X161154016Y-72058881D01*
X161154013Y-72058881D01*
X160932839Y-72130745D01*
X160725620Y-72236328D01*
X160643729Y-72295826D01*
X160537473Y-72373026D01*
X160537471Y-72373028D01*
X160537470Y-72373028D01*
X160373028Y-72537470D01*
X160373028Y-72537471D01*
X160373026Y-72537473D01*
X160366606Y-72546310D01*
X160236328Y-72725620D01*
X160130745Y-72932839D01*
X160058881Y-73154013D01*
X160058881Y-73154016D01*
X160022500Y-73383718D01*
X156898080Y-73383718D01*
X156887152Y-73357860D01*
X156899067Y-73289013D01*
X156946311Y-73237538D01*
X156962882Y-73229168D01*
X157127598Y-73160941D01*
X157299655Y-73045977D01*
X157445977Y-72899655D01*
X157560941Y-72727598D01*
X157640130Y-72536420D01*
X157680500Y-72333465D01*
X157680500Y-72126535D01*
X157640130Y-71923580D01*
X157560941Y-71732402D01*
X157445977Y-71560345D01*
X157445975Y-71560342D01*
X157299657Y-71414024D01*
X157183332Y-71336299D01*
X157127598Y-71299059D01*
X156936420Y-71219870D01*
X156936412Y-71219868D01*
X156733469Y-71179500D01*
X156733465Y-71179500D01*
X156526535Y-71179500D01*
X156526530Y-71179500D01*
X156323587Y-71219868D01*
X156323579Y-71219870D01*
X156132403Y-71299058D01*
X155960342Y-71414024D01*
X155814024Y-71560342D01*
X155699058Y-71732403D01*
X155619870Y-71923579D01*
X155619868Y-71923587D01*
X155579500Y-72126530D01*
X155579500Y-72333469D01*
X155619868Y-72536412D01*
X155619870Y-72536420D01*
X155685939Y-72695925D01*
X155699059Y-72727598D01*
X155712836Y-72748217D01*
X155814024Y-72899657D01*
X155960342Y-73045975D01*
X156132405Y-73160943D01*
X156211650Y-73193767D01*
X156297108Y-73229164D01*
X156351511Y-73273005D01*
X156373576Y-73339299D01*
X156356297Y-73406998D01*
X156305160Y-73454609D01*
X156287974Y-73461656D01*
X156111781Y-73518905D01*
X155922439Y-73615380D01*
X155868282Y-73654727D01*
X155868282Y-73654728D01*
X156500591Y-74287037D01*
X156437007Y-74304075D01*
X156322993Y-74369901D01*
X156229901Y-74462993D01*
X156164075Y-74577007D01*
X156147037Y-74640591D01*
X155514728Y-74008282D01*
X155514727Y-74008282D01*
X155475380Y-74062439D01*
X155378905Y-74251781D01*
X155321656Y-74427974D01*
X155282218Y-74485649D01*
X155217859Y-74512847D01*
X155149013Y-74500932D01*
X155097537Y-74453688D01*
X155089164Y-74437107D01*
X155078499Y-74411360D01*
X155061327Y-74369901D01*
X155020943Y-74272405D01*
X154905975Y-74100342D01*
X154759657Y-73954024D01*
X154597965Y-73845986D01*
X154587598Y-73839059D01*
X154587593Y-73839057D01*
X154396420Y-73759870D01*
X154396412Y-73759868D01*
X154193469Y-73719500D01*
X154193465Y-73719500D01*
X153986535Y-73719500D01*
X153986530Y-73719500D01*
X153783587Y-73759868D01*
X153783579Y-73759870D01*
X153592403Y-73839058D01*
X153420342Y-73954024D01*
X153274024Y-74100342D01*
X153159058Y-74272403D01*
X153079870Y-74463579D01*
X153079868Y-74463587D01*
X153039500Y-74666530D01*
X152600499Y-74666530D01*
X152560130Y-74463580D01*
X152480941Y-74272402D01*
X152365977Y-74100345D01*
X152365975Y-74100342D01*
X152219657Y-73954024D01*
X152057965Y-73845986D01*
X152047598Y-73839059D01*
X152047593Y-73839057D01*
X151856420Y-73759870D01*
X151856412Y-73759868D01*
X151653469Y-73719500D01*
X151653465Y-73719500D01*
X151446535Y-73719500D01*
X151446530Y-73719500D01*
X151243587Y-73759868D01*
X151243579Y-73759870D01*
X151052403Y-73839058D01*
X150880342Y-73954024D01*
X150734024Y-74100342D01*
X150619058Y-74272403D01*
X150539870Y-74463579D01*
X150539868Y-74463587D01*
X150499500Y-74666530D01*
X150060499Y-74666530D01*
X150020130Y-74463580D01*
X149940941Y-74272402D01*
X149825977Y-74100345D01*
X149825975Y-74100342D01*
X149679657Y-73954024D01*
X149517965Y-73845986D01*
X149507598Y-73839059D01*
X149507593Y-73839057D01*
X149354028Y-73775448D01*
X149342890Y-73770834D01*
X149288488Y-73726994D01*
X149266423Y-73660700D01*
X149283702Y-73593001D01*
X149334839Y-73545390D01*
X149352026Y-73538343D01*
X149528217Y-73481095D01*
X149717554Y-73384622D01*
X149771716Y-73345270D01*
X149771717Y-73345270D01*
X149139408Y-72712962D01*
X149202993Y-72695925D01*
X149317007Y-72630099D01*
X149410099Y-72537007D01*
X149475925Y-72422993D01*
X149492962Y-72359408D01*
X150125270Y-72991717D01*
X150125270Y-72991716D01*
X150164622Y-72937554D01*
X150261095Y-72748217D01*
X150318343Y-72572026D01*
X150357780Y-72514351D01*
X150422139Y-72487152D01*
X150490985Y-72499066D01*
X150542461Y-72546310D01*
X150550835Y-72562891D01*
X150605939Y-72695925D01*
X150619059Y-72727598D01*
X150632836Y-72748217D01*
X150734024Y-72899657D01*
X150880342Y-73045975D01*
X150880345Y-73045977D01*
X151052402Y-73160941D01*
X151243580Y-73240130D01*
X151355912Y-73262474D01*
X151446530Y-73280499D01*
X151446534Y-73280500D01*
X151446535Y-73280500D01*
X151653466Y-73280500D01*
X151653467Y-73280499D01*
X151856420Y-73240130D01*
X152047598Y-73160941D01*
X152219655Y-73045977D01*
X152365977Y-72899655D01*
X152480941Y-72727598D01*
X152560130Y-72536420D01*
X152600500Y-72333465D01*
X152600500Y-72126535D01*
X152600499Y-72126530D01*
X153039500Y-72126530D01*
X153039500Y-72333469D01*
X153079868Y-72536412D01*
X153079870Y-72536420D01*
X153145939Y-72695925D01*
X153159059Y-72727598D01*
X153172836Y-72748217D01*
X153274024Y-72899657D01*
X153420342Y-73045975D01*
X153420345Y-73045977D01*
X153592402Y-73160941D01*
X153783580Y-73240130D01*
X153895912Y-73262474D01*
X153986530Y-73280499D01*
X153986534Y-73280500D01*
X153986535Y-73280500D01*
X154193466Y-73280500D01*
X154193467Y-73280499D01*
X154396420Y-73240130D01*
X154587598Y-73160941D01*
X154759655Y-73045977D01*
X154905977Y-72899655D01*
X155020941Y-72727598D01*
X155100130Y-72536420D01*
X155140500Y-72333465D01*
X155140500Y-72126535D01*
X155100130Y-71923580D01*
X155020941Y-71732402D01*
X154905977Y-71560345D01*
X154905975Y-71560342D01*
X154759657Y-71414024D01*
X154643332Y-71336299D01*
X154587598Y-71299059D01*
X154396420Y-71219870D01*
X154396412Y-71219868D01*
X154193469Y-71179500D01*
X154193465Y-71179500D01*
X153986535Y-71179500D01*
X153986530Y-71179500D01*
X153783587Y-71219868D01*
X153783579Y-71219870D01*
X153592403Y-71299058D01*
X153420342Y-71414024D01*
X153274024Y-71560342D01*
X153159058Y-71732403D01*
X153079870Y-71923579D01*
X153079868Y-71923587D01*
X153039500Y-72126530D01*
X152600499Y-72126530D01*
X152560130Y-71923580D01*
X152480941Y-71732402D01*
X152365977Y-71560345D01*
X152365975Y-71560342D01*
X152219657Y-71414024D01*
X152103332Y-71336299D01*
X152047598Y-71299059D01*
X151856420Y-71219870D01*
X151856412Y-71219868D01*
X151653469Y-71179500D01*
X151653465Y-71179500D01*
X151446535Y-71179500D01*
X151446530Y-71179500D01*
X151243587Y-71219868D01*
X151243579Y-71219870D01*
X151052403Y-71299058D01*
X150880342Y-71414024D01*
X150734024Y-71560342D01*
X150619057Y-71732403D01*
X150550835Y-71897108D01*
X150506994Y-71951511D01*
X150440700Y-71973576D01*
X150373000Y-71956297D01*
X150325390Y-71905159D01*
X150318343Y-71887973D01*
X150261095Y-71711782D01*
X150164624Y-71522449D01*
X150125270Y-71468282D01*
X149492962Y-72100590D01*
X149475925Y-72037007D01*
X149410099Y-71922993D01*
X149317007Y-71829901D01*
X149202993Y-71764075D01*
X149139409Y-71747037D01*
X149771716Y-71114728D01*
X149717550Y-71075375D01*
X149528217Y-70978904D01*
X149326129Y-70913242D01*
X149116246Y-70880000D01*
X148903754Y-70880000D01*
X148693872Y-70913242D01*
X148693869Y-70913242D01*
X148491782Y-70978904D01*
X148302439Y-71075380D01*
X148248282Y-71114727D01*
X148248282Y-71114728D01*
X148880591Y-71747037D01*
X148817007Y-71764075D01*
X148702993Y-71829901D01*
X148609901Y-71922993D01*
X148544075Y-72037007D01*
X148527037Y-72100591D01*
X147894728Y-71468282D01*
X147894727Y-71468282D01*
X147855380Y-71522439D01*
X147758905Y-71711781D01*
X147701656Y-71887974D01*
X147662218Y-71945649D01*
X147597859Y-71972847D01*
X147529013Y-71960932D01*
X147477537Y-71913688D01*
X147469164Y-71897107D01*
X147400943Y-71732405D01*
X147285975Y-71560342D01*
X147139657Y-71414024D01*
X147023332Y-71336299D01*
X146967598Y-71299059D01*
X146776420Y-71219870D01*
X146776412Y-71219868D01*
X146573469Y-71179500D01*
X146573465Y-71179500D01*
X146366535Y-71179500D01*
X146366530Y-71179500D01*
X146163587Y-71219868D01*
X146163579Y-71219870D01*
X145972403Y-71299058D01*
X145800342Y-71414024D01*
X145654024Y-71560342D01*
X145539057Y-71732403D01*
X145470835Y-71897108D01*
X145426994Y-71951511D01*
X145360700Y-71973576D01*
X145293000Y-71956297D01*
X145245390Y-71905159D01*
X145238343Y-71887973D01*
X145181095Y-71711782D01*
X145084624Y-71522449D01*
X145045270Y-71468282D01*
X144412962Y-72100590D01*
X144395925Y-72037007D01*
X144330099Y-71922993D01*
X144237007Y-71829901D01*
X144122993Y-71764075D01*
X144059409Y-71747037D01*
X144691716Y-71114728D01*
X144637550Y-71075375D01*
X144448217Y-70978904D01*
X144246129Y-70913242D01*
X144036246Y-70880000D01*
X143823754Y-70880000D01*
X143613872Y-70913242D01*
X143613869Y-70913242D01*
X143411782Y-70978904D01*
X143222439Y-71075380D01*
X143168282Y-71114727D01*
X143168282Y-71114728D01*
X143800591Y-71747037D01*
X143737007Y-71764075D01*
X143622993Y-71829901D01*
X143529901Y-71922993D01*
X143464075Y-72037007D01*
X143447037Y-72100591D01*
X142814728Y-71468282D01*
X142814727Y-71468282D01*
X142775380Y-71522439D01*
X142678905Y-71711781D01*
X142621656Y-71887974D01*
X142582218Y-71945649D01*
X142517859Y-71972847D01*
X142449013Y-71960932D01*
X142397537Y-71913688D01*
X142389164Y-71897107D01*
X142320943Y-71732405D01*
X142205975Y-71560342D01*
X142059657Y-71414024D01*
X141943332Y-71336299D01*
X141887598Y-71299059D01*
X141696420Y-71219870D01*
X141696412Y-71219868D01*
X141493469Y-71179500D01*
X141493465Y-71179500D01*
X141286535Y-71179500D01*
X141286530Y-71179500D01*
X141083587Y-71219868D01*
X141083579Y-71219870D01*
X140892403Y-71299058D01*
X140720342Y-71414024D01*
X140574024Y-71560342D01*
X140459058Y-71732403D01*
X140379870Y-71923579D01*
X140379868Y-71923587D01*
X140339500Y-72126530D01*
X139900499Y-72126530D01*
X139860130Y-71923580D01*
X139780941Y-71732402D01*
X139665977Y-71560345D01*
X139665975Y-71560342D01*
X139519657Y-71414024D01*
X139403332Y-71336299D01*
X139347598Y-71299059D01*
X139156420Y-71219870D01*
X139156412Y-71219868D01*
X138953469Y-71179500D01*
X138953465Y-71179500D01*
X138746535Y-71179500D01*
X138746530Y-71179500D01*
X138543587Y-71219868D01*
X138543579Y-71219870D01*
X138352403Y-71299058D01*
X138180342Y-71414024D01*
X138034024Y-71560342D01*
X137919058Y-71732403D01*
X137839870Y-71923579D01*
X137839868Y-71923587D01*
X137799500Y-72126530D01*
X137799500Y-72333469D01*
X137839868Y-72536412D01*
X137839870Y-72536420D01*
X137905939Y-72695925D01*
X137919059Y-72727598D01*
X137932836Y-72748217D01*
X138034024Y-72899657D01*
X138180342Y-73045975D01*
X138352405Y-73160943D01*
X138431650Y-73193767D01*
X138517108Y-73229164D01*
X138571511Y-73273005D01*
X138593576Y-73339299D01*
X138576297Y-73406998D01*
X138525160Y-73454609D01*
X138507974Y-73461656D01*
X138331781Y-73518905D01*
X138142439Y-73615380D01*
X138088282Y-73654727D01*
X138088282Y-73654728D01*
X138720591Y-74287037D01*
X138657007Y-74304075D01*
X138542993Y-74369901D01*
X138449901Y-74462993D01*
X138384075Y-74577007D01*
X138367037Y-74640590D01*
X137734728Y-74008282D01*
X137734727Y-74008282D01*
X137695380Y-74062439D01*
X137598905Y-74251781D01*
X137541656Y-74427974D01*
X137502218Y-74485649D01*
X137437859Y-74512847D01*
X137369013Y-74500932D01*
X137317537Y-74453688D01*
X137309164Y-74437107D01*
X137298499Y-74411360D01*
X137281327Y-74369901D01*
X137240943Y-74272405D01*
X137125975Y-74100342D01*
X136979657Y-73954024D01*
X136817965Y-73845986D01*
X136807598Y-73839059D01*
X136807593Y-73839057D01*
X136616420Y-73759870D01*
X136616412Y-73759868D01*
X136413469Y-73719500D01*
X136413465Y-73719500D01*
X136206535Y-73719500D01*
X136206530Y-73719500D01*
X136003587Y-73759868D01*
X136003579Y-73759870D01*
X135812403Y-73839058D01*
X135640342Y-73954024D01*
X135494024Y-74100342D01*
X135379058Y-74272403D01*
X135299870Y-74463579D01*
X135299868Y-74463587D01*
X135259500Y-74666530D01*
X134820499Y-74666530D01*
X134780130Y-74463580D01*
X134700941Y-74272402D01*
X134585977Y-74100345D01*
X134585975Y-74100342D01*
X134439657Y-73954024D01*
X134277965Y-73845986D01*
X134267598Y-73839059D01*
X134267593Y-73839057D01*
X134076420Y-73759870D01*
X134076412Y-73759868D01*
X133873469Y-73719500D01*
X133873465Y-73719500D01*
X133666535Y-73719500D01*
X133666530Y-73719500D01*
X133463587Y-73759868D01*
X133463579Y-73759870D01*
X133272403Y-73839058D01*
X133100342Y-73954024D01*
X133100341Y-73954025D01*
X132993181Y-74061186D01*
X132973744Y-74071798D01*
X132957011Y-74086299D01*
X132943679Y-74088215D01*
X132931858Y-74094671D01*
X132909771Y-74093091D01*
X132887853Y-74096243D01*
X132875601Y-74090647D01*
X132862166Y-74089687D01*
X132844439Y-74076416D01*
X132824297Y-74067218D01*
X132817014Y-74055886D01*
X132806233Y-74047815D01*
X132798495Y-74027069D01*
X132786523Y-74008440D01*
X132783371Y-73986521D01*
X132781816Y-73982351D01*
X132781500Y-73973505D01*
X132781500Y-73765543D01*
X132801185Y-73698504D01*
X132817815Y-73677866D01*
X133257896Y-73237784D01*
X133319217Y-73204301D01*
X133388908Y-73209285D01*
X133393028Y-73210906D01*
X133463580Y-73240130D01*
X133575912Y-73262474D01*
X133666530Y-73280499D01*
X133666534Y-73280500D01*
X133666535Y-73280500D01*
X133873466Y-73280500D01*
X133873467Y-73280499D01*
X134076420Y-73240130D01*
X134267598Y-73160941D01*
X134439655Y-73045977D01*
X134585977Y-72899655D01*
X134700941Y-72727598D01*
X134780130Y-72536420D01*
X134820500Y-72333465D01*
X134820500Y-72126535D01*
X134820499Y-72126530D01*
X135259500Y-72126530D01*
X135259500Y-72333469D01*
X135299868Y-72536412D01*
X135299870Y-72536420D01*
X135365939Y-72695925D01*
X135379059Y-72727598D01*
X135392836Y-72748217D01*
X135494024Y-72899657D01*
X135640342Y-73045975D01*
X135640345Y-73045977D01*
X135812402Y-73160941D01*
X136003580Y-73240130D01*
X136115912Y-73262474D01*
X136206530Y-73280499D01*
X136206534Y-73280500D01*
X136206535Y-73280500D01*
X136413466Y-73280500D01*
X136413467Y-73280499D01*
X136616420Y-73240130D01*
X136807598Y-73160941D01*
X136979655Y-73045977D01*
X137125977Y-72899655D01*
X137240941Y-72727598D01*
X137320130Y-72536420D01*
X137360500Y-72333465D01*
X137360500Y-72126535D01*
X137320130Y-71923580D01*
X137240941Y-71732402D01*
X137125977Y-71560345D01*
X137125975Y-71560342D01*
X136979657Y-71414024D01*
X136863332Y-71336299D01*
X136807598Y-71299059D01*
X136616420Y-71219870D01*
X136616412Y-71219868D01*
X136413469Y-71179500D01*
X136413465Y-71179500D01*
X136206535Y-71179500D01*
X136206530Y-71179500D01*
X136003587Y-71219868D01*
X136003579Y-71219870D01*
X135812403Y-71299058D01*
X135640342Y-71414024D01*
X135494024Y-71560342D01*
X135379058Y-71732403D01*
X135299870Y-71923579D01*
X135299868Y-71923587D01*
X135259500Y-72126530D01*
X134820499Y-72126530D01*
X134780130Y-71923580D01*
X134700941Y-71732402D01*
X134585977Y-71560345D01*
X134585975Y-71560342D01*
X134439657Y-71414024D01*
X134323332Y-71336299D01*
X134267598Y-71299059D01*
X134076420Y-71219870D01*
X134076412Y-71219868D01*
X133873469Y-71179500D01*
X133873465Y-71179500D01*
X133666535Y-71179500D01*
X133666530Y-71179500D01*
X133463587Y-71219868D01*
X133463579Y-71219870D01*
X133272403Y-71299058D01*
X133100342Y-71414024D01*
X132954024Y-71560342D01*
X132839057Y-71732403D01*
X132770835Y-71897108D01*
X132726994Y-71951511D01*
X132660700Y-71973576D01*
X132593000Y-71956297D01*
X132545390Y-71905159D01*
X132538343Y-71887973D01*
X132481095Y-71711782D01*
X132384624Y-71522449D01*
X132345270Y-71468282D01*
X132345269Y-71468282D01*
X131712962Y-72100590D01*
X131695925Y-72037007D01*
X131630099Y-71922993D01*
X131537007Y-71829901D01*
X131422993Y-71764075D01*
X131359409Y-71747037D01*
X131991716Y-71114728D01*
X131937550Y-71075375D01*
X131748217Y-70978904D01*
X131546129Y-70913242D01*
X131336246Y-70880000D01*
X131123754Y-70880000D01*
X130913872Y-70913242D01*
X130913869Y-70913242D01*
X130711782Y-70978904D01*
X130522439Y-71075380D01*
X130468282Y-71114727D01*
X130468282Y-71114728D01*
X131100591Y-71747037D01*
X131037007Y-71764075D01*
X130922993Y-71829901D01*
X130829901Y-71922993D01*
X130764075Y-72037007D01*
X130747037Y-72100591D01*
X130114728Y-71468282D01*
X130114727Y-71468282D01*
X130075380Y-71522439D01*
X129978905Y-71711781D01*
X129921656Y-71887974D01*
X129882218Y-71945649D01*
X129817859Y-71972847D01*
X129749013Y-71960932D01*
X129697537Y-71913688D01*
X129689164Y-71897107D01*
X129620943Y-71732405D01*
X129505975Y-71560342D01*
X129359657Y-71414024D01*
X129243332Y-71336299D01*
X129187598Y-71299059D01*
X128996420Y-71219870D01*
X128996412Y-71219868D01*
X128793469Y-71179500D01*
X128793465Y-71179500D01*
X128586535Y-71179500D01*
X128586530Y-71179500D01*
X128383587Y-71219868D01*
X128383579Y-71219870D01*
X128192403Y-71299058D01*
X128020342Y-71414024D01*
X127874024Y-71560342D01*
X127759058Y-71732403D01*
X127679870Y-71923579D01*
X127679868Y-71923587D01*
X127639500Y-72126530D01*
X127639500Y-72333469D01*
X127679868Y-72536412D01*
X127679870Y-72536420D01*
X127745939Y-72695925D01*
X127759059Y-72727598D01*
X127772836Y-72748217D01*
X127874024Y-72899657D01*
X127981186Y-73006819D01*
X127991798Y-73026255D01*
X128006299Y-73042989D01*
X128008215Y-73056320D01*
X128014671Y-73068142D01*
X128013091Y-73090228D01*
X128016243Y-73112147D01*
X128010647Y-73124398D01*
X128009687Y-73137834D01*
X127996416Y-73155560D01*
X127987218Y-73175703D01*
X127975886Y-73182985D01*
X127967815Y-73193767D01*
X127947069Y-73201504D01*
X127928440Y-73213477D01*
X127906521Y-73216628D01*
X127902351Y-73218184D01*
X127893505Y-73218500D01*
X127685544Y-73218500D01*
X127618505Y-73198815D01*
X127597863Y-73182181D01*
X127157786Y-72742104D01*
X127124301Y-72680781D01*
X127129285Y-72611089D01*
X127130887Y-72607015D01*
X127160130Y-72536420D01*
X127200500Y-72333465D01*
X127200500Y-72126535D01*
X127160130Y-71923580D01*
X127080941Y-71732402D01*
X126965977Y-71560345D01*
X126965975Y-71560342D01*
X126819657Y-71414024D01*
X126703332Y-71336299D01*
X126647598Y-71299059D01*
X126456420Y-71219870D01*
X126456412Y-71219868D01*
X126253469Y-71179500D01*
X126253465Y-71179500D01*
X126046535Y-71179500D01*
X126046530Y-71179500D01*
X125843587Y-71219868D01*
X125843579Y-71219870D01*
X125652403Y-71299058D01*
X125480342Y-71414024D01*
X125334024Y-71560342D01*
X125219057Y-71732403D01*
X125150835Y-71897108D01*
X125106994Y-71951511D01*
X125040700Y-71973576D01*
X124973000Y-71956297D01*
X124925390Y-71905159D01*
X124918343Y-71887973D01*
X124861095Y-71711782D01*
X124764624Y-71522449D01*
X124725270Y-71468282D01*
X124725269Y-71468282D01*
X124092962Y-72100590D01*
X124075925Y-72037007D01*
X124010099Y-71922993D01*
X123917007Y-71829901D01*
X123802993Y-71764075D01*
X123739409Y-71747037D01*
X124371716Y-71114728D01*
X124317550Y-71075375D01*
X124128217Y-70978904D01*
X123926129Y-70913242D01*
X123716246Y-70880000D01*
X123503754Y-70880000D01*
X123293872Y-70913242D01*
X123293869Y-70913242D01*
X123091782Y-70978904D01*
X122902439Y-71075380D01*
X122848282Y-71114727D01*
X122848282Y-71114728D01*
X123480591Y-71747037D01*
X123417007Y-71764075D01*
X123302993Y-71829901D01*
X123209901Y-71922993D01*
X123144075Y-72037007D01*
X123127037Y-72100591D01*
X122494728Y-71468282D01*
X122494727Y-71468282D01*
X122455380Y-71522439D01*
X122358905Y-71711781D01*
X122301656Y-71887974D01*
X122262218Y-71945649D01*
X122197859Y-71972847D01*
X122129013Y-71960932D01*
X122077537Y-71913688D01*
X122069164Y-71897107D01*
X122000943Y-71732405D01*
X121885975Y-71560342D01*
X121739657Y-71414024D01*
X121623332Y-71336299D01*
X121567598Y-71299059D01*
X121376420Y-71219870D01*
X121376412Y-71219868D01*
X121173469Y-71179500D01*
X121173465Y-71179500D01*
X120966535Y-71179500D01*
X120966530Y-71179500D01*
X120763587Y-71219868D01*
X120763579Y-71219870D01*
X120572403Y-71299058D01*
X120400342Y-71414024D01*
X120254024Y-71560342D01*
X120139058Y-71732403D01*
X120059870Y-71923579D01*
X120059868Y-71923587D01*
X120019500Y-72126530D01*
X120019500Y-72333469D01*
X120059868Y-72536412D01*
X120059870Y-72536420D01*
X120125939Y-72695925D01*
X120139059Y-72727598D01*
X120152836Y-72748217D01*
X120254024Y-72899657D01*
X120400342Y-73045975D01*
X120400345Y-73045977D01*
X120572402Y-73160941D01*
X120763580Y-73240130D01*
X120875912Y-73262474D01*
X120966530Y-73280499D01*
X120966534Y-73280500D01*
X120966535Y-73280500D01*
X121173466Y-73280500D01*
X121173467Y-73280499D01*
X121376420Y-73240130D01*
X121567598Y-73160941D01*
X121739655Y-73045977D01*
X121885977Y-72899655D01*
X122000941Y-72727598D01*
X122069165Y-72562889D01*
X122113004Y-72508488D01*
X122179298Y-72486423D01*
X122246998Y-72503702D01*
X122294609Y-72554839D01*
X122301656Y-72572026D01*
X122358904Y-72748216D01*
X122455375Y-72937550D01*
X122494728Y-72991716D01*
X123127037Y-72359408D01*
X123144075Y-72422993D01*
X123209901Y-72537007D01*
X123302993Y-72630099D01*
X123417007Y-72695925D01*
X123480590Y-72712962D01*
X122848282Y-73345269D01*
X122848282Y-73345270D01*
X122902449Y-73384624D01*
X123091782Y-73481095D01*
X123267973Y-73538343D01*
X123325648Y-73577780D01*
X123352847Y-73642139D01*
X123340932Y-73710985D01*
X123293688Y-73762461D01*
X123277108Y-73770835D01*
X123112403Y-73839057D01*
X122940342Y-73954024D01*
X122794024Y-74100342D01*
X122679058Y-74272403D01*
X122599870Y-74463579D01*
X122599868Y-74463587D01*
X122559500Y-74666530D01*
X122559500Y-74873469D01*
X122599868Y-75076412D01*
X122599870Y-75076420D01*
X122665939Y-75235925D01*
X122679059Y-75267598D01*
X122692836Y-75288217D01*
X122794024Y-75439657D01*
X122940342Y-75585975D01*
X122940345Y-75585977D01*
X123112402Y-75700941D01*
X123303580Y-75780130D01*
X123506530Y-75820499D01*
X123506534Y-75820500D01*
X123506535Y-75820500D01*
X123713466Y-75820500D01*
X123713467Y-75820499D01*
X123916420Y-75780130D01*
X124107598Y-75700941D01*
X124279655Y-75585977D01*
X124425977Y-75439655D01*
X124540941Y-75267598D01*
X124620130Y-75076420D01*
X124660500Y-74873465D01*
X124660500Y-74666535D01*
X124660499Y-74666530D01*
X125099500Y-74666530D01*
X125099500Y-74873469D01*
X125139868Y-75076412D01*
X125139870Y-75076420D01*
X125205939Y-75235925D01*
X125219059Y-75267598D01*
X125232836Y-75288217D01*
X125334024Y-75439657D01*
X125480342Y-75585975D01*
X125480345Y-75585977D01*
X125652402Y-75700941D01*
X125843580Y-75780130D01*
X126046530Y-75820499D01*
X126046534Y-75820500D01*
X126046535Y-75820500D01*
X126253466Y-75820500D01*
X126253467Y-75820499D01*
X126456420Y-75780130D01*
X126647598Y-75700941D01*
X126819655Y-75585977D01*
X126965977Y-75439655D01*
X127080941Y-75267598D01*
X127160130Y-75076420D01*
X127200500Y-74873465D01*
X127200500Y-74666535D01*
X127160130Y-74463580D01*
X127080941Y-74272402D01*
X126965977Y-74100345D01*
X126965975Y-74100342D01*
X126819657Y-73954024D01*
X126657965Y-73845986D01*
X126647598Y-73839059D01*
X126647593Y-73839057D01*
X126456420Y-73759870D01*
X126456412Y-73759868D01*
X126253469Y-73719500D01*
X126253465Y-73719500D01*
X126046535Y-73719500D01*
X126046530Y-73719500D01*
X125843587Y-73759868D01*
X125843579Y-73759870D01*
X125652403Y-73839058D01*
X125480342Y-73954024D01*
X125334024Y-74100342D01*
X125219058Y-74272403D01*
X125139870Y-74463579D01*
X125139868Y-74463587D01*
X125099500Y-74666530D01*
X124660499Y-74666530D01*
X124620130Y-74463580D01*
X124540941Y-74272402D01*
X124425977Y-74100345D01*
X124425975Y-74100342D01*
X124279657Y-73954024D01*
X124117965Y-73845986D01*
X124107598Y-73839059D01*
X124107593Y-73839057D01*
X123954028Y-73775448D01*
X123942890Y-73770834D01*
X123888488Y-73726994D01*
X123866423Y-73660700D01*
X123883702Y-73593001D01*
X123934839Y-73545390D01*
X123952026Y-73538343D01*
X124128217Y-73481095D01*
X124317554Y-73384622D01*
X124371716Y-73345270D01*
X124371717Y-73345270D01*
X123739408Y-72712962D01*
X123802993Y-72695925D01*
X123917007Y-72630099D01*
X124010099Y-72537007D01*
X124075925Y-72422993D01*
X124092962Y-72359408D01*
X124725270Y-72991717D01*
X124725270Y-72991716D01*
X124764622Y-72937554D01*
X124861095Y-72748217D01*
X124918343Y-72572026D01*
X124957780Y-72514351D01*
X125022139Y-72487152D01*
X125090985Y-72499066D01*
X125142461Y-72546310D01*
X125150835Y-72562891D01*
X125205939Y-72695925D01*
X125219059Y-72727598D01*
X125232836Y-72748217D01*
X125334024Y-72899657D01*
X125480342Y-73045975D01*
X125480345Y-73045977D01*
X125652402Y-73160941D01*
X125843580Y-73240130D01*
X125955912Y-73262474D01*
X126046530Y-73280499D01*
X126046534Y-73280500D01*
X126046535Y-73280500D01*
X126253466Y-73280500D01*
X126253467Y-73280499D01*
X126456420Y-73240130D01*
X126526972Y-73210905D01*
X126596438Y-73203437D01*
X126658918Y-73234711D01*
X126662104Y-73237786D01*
X127273788Y-73849470D01*
X127353712Y-73895614D01*
X127442856Y-73919500D01*
X127762872Y-73919500D01*
X127829911Y-73939185D01*
X127875666Y-73991989D01*
X127885610Y-74061147D01*
X127865974Y-74112390D01*
X127759059Y-74272399D01*
X127759059Y-74272400D01*
X127679870Y-74463579D01*
X127679868Y-74463587D01*
X127639500Y-74666530D01*
X127639500Y-74873469D01*
X127679868Y-75076412D01*
X127679870Y-75076420D01*
X127745939Y-75235925D01*
X127759059Y-75267598D01*
X127772836Y-75288217D01*
X127877408Y-75444721D01*
X127875926Y-75445711D01*
X127899945Y-75502286D01*
X127888144Y-75571152D01*
X127864458Y-75604305D01*
X127219584Y-76249181D01*
X127158261Y-76282666D01*
X127131903Y-76285500D01*
X119017369Y-76285500D01*
X118950330Y-76265815D01*
X118904575Y-76213011D01*
X118894631Y-76143853D01*
X118923656Y-76080297D01*
X118979051Y-76043569D01*
X119048217Y-76021095D01*
X119237554Y-75924622D01*
X119291716Y-75885270D01*
X119291717Y-75885270D01*
X118659408Y-75252962D01*
X118722993Y-75235925D01*
X118837007Y-75170099D01*
X118930099Y-75077007D01*
X118995925Y-74962993D01*
X119012962Y-74899408D01*
X119645270Y-75531717D01*
X119645270Y-75531716D01*
X119684622Y-75477554D01*
X119781095Y-75288217D01*
X119838343Y-75112026D01*
X119877780Y-75054351D01*
X119942139Y-75027152D01*
X120010985Y-75039066D01*
X120062461Y-75086310D01*
X120070835Y-75102891D01*
X120125939Y-75235925D01*
X120139059Y-75267598D01*
X120152836Y-75288217D01*
X120254024Y-75439657D01*
X120400342Y-75585975D01*
X120400345Y-75585977D01*
X120572402Y-75700941D01*
X120763580Y-75780130D01*
X120966530Y-75820499D01*
X120966534Y-75820500D01*
X120966535Y-75820500D01*
X121173466Y-75820500D01*
X121173467Y-75820499D01*
X121376420Y-75780130D01*
X121567598Y-75700941D01*
X121739655Y-75585977D01*
X121885977Y-75439655D01*
X122000941Y-75267598D01*
X122080130Y-75076420D01*
X122120500Y-74873465D01*
X122120500Y-74666535D01*
X122080130Y-74463580D01*
X122000941Y-74272402D01*
X121885977Y-74100345D01*
X121885975Y-74100342D01*
X121739657Y-73954024D01*
X121577965Y-73845986D01*
X121567598Y-73839059D01*
X121567593Y-73839057D01*
X121376420Y-73759870D01*
X121376412Y-73759868D01*
X121173469Y-73719500D01*
X121173465Y-73719500D01*
X120966535Y-73719500D01*
X120966530Y-73719500D01*
X120763587Y-73759868D01*
X120763579Y-73759870D01*
X120572403Y-73839058D01*
X120400342Y-73954024D01*
X120254024Y-74100342D01*
X120139057Y-74272403D01*
X120070835Y-74437108D01*
X120026994Y-74491511D01*
X119960700Y-74513576D01*
X119893000Y-74496297D01*
X119845390Y-74445159D01*
X119838343Y-74427973D01*
X119781095Y-74251782D01*
X119684624Y-74062449D01*
X119645270Y-74008282D01*
X119645269Y-74008282D01*
X119012962Y-74640590D01*
X118995925Y-74577007D01*
X118930099Y-74462993D01*
X118837007Y-74369901D01*
X118722993Y-74304075D01*
X118659409Y-74287037D01*
X119291716Y-73654728D01*
X119237550Y-73615375D01*
X119048216Y-73518904D01*
X118872026Y-73461656D01*
X118814350Y-73422218D01*
X118787152Y-73357860D01*
X118799067Y-73289013D01*
X118846311Y-73237538D01*
X118862882Y-73229168D01*
X119027598Y-73160941D01*
X119199655Y-73045977D01*
X119345977Y-72899655D01*
X119460941Y-72727598D01*
X119540130Y-72536420D01*
X119580500Y-72333465D01*
X119580500Y-72126535D01*
X119540130Y-71923580D01*
X119460941Y-71732402D01*
X119345977Y-71560345D01*
X119345975Y-71560342D01*
X119199657Y-71414024D01*
X119083332Y-71336299D01*
X119027598Y-71299059D01*
X118836420Y-71219870D01*
X118836412Y-71219868D01*
X118633469Y-71179500D01*
X118633465Y-71179500D01*
X118426535Y-71179500D01*
X118426530Y-71179500D01*
X118223587Y-71219868D01*
X118223579Y-71219870D01*
X118032403Y-71299058D01*
X117860342Y-71414024D01*
X117714024Y-71560342D01*
X117599058Y-71732403D01*
X117519870Y-71923579D01*
X117519868Y-71923587D01*
X117479500Y-72126530D01*
X117479500Y-72333469D01*
X117519868Y-72536412D01*
X117519870Y-72536420D01*
X117585939Y-72695925D01*
X117599059Y-72727598D01*
X117612836Y-72748217D01*
X117714024Y-72899657D01*
X117860342Y-73045975D01*
X118032405Y-73160943D01*
X118111650Y-73193767D01*
X118197108Y-73229164D01*
X118251511Y-73273005D01*
X118273576Y-73339299D01*
X118256297Y-73406998D01*
X118205160Y-73454609D01*
X118187974Y-73461656D01*
X118011781Y-73518905D01*
X117822439Y-73615380D01*
X117768282Y-73654727D01*
X117768282Y-73654728D01*
X118400591Y-74287037D01*
X118337007Y-74304075D01*
X118222993Y-74369901D01*
X118129901Y-74462993D01*
X118064075Y-74577007D01*
X118047037Y-74640591D01*
X117414728Y-74008282D01*
X117414727Y-74008282D01*
X117375380Y-74062439D01*
X117278905Y-74251781D01*
X117221656Y-74427974D01*
X117182218Y-74485649D01*
X117117859Y-74512847D01*
X117049013Y-74500932D01*
X116997537Y-74453688D01*
X116989164Y-74437107D01*
X116978499Y-74411360D01*
X116961327Y-74369901D01*
X116920943Y-74272405D01*
X116805975Y-74100342D01*
X116659657Y-73954024D01*
X116497965Y-73845986D01*
X116487598Y-73839059D01*
X116487593Y-73839057D01*
X116296420Y-73759870D01*
X116296412Y-73759868D01*
X116093469Y-73719500D01*
X116093465Y-73719500D01*
X115886535Y-73719500D01*
X115886530Y-73719500D01*
X115683587Y-73759868D01*
X115683579Y-73759870D01*
X115492403Y-73839058D01*
X115320342Y-73954024D01*
X115174024Y-74100342D01*
X115059058Y-74272403D01*
X114979870Y-74463579D01*
X114979868Y-74463587D01*
X114939500Y-74666530D01*
X114939500Y-74873469D01*
X114979868Y-75076412D01*
X114979870Y-75076420D01*
X115045939Y-75235925D01*
X115059059Y-75267598D01*
X115072836Y-75288217D01*
X115174024Y-75439657D01*
X115320342Y-75585975D01*
X115320345Y-75585977D01*
X115492402Y-75700941D01*
X115683580Y-75780130D01*
X115886530Y-75820499D01*
X115886534Y-75820500D01*
X115886535Y-75820500D01*
X116093466Y-75820500D01*
X116093467Y-75820499D01*
X116296420Y-75780130D01*
X116487598Y-75700941D01*
X116659655Y-75585977D01*
X116805977Y-75439655D01*
X116920941Y-75267598D01*
X116989165Y-75102889D01*
X117033004Y-75048488D01*
X117099298Y-75026423D01*
X117166998Y-75043702D01*
X117214609Y-75094839D01*
X117221656Y-75112026D01*
X117278904Y-75288216D01*
X117375375Y-75477550D01*
X117414728Y-75531716D01*
X118047037Y-74899408D01*
X118064075Y-74962993D01*
X118129901Y-75077007D01*
X118222993Y-75170099D01*
X118337007Y-75235925D01*
X118400590Y-75252962D01*
X117768282Y-75885269D01*
X117768282Y-75885270D01*
X117822449Y-75924624D01*
X118011782Y-76021095D01*
X118080949Y-76043569D01*
X118138625Y-76083006D01*
X118165823Y-76147365D01*
X118153908Y-76216211D01*
X118106664Y-76267687D01*
X118042631Y-76285500D01*
X114049061Y-76285500D01*
X114049057Y-76285499D01*
X113890943Y-76285499D01*
X113890939Y-76285500D01*
X109952098Y-76285500D01*
X109885059Y-76265815D01*
X109864417Y-76249181D01*
X109658805Y-76043569D01*
X109439510Y-75824275D01*
X109406026Y-75762953D01*
X109409751Y-75710859D01*
X109406485Y-75710210D01*
X109420499Y-75639752D01*
X109420500Y-75639750D01*
X109420500Y-74666530D01*
X109859500Y-74666530D01*
X109859500Y-74873469D01*
X109899868Y-75076412D01*
X109899870Y-75076420D01*
X109965939Y-75235925D01*
X109979059Y-75267598D01*
X109992836Y-75288217D01*
X110094024Y-75439657D01*
X110240342Y-75585975D01*
X110240345Y-75585977D01*
X110412402Y-75700941D01*
X110603580Y-75780130D01*
X110806530Y-75820499D01*
X110806534Y-75820500D01*
X110806535Y-75820500D01*
X111013466Y-75820500D01*
X111013467Y-75820499D01*
X111216420Y-75780130D01*
X111407598Y-75700941D01*
X111579655Y-75585977D01*
X111725977Y-75439655D01*
X111840941Y-75267598D01*
X111920130Y-75076420D01*
X111960500Y-74873465D01*
X111960500Y-74666535D01*
X111920130Y-74463580D01*
X111840941Y-74272402D01*
X111725977Y-74100345D01*
X111725975Y-74100342D01*
X111579657Y-73954024D01*
X111417965Y-73845986D01*
X111407598Y-73839059D01*
X111407593Y-73839057D01*
X111216420Y-73759870D01*
X111216412Y-73759868D01*
X111013469Y-73719500D01*
X111013465Y-73719500D01*
X110806535Y-73719500D01*
X110806530Y-73719500D01*
X110603587Y-73759868D01*
X110603579Y-73759870D01*
X110412403Y-73839058D01*
X110240342Y-73954024D01*
X110094024Y-74100342D01*
X109979058Y-74272403D01*
X109899870Y-74463579D01*
X109899868Y-74463587D01*
X109859500Y-74666530D01*
X109420500Y-74666530D01*
X109420500Y-73900249D01*
X109420499Y-73900247D01*
X109408868Y-73841770D01*
X109408867Y-73841769D01*
X109364552Y-73775447D01*
X109298230Y-73731132D01*
X109298229Y-73731131D01*
X109239752Y-73719500D01*
X109239748Y-73719500D01*
X107667097Y-73719500D01*
X107600058Y-73699815D01*
X107554303Y-73647011D01*
X107544359Y-73577853D01*
X107573384Y-73514297D01*
X107579403Y-73507831D01*
X107851924Y-73235309D01*
X107913243Y-73201827D01*
X107982935Y-73206811D01*
X107987055Y-73208432D01*
X107999235Y-73213477D01*
X108063580Y-73240130D01*
X108175912Y-73262474D01*
X108266530Y-73280499D01*
X108266534Y-73280500D01*
X108266535Y-73280500D01*
X108473466Y-73280500D01*
X108473467Y-73280499D01*
X108676420Y-73240130D01*
X108867598Y-73160941D01*
X109039655Y-73045977D01*
X109185977Y-72899655D01*
X109186018Y-72899592D01*
X109195364Y-72885608D01*
X109248977Y-72840803D01*
X109298465Y-72830500D01*
X109981535Y-72830500D01*
X110048574Y-72850185D01*
X110084636Y-72885608D01*
X110094020Y-72899652D01*
X110094025Y-72899658D01*
X110240342Y-73045975D01*
X110240345Y-73045977D01*
X110412402Y-73160941D01*
X110603580Y-73240130D01*
X110715912Y-73262474D01*
X110806530Y-73280499D01*
X110806534Y-73280500D01*
X110806535Y-73280500D01*
X111013466Y-73280500D01*
X111013467Y-73280499D01*
X111216420Y-73240130D01*
X111407598Y-73160941D01*
X111579655Y-73045977D01*
X111725977Y-72899655D01*
X111840941Y-72727598D01*
X111909165Y-72562889D01*
X111953004Y-72508488D01*
X112019298Y-72486423D01*
X112086998Y-72503702D01*
X112134609Y-72554839D01*
X112141656Y-72572026D01*
X112198904Y-72748216D01*
X112295375Y-72937550D01*
X112334728Y-72991716D01*
X112967037Y-72359408D01*
X112984075Y-72422993D01*
X113049901Y-72537007D01*
X113142993Y-72630099D01*
X113257007Y-72695925D01*
X113320590Y-72712962D01*
X112688282Y-73345269D01*
X112688282Y-73345270D01*
X112742449Y-73384624D01*
X112931782Y-73481095D01*
X113107973Y-73538343D01*
X113165648Y-73577780D01*
X113192847Y-73642139D01*
X113180932Y-73710985D01*
X113133688Y-73762461D01*
X113117108Y-73770835D01*
X112952403Y-73839057D01*
X112780342Y-73954024D01*
X112634024Y-74100342D01*
X112519058Y-74272403D01*
X112439870Y-74463579D01*
X112439868Y-74463587D01*
X112399500Y-74666530D01*
X112399500Y-74873469D01*
X112439868Y-75076412D01*
X112439870Y-75076420D01*
X112505939Y-75235925D01*
X112519059Y-75267598D01*
X112532836Y-75288217D01*
X112634024Y-75439657D01*
X112780342Y-75585975D01*
X112780345Y-75585977D01*
X112952402Y-75700941D01*
X113143580Y-75780130D01*
X113346530Y-75820499D01*
X113346534Y-75820500D01*
X113346535Y-75820500D01*
X113553466Y-75820500D01*
X113553467Y-75820499D01*
X113756420Y-75780130D01*
X113947598Y-75700941D01*
X114119655Y-75585977D01*
X114265977Y-75439655D01*
X114380941Y-75267598D01*
X114460130Y-75076420D01*
X114500500Y-74873465D01*
X114500500Y-74666535D01*
X114460130Y-74463580D01*
X114380941Y-74272402D01*
X114265977Y-74100345D01*
X114265975Y-74100342D01*
X114119657Y-73954024D01*
X113957965Y-73845986D01*
X113947598Y-73839059D01*
X113947593Y-73839057D01*
X113794028Y-73775448D01*
X113782890Y-73770834D01*
X113728488Y-73726994D01*
X113706423Y-73660700D01*
X113723702Y-73593001D01*
X113774839Y-73545390D01*
X113792026Y-73538343D01*
X113968217Y-73481095D01*
X114157554Y-73384622D01*
X114211716Y-73345270D01*
X114211717Y-73345270D01*
X113579408Y-72712962D01*
X113642993Y-72695925D01*
X113757007Y-72630099D01*
X113850099Y-72537007D01*
X113915925Y-72422993D01*
X113932962Y-72359408D01*
X114565270Y-72991717D01*
X114565270Y-72991716D01*
X114604622Y-72937554D01*
X114701095Y-72748217D01*
X114758343Y-72572026D01*
X114797780Y-72514351D01*
X114862139Y-72487152D01*
X114930985Y-72499066D01*
X114982461Y-72546310D01*
X114990835Y-72562891D01*
X115045939Y-72695925D01*
X115059059Y-72727598D01*
X115072836Y-72748217D01*
X115174024Y-72899657D01*
X115320342Y-73045975D01*
X115320345Y-73045977D01*
X115492402Y-73160941D01*
X115683580Y-73240130D01*
X115795912Y-73262474D01*
X115886530Y-73280499D01*
X115886534Y-73280500D01*
X115886535Y-73280500D01*
X116093466Y-73280500D01*
X116093467Y-73280499D01*
X116296420Y-73240130D01*
X116487598Y-73160941D01*
X116659655Y-73045977D01*
X116805977Y-72899655D01*
X116920941Y-72727598D01*
X117000130Y-72536420D01*
X117040500Y-72333465D01*
X117040500Y-72126535D01*
X117000130Y-71923580D01*
X116920941Y-71732402D01*
X116805977Y-71560345D01*
X116805975Y-71560342D01*
X116659657Y-71414024D01*
X116543332Y-71336299D01*
X116487598Y-71299059D01*
X116296420Y-71219870D01*
X116296412Y-71219868D01*
X116093469Y-71179500D01*
X116093465Y-71179500D01*
X115886535Y-71179500D01*
X115886530Y-71179500D01*
X115683587Y-71219868D01*
X115683579Y-71219870D01*
X115492403Y-71299058D01*
X115320342Y-71414024D01*
X115174024Y-71560342D01*
X115059057Y-71732403D01*
X114990835Y-71897108D01*
X114946994Y-71951511D01*
X114880700Y-71973576D01*
X114813000Y-71956297D01*
X114765390Y-71905159D01*
X114758343Y-71887973D01*
X114701095Y-71711782D01*
X114604624Y-71522449D01*
X114565270Y-71468282D01*
X114565269Y-71468282D01*
X113932962Y-72100590D01*
X113915925Y-72037007D01*
X113850099Y-71922993D01*
X113757007Y-71829901D01*
X113642993Y-71764075D01*
X113579409Y-71747037D01*
X114211716Y-71114728D01*
X114157550Y-71075375D01*
X113968217Y-70978904D01*
X113766129Y-70913242D01*
X113556246Y-70880000D01*
X113343754Y-70880000D01*
X113133872Y-70913242D01*
X113133869Y-70913242D01*
X112931782Y-70978904D01*
X112742439Y-71075380D01*
X112688282Y-71114727D01*
X112688282Y-71114728D01*
X113320591Y-71747037D01*
X113257007Y-71764075D01*
X113142993Y-71829901D01*
X113049901Y-71922993D01*
X112984075Y-72037007D01*
X112967037Y-72100591D01*
X112334728Y-71468282D01*
X112334727Y-71468282D01*
X112295380Y-71522439D01*
X112198905Y-71711781D01*
X112141656Y-71887974D01*
X112102218Y-71945649D01*
X112037859Y-71972847D01*
X111969013Y-71960932D01*
X111917537Y-71913688D01*
X111909164Y-71897107D01*
X111840943Y-71732405D01*
X111725975Y-71560342D01*
X111579657Y-71414024D01*
X111463332Y-71336299D01*
X111407598Y-71299059D01*
X111216420Y-71219870D01*
X111216412Y-71219868D01*
X111013469Y-71179500D01*
X111013465Y-71179500D01*
X110806535Y-71179500D01*
X110806530Y-71179500D01*
X110603587Y-71219868D01*
X110603579Y-71219870D01*
X110412403Y-71299058D01*
X110240342Y-71414024D01*
X110094025Y-71560341D01*
X110094020Y-71560347D01*
X110084636Y-71574392D01*
X110031023Y-71619197D01*
X109981535Y-71629500D01*
X109298465Y-71629500D01*
X109231426Y-71609815D01*
X109195364Y-71574392D01*
X109185979Y-71560347D01*
X109185974Y-71560341D01*
X109039657Y-71414024D01*
X108923332Y-71336299D01*
X108867598Y-71299059D01*
X108676420Y-71219870D01*
X108676412Y-71219868D01*
X108473469Y-71179500D01*
X108473465Y-71179500D01*
X108266535Y-71179500D01*
X108266530Y-71179500D01*
X108063587Y-71219868D01*
X108063579Y-71219870D01*
X107872403Y-71299058D01*
X107700342Y-71414024D01*
X107554024Y-71560342D01*
X107439058Y-71732403D01*
X107359870Y-71923579D01*
X107359868Y-71923585D01*
X107341058Y-72018151D01*
X107308673Y-72080062D01*
X107307122Y-72081640D01*
X106552817Y-72835946D01*
X106552808Y-72835955D01*
X106550286Y-72838478D01*
X106550284Y-72838480D01*
X106438480Y-72950284D01*
X106421854Y-72979082D01*
X106415504Y-72990079D01*
X106415504Y-72990080D01*
X106359424Y-73087213D01*
X106359423Y-73087215D01*
X106318499Y-73239943D01*
X106318499Y-73239945D01*
X106318499Y-73408046D01*
X106318500Y-73408059D01*
X106318500Y-75994830D01*
X106318499Y-75994848D01*
X106318499Y-76160554D01*
X106318498Y-76160554D01*
X106359423Y-76313285D01*
X106388358Y-76363400D01*
X106388359Y-76363404D01*
X106388360Y-76363404D01*
X106438479Y-76450214D01*
X106438481Y-76450217D01*
X106557349Y-76569085D01*
X106557355Y-76569090D01*
X109514181Y-79525916D01*
X109547666Y-79587239D01*
X109550500Y-79613597D01*
X109550500Y-79930269D01*
X109553353Y-79960699D01*
X109553353Y-79960701D01*
X109598206Y-80088880D01*
X109598207Y-80088882D01*
X109678850Y-80198150D01*
X109788118Y-80278793D01*
X109829951Y-80293431D01*
X109831483Y-80293967D01*
X109888259Y-80334688D01*
X109914006Y-80399641D01*
X109900550Y-80468203D01*
X109852162Y-80518606D01*
X109829532Y-80528714D01*
X109681880Y-80577641D01*
X109681875Y-80577643D01*
X109532654Y-80669684D01*
X109408684Y-80793654D01*
X109316643Y-80942875D01*
X109316641Y-80942880D01*
X109261494Y-81109302D01*
X109261493Y-81109309D01*
X109251000Y-81212013D01*
X109251000Y-81462000D01*
X110139500Y-81462000D01*
X110206539Y-81481685D01*
X110252294Y-81534489D01*
X110263500Y-81586000D01*
X110263500Y-81712000D01*
X110389500Y-81712000D01*
X110456539Y-81731685D01*
X110502294Y-81784489D01*
X110513500Y-81836000D01*
X110513500Y-82911999D01*
X110575972Y-82911999D01*
X110575986Y-82911998D01*
X110678697Y-82901505D01*
X110845119Y-82846358D01*
X110845124Y-82846356D01*
X110994345Y-82754315D01*
X111118315Y-82630345D01*
X111210356Y-82481124D01*
X111210359Y-82481117D01*
X111225300Y-82436028D01*
X111265072Y-82378583D01*
X111329587Y-82351759D01*
X111398363Y-82364073D01*
X111442775Y-82401396D01*
X111503850Y-82484150D01*
X111613118Y-82564793D01*
X111613121Y-82564794D01*
X111654952Y-82579431D01*
X111711729Y-82620151D01*
X111737478Y-82685103D01*
X111738000Y-82696473D01*
X111738000Y-90290643D01*
X111760460Y-90374467D01*
X111761885Y-90379787D01*
X111761887Y-90379791D01*
X111808027Y-90459708D01*
X111808029Y-90459711D01*
X111808030Y-90459712D01*
X116376788Y-95028470D01*
X116456712Y-95074614D01*
X116545856Y-95098500D01*
X116638144Y-95098500D01*
X119719500Y-95098500D01*
X119786539Y-95118185D01*
X119832294Y-95170989D01*
X119843500Y-95222500D01*
X119843500Y-95267752D01*
X119855131Y-95326229D01*
X119855132Y-95326230D01*
X119899448Y-95392553D01*
X119902959Y-95394899D01*
X119947764Y-95448512D01*
X119956470Y-95517837D01*
X119926314Y-95580864D01*
X119902959Y-95601101D01*
X119899448Y-95603446D01*
X119855132Y-95669769D01*
X119855131Y-95669770D01*
X119843500Y-95728247D01*
X119843500Y-96767752D01*
X119855131Y-96826229D01*
X119855132Y-96826230D01*
X119899448Y-96892553D01*
X119902959Y-96894899D01*
X119947764Y-96948512D01*
X119956470Y-97017837D01*
X119926314Y-97080864D01*
X119902959Y-97101101D01*
X119899448Y-97103446D01*
X119855132Y-97169769D01*
X119855131Y-97169770D01*
X119843500Y-97228247D01*
X119843500Y-98211443D01*
X119823815Y-98278482D01*
X119793812Y-98310709D01*
X119686809Y-98390812D01*
X119600649Y-98505906D01*
X119600645Y-98505913D01*
X119550403Y-98640620D01*
X119550401Y-98640627D01*
X119544000Y-98700155D01*
X119544000Y-99795828D01*
X119545765Y-99812245D01*
X119533359Y-99881005D01*
X119485748Y-99932142D01*
X119422475Y-99949500D01*
X103003481Y-99949500D01*
X102996528Y-99949305D01*
X102676712Y-99931344D01*
X102662894Y-99929787D01*
X102350542Y-99876716D01*
X102336985Y-99873622D01*
X102032530Y-99785910D01*
X102019406Y-99781317D01*
X101726695Y-99660073D01*
X101714166Y-99654040D01*
X101436860Y-99500778D01*
X101425088Y-99493381D01*
X101166687Y-99310035D01*
X101155825Y-99301372D01*
X100919581Y-99090250D01*
X100909749Y-99080418D01*
X100698627Y-98844174D01*
X100689966Y-98833314D01*
X100506611Y-98574900D01*
X100499221Y-98563139D01*
X100467593Y-98505913D01*
X100345955Y-98285826D01*
X100339926Y-98273304D01*
X100218682Y-97980593D01*
X100214089Y-97967469D01*
X100126377Y-97663014D01*
X100123283Y-97649457D01*
X100119463Y-97626974D01*
X100070210Y-97337094D01*
X100068656Y-97323297D01*
X100050695Y-97003472D01*
X100050500Y-96996519D01*
X100050500Y-96383718D01*
X102022500Y-96383718D01*
X102022500Y-96616281D01*
X102058881Y-96845983D01*
X102058881Y-96845986D01*
X102130745Y-97067160D01*
X102130747Y-97067163D01*
X102236328Y-97274379D01*
X102373026Y-97462527D01*
X102537473Y-97626974D01*
X102725621Y-97763672D01*
X102932837Y-97869253D01*
X102932839Y-97869254D01*
X103154014Y-97941118D01*
X103154015Y-97941118D01*
X103154018Y-97941119D01*
X103383718Y-97977500D01*
X103383719Y-97977500D01*
X103616281Y-97977500D01*
X103616282Y-97977500D01*
X103845982Y-97941119D01*
X103845985Y-97941118D01*
X103845986Y-97941118D01*
X104067160Y-97869254D01*
X104067160Y-97869253D01*
X104067163Y-97869253D01*
X104274379Y-97763672D01*
X104462527Y-97626974D01*
X104626974Y-97462527D01*
X104763672Y-97274379D01*
X104869253Y-97067163D01*
X104875642Y-97047500D01*
X104941118Y-96845986D01*
X104941118Y-96845985D01*
X104941119Y-96845982D01*
X104977500Y-96616282D01*
X104977500Y-96383718D01*
X104941119Y-96154018D01*
X104941118Y-96154014D01*
X104941118Y-96154013D01*
X104869254Y-95932839D01*
X104841218Y-95877815D01*
X104763672Y-95725621D01*
X104626974Y-95537473D01*
X104462527Y-95373026D01*
X104274379Y-95236328D01*
X104196404Y-95196598D01*
X104067160Y-95130745D01*
X103845985Y-95058881D01*
X103673707Y-95031595D01*
X103616282Y-95022500D01*
X103383718Y-95022500D01*
X103307151Y-95034627D01*
X103154016Y-95058881D01*
X103154013Y-95058881D01*
X102932839Y-95130745D01*
X102725620Y-95236328D01*
X102618275Y-95314319D01*
X102537473Y-95373026D01*
X102537471Y-95373028D01*
X102537470Y-95373028D01*
X102373028Y-95537470D01*
X102373028Y-95537471D01*
X102373026Y-95537473D01*
X102326796Y-95601103D01*
X102236328Y-95725620D01*
X102130745Y-95932839D01*
X102058881Y-96154013D01*
X102058881Y-96154016D01*
X102022500Y-96383718D01*
X100050500Y-96383718D01*
X100050500Y-82211986D01*
X109251001Y-82211986D01*
X109261494Y-82314697D01*
X109316641Y-82481119D01*
X109316643Y-82481124D01*
X109408684Y-82630345D01*
X109532654Y-82754315D01*
X109681875Y-82846356D01*
X109681880Y-82846358D01*
X109848302Y-82901505D01*
X109848309Y-82901506D01*
X109951019Y-82911999D01*
X110013499Y-82911998D01*
X110013500Y-82911998D01*
X110013500Y-81962000D01*
X109251001Y-81962000D01*
X109251001Y-82211986D01*
X100050500Y-82211986D01*
X100050500Y-73383718D01*
X102022500Y-73383718D01*
X102022500Y-73616281D01*
X102058881Y-73845983D01*
X102058881Y-73845986D01*
X102130745Y-74067160D01*
X102153791Y-74112390D01*
X102236328Y-74274379D01*
X102373026Y-74462527D01*
X102537473Y-74626974D01*
X102725621Y-74763672D01*
X102932837Y-74869253D01*
X102932839Y-74869254D01*
X103154014Y-74941118D01*
X103154015Y-74941118D01*
X103154018Y-74941119D01*
X103383718Y-74977500D01*
X103383719Y-74977500D01*
X103616281Y-74977500D01*
X103616282Y-74977500D01*
X103845982Y-74941119D01*
X103845985Y-74941118D01*
X103845986Y-74941118D01*
X104067160Y-74869254D01*
X104067160Y-74869253D01*
X104067163Y-74869253D01*
X104274379Y-74763672D01*
X104462527Y-74626974D01*
X104626974Y-74462527D01*
X104763672Y-74274379D01*
X104869253Y-74067163D01*
X104888385Y-74008282D01*
X104941118Y-73845986D01*
X104941118Y-73845985D01*
X104941119Y-73845982D01*
X104977500Y-73616282D01*
X104977500Y-73383718D01*
X104941119Y-73154018D01*
X104941118Y-73154014D01*
X104941118Y-73154013D01*
X104869254Y-72932839D01*
X104869253Y-72932837D01*
X104763672Y-72725621D01*
X104626974Y-72537473D01*
X104462527Y-72373026D01*
X104274379Y-72236328D01*
X104132768Y-72164174D01*
X104067160Y-72130745D01*
X103845985Y-72058881D01*
X103673707Y-72031595D01*
X103616282Y-72022500D01*
X103383718Y-72022500D01*
X103320391Y-72032530D01*
X103154016Y-72058881D01*
X103154013Y-72058881D01*
X102932839Y-72130745D01*
X102725620Y-72236328D01*
X102643729Y-72295826D01*
X102537473Y-72373026D01*
X102537471Y-72373028D01*
X102537470Y-72373028D01*
X102373028Y-72537470D01*
X102373028Y-72537471D01*
X102373026Y-72537473D01*
X102366606Y-72546310D01*
X102236328Y-72725620D01*
X102130745Y-72932839D01*
X102058881Y-73154013D01*
X102058881Y-73154016D01*
X102022500Y-73383718D01*
X100050500Y-73383718D01*
X100050500Y-73003480D01*
X100050695Y-72996527D01*
X100056924Y-72885608D01*
X100068656Y-72676700D01*
X100070210Y-72662907D01*
X100123283Y-72350537D01*
X100126377Y-72336985D01*
X100200396Y-72080062D01*
X100214090Y-72032526D01*
X100218682Y-72019406D01*
X100337562Y-71732403D01*
X100339929Y-71726686D01*
X100345951Y-71714180D01*
X100499227Y-71436850D01*
X100506605Y-71425107D01*
X100689972Y-71166676D01*
X100698619Y-71155834D01*
X100909750Y-70919579D01*
X100919581Y-70909749D01*
X100952870Y-70880000D01*
X101155834Y-70698619D01*
X101166676Y-70689972D01*
X101425107Y-70506605D01*
X101436850Y-70499227D01*
X101714180Y-70345951D01*
X101726686Y-70339929D01*
X102019406Y-70218682D01*
X102032526Y-70214090D01*
X102336990Y-70126375D01*
X102350537Y-70123283D01*
X102662907Y-70070210D01*
X102676700Y-70068656D01*
X102996528Y-70050695D01*
X103003481Y-70050500D01*
X103016408Y-70050500D01*
X161983592Y-70050500D01*
X161996519Y-70050500D01*
X162003472Y-70050695D01*
G37*
G04 #@! TD.AperFunction*
G04 #@! TA.AperFunction,Conductor*
G36*
X129465313Y-75634718D02*
G01*
X129519191Y-75679204D01*
X129540465Y-75745756D01*
X129540500Y-75748706D01*
X129540500Y-83882456D01*
X129520815Y-83949495D01*
X129504181Y-83970137D01*
X126013531Y-87460786D01*
X126013527Y-87460791D01*
X125979330Y-87520023D01*
X125979329Y-87520025D01*
X125971961Y-87532788D01*
X125967386Y-87540712D01*
X125943500Y-87629856D01*
X125943500Y-87641417D01*
X125938428Y-87658602D01*
X125928813Y-87673516D01*
X125923815Y-87690539D01*
X125910278Y-87702268D01*
X125900571Y-87717327D01*
X125884418Y-87724676D01*
X125871011Y-87736294D01*
X125847773Y-87741349D01*
X125836974Y-87746263D01*
X125829904Y-87745236D01*
X125819500Y-87747500D01*
X125774247Y-87747500D01*
X125715770Y-87759131D01*
X125715769Y-87759132D01*
X125649446Y-87803448D01*
X125647101Y-87806959D01*
X125593488Y-87851764D01*
X125524163Y-87860470D01*
X125461136Y-87830314D01*
X125440899Y-87806959D01*
X125438553Y-87803448D01*
X125372230Y-87759132D01*
X125372229Y-87759131D01*
X125313752Y-87747500D01*
X125313748Y-87747500D01*
X124274252Y-87747500D01*
X124274247Y-87747500D01*
X124215770Y-87759131D01*
X124215769Y-87759132D01*
X124149446Y-87803448D01*
X124147101Y-87806959D01*
X124093488Y-87851764D01*
X124024163Y-87860470D01*
X123961136Y-87830314D01*
X123959734Y-87829035D01*
X123949013Y-87819103D01*
X123938552Y-87803448D01*
X123915442Y-87788006D01*
X123908234Y-87781329D01*
X123895163Y-87759426D01*
X123878804Y-87739851D01*
X123876297Y-87727810D01*
X123872430Y-87721330D01*
X123872776Y-87710899D01*
X123868500Y-87690361D01*
X123868500Y-87605366D01*
X123888185Y-87538327D01*
X123912377Y-87512519D01*
X123912140Y-87512282D01*
X123918707Y-87505713D01*
X123918711Y-87505711D01*
X123997116Y-87399475D01*
X124040725Y-87274849D01*
X124043500Y-87245256D01*
X124043500Y-86564744D01*
X124043343Y-86563072D01*
X124040725Y-86535150D01*
X123997115Y-86410523D01*
X123918711Y-86304289D01*
X123918710Y-86304288D01*
X123812476Y-86225884D01*
X123687848Y-86182274D01*
X123687849Y-86182274D01*
X123658260Y-86179500D01*
X123658256Y-86179500D01*
X123077744Y-86179500D01*
X123077740Y-86179500D01*
X123048150Y-86182274D01*
X122923523Y-86225884D01*
X122817289Y-86304288D01*
X122817288Y-86304289D01*
X122738884Y-86410523D01*
X122695274Y-86535150D01*
X122692500Y-86564739D01*
X122692500Y-87245260D01*
X122695274Y-87274849D01*
X122738884Y-87399476D01*
X122817288Y-87505710D01*
X122821993Y-87510415D01*
X122824703Y-87511653D01*
X122841075Y-87537128D01*
X122859384Y-87561242D01*
X122860511Y-87567372D01*
X122862477Y-87570431D01*
X122867500Y-87605366D01*
X122867500Y-87627187D01*
X122847815Y-87694226D01*
X122795011Y-87739981D01*
X122767692Y-87748804D01*
X122715770Y-87759132D01*
X122715769Y-87759132D01*
X122649447Y-87803447D01*
X122605132Y-87869769D01*
X122605131Y-87869770D01*
X122593500Y-87928247D01*
X122593500Y-89287052D01*
X122573815Y-89354091D01*
X122521011Y-89399846D01*
X122451853Y-89409790D01*
X122395190Y-89386319D01*
X122317437Y-89328113D01*
X121308456Y-90337094D01*
X121247133Y-90370579D01*
X121177441Y-90365595D01*
X121133094Y-90337094D01*
X121044000Y-90248000D01*
X120954905Y-90337095D01*
X120893582Y-90370580D01*
X120823890Y-90365596D01*
X120779543Y-90337095D01*
X119770561Y-89328113D01*
X119686817Y-89390805D01*
X119686808Y-89390814D01*
X119600649Y-89505906D01*
X119600645Y-89505913D01*
X119550403Y-89640620D01*
X119550401Y-89640627D01*
X119544000Y-89700155D01*
X119544000Y-90795844D01*
X119550401Y-90855372D01*
X119550403Y-90855379D01*
X119600645Y-90990086D01*
X119600649Y-90990093D01*
X119686809Y-91105187D01*
X119686812Y-91105190D01*
X119793811Y-91185290D01*
X119835682Y-91241223D01*
X119843500Y-91284556D01*
X119843500Y-92267752D01*
X119855131Y-92326229D01*
X119855132Y-92326230D01*
X119899448Y-92392553D01*
X119902959Y-92394899D01*
X119947764Y-92448512D01*
X119956470Y-92517837D01*
X119926314Y-92580864D01*
X119902959Y-92601101D01*
X119899448Y-92603446D01*
X119855132Y-92669769D01*
X119855131Y-92669770D01*
X119843500Y-92728247D01*
X119843500Y-93767752D01*
X119855131Y-93826229D01*
X119855132Y-93826230D01*
X119899448Y-93892553D01*
X119902959Y-93894899D01*
X119947764Y-93948512D01*
X119956470Y-94017837D01*
X119926314Y-94080864D01*
X119902959Y-94101101D01*
X119899448Y-94103446D01*
X119855132Y-94169769D01*
X119855131Y-94169770D01*
X119843500Y-94228247D01*
X119843500Y-94273500D01*
X119823815Y-94340539D01*
X119771011Y-94386294D01*
X119719500Y-94397500D01*
X116788544Y-94397500D01*
X116721505Y-94377815D01*
X116700863Y-94361181D01*
X112475319Y-90135637D01*
X112441834Y-90074314D01*
X112439000Y-90047956D01*
X112439000Y-89248000D01*
X120397551Y-89248000D01*
X121044000Y-89894448D01*
X121690448Y-89248000D01*
X120397551Y-89248000D01*
X112439000Y-89248000D01*
X112439000Y-82696473D01*
X112458685Y-82629434D01*
X112511489Y-82583679D01*
X112522048Y-82579431D01*
X112523981Y-82578754D01*
X112563882Y-82564793D01*
X112673150Y-82484150D01*
X112753793Y-82374882D01*
X112776219Y-82310790D01*
X112798646Y-82246701D01*
X112798646Y-82246699D01*
X112801500Y-82216269D01*
X112801500Y-81207730D01*
X112798646Y-81177300D01*
X112798646Y-81177298D01*
X112753793Y-81049119D01*
X112753792Y-81049117D01*
X112708665Y-80987972D01*
X112673150Y-80939850D01*
X112563882Y-80859207D01*
X112540813Y-80851134D01*
X112522044Y-80844567D01*
X112465269Y-80803845D01*
X112439522Y-80738892D01*
X112439000Y-80727526D01*
X112439000Y-80410473D01*
X112458685Y-80343434D01*
X112511489Y-80297679D01*
X112522048Y-80293431D01*
X112523981Y-80292754D01*
X112563882Y-80278793D01*
X112673150Y-80198150D01*
X112753793Y-80088882D01*
X112776219Y-80024790D01*
X112798646Y-79960701D01*
X112798646Y-79960699D01*
X112801500Y-79930269D01*
X112801500Y-78921730D01*
X112798646Y-78891300D01*
X112798646Y-78891298D01*
X112753793Y-78763119D01*
X112753792Y-78763117D01*
X112673150Y-78653850D01*
X112563882Y-78573207D01*
X112563880Y-78573206D01*
X112435700Y-78528353D01*
X112405270Y-78525500D01*
X112405266Y-78525500D01*
X111771734Y-78525500D01*
X111771730Y-78525500D01*
X111741300Y-78528353D01*
X111741298Y-78528353D01*
X111613119Y-78573206D01*
X111613117Y-78573207D01*
X111503850Y-78653850D01*
X111423207Y-78763117D01*
X111423206Y-78763119D01*
X111378353Y-78891298D01*
X111378353Y-78891300D01*
X111375500Y-78921730D01*
X111375500Y-79930269D01*
X111378353Y-79960699D01*
X111378353Y-79960701D01*
X111423206Y-80088880D01*
X111423207Y-80088882D01*
X111503850Y-80198150D01*
X111613115Y-80278791D01*
X111613118Y-80278793D01*
X111613121Y-80278794D01*
X111654952Y-80293431D01*
X111711729Y-80334151D01*
X111737478Y-80399103D01*
X111738000Y-80410473D01*
X111738000Y-80727526D01*
X111718315Y-80794565D01*
X111665511Y-80840320D01*
X111654956Y-80844567D01*
X111613118Y-80859207D01*
X111503850Y-80939850D01*
X111442776Y-81022602D01*
X111387128Y-81064853D01*
X111317472Y-81070311D01*
X111255923Y-81037243D01*
X111225300Y-80987972D01*
X111210358Y-80942880D01*
X111210356Y-80942875D01*
X111118315Y-80793654D01*
X110994345Y-80669684D01*
X110845124Y-80577643D01*
X110845119Y-80577641D01*
X110697467Y-80528714D01*
X110640022Y-80488941D01*
X110613199Y-80424425D01*
X110625514Y-80355650D01*
X110673057Y-80304450D01*
X110695508Y-80293970D01*
X110738882Y-80278793D01*
X110848150Y-80198150D01*
X110928793Y-80088882D01*
X110951219Y-80024790D01*
X110973646Y-79960701D01*
X110973646Y-79960699D01*
X110976500Y-79930269D01*
X110976500Y-78921730D01*
X110973646Y-78891300D01*
X110973646Y-78891298D01*
X110928793Y-78763119D01*
X110928792Y-78763117D01*
X110848150Y-78653850D01*
X110738882Y-78573207D01*
X110738880Y-78573206D01*
X110610700Y-78528353D01*
X110580270Y-78525500D01*
X110580266Y-78525500D01*
X110263597Y-78525500D01*
X110196558Y-78505815D01*
X110175916Y-78489181D01*
X109354162Y-77667427D01*
X109320677Y-77606104D01*
X109325661Y-77536412D01*
X109367533Y-77480479D01*
X109432997Y-77456062D01*
X109473931Y-77459970D01*
X109572943Y-77486501D01*
X109572946Y-77486501D01*
X109738654Y-77486501D01*
X109738670Y-77486500D01*
X112112943Y-77486500D01*
X113669903Y-77486500D01*
X113736942Y-77506185D01*
X113757584Y-77522819D01*
X115873181Y-79638416D01*
X115906666Y-79699739D01*
X115909500Y-79726097D01*
X115909500Y-83149330D01*
X115909499Y-83149348D01*
X115909499Y-83315054D01*
X115909498Y-83315054D01*
X115950423Y-83467785D01*
X115979358Y-83517900D01*
X115979359Y-83517904D01*
X115979360Y-83517904D01*
X116029479Y-83604714D01*
X116029481Y-83604717D01*
X116148349Y-83723585D01*
X116148355Y-83723590D01*
X117944139Y-85519374D01*
X117944149Y-85519385D01*
X117948479Y-85523715D01*
X117948480Y-85523716D01*
X118060284Y-85635520D01*
X118134562Y-85678404D01*
X118197215Y-85714577D01*
X118349943Y-85755501D01*
X118349946Y-85755501D01*
X118515653Y-85755501D01*
X118515669Y-85755500D01*
X122776200Y-85755500D01*
X122843239Y-85775185D01*
X122849826Y-85779724D01*
X122923524Y-85834115D01*
X122923525Y-85834116D01*
X123048151Y-85877725D01*
X123048150Y-85877725D01*
X123077740Y-85880500D01*
X123077744Y-85880500D01*
X123658260Y-85880500D01*
X123687849Y-85877725D01*
X123722014Y-85865770D01*
X123812475Y-85834116D01*
X123918711Y-85755711D01*
X123997116Y-85649475D01*
X124040725Y-85524849D01*
X124043500Y-85495256D01*
X124043500Y-84814744D01*
X124040725Y-84785151D01*
X124034532Y-84767454D01*
X123997115Y-84660523D01*
X123918711Y-84554289D01*
X123918710Y-84554288D01*
X123812476Y-84475884D01*
X123687848Y-84432274D01*
X123687849Y-84432274D01*
X123658260Y-84429500D01*
X123658256Y-84429500D01*
X123077744Y-84429500D01*
X123077740Y-84429500D01*
X123048150Y-84432274D01*
X122923525Y-84475883D01*
X122849833Y-84530271D01*
X122784204Y-84554241D01*
X122776200Y-84554500D01*
X118729097Y-84554500D01*
X118662058Y-84534815D01*
X118641416Y-84518181D01*
X117146819Y-83023584D01*
X117113334Y-82962261D01*
X117110500Y-82935903D01*
X117110500Y-79346945D01*
X117110500Y-79346943D01*
X117069577Y-79194216D01*
X117069573Y-79194209D01*
X116990524Y-79057290D01*
X116990521Y-79057286D01*
X116990520Y-79057284D01*
X116878716Y-78945480D01*
X116878715Y-78945479D01*
X116874385Y-78941149D01*
X116874374Y-78941139D01*
X115631416Y-77698181D01*
X115597931Y-77636858D01*
X115602915Y-77567166D01*
X115644787Y-77511233D01*
X115710251Y-77486816D01*
X115719097Y-77486500D01*
X127345331Y-77486500D01*
X127345347Y-77486501D01*
X127352943Y-77486501D01*
X127511054Y-77486501D01*
X127511057Y-77486501D01*
X127663785Y-77445577D01*
X127724586Y-77410473D01*
X127800716Y-77366520D01*
X127912520Y-77254716D01*
X127912520Y-77254714D01*
X127922724Y-77244511D01*
X127922728Y-77244506D01*
X129060506Y-76106728D01*
X129060511Y-76106724D01*
X129070714Y-76096520D01*
X129070716Y-76096520D01*
X129182520Y-75984716D01*
X129261577Y-75847785D01*
X129296725Y-75716610D01*
X129333091Y-75656952D01*
X129395938Y-75626423D01*
X129465313Y-75634718D01*
G37*
G04 #@! TD.AperFunction*
G04 #@! TA.AperFunction,Conductor*
G36*
X138732495Y-89448185D02*
G01*
X138753137Y-89464819D01*
X139491181Y-90202863D01*
X139524666Y-90264186D01*
X139527500Y-90290544D01*
X139527500Y-90884500D01*
X139507815Y-90951539D01*
X139455011Y-90997294D01*
X139403500Y-91008500D01*
X139373730Y-91008500D01*
X139343300Y-91011353D01*
X139343298Y-91011353D01*
X139215119Y-91056206D01*
X139215117Y-91056207D01*
X139105850Y-91136850D01*
X139025207Y-91246117D01*
X138979041Y-91378051D01*
X138938319Y-91434826D01*
X138873366Y-91460573D01*
X138804805Y-91447116D01*
X138754402Y-91398729D01*
X138744959Y-91378051D01*
X138698793Y-91246119D01*
X138698793Y-91246118D01*
X138618150Y-91136850D01*
X138508882Y-91056207D01*
X138508880Y-91056206D01*
X138380700Y-91011353D01*
X138350270Y-91008500D01*
X138350266Y-91008500D01*
X137341734Y-91008500D01*
X137341730Y-91008500D01*
X137311300Y-91011353D01*
X137311298Y-91011353D01*
X137183119Y-91056206D01*
X137183117Y-91056207D01*
X137073850Y-91136850D01*
X136993207Y-91246117D01*
X136993206Y-91246119D01*
X136969295Y-91314455D01*
X136928574Y-91371231D01*
X136863621Y-91396978D01*
X136852254Y-91397500D01*
X135883269Y-91397500D01*
X135816230Y-91377815D01*
X135770475Y-91325011D01*
X135760531Y-91255853D01*
X135789556Y-91192297D01*
X135808958Y-91174234D01*
X135901187Y-91105190D01*
X135901190Y-91105187D01*
X135987350Y-90990093D01*
X135987354Y-90990086D01*
X136037596Y-90855379D01*
X136037598Y-90855372D01*
X136043999Y-90795844D01*
X136044000Y-90795827D01*
X136044000Y-89700172D01*
X136043999Y-89700155D01*
X136037598Y-89640627D01*
X136037597Y-89640623D01*
X136020892Y-89595834D01*
X136015908Y-89526142D01*
X136049393Y-89464819D01*
X136110716Y-89431334D01*
X136137074Y-89428500D01*
X138665456Y-89428500D01*
X138732495Y-89448185D01*
G37*
G04 #@! TD.AperFunction*
G04 #@! TA.AperFunction,Conductor*
G36*
X153857185Y-83674150D02*
G01*
X153866147Y-83672862D01*
X153890187Y-83683840D01*
X153915539Y-83691285D01*
X153921466Y-83698125D01*
X153929703Y-83701887D01*
X153943992Y-83724121D01*
X153961294Y-83744089D01*
X153963581Y-83754603D01*
X153967477Y-83760665D01*
X153972500Y-83795600D01*
X153972500Y-83825369D01*
X153975353Y-83855799D01*
X153975353Y-83855801D01*
X154020206Y-83983980D01*
X154020207Y-83983982D01*
X154100850Y-84093250D01*
X154210118Y-84173893D01*
X154268330Y-84194262D01*
X154342051Y-84220059D01*
X154398826Y-84260781D01*
X154424573Y-84325734D01*
X154411116Y-84394295D01*
X154362729Y-84444698D01*
X154342051Y-84454141D01*
X154210117Y-84500307D01*
X154100850Y-84580950D01*
X154020207Y-84690217D01*
X154020206Y-84690219D01*
X153975353Y-84818398D01*
X153975353Y-84818400D01*
X153972500Y-84848830D01*
X153972500Y-84878600D01*
X153952815Y-84945639D01*
X153900011Y-84991394D01*
X153848500Y-85002600D01*
X137190756Y-85002600D01*
X137101612Y-85026486D01*
X137101611Y-85026486D01*
X137101609Y-85026487D01*
X137101606Y-85026488D01*
X137021694Y-85072626D01*
X137021685Y-85072633D01*
X136073347Y-86020970D01*
X136073346Y-86020971D01*
X133206181Y-88888137D01*
X133144858Y-88921622D01*
X133075166Y-88916638D01*
X133019233Y-88874766D01*
X132994816Y-88809302D01*
X132994500Y-88800456D01*
X132994500Y-87928249D01*
X132994499Y-87928247D01*
X132982868Y-87869770D01*
X132982867Y-87869769D01*
X132938551Y-87803446D01*
X132936074Y-87800969D01*
X132932399Y-87794239D01*
X132931767Y-87793293D01*
X132931851Y-87793236D01*
X132902589Y-87739646D01*
X132907573Y-87669954D01*
X132936074Y-87625607D01*
X134453509Y-86108172D01*
X136094470Y-84467212D01*
X136094470Y-84467211D01*
X136853762Y-83707919D01*
X136915085Y-83674434D01*
X136941443Y-83671600D01*
X153848500Y-83671600D01*
X153857185Y-83674150D01*
G37*
G04 #@! TD.AperFunction*
G04 #@! TA.AperFunction,Conductor*
G36*
X130764075Y-72422993D02*
G01*
X130829901Y-72537007D01*
X130922993Y-72630099D01*
X131037007Y-72695925D01*
X131100590Y-72712962D01*
X130468282Y-73345269D01*
X130468282Y-73345270D01*
X130522449Y-73384624D01*
X130711782Y-73481095D01*
X130887973Y-73538343D01*
X130945648Y-73577780D01*
X130972847Y-73642139D01*
X130960932Y-73710985D01*
X130913688Y-73762461D01*
X130897108Y-73770835D01*
X130732403Y-73839057D01*
X130560342Y-73954024D01*
X130414023Y-74100343D01*
X130408013Y-74109339D01*
X130354400Y-74154143D01*
X130285075Y-74162849D01*
X130222048Y-74132693D01*
X130208835Y-74118837D01*
X130202518Y-74111095D01*
X130171469Y-74057317D01*
X130106212Y-73992060D01*
X129402683Y-73288530D01*
X129402682Y-73288529D01*
X129402679Y-73288527D01*
X129357553Y-73262474D01*
X129309338Y-73211907D01*
X129296114Y-73143300D01*
X129322082Y-73078436D01*
X129350669Y-73051981D01*
X129359655Y-73045977D01*
X129505977Y-72899655D01*
X129620941Y-72727598D01*
X129689165Y-72562889D01*
X129733004Y-72508488D01*
X129799298Y-72486423D01*
X129866998Y-72503702D01*
X129914609Y-72554839D01*
X129921656Y-72572026D01*
X129978904Y-72748216D01*
X130075375Y-72937550D01*
X130114728Y-72991716D01*
X130747037Y-72359408D01*
X130764075Y-72422993D01*
G37*
G04 #@! TD.AperFunction*
G04 #@! TA.AperFunction,Conductor*
G36*
X136305166Y-92445127D02*
G01*
X136312592Y-92450130D01*
X136314305Y-92458920D01*
X136314199Y-92459394D01*
X136289561Y-92559307D01*
X136289281Y-92560265D01*
X136262697Y-92638621D01*
X136235282Y-92724022D01*
X136222659Y-92798149D01*
X136218506Y-92889948D01*
X136214709Y-92898058D01*
X136206818Y-92901119D01*
X135928783Y-92901119D01*
X135920510Y-92897692D01*
X135917122Y-92890372D01*
X135913612Y-92847435D01*
X135905137Y-92743746D01*
X135873295Y-92638600D01*
X135867218Y-92621786D01*
X135866957Y-92620969D01*
X135822234Y-92459647D01*
X135823326Y-92450760D01*
X135830383Y-92445247D01*
X135831160Y-92445061D01*
X136065674Y-92397472D01*
X136070326Y-92397472D01*
X136305166Y-92445127D01*
G37*
G04 #@! TD.AperFunction*
G04 #@! TA.AperFunction,Conductor*
G36*
X138914569Y-95293388D02*
G01*
X138915271Y-95293818D01*
X139114730Y-95425983D01*
X139118018Y-95429271D01*
X139250377Y-95629025D01*
X139252090Y-95637815D01*
X139247087Y-95645241D01*
X139246676Y-95645501D01*
X139158608Y-95698728D01*
X139157732Y-95699208D01*
X139083552Y-95735803D01*
X139003744Y-95776823D01*
X138942421Y-95820301D01*
X138874563Y-95882283D01*
X138866143Y-95885332D01*
X138858399Y-95881917D01*
X138661799Y-95685317D01*
X138658372Y-95677044D01*
X138661150Y-95669475D01*
X138756358Y-95557318D01*
X138808192Y-95460454D01*
X138815785Y-95444264D01*
X138816183Y-95443494D01*
X138898626Y-95297807D01*
X138905681Y-95292296D01*
X138914569Y-95293388D01*
G37*
G04 #@! TD.AperFunction*
G04 #@! TA.AperFunction,Conductor*
G36*
X131040569Y-87165388D02*
G01*
X131041271Y-87165818D01*
X131240730Y-87297983D01*
X131244018Y-87301271D01*
X131376377Y-87501025D01*
X131378090Y-87509815D01*
X131373087Y-87517241D01*
X131372676Y-87517501D01*
X131284608Y-87570728D01*
X131283732Y-87571208D01*
X131209552Y-87607803D01*
X131129744Y-87648823D01*
X131068421Y-87692301D01*
X131000563Y-87754283D01*
X130992143Y-87757332D01*
X130984399Y-87753917D01*
X130787799Y-87557317D01*
X130784372Y-87549044D01*
X130787150Y-87541475D01*
X130882358Y-87429318D01*
X130934192Y-87332454D01*
X130941785Y-87316264D01*
X130942183Y-87315494D01*
X131024626Y-87169807D01*
X131031681Y-87164296D01*
X131040569Y-87165388D01*
G37*
G04 #@! TD.AperFunction*
G04 #@! TA.AperFunction,Conductor*
G36*
X131245600Y-77194082D02*
G01*
X131442200Y-77390682D01*
X131445627Y-77398955D01*
X131442846Y-77406527D01*
X131347640Y-77518682D01*
X131347639Y-77518683D01*
X131347638Y-77518685D01*
X131295814Y-77615531D01*
X131288219Y-77631723D01*
X131287809Y-77632516D01*
X131205375Y-77778190D01*
X131198318Y-77783703D01*
X131189430Y-77782611D01*
X131188729Y-77782181D01*
X131081849Y-77711361D01*
X130989269Y-77650016D01*
X130985983Y-77646730D01*
X130853622Y-77446974D01*
X130851909Y-77438184D01*
X130856912Y-77430758D01*
X130857309Y-77430506D01*
X130945400Y-77377265D01*
X130946259Y-77376794D01*
X131020454Y-77340192D01*
X131100249Y-77299178D01*
X131161588Y-77255689D01*
X131229437Y-77193715D01*
X131237856Y-77190667D01*
X131245600Y-77194082D01*
G37*
G04 #@! TD.AperFunction*
G04 #@! TA.AperFunction,Conductor*
G36*
X135268525Y-88693389D02*
G01*
X135269183Y-88694509D01*
X135297519Y-88749497D01*
X135298251Y-88751255D01*
X135317901Y-88812003D01*
X135335865Y-88865838D01*
X135335867Y-88865841D01*
X135335868Y-88865844D01*
X135370270Y-88909441D01*
X135379314Y-88913236D01*
X135403002Y-88923179D01*
X135403004Y-88923179D01*
X135403006Y-88923180D01*
X135439406Y-88926920D01*
X135447285Y-88931175D01*
X135449909Y-88938559D01*
X135449909Y-89215480D01*
X135446482Y-89223753D01*
X135438209Y-89227180D01*
X135437418Y-89227153D01*
X135366611Y-89222355D01*
X135364633Y-89222049D01*
X135303973Y-89207259D01*
X135301337Y-89206268D01*
X135208766Y-89158020D01*
X135208363Y-89157800D01*
X135135085Y-89115865D01*
X135135079Y-89115862D01*
X135077398Y-89092624D01*
X135077383Y-89092619D01*
X135077380Y-89092618D01*
X135013087Y-89075887D01*
X135005944Y-89070488D01*
X135004550Y-89062327D01*
X135028673Y-88938559D01*
X135050065Y-88828796D01*
X135055010Y-88821332D01*
X135252305Y-88690125D01*
X135261091Y-88688398D01*
X135268525Y-88693389D01*
G37*
G04 #@! TD.AperFunction*
G04 #@! TA.AperFunction,Conductor*
G36*
X131697239Y-86039326D02*
G01*
X131702752Y-86046383D01*
X131702943Y-86047182D01*
X131750527Y-86281673D01*
X131750527Y-86286327D01*
X131702872Y-86521166D01*
X131697869Y-86528592D01*
X131689079Y-86530305D01*
X131688605Y-86530199D01*
X131588691Y-86505561D01*
X131587733Y-86505281D01*
X131509377Y-86478696D01*
X131423978Y-86451282D01*
X131349846Y-86438659D01*
X131349854Y-86438659D01*
X131258052Y-86434505D01*
X131249942Y-86430708D01*
X131246881Y-86422817D01*
X131246881Y-86144782D01*
X131250308Y-86136509D01*
X131257626Y-86133121D01*
X131404253Y-86121137D01*
X131509399Y-86089296D01*
X131526227Y-86083213D01*
X131527021Y-86082959D01*
X131688351Y-86038234D01*
X131697239Y-86039326D01*
G37*
G04 #@! TD.AperFunction*
M02*
