M48
; DRILL file {KiCad 9.0.7} date 2026-02-19T11:55:33-0600
; FORMAT={-:-/ absolute / inch / decimal}
; #@! TF.CreationDate,2026-02-19T11:55:33-06:00
; #@! TF.GenerationSoftware,Kicad,Pcbnew,9.0.7
; #@! TF.FileFunction,Plated,1,2,PTH
FMAT,2
INCH
; #@! TA.AperFunction,Plated,PTH,ViaDrill
T1C0.0100
; #@! TA.AperFunction,Plated,PTH,ViaDrill
T2C0.0118
; #@! TA.AperFunction,Plated,PTH,ComponentDrill
T3C0.0394
%
G90
G05
T1
X4.037Y-3.037
X4.037Y-3.237
X4.037Y-3.437
X4.037Y-3.637
X4.2053Y-3.0387
X4.217Y-2.787
X4.237Y-3.237
X4.237Y-3.437
X4.237Y-3.637
X4.237Y-3.837
X4.257Y-3.097
X4.307Y-3.167
X4.317Y-2.787
X4.317Y-2.897
X4.337Y-3.067
X4.377Y-3.167
X4.377Y-3.287
X4.417Y-2.977
X4.437Y-3.437
X4.437Y-3.637
X4.437Y-3.837
X4.438Y-3.1758
X4.447Y-3.547
X4.497Y-3.0871
X4.517Y-3.617
X4.537Y-3.137
X4.537Y-3.737
X4.547Y-3.287
X4.577Y-3.677
X4.597Y-3.067
X4.607Y-2.887
X4.627Y-3.697
X4.637Y-3.137
X4.637Y-3.397
X4.647Y-3.757
X4.667Y-3.297
X4.687Y-3.817
X4.697Y-3.697
X4.717Y-2.797
X4.737Y-3.397
X4.787Y-3.067
X4.8165Y-3.507
X4.817Y-2.987
X4.817Y-3.307
X4.817Y-3.397
X4.847Y-3.177
X4.917Y-3.437
X4.987Y-3.067
X5.017Y-2.807
X5.067Y-3.187
X5.067Y-3.297
X5.077Y-3.047
X5.117Y-3.357
X5.147Y-3.017
X5.157Y-3.057
X5.167Y-3.437
X5.187Y-3.397
X5.207Y-3.067
X5.207Y-3.187
X5.207Y-3.337
X5.2478Y-3.477
X5.307Y-3.287
X5.317Y-2.897
X5.317Y-3.127
X5.317Y-3.497
X5.3332Y-3.467
X5.347Y-3.377
X5.357Y-3.6377
X5.377Y-3.837
X5.3881Y-3.647
X5.417Y-2.797
X5.437Y-3.437
X5.477Y-3.237
X5.477Y-3.3204
X5.477Y-3.557
X5.477Y-3.757
X5.487Y-3.037
X5.517Y-2.817
X5.537Y-3.837
X5.557Y-3.037
X5.557Y-3.137
X5.557Y-3.237
X5.557Y-3.3204
X5.557Y-3.437
X5.557Y-3.537
X5.557Y-3.647
X5.557Y-3.727
X5.597Y-2.897
X5.617Y-2.987
X5.737Y-3.037
X5.737Y-3.237
X5.737Y-3.437
X5.737Y-3.637
X5.737Y-3.837
X5.7959Y-3.3204
X5.937Y-3.037
X5.937Y-3.237
X5.937Y-3.437
X5.937Y-3.637
X5.937Y-3.837
X6.017Y-2.897
X6.0459Y-3.3204
X6.117Y-2.807
X6.127Y-3.317
X6.137Y-3.037
X6.137Y-3.237
X6.137Y-3.437
X6.137Y-3.637
X6.137Y-3.837
X6.2059Y-3.3204
X6.337Y-3.037
X6.337Y-3.237
X6.337Y-3.3204
X6.337Y-3.437
X6.337Y-3.637
X6.467Y-3.037
X6.467Y-3.137
X6.467Y-3.3204
X6.467Y-3.437
X6.467Y-3.637
T2
X4.677Y-3.907
X4.697Y-3.557
X5.0313Y-3.4428
X5.3766Y-3.9074
X5.377Y-3.737
X5.3865Y-3.5531
T3
X4.2665Y-2.8437
X4.2665Y-2.9437
X4.3665Y-2.8437
X4.3665Y-2.9437
X4.4665Y-2.8437
X4.4665Y-2.9437
X4.5665Y-2.8437
X4.5665Y-2.9437
X4.6665Y-2.8437
X4.6665Y-2.9437
X4.7665Y-2.8437
X4.7665Y-2.9437
X4.8665Y-2.8437
X4.8665Y-2.9437
X4.9665Y-2.8437
X4.9665Y-2.9437
X5.0665Y-2.8437
X5.0665Y-2.9437
X5.1665Y-2.8437
X5.1665Y-2.9437
X5.2665Y-2.8437
X5.2665Y-2.9437
X5.3665Y-2.8437
X5.3665Y-2.9437
X5.4665Y-2.8437
X5.4665Y-2.9437
X5.5665Y-2.8437
X5.5665Y-2.9437
X5.6665Y-2.8437
X5.6665Y-2.9437
X5.7665Y-2.8437
X5.7665Y-2.9437
X5.8665Y-2.8437
X5.8665Y-2.9437
X5.9665Y-2.8437
X5.9665Y-2.9437
X6.0665Y-2.8437
X6.0665Y-2.9437
X6.1665Y-2.8437
X6.1665Y-2.9437
M30
